%TF.GenerationSoftware,KiCad,Pcbnew,(6.0.8-1)-1*%
%TF.CreationDate,2024-01-05T11:23:30-06:00*%
%TF.ProjectId,Pico Robotic Controller,5069636f-2052-46f6-926f-74696320436f,V2*%
%TF.SameCoordinates,Original*%
%TF.FileFunction,Legend,Top*%
%TF.FilePolarity,Positive*%
%FSLAX46Y46*%
G04 Gerber Fmt 4.6, Leading zero omitted, Abs format (unit mm)*
G04 Created by KiCad (PCBNEW (6.0.8-1)-1) date 2024-01-05 11:23:30*
%MOMM*%
%LPD*%
G01*
G04 APERTURE LIST*
%ADD10C,0.170000*%
%ADD11C,0.160000*%
%ADD12C,0.150000*%
%ADD13C,0.254000*%
%ADD14C,0.120000*%
%ADD15C,0.200000*%
%ADD16C,0.100000*%
G04 APERTURE END LIST*
D10*
X161140342Y-41875142D02*
X161540342Y-42446571D01*
X161826057Y-41875142D02*
X161826057Y-43075142D01*
X161368914Y-43075142D01*
X161254628Y-43018000D01*
X161197485Y-42960857D01*
X161140342Y-42846571D01*
X161140342Y-42675142D01*
X161197485Y-42560857D01*
X161254628Y-42503714D01*
X161368914Y-42446571D01*
X161826057Y-42446571D01*
X160626057Y-42503714D02*
X160226057Y-42503714D01*
X160054628Y-41875142D02*
X160626057Y-41875142D01*
X160626057Y-43075142D01*
X160054628Y-43075142D01*
X159597485Y-41932285D02*
X159426057Y-41875142D01*
X159140342Y-41875142D01*
X159026057Y-41932285D01*
X158968914Y-41989428D01*
X158911771Y-42103714D01*
X158911771Y-42218000D01*
X158968914Y-42332285D01*
X159026057Y-42389428D01*
X159140342Y-42446571D01*
X159368914Y-42503714D01*
X159483200Y-42560857D01*
X159540342Y-42618000D01*
X159597485Y-42732285D01*
X159597485Y-42846571D01*
X159540342Y-42960857D01*
X159483200Y-43018000D01*
X159368914Y-43075142D01*
X159083200Y-43075142D01*
X158911771Y-43018000D01*
X158397485Y-42503714D02*
X157997485Y-42503714D01*
X157826057Y-41875142D02*
X158397485Y-41875142D01*
X158397485Y-43075142D01*
X157826057Y-43075142D01*
X157483200Y-43075142D02*
X156797485Y-43075142D01*
X157140342Y-41875142D02*
X157140342Y-43075142D01*
X155540342Y-41932285D02*
X155368914Y-41875142D01*
X155083200Y-41875142D01*
X154968914Y-41932285D01*
X154911771Y-41989428D01*
X154854628Y-42103714D01*
X154854628Y-42218000D01*
X154911771Y-42332285D01*
X154968914Y-42389428D01*
X155083200Y-42446571D01*
X155311771Y-42503714D01*
X155426057Y-42560857D01*
X155483200Y-42618000D01*
X155540342Y-42732285D01*
X155540342Y-42846571D01*
X155483200Y-42960857D01*
X155426057Y-43018000D01*
X155311771Y-43075142D01*
X155026057Y-43075142D01*
X154854628Y-43018000D01*
X154454628Y-43075142D02*
X154168914Y-41875142D01*
X153940342Y-42732285D01*
X153711771Y-41875142D01*
X153426057Y-43075142D01*
X193963857Y-73878685D02*
X192763857Y-73878685D01*
X192763857Y-73592971D01*
X192821000Y-73421542D01*
X192935285Y-73307257D01*
X193049571Y-73250114D01*
X193278142Y-73192971D01*
X193449571Y-73192971D01*
X193678142Y-73250114D01*
X193792428Y-73307257D01*
X193906714Y-73421542D01*
X193963857Y-73592971D01*
X193963857Y-73878685D01*
X193963857Y-72678685D02*
X192763857Y-72678685D01*
X192763857Y-71878685D02*
X192763857Y-71650114D01*
X192821000Y-71535828D01*
X192935285Y-71421542D01*
X193163857Y-71364400D01*
X193563857Y-71364400D01*
X193792428Y-71421542D01*
X193906714Y-71535828D01*
X193963857Y-71650114D01*
X193963857Y-71878685D01*
X193906714Y-71992971D01*
X193792428Y-72107257D01*
X193563857Y-72164400D01*
X193163857Y-72164400D01*
X192935285Y-72107257D01*
X192821000Y-71992971D01*
X192763857Y-71878685D01*
X192763857Y-70621542D02*
X192763857Y-70507257D01*
X192821000Y-70392971D01*
X192878142Y-70335828D01*
X192992428Y-70278685D01*
X193221000Y-70221542D01*
X193506714Y-70221542D01*
X193735285Y-70278685D01*
X193849571Y-70335828D01*
X193906714Y-70392971D01*
X193963857Y-70507257D01*
X193963857Y-70621542D01*
X193906714Y-70735828D01*
X193849571Y-70792971D01*
X193735285Y-70850114D01*
X193506714Y-70907257D01*
X193221000Y-70907257D01*
X192992428Y-70850114D01*
X192878142Y-70792971D01*
X192821000Y-70735828D01*
X192763857Y-70621542D01*
X193506714Y-69707257D02*
X193506714Y-68792971D01*
X192763857Y-68335828D02*
X192763857Y-67592971D01*
X193221000Y-67992971D01*
X193221000Y-67821542D01*
X193278142Y-67707257D01*
X193335285Y-67650114D01*
X193449571Y-67592971D01*
X193735285Y-67592971D01*
X193849571Y-67650114D01*
X193906714Y-67707257D01*
X193963857Y-67821542D01*
X193963857Y-68164400D01*
X193906714Y-68278685D01*
X193849571Y-68335828D01*
X188502857Y-53460314D02*
X187302857Y-53460314D01*
X188502857Y-52774600D01*
X187302857Y-52774600D01*
X187874285Y-52203171D02*
X187874285Y-51803171D01*
X188502857Y-51631742D02*
X188502857Y-52203171D01*
X187302857Y-52203171D01*
X187302857Y-51631742D01*
X187302857Y-50888885D02*
X187302857Y-50660314D01*
X187360000Y-50546028D01*
X187474285Y-50431742D01*
X187702857Y-50374600D01*
X188102857Y-50374600D01*
X188331428Y-50431742D01*
X188445714Y-50546028D01*
X188502857Y-50660314D01*
X188502857Y-50888885D01*
X188445714Y-51003171D01*
X188331428Y-51117457D01*
X188102857Y-51174600D01*
X187702857Y-51174600D01*
X187474285Y-51117457D01*
X187360000Y-51003171D01*
X187302857Y-50888885D01*
X188502857Y-49860314D02*
X187302857Y-49860314D01*
X187302857Y-49403171D01*
X187360000Y-49288885D01*
X187417142Y-49231742D01*
X187531428Y-49174600D01*
X187702857Y-49174600D01*
X187817142Y-49231742D01*
X187874285Y-49288885D01*
X187931428Y-49403171D01*
X187931428Y-49860314D01*
X187302857Y-48774600D02*
X188502857Y-47974600D01*
X187302857Y-47974600D02*
X188502857Y-48774600D01*
X175854142Y-150758457D02*
X175854142Y-149558457D01*
X176254142Y-150415600D01*
X176654142Y-149558457D01*
X176654142Y-150758457D01*
X177054142Y-149558457D02*
X177739857Y-149558457D01*
X177397000Y-150758457D02*
X177397000Y-149558457D01*
X178825571Y-150758457D02*
X178425571Y-150187028D01*
X178139857Y-150758457D02*
X178139857Y-149558457D01*
X178597000Y-149558457D01*
X178711285Y-149615600D01*
X178768428Y-149672742D01*
X178825571Y-149787028D01*
X178825571Y-149958457D01*
X178768428Y-150072742D01*
X178711285Y-150129885D01*
X178597000Y-150187028D01*
X178139857Y-150187028D01*
X179568428Y-149558457D02*
X179682714Y-149558457D01*
X179797000Y-149615600D01*
X179854142Y-149672742D01*
X179911285Y-149787028D01*
X179968428Y-150015600D01*
X179968428Y-150301314D01*
X179911285Y-150529885D01*
X179854142Y-150644171D01*
X179797000Y-150701314D01*
X179682714Y-150758457D01*
X179568428Y-150758457D01*
X179454142Y-150701314D01*
X179397000Y-150644171D01*
X179339857Y-150529885D01*
X179282714Y-150301314D01*
X179282714Y-150015600D01*
X179339857Y-149787028D01*
X179397000Y-149672742D01*
X179454142Y-149615600D01*
X179568428Y-149558457D01*
X180482714Y-150301314D02*
X181397000Y-150301314D01*
X181854142Y-149558457D02*
X182597000Y-149558457D01*
X182197000Y-150015600D01*
X182368428Y-150015600D01*
X182482714Y-150072742D01*
X182539857Y-150129885D01*
X182597000Y-150244171D01*
X182597000Y-150529885D01*
X182539857Y-150644171D01*
X182482714Y-150701314D01*
X182368428Y-150758457D01*
X182025571Y-150758457D01*
X181911285Y-150701314D01*
X181854142Y-150644171D01*
X193906714Y-139108885D02*
X193963857Y-138937457D01*
X193963857Y-138651742D01*
X193906714Y-138537457D01*
X193849571Y-138480314D01*
X193735285Y-138423171D01*
X193621000Y-138423171D01*
X193506714Y-138480314D01*
X193449571Y-138537457D01*
X193392428Y-138651742D01*
X193335285Y-138880314D01*
X193278142Y-138994600D01*
X193221000Y-139051742D01*
X193106714Y-139108885D01*
X192992428Y-139108885D01*
X192878142Y-139051742D01*
X192821000Y-138994600D01*
X192763857Y-138880314D01*
X192763857Y-138594600D01*
X192821000Y-138423171D01*
X193335285Y-137908885D02*
X193335285Y-137508885D01*
X193963857Y-137337457D02*
X193963857Y-137908885D01*
X192763857Y-137908885D01*
X192763857Y-137337457D01*
X193963857Y-136137457D02*
X193392428Y-136537457D01*
X193963857Y-136823171D02*
X192763857Y-136823171D01*
X192763857Y-136366028D01*
X192821000Y-136251742D01*
X192878142Y-136194600D01*
X192992428Y-136137457D01*
X193163857Y-136137457D01*
X193278142Y-136194600D01*
X193335285Y-136251742D01*
X193392428Y-136366028D01*
X193392428Y-136823171D01*
X192763857Y-135794600D02*
X193963857Y-135394600D01*
X192763857Y-134994600D01*
X192763857Y-134366028D02*
X192763857Y-134137457D01*
X192821000Y-134023171D01*
X192935285Y-133908885D01*
X193163857Y-133851742D01*
X193563857Y-133851742D01*
X193792428Y-133908885D01*
X193906714Y-134023171D01*
X193963857Y-134137457D01*
X193963857Y-134366028D01*
X193906714Y-134480314D01*
X193792428Y-134594600D01*
X193563857Y-134651742D01*
X193163857Y-134651742D01*
X192935285Y-134594600D01*
X192821000Y-134480314D01*
X192763857Y-134366028D01*
X192763857Y-133108885D02*
X192763857Y-132994600D01*
X192821000Y-132880314D01*
X192878142Y-132823171D01*
X192992428Y-132766028D01*
X193221000Y-132708885D01*
X193506714Y-132708885D01*
X193735285Y-132766028D01*
X193849571Y-132823171D01*
X193906714Y-132880314D01*
X193963857Y-132994600D01*
X193963857Y-133108885D01*
X193906714Y-133223171D01*
X193849571Y-133280314D01*
X193735285Y-133337457D01*
X193506714Y-133394600D01*
X193221000Y-133394600D01*
X192992428Y-133337457D01*
X192878142Y-133280314D01*
X192821000Y-133223171D01*
X192763857Y-133108885D01*
X193506714Y-132194600D02*
X193506714Y-131280314D01*
X192763857Y-130823171D02*
X192763857Y-130080314D01*
X193221000Y-130480314D01*
X193221000Y-130308885D01*
X193278142Y-130194600D01*
X193335285Y-130137457D01*
X193449571Y-130080314D01*
X193735285Y-130080314D01*
X193849571Y-130137457D01*
X193906714Y-130194600D01*
X193963857Y-130308885D01*
X193963857Y-130651742D01*
X193906714Y-130766028D01*
X193849571Y-130823171D01*
X193906714Y-128720228D02*
X193963857Y-128548800D01*
X193963857Y-128263085D01*
X193906714Y-128148800D01*
X193849571Y-128091657D01*
X193735285Y-128034514D01*
X193621000Y-128034514D01*
X193506714Y-128091657D01*
X193449571Y-128148800D01*
X193392428Y-128263085D01*
X193335285Y-128491657D01*
X193278142Y-128605942D01*
X193221000Y-128663085D01*
X193106714Y-128720228D01*
X192992428Y-128720228D01*
X192878142Y-128663085D01*
X192821000Y-128605942D01*
X192763857Y-128491657D01*
X192763857Y-128205942D01*
X192821000Y-128034514D01*
X193335285Y-127520228D02*
X193335285Y-127120228D01*
X193963857Y-126948800D02*
X193963857Y-127520228D01*
X192763857Y-127520228D01*
X192763857Y-126948800D01*
X193963857Y-125748800D02*
X193392428Y-126148800D01*
X193963857Y-126434514D02*
X192763857Y-126434514D01*
X192763857Y-125977371D01*
X192821000Y-125863085D01*
X192878142Y-125805942D01*
X192992428Y-125748800D01*
X193163857Y-125748800D01*
X193278142Y-125805942D01*
X193335285Y-125863085D01*
X193392428Y-125977371D01*
X193392428Y-126434514D01*
X192763857Y-125405942D02*
X193963857Y-125005942D01*
X192763857Y-124605942D01*
X192763857Y-123977371D02*
X192763857Y-123748800D01*
X192821000Y-123634514D01*
X192935285Y-123520228D01*
X193163857Y-123463085D01*
X193563857Y-123463085D01*
X193792428Y-123520228D01*
X193906714Y-123634514D01*
X193963857Y-123748800D01*
X193963857Y-123977371D01*
X193906714Y-124091657D01*
X193792428Y-124205942D01*
X193563857Y-124263085D01*
X193163857Y-124263085D01*
X192935285Y-124205942D01*
X192821000Y-124091657D01*
X192763857Y-123977371D01*
X193963857Y-122034514D02*
X192763857Y-122034514D01*
X192763857Y-121577371D01*
X192821000Y-121463085D01*
X192878142Y-121405942D01*
X192992428Y-121348800D01*
X193163857Y-121348800D01*
X193278142Y-121405942D01*
X193335285Y-121463085D01*
X193392428Y-121577371D01*
X193392428Y-122034514D01*
X192763857Y-120948800D02*
X193963857Y-120663085D01*
X193106714Y-120434514D01*
X193963857Y-120205942D01*
X192763857Y-119920228D01*
X193963857Y-118777371D02*
X193392428Y-119177371D01*
X193963857Y-119463085D02*
X192763857Y-119463085D01*
X192763857Y-119005942D01*
X192821000Y-118891657D01*
X192878142Y-118834514D01*
X192992428Y-118777371D01*
X193163857Y-118777371D01*
X193278142Y-118834514D01*
X193335285Y-118891657D01*
X193392428Y-119005942D01*
X193392428Y-119463085D01*
D11*
X164607142Y-116863028D02*
X164550000Y-116805885D01*
X164492857Y-116691600D01*
X164492857Y-116405885D01*
X164550000Y-116291600D01*
X164607142Y-116234457D01*
X164721428Y-116177314D01*
X164835714Y-116177314D01*
X165007142Y-116234457D01*
X165692857Y-116920171D01*
X165692857Y-116177314D01*
X165235714Y-115663028D02*
X165235714Y-114748742D01*
X164892857Y-113663028D02*
X165692857Y-113663028D01*
X164435714Y-113948742D02*
X165292857Y-114234457D01*
X165292857Y-113491600D01*
X165235714Y-113034457D02*
X165235714Y-112120171D01*
X164492857Y-111034457D02*
X164492857Y-111263028D01*
X164550000Y-111377314D01*
X164607142Y-111434457D01*
X164778571Y-111548742D01*
X165007142Y-111605885D01*
X165464285Y-111605885D01*
X165578571Y-111548742D01*
X165635714Y-111491600D01*
X165692857Y-111377314D01*
X165692857Y-111148742D01*
X165635714Y-111034457D01*
X165578571Y-110977314D01*
X165464285Y-110920171D01*
X165178571Y-110920171D01*
X165064285Y-110977314D01*
X165007142Y-111034457D01*
X164950000Y-111148742D01*
X164950000Y-111377314D01*
X165007142Y-111491600D01*
X165064285Y-111548742D01*
X165178571Y-111605885D01*
X165235714Y-110405885D02*
X165235714Y-109491600D01*
X165007142Y-108748742D02*
X164950000Y-108863028D01*
X164892857Y-108920171D01*
X164778571Y-108977314D01*
X164721428Y-108977314D01*
X164607142Y-108920171D01*
X164550000Y-108863028D01*
X164492857Y-108748742D01*
X164492857Y-108520171D01*
X164550000Y-108405885D01*
X164607142Y-108348742D01*
X164721428Y-108291600D01*
X164778571Y-108291600D01*
X164892857Y-108348742D01*
X164950000Y-108405885D01*
X165007142Y-108520171D01*
X165007142Y-108748742D01*
X165064285Y-108863028D01*
X165121428Y-108920171D01*
X165235714Y-108977314D01*
X165464285Y-108977314D01*
X165578571Y-108920171D01*
X165635714Y-108863028D01*
X165692857Y-108748742D01*
X165692857Y-108520171D01*
X165635714Y-108405885D01*
X165578571Y-108348742D01*
X165464285Y-108291600D01*
X165235714Y-108291600D01*
X165121428Y-108348742D01*
X165064285Y-108405885D01*
X165007142Y-108520171D01*
X166424857Y-116920171D02*
X167624857Y-116634457D01*
X166767714Y-116405885D01*
X167624857Y-116177314D01*
X166424857Y-115891600D01*
X167624857Y-115434457D02*
X166424857Y-115434457D01*
X167624857Y-114920171D02*
X166996285Y-114920171D01*
X166882000Y-114977314D01*
X166824857Y-115091600D01*
X166824857Y-115263028D01*
X166882000Y-115377314D01*
X166939142Y-115434457D01*
X167624857Y-114177314D02*
X167567714Y-114291600D01*
X167510571Y-114348742D01*
X167396285Y-114405885D01*
X167053428Y-114405885D01*
X166939142Y-114348742D01*
X166882000Y-114291600D01*
X166824857Y-114177314D01*
X166824857Y-114005885D01*
X166882000Y-113891600D01*
X166939142Y-113834457D01*
X167053428Y-113777314D01*
X167396285Y-113777314D01*
X167510571Y-113834457D01*
X167567714Y-113891600D01*
X167624857Y-114005885D01*
X167624857Y-114177314D01*
X167624857Y-111834457D02*
X166424857Y-111834457D01*
X167567714Y-111834457D02*
X167624857Y-111948742D01*
X167624857Y-112177314D01*
X167567714Y-112291600D01*
X167510571Y-112348742D01*
X167396285Y-112405885D01*
X167053428Y-112405885D01*
X166939142Y-112348742D01*
X166882000Y-112291600D01*
X166824857Y-112177314D01*
X166824857Y-111948742D01*
X166882000Y-111834457D01*
X167624857Y-111091600D02*
X167567714Y-111205885D01*
X167510571Y-111263028D01*
X167396285Y-111320171D01*
X167053428Y-111320171D01*
X166939142Y-111263028D01*
X166882000Y-111205885D01*
X166824857Y-111091600D01*
X166824857Y-110920171D01*
X166882000Y-110805885D01*
X166939142Y-110748742D01*
X167053428Y-110691600D01*
X167396285Y-110691600D01*
X167510571Y-110748742D01*
X167567714Y-110805885D01*
X167624857Y-110920171D01*
X167624857Y-111091600D01*
X166824857Y-109377314D02*
X167624857Y-109148742D01*
X167053428Y-108920171D01*
X167624857Y-108691600D01*
X166824857Y-108463028D01*
X167567714Y-107548742D02*
X167624857Y-107663028D01*
X167624857Y-107891600D01*
X167567714Y-108005885D01*
X167453428Y-108063028D01*
X166996285Y-108063028D01*
X166882000Y-108005885D01*
X166824857Y-107891600D01*
X166824857Y-107663028D01*
X166882000Y-107548742D01*
X166996285Y-107491600D01*
X167110571Y-107491600D01*
X167224857Y-108063028D01*
X167282000Y-106120171D02*
X167282000Y-105548742D01*
X167624857Y-106234457D02*
X166424857Y-105834457D01*
X167624857Y-105434457D01*
X166824857Y-105034457D02*
X168024857Y-105034457D01*
X166882000Y-105034457D02*
X166824857Y-104920171D01*
X166824857Y-104691600D01*
X166882000Y-104577314D01*
X166939142Y-104520171D01*
X167053428Y-104463028D01*
X167396285Y-104463028D01*
X167510571Y-104520171D01*
X167567714Y-104577314D01*
X167624857Y-104691600D01*
X167624857Y-104920171D01*
X167567714Y-105034457D01*
X166824857Y-103948742D02*
X168024857Y-103948742D01*
X166882000Y-103948742D02*
X166824857Y-103834457D01*
X166824857Y-103605885D01*
X166882000Y-103491600D01*
X166939142Y-103434457D01*
X167053428Y-103377314D01*
X167396285Y-103377314D01*
X167510571Y-103434457D01*
X167567714Y-103491600D01*
X167624857Y-103605885D01*
X167624857Y-103834457D01*
X167567714Y-103948742D01*
X167624857Y-102863028D02*
X166824857Y-102863028D01*
X167053428Y-102863028D02*
X166939142Y-102805885D01*
X166882000Y-102748742D01*
X166824857Y-102634457D01*
X166824857Y-102520171D01*
X167567714Y-101663028D02*
X167624857Y-101777314D01*
X167624857Y-102005885D01*
X167567714Y-102120171D01*
X167453428Y-102177314D01*
X166996285Y-102177314D01*
X166882000Y-102120171D01*
X166824857Y-102005885D01*
X166824857Y-101777314D01*
X166882000Y-101663028D01*
X166996285Y-101605885D01*
X167110571Y-101605885D01*
X167224857Y-102177314D01*
X167567714Y-100577314D02*
X167624857Y-100691600D01*
X167624857Y-100920171D01*
X167567714Y-101034457D01*
X167510571Y-101091600D01*
X167396285Y-101148742D01*
X167053428Y-101148742D01*
X166939142Y-101091600D01*
X166882000Y-101034457D01*
X166824857Y-100920171D01*
X166824857Y-100691600D01*
X166882000Y-100577314D01*
X167624857Y-100063028D02*
X166824857Y-100063028D01*
X166424857Y-100063028D02*
X166482000Y-100120171D01*
X166539142Y-100063028D01*
X166482000Y-100005885D01*
X166424857Y-100063028D01*
X166539142Y-100063028D01*
X167624857Y-98977314D02*
X166996285Y-98977314D01*
X166882000Y-99034457D01*
X166824857Y-99148742D01*
X166824857Y-99377314D01*
X166882000Y-99491600D01*
X167567714Y-98977314D02*
X167624857Y-99091600D01*
X167624857Y-99377314D01*
X167567714Y-99491600D01*
X167453428Y-99548742D01*
X167339142Y-99548742D01*
X167224857Y-99491600D01*
X167167714Y-99377314D01*
X167167714Y-99091600D01*
X167110571Y-98977314D01*
X166824857Y-98577314D02*
X166824857Y-98120171D01*
X166424857Y-98405885D02*
X167453428Y-98405885D01*
X167567714Y-98348742D01*
X167624857Y-98234457D01*
X167624857Y-98120171D01*
X167567714Y-97263028D02*
X167624857Y-97377314D01*
X167624857Y-97605885D01*
X167567714Y-97720171D01*
X167453428Y-97777314D01*
X166996285Y-97777314D01*
X166882000Y-97720171D01*
X166824857Y-97605885D01*
X166824857Y-97377314D01*
X166882000Y-97263028D01*
X166996285Y-97205885D01*
X167110571Y-97205885D01*
X167224857Y-97777314D01*
X167510571Y-96520171D02*
X167567714Y-96463028D01*
X167624857Y-96520171D01*
X167567714Y-96577314D01*
X167510571Y-96520171D01*
X167624857Y-96520171D01*
X166482000Y-96748742D02*
X166424857Y-96634457D01*
X166424857Y-96348742D01*
X166482000Y-96234457D01*
X166596285Y-96177314D01*
X166710571Y-96177314D01*
X166824857Y-96234457D01*
X166882000Y-96291600D01*
X166939142Y-96405885D01*
X166996285Y-96463028D01*
X167110571Y-96520171D01*
X167167714Y-96520171D01*
D10*
X193621000Y-95903628D02*
X193621000Y-95332200D01*
X193963857Y-96017914D02*
X192763857Y-95617914D01*
X193963857Y-95217914D01*
X193963857Y-94817914D02*
X192763857Y-94817914D01*
X192763857Y-94532200D01*
X192821000Y-94360771D01*
X192935285Y-94246485D01*
X193049571Y-94189342D01*
X193278142Y-94132200D01*
X193449571Y-94132200D01*
X193678142Y-94189342D01*
X193792428Y-94246485D01*
X193906714Y-94360771D01*
X193963857Y-94532200D01*
X193963857Y-94817914D01*
X193849571Y-92932200D02*
X193906714Y-92989342D01*
X193963857Y-93160771D01*
X193963857Y-93275057D01*
X193906714Y-93446485D01*
X193792428Y-93560771D01*
X193678142Y-93617914D01*
X193449571Y-93675057D01*
X193278142Y-93675057D01*
X193049571Y-93617914D01*
X192935285Y-93560771D01*
X192821000Y-93446485D01*
X192763857Y-93275057D01*
X192763857Y-93160771D01*
X192821000Y-92989342D01*
X192878142Y-92932200D01*
X192763857Y-92189342D02*
X192763857Y-92075057D01*
X192821000Y-91960771D01*
X192878142Y-91903628D01*
X192992428Y-91846485D01*
X193221000Y-91789342D01*
X193506714Y-91789342D01*
X193735285Y-91846485D01*
X193849571Y-91903628D01*
X193906714Y-91960771D01*
X193963857Y-92075057D01*
X193963857Y-92189342D01*
X193906714Y-92303628D01*
X193849571Y-92360771D01*
X193735285Y-92417914D01*
X193506714Y-92475057D01*
X193221000Y-92475057D01*
X192992428Y-92417914D01*
X192878142Y-92360771D01*
X192821000Y-92303628D01*
X192763857Y-92189342D01*
X193506714Y-91275057D02*
X193506714Y-90360771D01*
X193963857Y-89160771D02*
X193963857Y-89846485D01*
X193963857Y-89503628D02*
X192763857Y-89503628D01*
X192935285Y-89617914D01*
X193049571Y-89732200D01*
X193106714Y-89846485D01*
D11*
X153634542Y-58055742D02*
X153634542Y-59255742D01*
X153177400Y-59255742D01*
X153063114Y-59198600D01*
X153005971Y-59141457D01*
X152948828Y-59027171D01*
X152948828Y-58855742D01*
X153005971Y-58741457D01*
X153063114Y-58684314D01*
X153177400Y-58627171D01*
X153634542Y-58627171D01*
X151748828Y-58170028D02*
X151805971Y-58112885D01*
X151977400Y-58055742D01*
X152091685Y-58055742D01*
X152263114Y-58112885D01*
X152377400Y-58227171D01*
X152434542Y-58341457D01*
X152491685Y-58570028D01*
X152491685Y-58741457D01*
X152434542Y-58970028D01*
X152377400Y-59084314D01*
X152263114Y-59198600D01*
X152091685Y-59255742D01*
X151977400Y-59255742D01*
X151805971Y-59198600D01*
X151748828Y-59141457D01*
X150834542Y-58684314D02*
X150663114Y-58627171D01*
X150605971Y-58570028D01*
X150548828Y-58455742D01*
X150548828Y-58284314D01*
X150605971Y-58170028D01*
X150663114Y-58112885D01*
X150777400Y-58055742D01*
X151234542Y-58055742D01*
X151234542Y-59255742D01*
X150834542Y-59255742D01*
X150720257Y-59198600D01*
X150663114Y-59141457D01*
X150605971Y-59027171D01*
X150605971Y-58912885D01*
X150663114Y-58798600D01*
X150720257Y-58741457D01*
X150834542Y-58684314D01*
X151234542Y-58684314D01*
X149120257Y-58055742D02*
X149120257Y-59255742D01*
X148720257Y-58398600D01*
X148320257Y-59255742D01*
X148320257Y-58055742D01*
X147234542Y-58055742D02*
X147234542Y-58684314D01*
X147291685Y-58798600D01*
X147405971Y-58855742D01*
X147634542Y-58855742D01*
X147748828Y-58798600D01*
X147234542Y-58112885D02*
X147348828Y-58055742D01*
X147634542Y-58055742D01*
X147748828Y-58112885D01*
X147805971Y-58227171D01*
X147805971Y-58341457D01*
X147748828Y-58455742D01*
X147634542Y-58512885D01*
X147348828Y-58512885D01*
X147234542Y-58570028D01*
X146148828Y-58055742D02*
X146148828Y-59255742D01*
X146148828Y-58112885D02*
X146263114Y-58055742D01*
X146491685Y-58055742D01*
X146605971Y-58112885D01*
X146663114Y-58170028D01*
X146720257Y-58284314D01*
X146720257Y-58627171D01*
X146663114Y-58741457D01*
X146605971Y-58798600D01*
X146491685Y-58855742D01*
X146263114Y-58855742D01*
X146148828Y-58798600D01*
X145120257Y-58112885D02*
X145234542Y-58055742D01*
X145463114Y-58055742D01*
X145577400Y-58112885D01*
X145634542Y-58227171D01*
X145634542Y-58684314D01*
X145577400Y-58798600D01*
X145463114Y-58855742D01*
X145234542Y-58855742D01*
X145120257Y-58798600D01*
X145063114Y-58684314D01*
X145063114Y-58570028D01*
X145634542Y-58455742D01*
X152663114Y-56123742D02*
X152663114Y-56923742D01*
X152663114Y-57323742D02*
X152720257Y-57266600D01*
X152663114Y-57209457D01*
X152605971Y-57266600D01*
X152663114Y-57323742D01*
X152663114Y-57209457D01*
X152091685Y-56923742D02*
X152091685Y-56123742D01*
X152091685Y-56809457D02*
X152034542Y-56866600D01*
X151920257Y-56923742D01*
X151748828Y-56923742D01*
X151634542Y-56866600D01*
X151577400Y-56752314D01*
X151577400Y-56123742D01*
X150148828Y-57209457D02*
X150091685Y-57266600D01*
X149977400Y-57323742D01*
X149691685Y-57323742D01*
X149577400Y-57266600D01*
X149520257Y-57209457D01*
X149463114Y-57095171D01*
X149463114Y-56980885D01*
X149520257Y-56809457D01*
X150205971Y-56123742D01*
X149463114Y-56123742D01*
X148720257Y-57323742D02*
X148605971Y-57323742D01*
X148491685Y-57266600D01*
X148434542Y-57209457D01*
X148377400Y-57095171D01*
X148320257Y-56866600D01*
X148320257Y-56580885D01*
X148377400Y-56352314D01*
X148434542Y-56238028D01*
X148491685Y-56180885D01*
X148605971Y-56123742D01*
X148720257Y-56123742D01*
X148834542Y-56180885D01*
X148891685Y-56238028D01*
X148948828Y-56352314D01*
X149005971Y-56580885D01*
X149005971Y-56866600D01*
X148948828Y-57095171D01*
X148891685Y-57209457D01*
X148834542Y-57266600D01*
X148720257Y-57323742D01*
X147863114Y-57209457D02*
X147805971Y-57266600D01*
X147691685Y-57323742D01*
X147405971Y-57323742D01*
X147291685Y-57266600D01*
X147234542Y-57209457D01*
X147177400Y-57095171D01*
X147177400Y-56980885D01*
X147234542Y-56809457D01*
X147920257Y-56123742D01*
X147177400Y-56123742D01*
X146148828Y-56923742D02*
X146148828Y-56123742D01*
X146434542Y-57380885D02*
X146720257Y-56523742D01*
X145977400Y-56523742D01*
X161781200Y-116463028D02*
X161724057Y-116520171D01*
X161552628Y-116634457D01*
X161438342Y-116691600D01*
X161266914Y-116748742D01*
X160981200Y-116805885D01*
X160752628Y-116805885D01*
X160466914Y-116748742D01*
X160295485Y-116691600D01*
X160181200Y-116634457D01*
X160009771Y-116520171D01*
X159952628Y-116463028D01*
X161266914Y-115491600D02*
X161324057Y-115605885D01*
X161324057Y-115834457D01*
X161266914Y-115948742D01*
X161209771Y-116005885D01*
X161095485Y-116063028D01*
X160752628Y-116063028D01*
X160638342Y-116005885D01*
X160581200Y-115948742D01*
X160524057Y-115834457D01*
X160524057Y-115605885D01*
X160581200Y-115491600D01*
X161781200Y-115091600D02*
X161724057Y-115034457D01*
X161552628Y-114920171D01*
X161438342Y-114863028D01*
X161266914Y-114805885D01*
X160981200Y-114748742D01*
X160752628Y-114748742D01*
X160466914Y-114805885D01*
X160295485Y-114863028D01*
X160181200Y-114920171D01*
X160009771Y-115034457D01*
X159952628Y-115091600D01*
X160238342Y-113320171D02*
X160181200Y-113263028D01*
X160124057Y-113148742D01*
X160124057Y-112863028D01*
X160181200Y-112748742D01*
X160238342Y-112691600D01*
X160352628Y-112634457D01*
X160466914Y-112634457D01*
X160638342Y-112691600D01*
X161324057Y-113377314D01*
X161324057Y-112634457D01*
X160124057Y-111891600D02*
X160124057Y-111777314D01*
X160181200Y-111663028D01*
X160238342Y-111605885D01*
X160352628Y-111548742D01*
X160581200Y-111491600D01*
X160866914Y-111491600D01*
X161095485Y-111548742D01*
X161209771Y-111605885D01*
X161266914Y-111663028D01*
X161324057Y-111777314D01*
X161324057Y-111891600D01*
X161266914Y-112005885D01*
X161209771Y-112063028D01*
X161095485Y-112120171D01*
X160866914Y-112177314D01*
X160581200Y-112177314D01*
X160352628Y-112120171D01*
X160238342Y-112063028D01*
X160181200Y-112005885D01*
X160124057Y-111891600D01*
X160238342Y-111034457D02*
X160181200Y-110977314D01*
X160124057Y-110863028D01*
X160124057Y-110577314D01*
X160181200Y-110463028D01*
X160238342Y-110405885D01*
X160352628Y-110348742D01*
X160466914Y-110348742D01*
X160638342Y-110405885D01*
X161324057Y-111091600D01*
X161324057Y-110348742D01*
X160124057Y-109948742D02*
X160124057Y-109205885D01*
X160581200Y-109605885D01*
X160581200Y-109434457D01*
X160638342Y-109320171D01*
X160695485Y-109263028D01*
X160809771Y-109205885D01*
X161095485Y-109205885D01*
X161209771Y-109263028D01*
X161266914Y-109320171D01*
X161324057Y-109434457D01*
X161324057Y-109777314D01*
X161266914Y-109891600D01*
X161209771Y-109948742D01*
X161266914Y-107834457D02*
X161324057Y-107663028D01*
X161324057Y-107377314D01*
X161266914Y-107263028D01*
X161209771Y-107205885D01*
X161095485Y-107148742D01*
X160981200Y-107148742D01*
X160866914Y-107205885D01*
X160809771Y-107263028D01*
X160752628Y-107377314D01*
X160695485Y-107605885D01*
X160638342Y-107720171D01*
X160581200Y-107777314D01*
X160466914Y-107834457D01*
X160352628Y-107834457D01*
X160238342Y-107777314D01*
X160181200Y-107720171D01*
X160124057Y-107605885D01*
X160124057Y-107320171D01*
X160181200Y-107148742D01*
X161324057Y-106634457D02*
X160124057Y-106634457D01*
X160695485Y-106634457D02*
X160695485Y-105948742D01*
X161324057Y-105948742D02*
X160124057Y-105948742D01*
X161324057Y-104691600D02*
X160752628Y-105091600D01*
X161324057Y-105377314D02*
X160124057Y-105377314D01*
X160124057Y-104920171D01*
X160181200Y-104805885D01*
X160238342Y-104748742D01*
X160352628Y-104691600D01*
X160524057Y-104691600D01*
X160638342Y-104748742D01*
X160695485Y-104805885D01*
X160752628Y-104920171D01*
X160752628Y-105377314D01*
X161324057Y-104177314D02*
X160124057Y-104177314D01*
X160981200Y-103777314D01*
X160124057Y-103377314D01*
X161324057Y-103377314D01*
X161324057Y-100920171D02*
X161324057Y-100977314D01*
X161266914Y-101091600D01*
X161095485Y-101263028D01*
X160752628Y-101548742D01*
X160581200Y-101663028D01*
X160409771Y-101720171D01*
X160295485Y-101720171D01*
X160181200Y-101663028D01*
X160124057Y-101548742D01*
X160124057Y-101491600D01*
X160181200Y-101377314D01*
X160295485Y-101320171D01*
X160352628Y-101320171D01*
X160466914Y-101377314D01*
X160524057Y-101434457D01*
X160752628Y-101777314D01*
X160809771Y-101834457D01*
X160924057Y-101891600D01*
X161095485Y-101891600D01*
X161209771Y-101834457D01*
X161266914Y-101777314D01*
X161324057Y-101663028D01*
X161324057Y-101491600D01*
X161266914Y-101377314D01*
X161209771Y-101320171D01*
X160981200Y-101148742D01*
X160809771Y-101091600D01*
X160695485Y-101091600D01*
X160695485Y-99091600D02*
X160695485Y-99491600D01*
X161324057Y-99491600D02*
X160124057Y-99491600D01*
X160124057Y-98920171D01*
X161324057Y-97777314D02*
X160752628Y-98177314D01*
X161324057Y-98463028D02*
X160124057Y-98463028D01*
X160124057Y-98005885D01*
X160181200Y-97891600D01*
X160238342Y-97834457D01*
X160352628Y-97777314D01*
X160524057Y-97777314D01*
X160638342Y-97834457D01*
X160695485Y-97891600D01*
X160752628Y-98005885D01*
X160752628Y-98463028D01*
X161209771Y-96577314D02*
X161266914Y-96634457D01*
X161324057Y-96805885D01*
X161324057Y-96920171D01*
X161266914Y-97091600D01*
X161152628Y-97205885D01*
X161038342Y-97263028D01*
X160809771Y-97320171D01*
X160638342Y-97320171D01*
X160409771Y-97263028D01*
X160295485Y-97205885D01*
X160181200Y-97091600D01*
X160124057Y-96920171D01*
X160124057Y-96805885D01*
X160181200Y-96634457D01*
X160238342Y-96577314D01*
X160238342Y-96120171D02*
X160181200Y-96063028D01*
X160124057Y-95948742D01*
X160124057Y-95663028D01*
X160181200Y-95548742D01*
X160238342Y-95491600D01*
X160352628Y-95434457D01*
X160466914Y-95434457D01*
X160638342Y-95491600D01*
X161324057Y-96177314D01*
X161324057Y-95434457D01*
X160524057Y-94405885D02*
X161324057Y-94405885D01*
X160066914Y-94691600D02*
X160924057Y-94977314D01*
X160924057Y-94234457D01*
X160124057Y-93263028D02*
X160124057Y-93491600D01*
X160181200Y-93605885D01*
X160238342Y-93663028D01*
X160409771Y-93777314D01*
X160638342Y-93834457D01*
X161095485Y-93834457D01*
X161209771Y-93777314D01*
X161266914Y-93720171D01*
X161324057Y-93605885D01*
X161324057Y-93377314D01*
X161266914Y-93263028D01*
X161209771Y-93205885D01*
X161095485Y-93148742D01*
X160809771Y-93148742D01*
X160695485Y-93205885D01*
X160638342Y-93263028D01*
X160581200Y-93377314D01*
X160581200Y-93605885D01*
X160638342Y-93720171D01*
X160695485Y-93777314D01*
X160809771Y-93834457D01*
X160638342Y-92463028D02*
X160581200Y-92577314D01*
X160524057Y-92634457D01*
X160409771Y-92691600D01*
X160352628Y-92691600D01*
X160238342Y-92634457D01*
X160181200Y-92577314D01*
X160124057Y-92463028D01*
X160124057Y-92234457D01*
X160181200Y-92120171D01*
X160238342Y-92063028D01*
X160352628Y-92005885D01*
X160409771Y-92005885D01*
X160524057Y-92063028D01*
X160581200Y-92120171D01*
X160638342Y-92234457D01*
X160638342Y-92463028D01*
X160695485Y-92577314D01*
X160752628Y-92634457D01*
X160866914Y-92691600D01*
X161095485Y-92691600D01*
X161209771Y-92634457D01*
X161266914Y-92577314D01*
X161324057Y-92463028D01*
X161324057Y-92234457D01*
X161266914Y-92120171D01*
X161209771Y-92063028D01*
X161095485Y-92005885D01*
X160866914Y-92005885D01*
X160752628Y-92063028D01*
X160695485Y-92120171D01*
X160638342Y-92234457D01*
X162913200Y-116863028D02*
X162913200Y-116291600D01*
X163256057Y-116977314D02*
X162056057Y-116577314D01*
X163256057Y-116177314D01*
X163256057Y-115605885D02*
X163198914Y-115720171D01*
X163084628Y-115777314D01*
X162056057Y-115777314D01*
X163256057Y-114977314D02*
X163198914Y-115091600D01*
X163084628Y-115148742D01*
X162056057Y-115148742D01*
X163256057Y-112920171D02*
X162684628Y-113320171D01*
X163256057Y-113605885D02*
X162056057Y-113605885D01*
X162056057Y-113148742D01*
X162113200Y-113034457D01*
X162170342Y-112977314D01*
X162284628Y-112920171D01*
X162456057Y-112920171D01*
X162570342Y-112977314D01*
X162627485Y-113034457D01*
X162684628Y-113148742D01*
X162684628Y-113605885D01*
X163256057Y-112405885D02*
X162456057Y-112405885D01*
X162056057Y-112405885D02*
X162113200Y-112463028D01*
X162170342Y-112405885D01*
X162113200Y-112348742D01*
X162056057Y-112405885D01*
X162170342Y-112405885D01*
X162456057Y-111320171D02*
X163427485Y-111320171D01*
X163541771Y-111377314D01*
X163598914Y-111434457D01*
X163656057Y-111548742D01*
X163656057Y-111720171D01*
X163598914Y-111834457D01*
X163198914Y-111320171D02*
X163256057Y-111434457D01*
X163256057Y-111663028D01*
X163198914Y-111777314D01*
X163141771Y-111834457D01*
X163027485Y-111891600D01*
X162684628Y-111891600D01*
X162570342Y-111834457D01*
X162513200Y-111777314D01*
X162456057Y-111663028D01*
X162456057Y-111434457D01*
X162513200Y-111320171D01*
X163256057Y-110748742D02*
X162056057Y-110748742D01*
X163256057Y-110234457D02*
X162627485Y-110234457D01*
X162513200Y-110291600D01*
X162456057Y-110405885D01*
X162456057Y-110577314D01*
X162513200Y-110691600D01*
X162570342Y-110748742D01*
X162456057Y-109834457D02*
X162456057Y-109377314D01*
X162056057Y-109663028D02*
X163084628Y-109663028D01*
X163198914Y-109605885D01*
X163256057Y-109491600D01*
X163256057Y-109377314D01*
X163198914Y-109034457D02*
X163256057Y-108920171D01*
X163256057Y-108691600D01*
X163198914Y-108577314D01*
X163084628Y-108520171D01*
X163027485Y-108520171D01*
X162913200Y-108577314D01*
X162856057Y-108691600D01*
X162856057Y-108863028D01*
X162798914Y-108977314D01*
X162684628Y-109034457D01*
X162627485Y-109034457D01*
X162513200Y-108977314D01*
X162456057Y-108863028D01*
X162456057Y-108691600D01*
X162513200Y-108577314D01*
X163256057Y-106405885D02*
X162684628Y-106805885D01*
X163256057Y-107091600D02*
X162056057Y-107091600D01*
X162056057Y-106634457D01*
X162113200Y-106520171D01*
X162170342Y-106463028D01*
X162284628Y-106405885D01*
X162456057Y-106405885D01*
X162570342Y-106463028D01*
X162627485Y-106520171D01*
X162684628Y-106634457D01*
X162684628Y-107091600D01*
X163198914Y-105434457D02*
X163256057Y-105548742D01*
X163256057Y-105777314D01*
X163198914Y-105891600D01*
X163084628Y-105948742D01*
X162627485Y-105948742D01*
X162513200Y-105891600D01*
X162456057Y-105777314D01*
X162456057Y-105548742D01*
X162513200Y-105434457D01*
X162627485Y-105377314D01*
X162741771Y-105377314D01*
X162856057Y-105948742D01*
X163198914Y-104920171D02*
X163256057Y-104805885D01*
X163256057Y-104577314D01*
X163198914Y-104463028D01*
X163084628Y-104405885D01*
X163027485Y-104405885D01*
X162913200Y-104463028D01*
X162856057Y-104577314D01*
X162856057Y-104748742D01*
X162798914Y-104863028D01*
X162684628Y-104920171D01*
X162627485Y-104920171D01*
X162513200Y-104863028D01*
X162456057Y-104748742D01*
X162456057Y-104577314D01*
X162513200Y-104463028D01*
X163198914Y-103434457D02*
X163256057Y-103548742D01*
X163256057Y-103777314D01*
X163198914Y-103891600D01*
X163084628Y-103948742D01*
X162627485Y-103948742D01*
X162513200Y-103891600D01*
X162456057Y-103777314D01*
X162456057Y-103548742D01*
X162513200Y-103434457D01*
X162627485Y-103377314D01*
X162741771Y-103377314D01*
X162856057Y-103948742D01*
X163256057Y-102863028D02*
X162456057Y-102863028D01*
X162684628Y-102863028D02*
X162570342Y-102805885D01*
X162513200Y-102748742D01*
X162456057Y-102634457D01*
X162456057Y-102520171D01*
X162456057Y-102234457D02*
X163256057Y-101948742D01*
X162456057Y-101663028D01*
X163198914Y-100748742D02*
X163256057Y-100863028D01*
X163256057Y-101091600D01*
X163198914Y-101205885D01*
X163084628Y-101263028D01*
X162627485Y-101263028D01*
X162513200Y-101205885D01*
X162456057Y-101091600D01*
X162456057Y-100863028D01*
X162513200Y-100748742D01*
X162627485Y-100691600D01*
X162741771Y-100691600D01*
X162856057Y-101263028D01*
X163256057Y-99663028D02*
X162056057Y-99663028D01*
X163198914Y-99663028D02*
X163256057Y-99777314D01*
X163256057Y-100005885D01*
X163198914Y-100120171D01*
X163141771Y-100177314D01*
X163027485Y-100234457D01*
X162684628Y-100234457D01*
X162570342Y-100177314D01*
X162513200Y-100120171D01*
X162456057Y-100005885D01*
X162456057Y-99777314D01*
X162513200Y-99663028D01*
D10*
X193963857Y-56428885D02*
X192763857Y-56428885D01*
X192763857Y-56143171D01*
X192821000Y-55971742D01*
X192935285Y-55857457D01*
X193049571Y-55800314D01*
X193278142Y-55743171D01*
X193449571Y-55743171D01*
X193678142Y-55800314D01*
X193792428Y-55857457D01*
X193906714Y-55971742D01*
X193963857Y-56143171D01*
X193963857Y-56428885D01*
X193963857Y-55228885D02*
X192763857Y-55228885D01*
X192763857Y-54428885D02*
X192763857Y-54200314D01*
X192821000Y-54086028D01*
X192935285Y-53971742D01*
X193163857Y-53914600D01*
X193563857Y-53914600D01*
X193792428Y-53971742D01*
X193906714Y-54086028D01*
X193963857Y-54200314D01*
X193963857Y-54428885D01*
X193906714Y-54543171D01*
X193792428Y-54657457D01*
X193563857Y-54714600D01*
X193163857Y-54714600D01*
X192935285Y-54657457D01*
X192821000Y-54543171D01*
X192763857Y-54428885D01*
X193163857Y-52886028D02*
X193963857Y-52886028D01*
X192706714Y-53171742D02*
X193563857Y-53457457D01*
X193563857Y-52714600D01*
X193506714Y-52257457D02*
X193506714Y-51343171D01*
X192763857Y-50886028D02*
X192763857Y-50086028D01*
X193963857Y-50600314D01*
X193906714Y-107993885D02*
X193963857Y-107822457D01*
X193963857Y-107536742D01*
X193906714Y-107422457D01*
X193849571Y-107365314D01*
X193735285Y-107308171D01*
X193621000Y-107308171D01*
X193506714Y-107365314D01*
X193449571Y-107422457D01*
X193392428Y-107536742D01*
X193335285Y-107765314D01*
X193278142Y-107879600D01*
X193221000Y-107936742D01*
X193106714Y-107993885D01*
X192992428Y-107993885D01*
X192878142Y-107936742D01*
X192821000Y-107879600D01*
X192763857Y-107765314D01*
X192763857Y-107479600D01*
X192821000Y-107308171D01*
X193335285Y-106793885D02*
X193335285Y-106393885D01*
X193963857Y-106222457D02*
X193963857Y-106793885D01*
X192763857Y-106793885D01*
X192763857Y-106222457D01*
X193963857Y-105022457D02*
X193392428Y-105422457D01*
X193963857Y-105708171D02*
X192763857Y-105708171D01*
X192763857Y-105251028D01*
X192821000Y-105136742D01*
X192878142Y-105079600D01*
X192992428Y-105022457D01*
X193163857Y-105022457D01*
X193278142Y-105079600D01*
X193335285Y-105136742D01*
X193392428Y-105251028D01*
X193392428Y-105708171D01*
X192763857Y-104679600D02*
X193963857Y-104279600D01*
X192763857Y-103879600D01*
X192763857Y-103251028D02*
X192763857Y-103022457D01*
X192821000Y-102908171D01*
X192935285Y-102793885D01*
X193163857Y-102736742D01*
X193563857Y-102736742D01*
X193792428Y-102793885D01*
X193906714Y-102908171D01*
X193963857Y-103022457D01*
X193963857Y-103251028D01*
X193906714Y-103365314D01*
X193792428Y-103479600D01*
X193563857Y-103536742D01*
X193163857Y-103536742D01*
X192935285Y-103479600D01*
X192821000Y-103365314D01*
X192763857Y-103251028D01*
X193163857Y-101708171D02*
X193963857Y-101708171D01*
X192706714Y-101993885D02*
X193563857Y-102279600D01*
X193563857Y-101536742D01*
X193506714Y-101079600D02*
X193506714Y-100165314D01*
X192763857Y-99708171D02*
X192763857Y-98908171D01*
X193963857Y-99422457D01*
D12*
%TO.C,J6*%
X114693980Y-113494133D02*
X115408266Y-113494133D01*
X115551123Y-113541752D01*
X115646361Y-113636990D01*
X115693980Y-113779847D01*
X115693980Y-113875085D01*
X114693980Y-112589371D02*
X114693980Y-112779847D01*
X114741600Y-112875085D01*
X114789219Y-112922704D01*
X114932076Y-113017942D01*
X115122552Y-113065561D01*
X115503504Y-113065561D01*
X115598742Y-113017942D01*
X115646361Y-112970323D01*
X115693980Y-112875085D01*
X115693980Y-112684609D01*
X115646361Y-112589371D01*
X115598742Y-112541752D01*
X115503504Y-112494133D01*
X115265409Y-112494133D01*
X115170171Y-112541752D01*
X115122552Y-112589371D01*
X115074933Y-112684609D01*
X115074933Y-112875085D01*
X115122552Y-112970323D01*
X115170171Y-113017942D01*
X115265409Y-113065561D01*
%TO.C,C7*%
X120384942Y-120156266D02*
X120432561Y-120203885D01*
X120480180Y-120346742D01*
X120480180Y-120441980D01*
X120432561Y-120584838D01*
X120337323Y-120680076D01*
X120242085Y-120727695D01*
X120051609Y-120775314D01*
X119908752Y-120775314D01*
X119718276Y-120727695D01*
X119623038Y-120680076D01*
X119527800Y-120584838D01*
X119480180Y-120441980D01*
X119480180Y-120346742D01*
X119527800Y-120203885D01*
X119575419Y-120156266D01*
X119480180Y-119822933D02*
X119480180Y-119156266D01*
X120480180Y-119584838D01*
D11*
%TO.C,R2*%
X161580333Y-149631380D02*
X161247000Y-149155190D01*
X161008904Y-149631380D02*
X161008904Y-148631380D01*
X161389857Y-148631380D01*
X161485095Y-148679000D01*
X161532714Y-148726619D01*
X161580333Y-148821857D01*
X161580333Y-148964714D01*
X161532714Y-149059952D01*
X161485095Y-149107571D01*
X161389857Y-149155190D01*
X161008904Y-149155190D01*
X161961285Y-148726619D02*
X162008904Y-148679000D01*
X162104142Y-148631380D01*
X162342238Y-148631380D01*
X162437476Y-148679000D01*
X162485095Y-148726619D01*
X162532714Y-148821857D01*
X162532714Y-148917095D01*
X162485095Y-149059952D01*
X161913666Y-149631380D01*
X162532714Y-149631380D01*
D12*
%TO.C,C14*%
X158564342Y-53824142D02*
X158516723Y-53871761D01*
X158373866Y-53919380D01*
X158278628Y-53919380D01*
X158135771Y-53871761D01*
X158040533Y-53776523D01*
X157992914Y-53681285D01*
X157945295Y-53490809D01*
X157945295Y-53347952D01*
X157992914Y-53157476D01*
X158040533Y-53062238D01*
X158135771Y-52967000D01*
X158278628Y-52919380D01*
X158373866Y-52919380D01*
X158516723Y-52967000D01*
X158564342Y-53014619D01*
X159516723Y-53919380D02*
X158945295Y-53919380D01*
X159231009Y-53919380D02*
X159231009Y-52919380D01*
X159135771Y-53062238D01*
X159040533Y-53157476D01*
X158945295Y-53205095D01*
X160373866Y-53252714D02*
X160373866Y-53919380D01*
X160135771Y-52871761D02*
X159897676Y-53586047D01*
X160516723Y-53586047D01*
%TO.C,X1*%
X120297676Y-148397980D02*
X120964342Y-149397980D01*
X120964342Y-148397980D02*
X120297676Y-149397980D01*
X121869104Y-149397980D02*
X121297676Y-149397980D01*
X121583390Y-149397980D02*
X121583390Y-148397980D01*
X121488152Y-148540838D01*
X121392914Y-148636076D01*
X121297676Y-148683695D01*
D11*
%TO.C,D15*%
X145268514Y-141039980D02*
X145268514Y-140039980D01*
X145506609Y-140039980D01*
X145649466Y-140087600D01*
X145744704Y-140182838D01*
X145792323Y-140278076D01*
X145839942Y-140468552D01*
X145839942Y-140611409D01*
X145792323Y-140801885D01*
X145744704Y-140897123D01*
X145649466Y-140992361D01*
X145506609Y-141039980D01*
X145268514Y-141039980D01*
X146792323Y-141039980D02*
X146220895Y-141039980D01*
X146506609Y-141039980D02*
X146506609Y-140039980D01*
X146411371Y-140182838D01*
X146316133Y-140278076D01*
X146220895Y-140325695D01*
X147697085Y-140039980D02*
X147220895Y-140039980D01*
X147173276Y-140516171D01*
X147220895Y-140468552D01*
X147316133Y-140420933D01*
X147554228Y-140420933D01*
X147649466Y-140468552D01*
X147697085Y-140516171D01*
X147744704Y-140611409D01*
X147744704Y-140849504D01*
X147697085Y-140944742D01*
X147649466Y-140992361D01*
X147554228Y-141039980D01*
X147316133Y-141039980D01*
X147220895Y-140992361D01*
X147173276Y-140944742D01*
D12*
%TO.C,R6*%
X114422280Y-126830066D02*
X113946090Y-127163400D01*
X114422280Y-127401495D02*
X113422280Y-127401495D01*
X113422280Y-127020542D01*
X113469900Y-126925304D01*
X113517519Y-126877685D01*
X113612757Y-126830066D01*
X113755614Y-126830066D01*
X113850852Y-126877685D01*
X113898471Y-126925304D01*
X113946090Y-127020542D01*
X113946090Y-127401495D01*
X113422280Y-125972923D02*
X113422280Y-126163400D01*
X113469900Y-126258638D01*
X113517519Y-126306257D01*
X113660376Y-126401495D01*
X113850852Y-126449114D01*
X114231804Y-126449114D01*
X114327042Y-126401495D01*
X114374661Y-126353876D01*
X114422280Y-126258638D01*
X114422280Y-126068161D01*
X114374661Y-125972923D01*
X114327042Y-125925304D01*
X114231804Y-125877685D01*
X113993709Y-125877685D01*
X113898471Y-125925304D01*
X113850852Y-125972923D01*
X113803233Y-126068161D01*
X113803233Y-126258638D01*
X113850852Y-126353876D01*
X113898471Y-126401495D01*
X113993709Y-126449114D01*
%TO.C,R16*%
X176471342Y-85923380D02*
X176138009Y-85447190D01*
X175899914Y-85923380D02*
X175899914Y-84923380D01*
X176280866Y-84923380D01*
X176376104Y-84971000D01*
X176423723Y-85018619D01*
X176471342Y-85113857D01*
X176471342Y-85256714D01*
X176423723Y-85351952D01*
X176376104Y-85399571D01*
X176280866Y-85447190D01*
X175899914Y-85447190D01*
X177423723Y-85923380D02*
X176852295Y-85923380D01*
X177138009Y-85923380D02*
X177138009Y-84923380D01*
X177042771Y-85066238D01*
X176947533Y-85161476D01*
X176852295Y-85209095D01*
X178280866Y-84923380D02*
X178090390Y-84923380D01*
X177995152Y-84971000D01*
X177947533Y-85018619D01*
X177852295Y-85161476D01*
X177804676Y-85351952D01*
X177804676Y-85732904D01*
X177852295Y-85828142D01*
X177899914Y-85875761D01*
X177995152Y-85923380D01*
X178185628Y-85923380D01*
X178280866Y-85875761D01*
X178328485Y-85828142D01*
X178376104Y-85732904D01*
X178376104Y-85494809D01*
X178328485Y-85399571D01*
X178280866Y-85351952D01*
X178185628Y-85304333D01*
X177995152Y-85304333D01*
X177899914Y-85351952D01*
X177852295Y-85399571D01*
X177804676Y-85494809D01*
%TO.C,U7*%
X167995695Y-72401180D02*
X167995695Y-73210704D01*
X168043314Y-73305942D01*
X168090933Y-73353561D01*
X168186171Y-73401180D01*
X168376647Y-73401180D01*
X168471885Y-73353561D01*
X168519504Y-73305942D01*
X168567123Y-73210704D01*
X168567123Y-72401180D01*
X168948076Y-72401180D02*
X169614742Y-72401180D01*
X169186171Y-73401180D01*
%TO.C,J2*%
X183774380Y-141303333D02*
X184488666Y-141303333D01*
X184631523Y-141350952D01*
X184726761Y-141446190D01*
X184774380Y-141589047D01*
X184774380Y-141684285D01*
X183869619Y-140874761D02*
X183822000Y-140827142D01*
X183774380Y-140731904D01*
X183774380Y-140493809D01*
X183822000Y-140398571D01*
X183869619Y-140350952D01*
X183964857Y-140303333D01*
X184060095Y-140303333D01*
X184202952Y-140350952D01*
X184774380Y-140922380D01*
X184774380Y-140303333D01*
%TO.C,C5*%
X141320933Y-60271342D02*
X141273314Y-60318961D01*
X141130457Y-60366580D01*
X141035219Y-60366580D01*
X140892361Y-60318961D01*
X140797123Y-60223723D01*
X140749504Y-60128485D01*
X140701885Y-59938009D01*
X140701885Y-59795152D01*
X140749504Y-59604676D01*
X140797123Y-59509438D01*
X140892361Y-59414200D01*
X141035219Y-59366580D01*
X141130457Y-59366580D01*
X141273314Y-59414200D01*
X141320933Y-59461819D01*
X142225695Y-59366580D02*
X141749504Y-59366580D01*
X141701885Y-59842771D01*
X141749504Y-59795152D01*
X141844742Y-59747533D01*
X142082838Y-59747533D01*
X142178076Y-59795152D01*
X142225695Y-59842771D01*
X142273314Y-59938009D01*
X142273314Y-60176104D01*
X142225695Y-60271342D01*
X142178076Y-60318961D01*
X142082838Y-60366580D01*
X141844742Y-60366580D01*
X141749504Y-60318961D01*
X141701885Y-60271342D01*
%TO.C,C22*%
X161113742Y-131808457D02*
X161161361Y-131856076D01*
X161208980Y-131998933D01*
X161208980Y-132094171D01*
X161161361Y-132237028D01*
X161066123Y-132332266D01*
X160970885Y-132379885D01*
X160780409Y-132427504D01*
X160637552Y-132427504D01*
X160447076Y-132379885D01*
X160351838Y-132332266D01*
X160256600Y-132237028D01*
X160208980Y-132094171D01*
X160208980Y-131998933D01*
X160256600Y-131856076D01*
X160304219Y-131808457D01*
X160304219Y-131427504D02*
X160256600Y-131379885D01*
X160208980Y-131284647D01*
X160208980Y-131046552D01*
X160256600Y-130951314D01*
X160304219Y-130903695D01*
X160399457Y-130856076D01*
X160494695Y-130856076D01*
X160637552Y-130903695D01*
X161208980Y-131475123D01*
X161208980Y-130856076D01*
X160304219Y-130475123D02*
X160256600Y-130427504D01*
X160208980Y-130332266D01*
X160208980Y-130094171D01*
X160256600Y-129998933D01*
X160304219Y-129951314D01*
X160399457Y-129903695D01*
X160494695Y-129903695D01*
X160637552Y-129951314D01*
X161208980Y-130522742D01*
X161208980Y-129903695D01*
D11*
%TO.C,D2*%
X179896780Y-95444695D02*
X178896780Y-95444695D01*
X178896780Y-95206600D01*
X178944400Y-95063742D01*
X179039638Y-94968504D01*
X179134876Y-94920885D01*
X179325352Y-94873266D01*
X179468209Y-94873266D01*
X179658685Y-94920885D01*
X179753923Y-94968504D01*
X179849161Y-95063742D01*
X179896780Y-95206600D01*
X179896780Y-95444695D01*
X178992019Y-94492314D02*
X178944400Y-94444695D01*
X178896780Y-94349457D01*
X178896780Y-94111361D01*
X178944400Y-94016123D01*
X178992019Y-93968504D01*
X179087257Y-93920885D01*
X179182495Y-93920885D01*
X179325352Y-93968504D01*
X179896780Y-94539933D01*
X179896780Y-93920885D01*
D12*
%TO.C,J10*%
X181896780Y-95921123D02*
X182611066Y-95921123D01*
X182753923Y-95968742D01*
X182849161Y-96063980D01*
X182896780Y-96206838D01*
X182896780Y-96302076D01*
X182896780Y-94921123D02*
X182896780Y-95492552D01*
X182896780Y-95206838D02*
X181896780Y-95206838D01*
X182039638Y-95302076D01*
X182134876Y-95397314D01*
X182182495Y-95492552D01*
X181896780Y-94302076D02*
X181896780Y-94206838D01*
X181944400Y-94111600D01*
X181992019Y-94063980D01*
X182087257Y-94016361D01*
X182277733Y-93968742D01*
X182515828Y-93968742D01*
X182706304Y-94016361D01*
X182801542Y-94063980D01*
X182849161Y-94111600D01*
X182896780Y-94206838D01*
X182896780Y-94302076D01*
X182849161Y-94397314D01*
X182801542Y-94444933D01*
X182706304Y-94492552D01*
X182515828Y-94540171D01*
X182277733Y-94540171D01*
X182087257Y-94492552D01*
X181992019Y-94444933D01*
X181944400Y-94397314D01*
X181896780Y-94302076D01*
D11*
%TO.C,C12*%
X186990542Y-115126057D02*
X187038161Y-115173676D01*
X187085780Y-115316533D01*
X187085780Y-115411771D01*
X187038161Y-115554628D01*
X186942923Y-115649866D01*
X186847685Y-115697485D01*
X186657209Y-115745104D01*
X186514352Y-115745104D01*
X186323876Y-115697485D01*
X186228638Y-115649866D01*
X186133400Y-115554628D01*
X186085780Y-115411771D01*
X186085780Y-115316533D01*
X186133400Y-115173676D01*
X186181019Y-115126057D01*
X187085780Y-114173676D02*
X187085780Y-114745104D01*
X187085780Y-114459390D02*
X186085780Y-114459390D01*
X186228638Y-114554628D01*
X186323876Y-114649866D01*
X186371495Y-114745104D01*
X186181019Y-113792723D02*
X186133400Y-113745104D01*
X186085780Y-113649866D01*
X186085780Y-113411771D01*
X186133400Y-113316533D01*
X186181019Y-113268914D01*
X186276257Y-113221295D01*
X186371495Y-113221295D01*
X186514352Y-113268914D01*
X187085780Y-113840342D01*
X187085780Y-113221295D01*
D12*
%TO.C,J4*%
X183545780Y-97589933D02*
X184260066Y-97589933D01*
X184402923Y-97637552D01*
X184498161Y-97732790D01*
X184545780Y-97875647D01*
X184545780Y-97970885D01*
X183879114Y-96685171D02*
X184545780Y-96685171D01*
X183498161Y-96923266D02*
X184212447Y-97161361D01*
X184212447Y-96542314D01*
D11*
%TO.C,D14*%
X157557914Y-140989980D02*
X157557914Y-139989980D01*
X157796009Y-139989980D01*
X157938866Y-140037600D01*
X158034104Y-140132838D01*
X158081723Y-140228076D01*
X158129342Y-140418552D01*
X158129342Y-140561409D01*
X158081723Y-140751885D01*
X158034104Y-140847123D01*
X157938866Y-140942361D01*
X157796009Y-140989980D01*
X157557914Y-140989980D01*
X159081723Y-140989980D02*
X158510295Y-140989980D01*
X158796009Y-140989980D02*
X158796009Y-139989980D01*
X158700771Y-140132838D01*
X158605533Y-140228076D01*
X158510295Y-140275695D01*
X159938866Y-140323314D02*
X159938866Y-140989980D01*
X159700771Y-139942361D02*
X159462676Y-140656647D01*
X160081723Y-140656647D01*
D12*
%TO.C,C19*%
X184624742Y-55627542D02*
X184577123Y-55675161D01*
X184434266Y-55722780D01*
X184339028Y-55722780D01*
X184196171Y-55675161D01*
X184100933Y-55579923D01*
X184053314Y-55484685D01*
X184005695Y-55294209D01*
X184005695Y-55151352D01*
X184053314Y-54960876D01*
X184100933Y-54865638D01*
X184196171Y-54770400D01*
X184339028Y-54722780D01*
X184434266Y-54722780D01*
X184577123Y-54770400D01*
X184624742Y-54818019D01*
X185577123Y-55722780D02*
X185005695Y-55722780D01*
X185291409Y-55722780D02*
X185291409Y-54722780D01*
X185196171Y-54865638D01*
X185100933Y-54960876D01*
X185005695Y-55008495D01*
X186053314Y-55722780D02*
X186243790Y-55722780D01*
X186339028Y-55675161D01*
X186386647Y-55627542D01*
X186481885Y-55484685D01*
X186529504Y-55294209D01*
X186529504Y-54913257D01*
X186481885Y-54818019D01*
X186434266Y-54770400D01*
X186339028Y-54722780D01*
X186148552Y-54722780D01*
X186053314Y-54770400D01*
X186005695Y-54818019D01*
X185958076Y-54913257D01*
X185958076Y-55151352D01*
X186005695Y-55246590D01*
X186053314Y-55294209D01*
X186148552Y-55341828D01*
X186339028Y-55341828D01*
X186434266Y-55294209D01*
X186481885Y-55246590D01*
X186529504Y-55151352D01*
%TO.C,J9*%
X182094380Y-69903933D02*
X182808666Y-69903933D01*
X182951523Y-69951552D01*
X183046761Y-70046790D01*
X183094380Y-70189647D01*
X183094380Y-70284885D01*
X183094380Y-69380123D02*
X183094380Y-69189647D01*
X183046761Y-69094409D01*
X182999142Y-69046790D01*
X182856285Y-68951552D01*
X182665809Y-68903933D01*
X182284857Y-68903933D01*
X182189619Y-68951552D01*
X182142000Y-68999171D01*
X182094380Y-69094409D01*
X182094380Y-69284885D01*
X182142000Y-69380123D01*
X182189619Y-69427742D01*
X182284857Y-69475361D01*
X182522952Y-69475361D01*
X182618190Y-69427742D01*
X182665809Y-69380123D01*
X182713428Y-69284885D01*
X182713428Y-69094409D01*
X182665809Y-68999171D01*
X182618190Y-68951552D01*
X182522952Y-68903933D01*
D13*
%TO.C,S1*%
X156896380Y-47200647D02*
X157077809Y-47261123D01*
X157380190Y-47261123D01*
X157501142Y-47200647D01*
X157561619Y-47140171D01*
X157622095Y-47019219D01*
X157622095Y-46898266D01*
X157561619Y-46777314D01*
X157501142Y-46716838D01*
X157380190Y-46656361D01*
X157138285Y-46595885D01*
X157017333Y-46535409D01*
X156956857Y-46474933D01*
X156896380Y-46353980D01*
X156896380Y-46233028D01*
X156956857Y-46112076D01*
X157017333Y-46051600D01*
X157138285Y-45991123D01*
X157440666Y-45991123D01*
X157622095Y-46051600D01*
X158831619Y-47261123D02*
X158105904Y-47261123D01*
X158468761Y-47261123D02*
X158468761Y-45991123D01*
X158347809Y-46172552D01*
X158226857Y-46293504D01*
X158105904Y-46353980D01*
%TO.C,U10*%
X173205019Y-98872523D02*
X173205019Y-99900619D01*
X173265495Y-100021571D01*
X173325971Y-100082047D01*
X173446923Y-100142523D01*
X173688828Y-100142523D01*
X173809780Y-100082047D01*
X173870257Y-100021571D01*
X173930733Y-99900619D01*
X173930733Y-98872523D01*
X175200733Y-100142523D02*
X174475019Y-100142523D01*
X174837876Y-100142523D02*
X174837876Y-98872523D01*
X174716923Y-99053952D01*
X174595971Y-99174904D01*
X174475019Y-99235380D01*
X175986923Y-98872523D02*
X176107876Y-98872523D01*
X176228828Y-98933000D01*
X176289304Y-98993476D01*
X176349780Y-99114428D01*
X176410257Y-99356333D01*
X176410257Y-99658714D01*
X176349780Y-99900619D01*
X176289304Y-100021571D01*
X176228828Y-100082047D01*
X176107876Y-100142523D01*
X175986923Y-100142523D01*
X175865971Y-100082047D01*
X175805495Y-100021571D01*
X175745019Y-99900619D01*
X175684542Y-99658714D01*
X175684542Y-99356333D01*
X175745019Y-99114428D01*
X175805495Y-98993476D01*
X175865971Y-98933000D01*
X175986923Y-98872523D01*
D12*
%TO.C,D3*%
X169416504Y-48509180D02*
X169416504Y-47509180D01*
X169654600Y-47509180D01*
X169797457Y-47556800D01*
X169892695Y-47652038D01*
X169940314Y-47747276D01*
X169987933Y-47937752D01*
X169987933Y-48080609D01*
X169940314Y-48271085D01*
X169892695Y-48366323D01*
X169797457Y-48461561D01*
X169654600Y-48509180D01*
X169416504Y-48509180D01*
X170321266Y-47509180D02*
X170940314Y-47509180D01*
X170606980Y-47890133D01*
X170749838Y-47890133D01*
X170845076Y-47937752D01*
X170892695Y-47985371D01*
X170940314Y-48080609D01*
X170940314Y-48318704D01*
X170892695Y-48413942D01*
X170845076Y-48461561D01*
X170749838Y-48509180D01*
X170464123Y-48509180D01*
X170368885Y-48461561D01*
X170321266Y-48413942D01*
%TO.C,C16*%
X173778942Y-95353142D02*
X173731323Y-95400761D01*
X173588466Y-95448380D01*
X173493228Y-95448380D01*
X173350371Y-95400761D01*
X173255133Y-95305523D01*
X173207514Y-95210285D01*
X173159895Y-95019809D01*
X173159895Y-94876952D01*
X173207514Y-94686476D01*
X173255133Y-94591238D01*
X173350371Y-94496000D01*
X173493228Y-94448380D01*
X173588466Y-94448380D01*
X173731323Y-94496000D01*
X173778942Y-94543619D01*
X174731323Y-95448380D02*
X174159895Y-95448380D01*
X174445609Y-95448380D02*
X174445609Y-94448380D01*
X174350371Y-94591238D01*
X174255133Y-94686476D01*
X174159895Y-94734095D01*
X175588466Y-94448380D02*
X175397990Y-94448380D01*
X175302752Y-94496000D01*
X175255133Y-94543619D01*
X175159895Y-94686476D01*
X175112276Y-94876952D01*
X175112276Y-95257904D01*
X175159895Y-95353142D01*
X175207514Y-95400761D01*
X175302752Y-95448380D01*
X175493228Y-95448380D01*
X175588466Y-95400761D01*
X175636085Y-95353142D01*
X175683704Y-95257904D01*
X175683704Y-95019809D01*
X175636085Y-94924571D01*
X175588466Y-94876952D01*
X175493228Y-94829333D01*
X175302752Y-94829333D01*
X175207514Y-94876952D01*
X175159895Y-94924571D01*
X175112276Y-95019809D01*
%TO.C,R3*%
X160081933Y-120035580D02*
X159748600Y-119559390D01*
X159510504Y-120035580D02*
X159510504Y-119035580D01*
X159891457Y-119035580D01*
X159986695Y-119083200D01*
X160034314Y-119130819D01*
X160081933Y-119226057D01*
X160081933Y-119368914D01*
X160034314Y-119464152D01*
X159986695Y-119511771D01*
X159891457Y-119559390D01*
X159510504Y-119559390D01*
X160415266Y-119035580D02*
X161034314Y-119035580D01*
X160700980Y-119416533D01*
X160843838Y-119416533D01*
X160939076Y-119464152D01*
X160986695Y-119511771D01*
X161034314Y-119607009D01*
X161034314Y-119845104D01*
X160986695Y-119940342D01*
X160939076Y-119987961D01*
X160843838Y-120035580D01*
X160558123Y-120035580D01*
X160462885Y-119987961D01*
X160415266Y-119940342D01*
%TO.C,X2*%
X132591276Y-148397980D02*
X133257942Y-149397980D01*
X133257942Y-148397980D02*
X132591276Y-149397980D01*
X133591276Y-148493219D02*
X133638895Y-148445600D01*
X133734133Y-148397980D01*
X133972228Y-148397980D01*
X134067466Y-148445600D01*
X134115085Y-148493219D01*
X134162704Y-148588457D01*
X134162704Y-148683695D01*
X134115085Y-148826552D01*
X133543657Y-149397980D01*
X134162704Y-149397980D01*
%TO.C,U8*%
X166598695Y-54320780D02*
X166598695Y-55130304D01*
X166646314Y-55225542D01*
X166693933Y-55273161D01*
X166789171Y-55320780D01*
X166979647Y-55320780D01*
X167074885Y-55273161D01*
X167122504Y-55225542D01*
X167170123Y-55130304D01*
X167170123Y-54320780D01*
X167789171Y-54749352D02*
X167693933Y-54701733D01*
X167646314Y-54654114D01*
X167598695Y-54558876D01*
X167598695Y-54511257D01*
X167646314Y-54416019D01*
X167693933Y-54368400D01*
X167789171Y-54320780D01*
X167979647Y-54320780D01*
X168074885Y-54368400D01*
X168122504Y-54416019D01*
X168170123Y-54511257D01*
X168170123Y-54558876D01*
X168122504Y-54654114D01*
X168074885Y-54701733D01*
X167979647Y-54749352D01*
X167789171Y-54749352D01*
X167693933Y-54796971D01*
X167646314Y-54844590D01*
X167598695Y-54939828D01*
X167598695Y-55130304D01*
X167646314Y-55225542D01*
X167693933Y-55273161D01*
X167789171Y-55320780D01*
X167979647Y-55320780D01*
X168074885Y-55273161D01*
X168122504Y-55225542D01*
X168170123Y-55130304D01*
X168170123Y-54939828D01*
X168122504Y-54844590D01*
X168074885Y-54796971D01*
X167979647Y-54749352D01*
D11*
%TO.C,D9*%
X178424380Y-107519695D02*
X177424380Y-107519695D01*
X177424380Y-107281600D01*
X177472000Y-107138742D01*
X177567238Y-107043504D01*
X177662476Y-106995885D01*
X177852952Y-106948266D01*
X177995809Y-106948266D01*
X178186285Y-106995885D01*
X178281523Y-107043504D01*
X178376761Y-107138742D01*
X178424380Y-107281600D01*
X178424380Y-107519695D01*
X178424380Y-106472076D02*
X178424380Y-106281600D01*
X178376761Y-106186361D01*
X178329142Y-106138742D01*
X178186285Y-106043504D01*
X177995809Y-105995885D01*
X177614857Y-105995885D01*
X177519619Y-106043504D01*
X177472000Y-106091123D01*
X177424380Y-106186361D01*
X177424380Y-106376838D01*
X177472000Y-106472076D01*
X177519619Y-106519695D01*
X177614857Y-106567314D01*
X177852952Y-106567314D01*
X177948190Y-106519695D01*
X177995809Y-106472076D01*
X178043428Y-106376838D01*
X178043428Y-106186361D01*
X177995809Y-106091123D01*
X177948190Y-106043504D01*
X177852952Y-105995885D01*
D12*
%TO.C,R8*%
X112897333Y-58843980D02*
X112564000Y-58367790D01*
X112325904Y-58843980D02*
X112325904Y-57843980D01*
X112706857Y-57843980D01*
X112802095Y-57891600D01*
X112849714Y-57939219D01*
X112897333Y-58034457D01*
X112897333Y-58177314D01*
X112849714Y-58272552D01*
X112802095Y-58320171D01*
X112706857Y-58367790D01*
X112325904Y-58367790D01*
X113468761Y-58272552D02*
X113373523Y-58224933D01*
X113325904Y-58177314D01*
X113278285Y-58082076D01*
X113278285Y-58034457D01*
X113325904Y-57939219D01*
X113373523Y-57891600D01*
X113468761Y-57843980D01*
X113659238Y-57843980D01*
X113754476Y-57891600D01*
X113802095Y-57939219D01*
X113849714Y-58034457D01*
X113849714Y-58082076D01*
X113802095Y-58177314D01*
X113754476Y-58224933D01*
X113659238Y-58272552D01*
X113468761Y-58272552D01*
X113373523Y-58320171D01*
X113325904Y-58367790D01*
X113278285Y-58463028D01*
X113278285Y-58653504D01*
X113325904Y-58748742D01*
X113373523Y-58796361D01*
X113468761Y-58843980D01*
X113659238Y-58843980D01*
X113754476Y-58796361D01*
X113802095Y-58748742D01*
X113849714Y-58653504D01*
X113849714Y-58463028D01*
X113802095Y-58367790D01*
X113754476Y-58320171D01*
X113659238Y-58272552D01*
%TO.C,U5*%
X125893580Y-123113704D02*
X126703104Y-123113704D01*
X126798342Y-123066085D01*
X126845961Y-123018466D01*
X126893580Y-122923228D01*
X126893580Y-122732752D01*
X126845961Y-122637514D01*
X126798342Y-122589895D01*
X126703104Y-122542276D01*
X125893580Y-122542276D01*
X125893580Y-121589895D02*
X125893580Y-122066085D01*
X126369771Y-122113704D01*
X126322152Y-122066085D01*
X126274533Y-121970847D01*
X126274533Y-121732752D01*
X126322152Y-121637514D01*
X126369771Y-121589895D01*
X126465009Y-121542276D01*
X126703104Y-121542276D01*
X126798342Y-121589895D01*
X126845961Y-121637514D01*
X126893580Y-121732752D01*
X126893580Y-121970847D01*
X126845961Y-122066085D01*
X126798342Y-122113704D01*
%TO.C,U13*%
X164293704Y-128924980D02*
X164293704Y-129734504D01*
X164341323Y-129829742D01*
X164388942Y-129877361D01*
X164484180Y-129924980D01*
X164674657Y-129924980D01*
X164769895Y-129877361D01*
X164817514Y-129829742D01*
X164865133Y-129734504D01*
X164865133Y-128924980D01*
X165865133Y-129924980D02*
X165293704Y-129924980D01*
X165579419Y-129924980D02*
X165579419Y-128924980D01*
X165484180Y-129067838D01*
X165388942Y-129163076D01*
X165293704Y-129210695D01*
X166198466Y-128924980D02*
X166817514Y-128924980D01*
X166484180Y-129305933D01*
X166627038Y-129305933D01*
X166722276Y-129353552D01*
X166769895Y-129401171D01*
X166817514Y-129496409D01*
X166817514Y-129734504D01*
X166769895Y-129829742D01*
X166722276Y-129877361D01*
X166627038Y-129924980D01*
X166341323Y-129924980D01*
X166246085Y-129877361D01*
X166198466Y-129829742D01*
D11*
%TO.C,D10*%
X178424380Y-138475885D02*
X177424380Y-138475885D01*
X177424380Y-138237790D01*
X177472000Y-138094933D01*
X177567238Y-137999695D01*
X177662476Y-137952076D01*
X177852952Y-137904457D01*
X177995809Y-137904457D01*
X178186285Y-137952076D01*
X178281523Y-137999695D01*
X178376761Y-138094933D01*
X178424380Y-138237790D01*
X178424380Y-138475885D01*
X178424380Y-136952076D02*
X178424380Y-137523504D01*
X178424380Y-137237790D02*
X177424380Y-137237790D01*
X177567238Y-137333028D01*
X177662476Y-137428266D01*
X177710095Y-137523504D01*
X177424380Y-136333028D02*
X177424380Y-136237790D01*
X177472000Y-136142552D01*
X177519619Y-136094933D01*
X177614857Y-136047314D01*
X177805333Y-135999695D01*
X178043428Y-135999695D01*
X178233904Y-136047314D01*
X178329142Y-136094933D01*
X178376761Y-136142552D01*
X178424380Y-136237790D01*
X178424380Y-136333028D01*
X178376761Y-136428266D01*
X178329142Y-136475885D01*
X178233904Y-136523504D01*
X178043428Y-136571123D01*
X177805333Y-136571123D01*
X177614857Y-136523504D01*
X177519619Y-136475885D01*
X177472000Y-136428266D01*
X177424380Y-136333028D01*
D12*
%TO.C,R17*%
X176471342Y-87472780D02*
X176138009Y-86996590D01*
X175899914Y-87472780D02*
X175899914Y-86472780D01*
X176280866Y-86472780D01*
X176376104Y-86520400D01*
X176423723Y-86568019D01*
X176471342Y-86663257D01*
X176471342Y-86806114D01*
X176423723Y-86901352D01*
X176376104Y-86948971D01*
X176280866Y-86996590D01*
X175899914Y-86996590D01*
X177423723Y-87472780D02*
X176852295Y-87472780D01*
X177138009Y-87472780D02*
X177138009Y-86472780D01*
X177042771Y-86615638D01*
X176947533Y-86710876D01*
X176852295Y-86758495D01*
X177757057Y-86472780D02*
X178423723Y-86472780D01*
X177995152Y-87472780D01*
%TO.C,R12*%
X176471342Y-66492380D02*
X176138009Y-66016190D01*
X175899914Y-66492380D02*
X175899914Y-65492380D01*
X176280866Y-65492380D01*
X176376104Y-65540000D01*
X176423723Y-65587619D01*
X176471342Y-65682857D01*
X176471342Y-65825714D01*
X176423723Y-65920952D01*
X176376104Y-65968571D01*
X176280866Y-66016190D01*
X175899914Y-66016190D01*
X177423723Y-66492380D02*
X176852295Y-66492380D01*
X177138009Y-66492380D02*
X177138009Y-65492380D01*
X177042771Y-65635238D01*
X176947533Y-65730476D01*
X176852295Y-65778095D01*
X177804676Y-65587619D02*
X177852295Y-65540000D01*
X177947533Y-65492380D01*
X178185628Y-65492380D01*
X178280866Y-65540000D01*
X178328485Y-65587619D01*
X178376104Y-65682857D01*
X178376104Y-65778095D01*
X178328485Y-65920952D01*
X177757057Y-66492380D01*
X178376104Y-66492380D01*
%TO.C,U2*%
X130016380Y-126593504D02*
X130825904Y-126593504D01*
X130921142Y-126545885D01*
X130968761Y-126498266D01*
X131016380Y-126403028D01*
X131016380Y-126212552D01*
X130968761Y-126117314D01*
X130921142Y-126069695D01*
X130825904Y-126022076D01*
X130016380Y-126022076D01*
X130111619Y-125593504D02*
X130064000Y-125545885D01*
X130016380Y-125450647D01*
X130016380Y-125212552D01*
X130064000Y-125117314D01*
X130111619Y-125069695D01*
X130206857Y-125022076D01*
X130302095Y-125022076D01*
X130444952Y-125069695D01*
X131016380Y-125641123D01*
X131016380Y-125022076D01*
%TO.C,U1*%
X146812095Y-47407580D02*
X146812095Y-48217104D01*
X146859714Y-48312342D01*
X146907333Y-48359961D01*
X147002571Y-48407580D01*
X147193047Y-48407580D01*
X147288285Y-48359961D01*
X147335904Y-48312342D01*
X147383523Y-48217104D01*
X147383523Y-47407580D01*
X148383523Y-48407580D02*
X147812095Y-48407580D01*
X148097809Y-48407580D02*
X148097809Y-47407580D01*
X148002571Y-47550438D01*
X147907333Y-47645676D01*
X147812095Y-47693295D01*
D13*
%TO.C,J12*%
X178165523Y-128663095D02*
X179072666Y-128663095D01*
X179254095Y-128723571D01*
X179375047Y-128844523D01*
X179435523Y-129025952D01*
X179435523Y-129146904D01*
X179435523Y-127393095D02*
X179435523Y-128118809D01*
X179435523Y-127755952D02*
X178165523Y-127755952D01*
X178346952Y-127876904D01*
X178467904Y-127997857D01*
X178528380Y-128118809D01*
X178286476Y-126909285D02*
X178226000Y-126848809D01*
X178165523Y-126727857D01*
X178165523Y-126425476D01*
X178226000Y-126304523D01*
X178286476Y-126244047D01*
X178407428Y-126183571D01*
X178528380Y-126183571D01*
X178709809Y-126244047D01*
X179435523Y-126969761D01*
X179435523Y-126183571D01*
D12*
%TO.C,C8*%
X112697333Y-143363742D02*
X112649714Y-143411361D01*
X112506857Y-143458980D01*
X112411619Y-143458980D01*
X112268761Y-143411361D01*
X112173523Y-143316123D01*
X112125904Y-143220885D01*
X112078285Y-143030409D01*
X112078285Y-142887552D01*
X112125904Y-142697076D01*
X112173523Y-142601838D01*
X112268761Y-142506600D01*
X112411619Y-142458980D01*
X112506857Y-142458980D01*
X112649714Y-142506600D01*
X112697333Y-142554219D01*
X113268761Y-142887552D02*
X113173523Y-142839933D01*
X113125904Y-142792314D01*
X113078285Y-142697076D01*
X113078285Y-142649457D01*
X113125904Y-142554219D01*
X113173523Y-142506600D01*
X113268761Y-142458980D01*
X113459238Y-142458980D01*
X113554476Y-142506600D01*
X113602095Y-142554219D01*
X113649714Y-142649457D01*
X113649714Y-142697076D01*
X113602095Y-142792314D01*
X113554476Y-142839933D01*
X113459238Y-142887552D01*
X113268761Y-142887552D01*
X113173523Y-142935171D01*
X113125904Y-142982790D01*
X113078285Y-143078028D01*
X113078285Y-143268504D01*
X113125904Y-143363742D01*
X113173523Y-143411361D01*
X113268761Y-143458980D01*
X113459238Y-143458980D01*
X113554476Y-143411361D01*
X113602095Y-143363742D01*
X113649714Y-143268504D01*
X113649714Y-143078028D01*
X113602095Y-142982790D01*
X113554476Y-142935171D01*
X113459238Y-142887552D01*
D11*
%TO.C,R4*%
X163930333Y-149606380D02*
X163597000Y-149130190D01*
X163358904Y-149606380D02*
X163358904Y-148606380D01*
X163739857Y-148606380D01*
X163835095Y-148654000D01*
X163882714Y-148701619D01*
X163930333Y-148796857D01*
X163930333Y-148939714D01*
X163882714Y-149034952D01*
X163835095Y-149082571D01*
X163739857Y-149130190D01*
X163358904Y-149130190D01*
X164787476Y-148939714D02*
X164787476Y-149606380D01*
X164549380Y-148558761D02*
X164311285Y-149273047D01*
X164930333Y-149273047D01*
D12*
%TO.C,C9*%
X124997333Y-143393742D02*
X124949714Y-143441361D01*
X124806857Y-143488980D01*
X124711619Y-143488980D01*
X124568761Y-143441361D01*
X124473523Y-143346123D01*
X124425904Y-143250885D01*
X124378285Y-143060409D01*
X124378285Y-142917552D01*
X124425904Y-142727076D01*
X124473523Y-142631838D01*
X124568761Y-142536600D01*
X124711619Y-142488980D01*
X124806857Y-142488980D01*
X124949714Y-142536600D01*
X124997333Y-142584219D01*
X125473523Y-143488980D02*
X125664000Y-143488980D01*
X125759238Y-143441361D01*
X125806857Y-143393742D01*
X125902095Y-143250885D01*
X125949714Y-143060409D01*
X125949714Y-142679457D01*
X125902095Y-142584219D01*
X125854476Y-142536600D01*
X125759238Y-142488980D01*
X125568761Y-142488980D01*
X125473523Y-142536600D01*
X125425904Y-142584219D01*
X125378285Y-142679457D01*
X125378285Y-142917552D01*
X125425904Y-143012790D01*
X125473523Y-143060409D01*
X125568761Y-143108028D01*
X125759238Y-143108028D01*
X125854476Y-143060409D01*
X125902095Y-143012790D01*
X125949714Y-142917552D01*
%TO.C,C10*%
X136721142Y-143388742D02*
X136673523Y-143436361D01*
X136530666Y-143483980D01*
X136435428Y-143483980D01*
X136292571Y-143436361D01*
X136197333Y-143341123D01*
X136149714Y-143245885D01*
X136102095Y-143055409D01*
X136102095Y-142912552D01*
X136149714Y-142722076D01*
X136197333Y-142626838D01*
X136292571Y-142531600D01*
X136435428Y-142483980D01*
X136530666Y-142483980D01*
X136673523Y-142531600D01*
X136721142Y-142579219D01*
X137673523Y-143483980D02*
X137102095Y-143483980D01*
X137387809Y-143483980D02*
X137387809Y-142483980D01*
X137292571Y-142626838D01*
X137197333Y-142722076D01*
X137102095Y-142769695D01*
X138292571Y-142483980D02*
X138387809Y-142483980D01*
X138483047Y-142531600D01*
X138530666Y-142579219D01*
X138578285Y-142674457D01*
X138625904Y-142864933D01*
X138625904Y-143103028D01*
X138578285Y-143293504D01*
X138530666Y-143388742D01*
X138483047Y-143436361D01*
X138387809Y-143483980D01*
X138292571Y-143483980D01*
X138197333Y-143436361D01*
X138149714Y-143388742D01*
X138102095Y-143293504D01*
X138054476Y-143103028D01*
X138054476Y-142864933D01*
X138102095Y-142674457D01*
X138149714Y-142579219D01*
X138197333Y-142531600D01*
X138292571Y-142483980D01*
D11*
%TO.C,D6*%
X180649180Y-67946495D02*
X179649180Y-67946495D01*
X179649180Y-67708400D01*
X179696800Y-67565542D01*
X179792038Y-67470304D01*
X179887276Y-67422685D01*
X180077752Y-67375066D01*
X180220609Y-67375066D01*
X180411085Y-67422685D01*
X180506323Y-67470304D01*
X180601561Y-67565542D01*
X180649180Y-67708400D01*
X180649180Y-67946495D01*
X179649180Y-66517923D02*
X179649180Y-66708400D01*
X179696800Y-66803638D01*
X179744419Y-66851257D01*
X179887276Y-66946495D01*
X180077752Y-66994114D01*
X180458704Y-66994114D01*
X180553942Y-66946495D01*
X180601561Y-66898876D01*
X180649180Y-66803638D01*
X180649180Y-66613161D01*
X180601561Y-66517923D01*
X180553942Y-66470304D01*
X180458704Y-66422685D01*
X180220609Y-66422685D01*
X180125371Y-66470304D01*
X180077752Y-66517923D01*
X180030133Y-66613161D01*
X180030133Y-66803638D01*
X180077752Y-66898876D01*
X180125371Y-66946495D01*
X180220609Y-66994114D01*
D12*
%TO.C,R15*%
X176471342Y-84348580D02*
X176138009Y-83872390D01*
X175899914Y-84348580D02*
X175899914Y-83348580D01*
X176280866Y-83348580D01*
X176376104Y-83396200D01*
X176423723Y-83443819D01*
X176471342Y-83539057D01*
X176471342Y-83681914D01*
X176423723Y-83777152D01*
X176376104Y-83824771D01*
X176280866Y-83872390D01*
X175899914Y-83872390D01*
X177423723Y-84348580D02*
X176852295Y-84348580D01*
X177138009Y-84348580D02*
X177138009Y-83348580D01*
X177042771Y-83491438D01*
X176947533Y-83586676D01*
X176852295Y-83634295D01*
X178328485Y-83348580D02*
X177852295Y-83348580D01*
X177804676Y-83824771D01*
X177852295Y-83777152D01*
X177947533Y-83729533D01*
X178185628Y-83729533D01*
X178280866Y-83777152D01*
X178328485Y-83824771D01*
X178376104Y-83920009D01*
X178376104Y-84158104D01*
X178328485Y-84253342D01*
X178280866Y-84300961D01*
X178185628Y-84348580D01*
X177947533Y-84348580D01*
X177852295Y-84300961D01*
X177804676Y-84253342D01*
%TO.C,C11*%
X149021142Y-143333742D02*
X148973523Y-143381361D01*
X148830666Y-143428980D01*
X148735428Y-143428980D01*
X148592571Y-143381361D01*
X148497333Y-143286123D01*
X148449714Y-143190885D01*
X148402095Y-143000409D01*
X148402095Y-142857552D01*
X148449714Y-142667076D01*
X148497333Y-142571838D01*
X148592571Y-142476600D01*
X148735428Y-142428980D01*
X148830666Y-142428980D01*
X148973523Y-142476600D01*
X149021142Y-142524219D01*
X149973523Y-143428980D02*
X149402095Y-143428980D01*
X149687809Y-143428980D02*
X149687809Y-142428980D01*
X149592571Y-142571838D01*
X149497333Y-142667076D01*
X149402095Y-142714695D01*
X150925904Y-143428980D02*
X150354476Y-143428980D01*
X150640190Y-143428980D02*
X150640190Y-142428980D01*
X150544952Y-142571838D01*
X150449714Y-142667076D01*
X150354476Y-142714695D01*
%TO.C,J5*%
X182094380Y-87221333D02*
X182808666Y-87221333D01*
X182951523Y-87268952D01*
X183046761Y-87364190D01*
X183094380Y-87507047D01*
X183094380Y-87602285D01*
X182094380Y-86268952D02*
X182094380Y-86745142D01*
X182570571Y-86792761D01*
X182522952Y-86745142D01*
X182475333Y-86649904D01*
X182475333Y-86411809D01*
X182522952Y-86316571D01*
X182570571Y-86268952D01*
X182665809Y-86221333D01*
X182903904Y-86221333D01*
X182999142Y-86268952D01*
X183046761Y-86316571D01*
X183094380Y-86411809D01*
X183094380Y-86649904D01*
X183046761Y-86745142D01*
X182999142Y-86792761D01*
%TO.C,C3*%
X164425333Y-43054542D02*
X164377714Y-43102161D01*
X164234857Y-43149780D01*
X164139619Y-43149780D01*
X163996761Y-43102161D01*
X163901523Y-43006923D01*
X163853904Y-42911685D01*
X163806285Y-42721209D01*
X163806285Y-42578352D01*
X163853904Y-42387876D01*
X163901523Y-42292638D01*
X163996761Y-42197400D01*
X164139619Y-42149780D01*
X164234857Y-42149780D01*
X164377714Y-42197400D01*
X164425333Y-42245019D01*
X164758666Y-42149780D02*
X165377714Y-42149780D01*
X165044380Y-42530733D01*
X165187238Y-42530733D01*
X165282476Y-42578352D01*
X165330095Y-42625971D01*
X165377714Y-42721209D01*
X165377714Y-42959304D01*
X165330095Y-43054542D01*
X165282476Y-43102161D01*
X165187238Y-43149780D01*
X164901523Y-43149780D01*
X164806285Y-43102161D01*
X164758666Y-43054542D01*
%TO.C,R18*%
X158894542Y-138069580D02*
X158561209Y-137593390D01*
X158323114Y-138069580D02*
X158323114Y-137069580D01*
X158704066Y-137069580D01*
X158799304Y-137117200D01*
X158846923Y-137164819D01*
X158894542Y-137260057D01*
X158894542Y-137402914D01*
X158846923Y-137498152D01*
X158799304Y-137545771D01*
X158704066Y-137593390D01*
X158323114Y-137593390D01*
X159846923Y-138069580D02*
X159275495Y-138069580D01*
X159561209Y-138069580D02*
X159561209Y-137069580D01*
X159465971Y-137212438D01*
X159370733Y-137307676D01*
X159275495Y-137355295D01*
X160418352Y-137498152D02*
X160323114Y-137450533D01*
X160275495Y-137402914D01*
X160227876Y-137307676D01*
X160227876Y-137260057D01*
X160275495Y-137164819D01*
X160323114Y-137117200D01*
X160418352Y-137069580D01*
X160608828Y-137069580D01*
X160704066Y-137117200D01*
X160751685Y-137164819D01*
X160799304Y-137260057D01*
X160799304Y-137307676D01*
X160751685Y-137402914D01*
X160704066Y-137450533D01*
X160608828Y-137498152D01*
X160418352Y-137498152D01*
X160323114Y-137545771D01*
X160275495Y-137593390D01*
X160227876Y-137688628D01*
X160227876Y-137879104D01*
X160275495Y-137974342D01*
X160323114Y-138021961D01*
X160418352Y-138069580D01*
X160608828Y-138069580D01*
X160704066Y-138021961D01*
X160751685Y-137974342D01*
X160799304Y-137879104D01*
X160799304Y-137688628D01*
X160751685Y-137593390D01*
X160704066Y-137545771D01*
X160608828Y-137498152D01*
%TO.C,C21*%
X163669742Y-62688742D02*
X163622123Y-62736361D01*
X163479266Y-62783980D01*
X163384028Y-62783980D01*
X163241171Y-62736361D01*
X163145933Y-62641123D01*
X163098314Y-62545885D01*
X163050695Y-62355409D01*
X163050695Y-62212552D01*
X163098314Y-62022076D01*
X163145933Y-61926838D01*
X163241171Y-61831600D01*
X163384028Y-61783980D01*
X163479266Y-61783980D01*
X163622123Y-61831600D01*
X163669742Y-61879219D01*
X164050695Y-61879219D02*
X164098314Y-61831600D01*
X164193552Y-61783980D01*
X164431647Y-61783980D01*
X164526885Y-61831600D01*
X164574504Y-61879219D01*
X164622123Y-61974457D01*
X164622123Y-62069695D01*
X164574504Y-62212552D01*
X164003076Y-62783980D01*
X164622123Y-62783980D01*
X165574504Y-62783980D02*
X165003076Y-62783980D01*
X165288790Y-62783980D02*
X165288790Y-61783980D01*
X165193552Y-61926838D01*
X165098314Y-62022076D01*
X165003076Y-62069695D01*
%TO.C,R7*%
X126716380Y-131378266D02*
X126240190Y-131711600D01*
X126716380Y-131949695D02*
X125716380Y-131949695D01*
X125716380Y-131568742D01*
X125764000Y-131473504D01*
X125811619Y-131425885D01*
X125906857Y-131378266D01*
X126049714Y-131378266D01*
X126144952Y-131425885D01*
X126192571Y-131473504D01*
X126240190Y-131568742D01*
X126240190Y-131949695D01*
X125716380Y-131044933D02*
X125716380Y-130378266D01*
X126716380Y-130806838D01*
%TO.C,C18*%
X184599342Y-73001142D02*
X184551723Y-73048761D01*
X184408866Y-73096380D01*
X184313628Y-73096380D01*
X184170771Y-73048761D01*
X184075533Y-72953523D01*
X184027914Y-72858285D01*
X183980295Y-72667809D01*
X183980295Y-72524952D01*
X184027914Y-72334476D01*
X184075533Y-72239238D01*
X184170771Y-72144000D01*
X184313628Y-72096380D01*
X184408866Y-72096380D01*
X184551723Y-72144000D01*
X184599342Y-72191619D01*
X185551723Y-73096380D02*
X184980295Y-73096380D01*
X185266009Y-73096380D02*
X185266009Y-72096380D01*
X185170771Y-72239238D01*
X185075533Y-72334476D01*
X184980295Y-72382095D01*
X186123152Y-72524952D02*
X186027914Y-72477333D01*
X185980295Y-72429714D01*
X185932676Y-72334476D01*
X185932676Y-72286857D01*
X185980295Y-72191619D01*
X186027914Y-72144000D01*
X186123152Y-72096380D01*
X186313628Y-72096380D01*
X186408866Y-72144000D01*
X186456485Y-72191619D01*
X186504104Y-72286857D01*
X186504104Y-72334476D01*
X186456485Y-72429714D01*
X186408866Y-72477333D01*
X186313628Y-72524952D01*
X186123152Y-72524952D01*
X186027914Y-72572571D01*
X185980295Y-72620190D01*
X185932676Y-72715428D01*
X185932676Y-72905904D01*
X185980295Y-73001142D01*
X186027914Y-73048761D01*
X186123152Y-73096380D01*
X186313628Y-73096380D01*
X186408866Y-73048761D01*
X186456485Y-73001142D01*
X186504104Y-72905904D01*
X186504104Y-72715428D01*
X186456485Y-72620190D01*
X186408866Y-72572571D01*
X186313628Y-72524952D01*
D13*
%TO.C,J3*%
X175039866Y-54041523D02*
X175039866Y-54948666D01*
X174979390Y-55130095D01*
X174858438Y-55251047D01*
X174677009Y-55311523D01*
X174556057Y-55311523D01*
X175523676Y-54041523D02*
X176309866Y-54041523D01*
X175886533Y-54525333D01*
X176067961Y-54525333D01*
X176188914Y-54585809D01*
X176249390Y-54646285D01*
X176309866Y-54767238D01*
X176309866Y-55069619D01*
X176249390Y-55190571D01*
X176188914Y-55251047D01*
X176067961Y-55311523D01*
X175705104Y-55311523D01*
X175584152Y-55251047D01*
X175523676Y-55190571D01*
D12*
%TO.C,U3*%
X130016380Y-101193504D02*
X130825904Y-101193504D01*
X130921142Y-101145885D01*
X130968761Y-101098266D01*
X131016380Y-101003028D01*
X131016380Y-100812552D01*
X130968761Y-100717314D01*
X130921142Y-100669695D01*
X130825904Y-100622076D01*
X130016380Y-100622076D01*
X130016380Y-100241123D02*
X130016380Y-99622076D01*
X130397333Y-99955409D01*
X130397333Y-99812552D01*
X130444952Y-99717314D01*
X130492571Y-99669695D01*
X130587809Y-99622076D01*
X130825904Y-99622076D01*
X130921142Y-99669695D01*
X130968761Y-99717314D01*
X131016380Y-99812552D01*
X131016380Y-100098266D01*
X130968761Y-100193504D01*
X130921142Y-100241123D01*
D11*
%TO.C,D11*%
X178424380Y-133395885D02*
X177424380Y-133395885D01*
X177424380Y-133157790D01*
X177472000Y-133014933D01*
X177567238Y-132919695D01*
X177662476Y-132872076D01*
X177852952Y-132824457D01*
X177995809Y-132824457D01*
X178186285Y-132872076D01*
X178281523Y-132919695D01*
X178376761Y-133014933D01*
X178424380Y-133157790D01*
X178424380Y-133395885D01*
X178424380Y-131872076D02*
X178424380Y-132443504D01*
X178424380Y-132157790D02*
X177424380Y-132157790D01*
X177567238Y-132253028D01*
X177662476Y-132348266D01*
X177710095Y-132443504D01*
X178424380Y-130919695D02*
X178424380Y-131491123D01*
X178424380Y-131205409D02*
X177424380Y-131205409D01*
X177567238Y-131300647D01*
X177662476Y-131395885D01*
X177710095Y-131491123D01*
D12*
%TO.C,X4*%
X157280076Y-148397980D02*
X157946742Y-149397980D01*
X157946742Y-148397980D02*
X157280076Y-149397980D01*
X158756266Y-148731314D02*
X158756266Y-149397980D01*
X158518171Y-148350361D02*
X158280076Y-149064647D01*
X158899123Y-149064647D01*
%TO.C,D1*%
X117202095Y-42409219D02*
X117202095Y-43409219D01*
X116964000Y-43409219D01*
X116821142Y-43361600D01*
X116725904Y-43266361D01*
X116678285Y-43171123D01*
X116630666Y-42980647D01*
X116630666Y-42837790D01*
X116678285Y-42647314D01*
X116725904Y-42552076D01*
X116821142Y-42456838D01*
X116964000Y-42409219D01*
X117202095Y-42409219D01*
X115678285Y-42409219D02*
X116249714Y-42409219D01*
X115964000Y-42409219D02*
X115964000Y-43409219D01*
X116059238Y-43266361D01*
X116154476Y-43171123D01*
X116249714Y-43123504D01*
%TO.C,R11*%
X176496742Y-64942980D02*
X176163409Y-64466790D01*
X175925314Y-64942980D02*
X175925314Y-63942980D01*
X176306266Y-63942980D01*
X176401504Y-63990600D01*
X176449123Y-64038219D01*
X176496742Y-64133457D01*
X176496742Y-64276314D01*
X176449123Y-64371552D01*
X176401504Y-64419171D01*
X176306266Y-64466790D01*
X175925314Y-64466790D01*
X177449123Y-64942980D02*
X176877695Y-64942980D01*
X177163409Y-64942980D02*
X177163409Y-63942980D01*
X177068171Y-64085838D01*
X176972933Y-64181076D01*
X176877695Y-64228695D01*
X178401504Y-64942980D02*
X177830076Y-64942980D01*
X178115790Y-64942980D02*
X178115790Y-63942980D01*
X178020552Y-64085838D01*
X177925314Y-64181076D01*
X177830076Y-64228695D01*
%TO.C,C4*%
X138974533Y-60238342D02*
X138926914Y-60285961D01*
X138784057Y-60333580D01*
X138688819Y-60333580D01*
X138545961Y-60285961D01*
X138450723Y-60190723D01*
X138403104Y-60095485D01*
X138355485Y-59905009D01*
X138355485Y-59762152D01*
X138403104Y-59571676D01*
X138450723Y-59476438D01*
X138545961Y-59381200D01*
X138688819Y-59333580D01*
X138784057Y-59333580D01*
X138926914Y-59381200D01*
X138974533Y-59428819D01*
X139831676Y-59666914D02*
X139831676Y-60333580D01*
X139593580Y-59285961D02*
X139355485Y-60000247D01*
X139974533Y-60000247D01*
%TO.C,R5*%
X114422280Y-124343166D02*
X113946090Y-124676500D01*
X114422280Y-124914595D02*
X113422280Y-124914595D01*
X113422280Y-124533642D01*
X113469900Y-124438404D01*
X113517519Y-124390785D01*
X113612757Y-124343166D01*
X113755614Y-124343166D01*
X113850852Y-124390785D01*
X113898471Y-124438404D01*
X113946090Y-124533642D01*
X113946090Y-124914595D01*
X113422280Y-123438404D02*
X113422280Y-123914595D01*
X113898471Y-123962214D01*
X113850852Y-123914595D01*
X113803233Y-123819357D01*
X113803233Y-123581261D01*
X113850852Y-123486023D01*
X113898471Y-123438404D01*
X113993709Y-123390785D01*
X114231804Y-123390785D01*
X114327042Y-123438404D01*
X114374661Y-123486023D01*
X114422280Y-123581261D01*
X114422280Y-123819357D01*
X114374661Y-123914595D01*
X114327042Y-123962214D01*
%TO.C,D16*%
X106849714Y-58843980D02*
X106849714Y-57843980D01*
X107087809Y-57843980D01*
X107230666Y-57891600D01*
X107325904Y-57986838D01*
X107373523Y-58082076D01*
X107421142Y-58272552D01*
X107421142Y-58415409D01*
X107373523Y-58605885D01*
X107325904Y-58701123D01*
X107230666Y-58796361D01*
X107087809Y-58843980D01*
X106849714Y-58843980D01*
X108373523Y-58843980D02*
X107802095Y-58843980D01*
X108087809Y-58843980D02*
X108087809Y-57843980D01*
X107992571Y-57986838D01*
X107897333Y-58082076D01*
X107802095Y-58129695D01*
X109230666Y-57843980D02*
X109040190Y-57843980D01*
X108944952Y-57891600D01*
X108897333Y-57939219D01*
X108802095Y-58082076D01*
X108754476Y-58272552D01*
X108754476Y-58653504D01*
X108802095Y-58748742D01*
X108849714Y-58796361D01*
X108944952Y-58843980D01*
X109135428Y-58843980D01*
X109230666Y-58796361D01*
X109278285Y-58748742D01*
X109325904Y-58653504D01*
X109325904Y-58415409D01*
X109278285Y-58320171D01*
X109230666Y-58272552D01*
X109135428Y-58224933D01*
X108944952Y-58224933D01*
X108849714Y-58272552D01*
X108802095Y-58320171D01*
X108754476Y-58415409D01*
%TO.C,U12*%
X168637104Y-69657980D02*
X168637104Y-70467504D01*
X168684723Y-70562742D01*
X168732342Y-70610361D01*
X168827580Y-70657980D01*
X169018057Y-70657980D01*
X169113295Y-70610361D01*
X169160914Y-70562742D01*
X169208533Y-70467504D01*
X169208533Y-69657980D01*
X170208533Y-70657980D02*
X169637104Y-70657980D01*
X169922819Y-70657980D02*
X169922819Y-69657980D01*
X169827580Y-69800838D01*
X169732342Y-69896076D01*
X169637104Y-69943695D01*
X170589485Y-69753219D02*
X170637104Y-69705600D01*
X170732342Y-69657980D01*
X170970438Y-69657980D01*
X171065676Y-69705600D01*
X171113295Y-69753219D01*
X171160914Y-69848457D01*
X171160914Y-69943695D01*
X171113295Y-70086552D01*
X170541866Y-70657980D01*
X171160914Y-70657980D01*
D11*
%TO.C,D12*%
X120803714Y-140989180D02*
X120803714Y-139989180D01*
X121041809Y-139989180D01*
X121184666Y-140036800D01*
X121279904Y-140132038D01*
X121327523Y-140227276D01*
X121375142Y-140417752D01*
X121375142Y-140560609D01*
X121327523Y-140751085D01*
X121279904Y-140846323D01*
X121184666Y-140941561D01*
X121041809Y-140989180D01*
X120803714Y-140989180D01*
X122327523Y-140989180D02*
X121756095Y-140989180D01*
X122041809Y-140989180D02*
X122041809Y-139989180D01*
X121946571Y-140132038D01*
X121851333Y-140227276D01*
X121756095Y-140274895D01*
X122708476Y-140084419D02*
X122756095Y-140036800D01*
X122851333Y-139989180D01*
X123089428Y-139989180D01*
X123184666Y-140036800D01*
X123232285Y-140084419D01*
X123279904Y-140179657D01*
X123279904Y-140274895D01*
X123232285Y-140417752D01*
X122660857Y-140989180D01*
X123279904Y-140989180D01*
D12*
%TO.C,R14*%
X176445942Y-69591180D02*
X176112609Y-69114990D01*
X175874514Y-69591180D02*
X175874514Y-68591180D01*
X176255466Y-68591180D01*
X176350704Y-68638800D01*
X176398323Y-68686419D01*
X176445942Y-68781657D01*
X176445942Y-68924514D01*
X176398323Y-69019752D01*
X176350704Y-69067371D01*
X176255466Y-69114990D01*
X175874514Y-69114990D01*
X177398323Y-69591180D02*
X176826895Y-69591180D01*
X177112609Y-69591180D02*
X177112609Y-68591180D01*
X177017371Y-68734038D01*
X176922133Y-68829276D01*
X176826895Y-68876895D01*
X178255466Y-68924514D02*
X178255466Y-69591180D01*
X178017371Y-68543561D02*
X177779276Y-69257847D01*
X178398323Y-69257847D01*
%TO.C,U11*%
X167621104Y-87412580D02*
X167621104Y-88222104D01*
X167668723Y-88317342D01*
X167716342Y-88364961D01*
X167811580Y-88412580D01*
X168002057Y-88412580D01*
X168097295Y-88364961D01*
X168144914Y-88317342D01*
X168192533Y-88222104D01*
X168192533Y-87412580D01*
X169192533Y-88412580D02*
X168621104Y-88412580D01*
X168906819Y-88412580D02*
X168906819Y-87412580D01*
X168811580Y-87555438D01*
X168716342Y-87650676D01*
X168621104Y-87698295D01*
X170144914Y-88412580D02*
X169573485Y-88412580D01*
X169859200Y-88412580D02*
X169859200Y-87412580D01*
X169763961Y-87555438D01*
X169668723Y-87650676D01*
X169573485Y-87698295D01*
D11*
%TO.C,D5*%
X180496780Y-74291095D02*
X179496780Y-74291095D01*
X179496780Y-74053000D01*
X179544400Y-73910142D01*
X179639638Y-73814904D01*
X179734876Y-73767285D01*
X179925352Y-73719666D01*
X180068209Y-73719666D01*
X180258685Y-73767285D01*
X180353923Y-73814904D01*
X180449161Y-73910142D01*
X180496780Y-74053000D01*
X180496780Y-74291095D01*
X179496780Y-72814904D02*
X179496780Y-73291095D01*
X179972971Y-73338714D01*
X179925352Y-73291095D01*
X179877733Y-73195857D01*
X179877733Y-72957761D01*
X179925352Y-72862523D01*
X179972971Y-72814904D01*
X180068209Y-72767285D01*
X180306304Y-72767285D01*
X180401542Y-72814904D01*
X180449161Y-72862523D01*
X180496780Y-72957761D01*
X180496780Y-73195857D01*
X180449161Y-73291095D01*
X180401542Y-73338714D01*
D12*
%TO.C,U6*%
X155916380Y-77603504D02*
X156725904Y-77603504D01*
X156821142Y-77555885D01*
X156868761Y-77508266D01*
X156916380Y-77413028D01*
X156916380Y-77222552D01*
X156868761Y-77127314D01*
X156821142Y-77079695D01*
X156725904Y-77032076D01*
X155916380Y-77032076D01*
X155916380Y-76127314D02*
X155916380Y-76317790D01*
X155964000Y-76413028D01*
X156011619Y-76460647D01*
X156154476Y-76555885D01*
X156344952Y-76603504D01*
X156725904Y-76603504D01*
X156821142Y-76555885D01*
X156868761Y-76508266D01*
X156916380Y-76413028D01*
X156916380Y-76222552D01*
X156868761Y-76127314D01*
X156821142Y-76079695D01*
X156725904Y-76032076D01*
X156487809Y-76032076D01*
X156392571Y-76079695D01*
X156344952Y-76127314D01*
X156297333Y-76222552D01*
X156297333Y-76413028D01*
X156344952Y-76508266D01*
X156392571Y-76555885D01*
X156487809Y-76603504D01*
%TO.C,C1*%
X128808933Y-51168742D02*
X128761314Y-51216361D01*
X128618457Y-51263980D01*
X128523219Y-51263980D01*
X128380361Y-51216361D01*
X128285123Y-51121123D01*
X128237504Y-51025885D01*
X128189885Y-50835409D01*
X128189885Y-50692552D01*
X128237504Y-50502076D01*
X128285123Y-50406838D01*
X128380361Y-50311600D01*
X128523219Y-50263980D01*
X128618457Y-50263980D01*
X128761314Y-50311600D01*
X128808933Y-50359219D01*
X129761314Y-51263980D02*
X129189885Y-51263980D01*
X129475600Y-51263980D02*
X129475600Y-50263980D01*
X129380361Y-50406838D01*
X129285123Y-50502076D01*
X129189885Y-50549695D01*
D13*
%TO.C,J11*%
X135039704Y-54651123D02*
X135039704Y-55558266D01*
X134979228Y-55739695D01*
X134858276Y-55860647D01*
X134676847Y-55921123D01*
X134555895Y-55921123D01*
X136309704Y-55921123D02*
X135583990Y-55921123D01*
X135946847Y-55921123D02*
X135946847Y-54651123D01*
X135825895Y-54832552D01*
X135704942Y-54953504D01*
X135583990Y-55013980D01*
X137519228Y-55921123D02*
X136793514Y-55921123D01*
X137156371Y-55921123D02*
X137156371Y-54651123D01*
X137035419Y-54832552D01*
X136914466Y-54953504D01*
X136793514Y-55013980D01*
%TO.C,Q1*%
X106486476Y-116198952D02*
X106426000Y-116319904D01*
X106305047Y-116440857D01*
X106123619Y-116622285D01*
X106063142Y-116743238D01*
X106063142Y-116864190D01*
X106365523Y-116803714D02*
X106305047Y-116924666D01*
X106184095Y-117045619D01*
X105942190Y-117106095D01*
X105518857Y-117106095D01*
X105276952Y-117045619D01*
X105156000Y-116924666D01*
X105095523Y-116803714D01*
X105095523Y-116561809D01*
X105156000Y-116440857D01*
X105276952Y-116319904D01*
X105518857Y-116259428D01*
X105942190Y-116259428D01*
X106184095Y-116319904D01*
X106305047Y-116440857D01*
X106365523Y-116561809D01*
X106365523Y-116803714D01*
X106365523Y-115049904D02*
X106365523Y-115775619D01*
X106365523Y-115412761D02*
X105095523Y-115412761D01*
X105276952Y-115533714D01*
X105397904Y-115654666D01*
X105458380Y-115775619D01*
D12*
%TO.C,R13*%
X176420542Y-68067180D02*
X176087209Y-67590990D01*
X175849114Y-68067180D02*
X175849114Y-67067180D01*
X176230066Y-67067180D01*
X176325304Y-67114800D01*
X176372923Y-67162419D01*
X176420542Y-67257657D01*
X176420542Y-67400514D01*
X176372923Y-67495752D01*
X176325304Y-67543371D01*
X176230066Y-67590990D01*
X175849114Y-67590990D01*
X177372923Y-68067180D02*
X176801495Y-68067180D01*
X177087209Y-68067180D02*
X177087209Y-67067180D01*
X176991971Y-67210038D01*
X176896733Y-67305276D01*
X176801495Y-67352895D01*
X177706257Y-67067180D02*
X178325304Y-67067180D01*
X177991971Y-67448133D01*
X178134828Y-67448133D01*
X178230066Y-67495752D01*
X178277685Y-67543371D01*
X178325304Y-67638609D01*
X178325304Y-67876704D01*
X178277685Y-67971942D01*
X178230066Y-68019561D01*
X178134828Y-68067180D01*
X177849114Y-68067180D01*
X177753876Y-68019561D01*
X177706257Y-67971942D01*
%TO.C,C13*%
X168267142Y-150420342D02*
X168219523Y-150467961D01*
X168076666Y-150515580D01*
X167981428Y-150515580D01*
X167838571Y-150467961D01*
X167743333Y-150372723D01*
X167695714Y-150277485D01*
X167648095Y-150087009D01*
X167648095Y-149944152D01*
X167695714Y-149753676D01*
X167743333Y-149658438D01*
X167838571Y-149563200D01*
X167981428Y-149515580D01*
X168076666Y-149515580D01*
X168219523Y-149563200D01*
X168267142Y-149610819D01*
X169219523Y-150515580D02*
X168648095Y-150515580D01*
X168933809Y-150515580D02*
X168933809Y-149515580D01*
X168838571Y-149658438D01*
X168743333Y-149753676D01*
X168648095Y-149801295D01*
X169552857Y-149515580D02*
X170171904Y-149515580D01*
X169838571Y-149896533D01*
X169981428Y-149896533D01*
X170076666Y-149944152D01*
X170124285Y-149991771D01*
X170171904Y-150087009D01*
X170171904Y-150325104D01*
X170124285Y-150420342D01*
X170076666Y-150467961D01*
X169981428Y-150515580D01*
X169695714Y-150515580D01*
X169600476Y-150467961D01*
X169552857Y-150420342D01*
%TO.C,J7*%
X182383180Y-73637733D02*
X183097466Y-73637733D01*
X183240323Y-73685352D01*
X183335561Y-73780590D01*
X183383180Y-73923447D01*
X183383180Y-74018685D01*
X182383180Y-73256780D02*
X182383180Y-72590114D01*
X183383180Y-73018685D01*
D13*
%TO.C,U9*%
X173149380Y-91379523D02*
X173149380Y-92407619D01*
X173209857Y-92528571D01*
X173270333Y-92589047D01*
X173391285Y-92649523D01*
X173633190Y-92649523D01*
X173754142Y-92589047D01*
X173814619Y-92528571D01*
X173875095Y-92407619D01*
X173875095Y-91379523D01*
X174540333Y-92649523D02*
X174782238Y-92649523D01*
X174903190Y-92589047D01*
X174963666Y-92528571D01*
X175084619Y-92347142D01*
X175145095Y-92105238D01*
X175145095Y-91621428D01*
X175084619Y-91500476D01*
X175024142Y-91440000D01*
X174903190Y-91379523D01*
X174661285Y-91379523D01*
X174540333Y-91440000D01*
X174479857Y-91500476D01*
X174419380Y-91621428D01*
X174419380Y-91923809D01*
X174479857Y-92044761D01*
X174540333Y-92105238D01*
X174661285Y-92165714D01*
X174903190Y-92165714D01*
X175024142Y-92105238D01*
X175084619Y-92044761D01*
X175145095Y-91923809D01*
D12*
%TO.C,J8*%
X182383180Y-67186133D02*
X183097466Y-67186133D01*
X183240323Y-67233752D01*
X183335561Y-67328990D01*
X183383180Y-67471847D01*
X183383180Y-67567085D01*
X182811752Y-66567085D02*
X182764133Y-66662323D01*
X182716514Y-66709942D01*
X182621276Y-66757561D01*
X182573657Y-66757561D01*
X182478419Y-66709942D01*
X182430800Y-66662323D01*
X182383180Y-66567085D01*
X182383180Y-66376609D01*
X182430800Y-66281371D01*
X182478419Y-66233752D01*
X182573657Y-66186133D01*
X182621276Y-66186133D01*
X182716514Y-66233752D01*
X182764133Y-66281371D01*
X182811752Y-66376609D01*
X182811752Y-66567085D01*
X182859371Y-66662323D01*
X182906990Y-66709942D01*
X183002228Y-66757561D01*
X183192704Y-66757561D01*
X183287942Y-66709942D01*
X183335561Y-66662323D01*
X183383180Y-66567085D01*
X183383180Y-66376609D01*
X183335561Y-66281371D01*
X183287942Y-66233752D01*
X183192704Y-66186133D01*
X183002228Y-66186133D01*
X182906990Y-66233752D01*
X182859371Y-66281371D01*
X182811752Y-66376609D01*
%TO.C,X3*%
X144986476Y-148397980D02*
X145653142Y-149397980D01*
X145653142Y-148397980D02*
X144986476Y-149397980D01*
X145938857Y-148397980D02*
X146557904Y-148397980D01*
X146224571Y-148778933D01*
X146367428Y-148778933D01*
X146462666Y-148826552D01*
X146510285Y-148874171D01*
X146557904Y-148969409D01*
X146557904Y-149207504D01*
X146510285Y-149302742D01*
X146462666Y-149350361D01*
X146367428Y-149397980D01*
X146081714Y-149397980D01*
X145986476Y-149350361D01*
X145938857Y-149302742D01*
D13*
%TO.C,C2*%
X124352333Y-47565171D02*
X124291857Y-47625647D01*
X124110428Y-47686123D01*
X123989476Y-47686123D01*
X123808047Y-47625647D01*
X123687095Y-47504695D01*
X123626619Y-47383742D01*
X123566142Y-47141838D01*
X123566142Y-46960409D01*
X123626619Y-46718504D01*
X123687095Y-46597552D01*
X123808047Y-46476600D01*
X123989476Y-46416123D01*
X124110428Y-46416123D01*
X124291857Y-46476600D01*
X124352333Y-46537076D01*
X124836142Y-46537076D02*
X124896619Y-46476600D01*
X125017571Y-46416123D01*
X125319952Y-46416123D01*
X125440904Y-46476600D01*
X125501380Y-46537076D01*
X125561857Y-46658028D01*
X125561857Y-46778980D01*
X125501380Y-46960409D01*
X124775666Y-47686123D01*
X125561857Y-47686123D01*
D12*
%TO.C,C20*%
X171086542Y-80875142D02*
X171038923Y-80922761D01*
X170896066Y-80970380D01*
X170800828Y-80970380D01*
X170657971Y-80922761D01*
X170562733Y-80827523D01*
X170515114Y-80732285D01*
X170467495Y-80541809D01*
X170467495Y-80398952D01*
X170515114Y-80208476D01*
X170562733Y-80113238D01*
X170657971Y-80018000D01*
X170800828Y-79970380D01*
X170896066Y-79970380D01*
X171038923Y-80018000D01*
X171086542Y-80065619D01*
X171467495Y-80065619D02*
X171515114Y-80018000D01*
X171610352Y-79970380D01*
X171848447Y-79970380D01*
X171943685Y-80018000D01*
X171991304Y-80065619D01*
X172038923Y-80160857D01*
X172038923Y-80256095D01*
X171991304Y-80398952D01*
X171419876Y-80970380D01*
X172038923Y-80970380D01*
X172657971Y-79970380D02*
X172753209Y-79970380D01*
X172848447Y-80018000D01*
X172896066Y-80065619D01*
X172943685Y-80160857D01*
X172991304Y-80351333D01*
X172991304Y-80589428D01*
X172943685Y-80779904D01*
X172896066Y-80875142D01*
X172848447Y-80922761D01*
X172753209Y-80970380D01*
X172657971Y-80970380D01*
X172562733Y-80922761D01*
X172515114Y-80875142D01*
X172467495Y-80779904D01*
X172419876Y-80589428D01*
X172419876Y-80351333D01*
X172467495Y-80160857D01*
X172515114Y-80065619D01*
X172562733Y-80018000D01*
X172657971Y-79970380D01*
D11*
%TO.C,U4*%
X167385095Y-131786380D02*
X167385095Y-132595904D01*
X167432714Y-132691142D01*
X167480333Y-132738761D01*
X167575571Y-132786380D01*
X167766047Y-132786380D01*
X167861285Y-132738761D01*
X167908904Y-132691142D01*
X167956523Y-132595904D01*
X167956523Y-131786380D01*
X168861285Y-132119714D02*
X168861285Y-132786380D01*
X168623190Y-131738761D02*
X168385095Y-132453047D01*
X169004142Y-132453047D01*
%TO.C,D7*%
X180131980Y-56745095D02*
X179131980Y-56745095D01*
X179131980Y-56507000D01*
X179179600Y-56364142D01*
X179274838Y-56268904D01*
X179370076Y-56221285D01*
X179560552Y-56173666D01*
X179703409Y-56173666D01*
X179893885Y-56221285D01*
X179989123Y-56268904D01*
X180084361Y-56364142D01*
X180131980Y-56507000D01*
X180131980Y-56745095D01*
X179131980Y-55840333D02*
X179131980Y-55173666D01*
X180131980Y-55602238D01*
%TO.C,D4*%
X180496780Y-85721095D02*
X179496780Y-85721095D01*
X179496780Y-85483000D01*
X179544400Y-85340142D01*
X179639638Y-85244904D01*
X179734876Y-85197285D01*
X179925352Y-85149666D01*
X180068209Y-85149666D01*
X180258685Y-85197285D01*
X180353923Y-85244904D01*
X180449161Y-85340142D01*
X180496780Y-85483000D01*
X180496780Y-85721095D01*
X179830114Y-84292523D02*
X180496780Y-84292523D01*
X179449161Y-84530619D02*
X180163447Y-84768714D01*
X180163447Y-84149666D01*
%TO.C,D8*%
X178424380Y-100534695D02*
X177424380Y-100534695D01*
X177424380Y-100296600D01*
X177472000Y-100153742D01*
X177567238Y-100058504D01*
X177662476Y-100010885D01*
X177852952Y-99963266D01*
X177995809Y-99963266D01*
X178186285Y-100010885D01*
X178281523Y-100058504D01*
X178376761Y-100153742D01*
X178424380Y-100296600D01*
X178424380Y-100534695D01*
X177852952Y-99391838D02*
X177805333Y-99487076D01*
X177757714Y-99534695D01*
X177662476Y-99582314D01*
X177614857Y-99582314D01*
X177519619Y-99534695D01*
X177472000Y-99487076D01*
X177424380Y-99391838D01*
X177424380Y-99201361D01*
X177472000Y-99106123D01*
X177519619Y-99058504D01*
X177614857Y-99010885D01*
X177662476Y-99010885D01*
X177757714Y-99058504D01*
X177805333Y-99106123D01*
X177852952Y-99201361D01*
X177852952Y-99391838D01*
X177900571Y-99487076D01*
X177948190Y-99534695D01*
X178043428Y-99582314D01*
X178233904Y-99582314D01*
X178329142Y-99534695D01*
X178376761Y-99487076D01*
X178424380Y-99391838D01*
X178424380Y-99201361D01*
X178376761Y-99106123D01*
X178329142Y-99058504D01*
X178233904Y-99010885D01*
X178043428Y-99010885D01*
X177948190Y-99058504D01*
X177900571Y-99106123D01*
X177852952Y-99201361D01*
D13*
%TO.C,J1*%
X117054523Y-49759933D02*
X117961666Y-49759933D01*
X118143095Y-49820409D01*
X118264047Y-49941361D01*
X118324523Y-50122790D01*
X118324523Y-50243742D01*
X118324523Y-48489933D02*
X118324523Y-49215647D01*
X118324523Y-48852790D02*
X117054523Y-48852790D01*
X117235952Y-48973742D01*
X117356904Y-49094695D01*
X117417380Y-49215647D01*
D12*
%TO.C,R10*%
X176471342Y-82722980D02*
X176138009Y-82246790D01*
X175899914Y-82722980D02*
X175899914Y-81722980D01*
X176280866Y-81722980D01*
X176376104Y-81770600D01*
X176423723Y-81818219D01*
X176471342Y-81913457D01*
X176471342Y-82056314D01*
X176423723Y-82151552D01*
X176376104Y-82199171D01*
X176280866Y-82246790D01*
X175899914Y-82246790D01*
X177423723Y-82722980D02*
X176852295Y-82722980D01*
X177138009Y-82722980D02*
X177138009Y-81722980D01*
X177042771Y-81865838D01*
X176947533Y-81961076D01*
X176852295Y-82008695D01*
X178042771Y-81722980D02*
X178138009Y-81722980D01*
X178233247Y-81770600D01*
X178280866Y-81818219D01*
X178328485Y-81913457D01*
X178376104Y-82103933D01*
X178376104Y-82342028D01*
X178328485Y-82532504D01*
X178280866Y-82627742D01*
X178233247Y-82675361D01*
X178138009Y-82722980D01*
X178042771Y-82722980D01*
X177947533Y-82675361D01*
X177899914Y-82627742D01*
X177852295Y-82532504D01*
X177804676Y-82342028D01*
X177804676Y-82103933D01*
X177852295Y-81913457D01*
X177899914Y-81818219D01*
X177947533Y-81770600D01*
X178042771Y-81722980D01*
D11*
%TO.C,D13*%
X133039714Y-140914180D02*
X133039714Y-139914180D01*
X133277809Y-139914180D01*
X133420666Y-139961800D01*
X133515904Y-140057038D01*
X133563523Y-140152276D01*
X133611142Y-140342752D01*
X133611142Y-140485609D01*
X133563523Y-140676085D01*
X133515904Y-140771323D01*
X133420666Y-140866561D01*
X133277809Y-140914180D01*
X133039714Y-140914180D01*
X134563523Y-140914180D02*
X133992095Y-140914180D01*
X134277809Y-140914180D02*
X134277809Y-139914180D01*
X134182571Y-140057038D01*
X134087333Y-140152276D01*
X133992095Y-140199895D01*
X134896857Y-139914180D02*
X135515904Y-139914180D01*
X135182571Y-140295133D01*
X135325428Y-140295133D01*
X135420666Y-140342752D01*
X135468285Y-140390371D01*
X135515904Y-140485609D01*
X135515904Y-140723704D01*
X135468285Y-140818942D01*
X135420666Y-140866561D01*
X135325428Y-140914180D01*
X135039714Y-140914180D01*
X134944476Y-140866561D01*
X134896857Y-140818942D01*
D12*
%TO.C,C17*%
X173804342Y-103049342D02*
X173756723Y-103096961D01*
X173613866Y-103144580D01*
X173518628Y-103144580D01*
X173375771Y-103096961D01*
X173280533Y-103001723D01*
X173232914Y-102906485D01*
X173185295Y-102716009D01*
X173185295Y-102573152D01*
X173232914Y-102382676D01*
X173280533Y-102287438D01*
X173375771Y-102192200D01*
X173518628Y-102144580D01*
X173613866Y-102144580D01*
X173756723Y-102192200D01*
X173804342Y-102239819D01*
X174756723Y-103144580D02*
X174185295Y-103144580D01*
X174471009Y-103144580D02*
X174471009Y-102144580D01*
X174375771Y-102287438D01*
X174280533Y-102382676D01*
X174185295Y-102430295D01*
X175090057Y-102144580D02*
X175756723Y-102144580D01*
X175328152Y-103144580D01*
%TO.C,R1*%
X124247333Y-43113980D02*
X123914000Y-42637790D01*
X123675904Y-43113980D02*
X123675904Y-42113980D01*
X124056857Y-42113980D01*
X124152095Y-42161600D01*
X124199714Y-42209219D01*
X124247333Y-42304457D01*
X124247333Y-42447314D01*
X124199714Y-42542552D01*
X124152095Y-42590171D01*
X124056857Y-42637790D01*
X123675904Y-42637790D01*
X125199714Y-43113980D02*
X124628285Y-43113980D01*
X124914000Y-43113980D02*
X124914000Y-42113980D01*
X124818761Y-42256838D01*
X124723523Y-42352076D01*
X124628285Y-42399695D01*
%TO.C,J13*%
X173302476Y-141676980D02*
X173302476Y-142391266D01*
X173254857Y-142534123D01*
X173159619Y-142629361D01*
X173016761Y-142676980D01*
X172921523Y-142676980D01*
X174302476Y-142676980D02*
X173731047Y-142676980D01*
X174016761Y-142676980D02*
X174016761Y-141676980D01*
X173921523Y-141819838D01*
X173826285Y-141915076D01*
X173731047Y-141962695D01*
X174635809Y-141676980D02*
X175254857Y-141676980D01*
X174921523Y-142057933D01*
X175064380Y-142057933D01*
X175159619Y-142105552D01*
X175207238Y-142153171D01*
X175254857Y-142248409D01*
X175254857Y-142486504D01*
X175207238Y-142581742D01*
X175159619Y-142629361D01*
X175064380Y-142676980D01*
X174778666Y-142676980D01*
X174683428Y-142629361D01*
X174635809Y-142581742D01*
%TO.C,C15*%
X160402542Y-71000857D02*
X160450161Y-71048476D01*
X160497780Y-71191333D01*
X160497780Y-71286571D01*
X160450161Y-71429428D01*
X160354923Y-71524666D01*
X160259685Y-71572285D01*
X160069209Y-71619904D01*
X159926352Y-71619904D01*
X159735876Y-71572285D01*
X159640638Y-71524666D01*
X159545400Y-71429428D01*
X159497780Y-71286571D01*
X159497780Y-71191333D01*
X159545400Y-71048476D01*
X159593019Y-71000857D01*
X160497780Y-70048476D02*
X160497780Y-70619904D01*
X160497780Y-70334190D02*
X159497780Y-70334190D01*
X159640638Y-70429428D01*
X159735876Y-70524666D01*
X159783495Y-70619904D01*
X159497780Y-69143714D02*
X159497780Y-69619904D01*
X159973971Y-69667523D01*
X159926352Y-69619904D01*
X159878733Y-69524666D01*
X159878733Y-69286571D01*
X159926352Y-69191333D01*
X159973971Y-69143714D01*
X160069209Y-69096095D01*
X160307304Y-69096095D01*
X160402542Y-69143714D01*
X160450161Y-69191333D01*
X160497780Y-69286571D01*
X160497780Y-69524666D01*
X160450161Y-69619904D01*
X160402542Y-69667523D01*
%TO.C,R9*%
X176042580Y-62371266D02*
X175566390Y-62704600D01*
X176042580Y-62942695D02*
X175042580Y-62942695D01*
X175042580Y-62561742D01*
X175090200Y-62466504D01*
X175137819Y-62418885D01*
X175233057Y-62371266D01*
X175375914Y-62371266D01*
X175471152Y-62418885D01*
X175518771Y-62466504D01*
X175566390Y-62561742D01*
X175566390Y-62942695D01*
X176042580Y-61895076D02*
X176042580Y-61704600D01*
X175994961Y-61609361D01*
X175947342Y-61561742D01*
X175804485Y-61466504D01*
X175614009Y-61418885D01*
X175233057Y-61418885D01*
X175137819Y-61466504D01*
X175090200Y-61514123D01*
X175042580Y-61609361D01*
X175042580Y-61799838D01*
X175090200Y-61895076D01*
X175137819Y-61942695D01*
X175233057Y-61990314D01*
X175471152Y-61990314D01*
X175566390Y-61942695D01*
X175614009Y-61895076D01*
X175661628Y-61799838D01*
X175661628Y-61609361D01*
X175614009Y-61514123D01*
X175566390Y-61466504D01*
X175471152Y-61418885D01*
D11*
%TO.C,C6*%
X166255333Y-149586142D02*
X166207714Y-149633761D01*
X166064857Y-149681380D01*
X165969619Y-149681380D01*
X165826761Y-149633761D01*
X165731523Y-149538523D01*
X165683904Y-149443285D01*
X165636285Y-149252809D01*
X165636285Y-149109952D01*
X165683904Y-148919476D01*
X165731523Y-148824238D01*
X165826761Y-148729000D01*
X165969619Y-148681380D01*
X166064857Y-148681380D01*
X166207714Y-148729000D01*
X166255333Y-148776619D01*
X167112476Y-148681380D02*
X166922000Y-148681380D01*
X166826761Y-148729000D01*
X166779142Y-148776619D01*
X166683904Y-148919476D01*
X166636285Y-149109952D01*
X166636285Y-149490904D01*
X166683904Y-149586142D01*
X166731523Y-149633761D01*
X166826761Y-149681380D01*
X167017238Y-149681380D01*
X167112476Y-149633761D01*
X167160095Y-149586142D01*
X167207714Y-149490904D01*
X167207714Y-149252809D01*
X167160095Y-149157571D01*
X167112476Y-149109952D01*
X167017238Y-149062333D01*
X166826761Y-149062333D01*
X166731523Y-149109952D01*
X166683904Y-149157571D01*
X166636285Y-149252809D01*
D14*
%TO.C,J6*%
X113064000Y-111881600D02*
X114394000Y-111881600D01*
X109194000Y-111881600D02*
X109194000Y-114541600D01*
X111794000Y-111881600D02*
X109194000Y-111881600D01*
X111794000Y-111881600D02*
X111794000Y-114541600D01*
X114394000Y-111881600D02*
X114394000Y-113211600D01*
X111794000Y-114541600D02*
X109194000Y-114541600D01*
%TO.C,C7*%
X117703652Y-122677600D02*
X116281148Y-122677600D01*
X117703652Y-120857600D02*
X116281148Y-120857600D01*
%TO.C,R2*%
X160887000Y-145576936D02*
X160887000Y-147031064D01*
X162707000Y-145576936D02*
X162707000Y-147031064D01*
%TO.C,C14*%
X163677652Y-55240600D02*
X162255148Y-55240600D01*
X163677652Y-53420600D02*
X162255148Y-53420600D01*
%TO.C,X1*%
X120874000Y-148121600D02*
X119824000Y-148121600D01*
X115824000Y-145001600D02*
X119704000Y-145001600D01*
X120874000Y-146971600D02*
X120874000Y-148121600D01*
X114654000Y-146971600D02*
X114654000Y-148121600D01*
X115704000Y-148121600D02*
X115704000Y-149111600D01*
X114654000Y-148121600D02*
X115704000Y-148121600D01*
D15*
%TO.C,D15*%
X142402800Y-141462600D02*
X142052800Y-141462600D01*
X144052800Y-141462600D02*
X144052800Y-142287600D01*
X142052800Y-141462600D02*
X142052800Y-142287600D01*
D16*
X142402800Y-143687600D02*
X142402800Y-143687600D01*
X142402800Y-143787600D02*
X142402800Y-143787600D01*
D15*
X143652800Y-141462600D02*
X144052800Y-141462600D01*
D16*
X142402800Y-143787600D02*
G75*
G03*
X142402800Y-143687600I0J50000D01*
G01*
X142402800Y-143687600D02*
G75*
G03*
X142402800Y-143787600I0J-50000D01*
G01*
D14*
%TO.C,R6*%
X117719464Y-125734400D02*
X116265336Y-125734400D01*
X117719464Y-127554400D02*
X116265336Y-127554400D01*
%TO.C,R16*%
X173955942Y-85942700D02*
X174430458Y-85942700D01*
X173955942Y-84897700D02*
X174430458Y-84897700D01*
%TO.C,D22*%
X191732800Y-78763800D02*
X194017800Y-78763800D01*
X191732800Y-77293800D02*
X191732800Y-78763800D01*
X194017800Y-77293800D02*
X191732800Y-77293800D01*
%TO.C,U7*%
X167360600Y-73691600D02*
X169560600Y-73691600D01*
X167360600Y-78911600D02*
X169560600Y-78911600D01*
X167360600Y-78911600D02*
X165160600Y-78911600D01*
X167360600Y-73691600D02*
X163760600Y-73691600D01*
%TO.C,J2*%
X183577000Y-139951600D02*
X191577000Y-139951600D01*
X191577000Y-139951600D02*
X191577000Y-129451600D01*
X191577000Y-129451600D02*
X183577000Y-129451600D01*
X183577000Y-129451600D02*
X183577000Y-139951600D01*
%TO.C,C5*%
X142489600Y-56210148D02*
X142489600Y-57632652D01*
X140669600Y-56210148D02*
X140669600Y-57632652D01*
%TO.C,C22*%
X163444600Y-130454348D02*
X163444600Y-131876852D01*
X161624600Y-130454348D02*
X161624600Y-131876852D01*
D15*
%TO.C,D2*%
X180219400Y-92361600D02*
X180219400Y-92711600D01*
X180219400Y-90711600D02*
X181044400Y-90711600D01*
X180219400Y-92711600D02*
X181044400Y-92711600D01*
D16*
X182444400Y-92361600D02*
X182444400Y-92361600D01*
X182544400Y-92361600D02*
X182544400Y-92361600D01*
D15*
X180219400Y-91111600D02*
X180219400Y-90711600D01*
D16*
X182544400Y-92361600D02*
G75*
G03*
X182444400Y-92361600I-50000J0D01*
G01*
X182444400Y-92361600D02*
G75*
G03*
X182544400Y-92361600I50000J0D01*
G01*
D14*
%TO.C,J10*%
X186242000Y-92430200D02*
X183642000Y-92430200D01*
X191382000Y-95030200D02*
X191382000Y-89830200D01*
X183642000Y-89830200D02*
X191382000Y-89830200D01*
X183642000Y-95030200D02*
X183642000Y-93700200D01*
X186242000Y-95030200D02*
X191382000Y-95030200D01*
X186242000Y-95030200D02*
X186242000Y-92430200D01*
X184972000Y-95030200D02*
X183642000Y-95030200D01*
X183642000Y-92430200D02*
X183642000Y-89830200D01*
D15*
%TO.C,C12*%
X185202000Y-118734800D02*
X175727000Y-118734800D01*
X181952000Y-110434800D02*
X175727000Y-110434800D01*
D14*
%TO.C,D17*%
X191732800Y-76147600D02*
X194017800Y-76147600D01*
X191732800Y-74677600D02*
X191732800Y-76147600D01*
X194017800Y-74677600D02*
X191732800Y-74677600D01*
%TO.C,J4*%
X183577000Y-108673400D02*
X191577000Y-108673400D01*
X191577000Y-108673400D02*
X191577000Y-98173400D01*
X191577000Y-98173400D02*
X183577000Y-98173400D01*
X183577000Y-98173400D02*
X183577000Y-108673400D01*
D15*
%TO.C,D14*%
X154747200Y-141462600D02*
X154397200Y-141462600D01*
X156397200Y-141462600D02*
X156397200Y-142287600D01*
X154397200Y-141462600D02*
X154397200Y-142287600D01*
D16*
X154747200Y-143687600D02*
X154747200Y-143687600D01*
X154747200Y-143787600D02*
X154747200Y-143787600D01*
D15*
X155997200Y-141462600D02*
X156397200Y-141462600D01*
D16*
X154747200Y-143787600D02*
G75*
G03*
X154747200Y-143687600I0J50000D01*
G01*
X154747200Y-143687600D02*
G75*
G03*
X154747200Y-143787600I0J-50000D01*
G01*
D14*
%TO.C,C19*%
X188442548Y-54284200D02*
X189865052Y-54284200D01*
X188442548Y-56104200D02*
X189865052Y-56104200D01*
%TO.C,J9*%
X191382000Y-70900600D02*
X191382000Y-68240600D01*
X186242000Y-70900600D02*
X191382000Y-70900600D01*
X184972000Y-70900600D02*
X183642000Y-70900600D01*
X186242000Y-68240600D02*
X191382000Y-68240600D01*
X183642000Y-70900600D02*
X183642000Y-69570600D01*
X186242000Y-70900600D02*
X186242000Y-68240600D01*
D16*
%TO.C,S1*%
X154764000Y-49786600D02*
X160964000Y-49786600D01*
X154764000Y-43586600D02*
X160964000Y-43586600D01*
D15*
%TO.C,U10*%
X171063400Y-100044400D02*
X170363400Y-100044400D01*
X170363400Y-97044400D02*
X171063400Y-97044400D01*
X172613400Y-100044400D02*
X171413400Y-100044400D01*
X170363400Y-100044400D02*
X170363400Y-97044400D01*
X171063400Y-97044400D02*
X171063400Y-100044400D01*
D14*
%TO.C,D3*%
X166814000Y-41736600D02*
X174114000Y-41736600D01*
X166814000Y-47236600D02*
X174114000Y-47236600D01*
X174114000Y-47236600D02*
X174114000Y-46086600D01*
%TO.C,C16*%
X170002148Y-93095400D02*
X171424652Y-93095400D01*
X170002148Y-94915400D02*
X171424652Y-94915400D01*
%TO.C,D19*%
X191732800Y-61085400D02*
X194017800Y-61085400D01*
X191732800Y-59615400D02*
X191732800Y-61085400D01*
X194017800Y-59615400D02*
X191732800Y-59615400D01*
%TO.C,R3*%
X159516400Y-121751736D02*
X159516400Y-123205864D01*
X161336400Y-121751736D02*
X161336400Y-123205864D01*
%TO.C,X2*%
X133174000Y-148121600D02*
X132124000Y-148121600D01*
X128124000Y-145001600D02*
X132004000Y-145001600D01*
X133174000Y-146971600D02*
X133174000Y-148121600D01*
X126954000Y-146971600D02*
X126954000Y-148121600D01*
X128004000Y-148121600D02*
X128004000Y-149111600D01*
X126954000Y-148121600D02*
X128004000Y-148121600D01*
%TO.C,U8*%
X167360600Y-55708400D02*
X169560600Y-55708400D01*
X167360600Y-60928400D02*
X169560600Y-60928400D01*
X167360600Y-60928400D02*
X165160600Y-60928400D01*
X167360600Y-55708400D02*
X163760600Y-55708400D01*
D15*
%TO.C,D9*%
X180293400Y-106531800D02*
X180293400Y-106881800D01*
X180293400Y-104881800D02*
X181118400Y-104881800D01*
X180293400Y-106881800D02*
X181118400Y-106881800D01*
D16*
X182518400Y-106531800D02*
X182518400Y-106531800D01*
X182618400Y-106531800D02*
X182618400Y-106531800D01*
D15*
X180293400Y-105281800D02*
X180293400Y-104881800D01*
D16*
X182618400Y-106531800D02*
G75*
G03*
X182518400Y-106531800I-50000J0D01*
G01*
X182518400Y-106531800D02*
G75*
G03*
X182618400Y-106531800I50000J0D01*
G01*
D14*
%TO.C,R8*%
X112336936Y-61121600D02*
X113791064Y-61121600D01*
X112336936Y-59301600D02*
X113791064Y-59301600D01*
%TO.C,U5*%
X125569400Y-125323600D02*
X125569400Y-127523600D01*
X120099400Y-125323600D02*
X120099400Y-123123600D01*
X120099400Y-125323600D02*
X120099400Y-128923600D01*
X125569400Y-125323600D02*
X125569400Y-123123600D01*
%TO.C,U13*%
X167841800Y-118712600D02*
X167841800Y-118987600D01*
X165531800Y-118712600D02*
X167841800Y-118712600D01*
X167841800Y-128632600D02*
X167841800Y-128357600D01*
X167841800Y-128357600D02*
X169131800Y-128357600D01*
X165531800Y-118712600D02*
X163221800Y-118712600D01*
X163221800Y-118712600D02*
X163221800Y-118987600D01*
X165531800Y-128632600D02*
X163221800Y-128632600D01*
X163221800Y-128632600D02*
X163221800Y-128357600D01*
X165531800Y-128632600D02*
X167841800Y-128632600D01*
%TO.C,D18*%
X191732800Y-58621600D02*
X194017800Y-58621600D01*
X191732800Y-57151600D02*
X191732800Y-58621600D01*
X194017800Y-57151600D02*
X191732800Y-57151600D01*
D15*
%TO.C,D10*%
X180293400Y-137810000D02*
X180293400Y-138160000D01*
X180293400Y-136160000D02*
X181118400Y-136160000D01*
X180293400Y-138160000D02*
X181118400Y-138160000D01*
D16*
X182518400Y-137810000D02*
X182518400Y-137810000D01*
X182618400Y-137810000D02*
X182618400Y-137810000D01*
D15*
X180293400Y-136560000D02*
X180293400Y-136160000D01*
D16*
X182618400Y-137810000D02*
G75*
G03*
X182518400Y-137810000I-50000J0D01*
G01*
X182518400Y-137810000D02*
G75*
G03*
X182618400Y-137810000I50000J0D01*
G01*
D14*
%TO.C,R17*%
X173955942Y-87517500D02*
X174430458Y-87517500D01*
X173955942Y-86472500D02*
X174430458Y-86472500D01*
%TO.C,R12*%
X173981342Y-66537100D02*
X174455858Y-66537100D01*
X173981342Y-65492100D02*
X174455858Y-65492100D01*
%TO.C,U2*%
X108204000Y-136331600D02*
X159204000Y-136331600D01*
X159204000Y-136331600D02*
X159204000Y-115331600D01*
X159204000Y-115331600D02*
X108204000Y-115331600D01*
X108204000Y-115331600D02*
X108204000Y-136331600D01*
%TO.C,U1*%
X130624000Y-42449600D02*
X150624000Y-42449600D01*
X150624000Y-42449600D02*
X150624000Y-53449600D01*
X150624000Y-53449600D02*
X130624000Y-53449600D01*
X130624000Y-53449600D02*
X130624000Y-42449600D01*
D16*
%TO.C,J12*%
X192197000Y-128905000D02*
X192197000Y-120015000D01*
X180197000Y-128905000D02*
X192197000Y-128905000D01*
X180197000Y-120015000D02*
X180197000Y-128905000D01*
X192197000Y-120015000D02*
X180197000Y-120015000D01*
D14*
%TO.C,C8*%
X111754000Y-146742852D02*
X111754000Y-145320348D01*
X113574000Y-146742852D02*
X113574000Y-145320348D01*
%TO.C,R4*%
X163212000Y-145576936D02*
X163212000Y-147031064D01*
X165032000Y-145576936D02*
X165032000Y-147031064D01*
%TO.C,C9*%
X124054000Y-146747852D02*
X124054000Y-145325348D01*
X125874000Y-146747852D02*
X125874000Y-145325348D01*
%TO.C,C10*%
X136254000Y-146742852D02*
X136254000Y-145320348D01*
X138074000Y-146742852D02*
X138074000Y-145320348D01*
D15*
%TO.C,D6*%
X180689400Y-64912000D02*
X180689400Y-65262000D01*
X180689400Y-63262000D02*
X181514400Y-63262000D01*
X180689400Y-65262000D02*
X181514400Y-65262000D01*
D16*
X182914400Y-64912000D02*
X182914400Y-64912000D01*
X183014400Y-64912000D02*
X183014400Y-64912000D01*
D15*
X180689400Y-63662000D02*
X180689400Y-63262000D01*
D16*
X183014400Y-64912000D02*
G75*
G03*
X182914400Y-64912000I-50000J0D01*
G01*
X182914400Y-64912000D02*
G75*
G03*
X183014400Y-64912000I50000J0D01*
G01*
D14*
%TO.C,D23*%
X191758200Y-81303800D02*
X194043200Y-81303800D01*
X191758200Y-79833800D02*
X191758200Y-81303800D01*
X194043200Y-79833800D02*
X191758200Y-79833800D01*
%TO.C,R15*%
X173955942Y-84367900D02*
X174430458Y-84367900D01*
X173955942Y-83322900D02*
X174430458Y-83322900D01*
%TO.C,C11*%
X148554000Y-146742852D02*
X148554000Y-145320348D01*
X150374000Y-146742852D02*
X150374000Y-145320348D01*
%TO.C,J5*%
X191382000Y-88218000D02*
X191382000Y-85558000D01*
X186242000Y-88218000D02*
X191382000Y-88218000D01*
X184972000Y-88218000D02*
X183642000Y-88218000D01*
X186242000Y-85558000D02*
X191382000Y-85558000D01*
X183642000Y-88218000D02*
X183642000Y-86888000D01*
X186242000Y-88218000D02*
X186242000Y-85558000D01*
%TO.C,C3*%
X166391000Y-44985148D02*
X166391000Y-46407652D01*
X164571000Y-44985148D02*
X164571000Y-46407652D01*
%TO.C,R18*%
X161319800Y-136469036D02*
X161319800Y-137923164D01*
X163139800Y-136469036D02*
X163139800Y-137923164D01*
%TO.C,C21*%
X168706852Y-63317800D02*
X167284348Y-63317800D01*
X168706852Y-61497800D02*
X167284348Y-61497800D01*
%TO.C,R7*%
X123991064Y-130301600D02*
X122536936Y-130301600D01*
X123991064Y-132121600D02*
X122536936Y-132121600D01*
%TO.C,C18*%
X188264748Y-71810200D02*
X189687252Y-71810200D01*
X188264748Y-73630200D02*
X189687252Y-73630200D01*
D15*
%TO.C,J3*%
X186893000Y-53761600D02*
X174785000Y-53761600D01*
X174785000Y-53761600D02*
X174785000Y-41761600D01*
X174785000Y-41761600D02*
X186893000Y-41761600D01*
X186893000Y-41761600D02*
X186893000Y-53761600D01*
D14*
%TO.C,U3*%
X108204000Y-110931600D02*
X159204000Y-110931600D01*
X159204000Y-110931600D02*
X159204000Y-89931600D01*
X159204000Y-89931600D02*
X108204000Y-89931600D01*
X108204000Y-89931600D02*
X108204000Y-110931600D01*
D15*
%TO.C,D11*%
X180293400Y-133365000D02*
X180293400Y-133715000D01*
X180293400Y-131715000D02*
X181118400Y-131715000D01*
X180293400Y-133715000D02*
X181118400Y-133715000D01*
D16*
X182518400Y-133365000D02*
X182518400Y-133365000D01*
X182618400Y-133365000D02*
X182618400Y-133365000D01*
D15*
X180293400Y-132115000D02*
X180293400Y-131715000D01*
D16*
X182618400Y-133365000D02*
G75*
G03*
X182518400Y-133365000I-50000J0D01*
G01*
X182518400Y-133365000D02*
G75*
G03*
X182618400Y-133365000I50000J0D01*
G01*
D14*
%TO.C,X4*%
X157674000Y-148121600D02*
X156624000Y-148121600D01*
X152624000Y-145001600D02*
X156504000Y-145001600D01*
X157674000Y-146971600D02*
X157674000Y-148121600D01*
X151454000Y-146971600D02*
X151454000Y-148121600D01*
X152504000Y-148121600D02*
X152504000Y-149111600D01*
X151454000Y-148121600D02*
X152504000Y-148121600D01*
%TO.C,D1*%
X122311000Y-46635600D02*
X117739000Y-46635600D01*
X117739000Y-46635600D02*
X117739000Y-43587600D01*
X117739000Y-43587600D02*
X122311000Y-43587600D01*
X122311000Y-43587600D02*
X122311000Y-46635600D01*
%TO.C,R11*%
X173981342Y-64962300D02*
X174455858Y-64962300D01*
X173981342Y-63917300D02*
X174455858Y-63917300D01*
%TO.C,C4*%
X140004000Y-56210148D02*
X140004000Y-57632652D01*
X138184000Y-56210148D02*
X138184000Y-57632652D01*
%TO.C,R5*%
X117719464Y-123296000D02*
X116265336Y-123296000D01*
X117719464Y-125116000D02*
X116265336Y-125116000D01*
%TO.C,D16*%
X105779000Y-59076600D02*
X105779000Y-61346600D01*
X109664000Y-59076600D02*
X105779000Y-59076600D01*
X105779000Y-61346600D02*
X109664000Y-61346600D01*
%TO.C,U12*%
X167360600Y-64039600D02*
X169560600Y-64039600D01*
X167360600Y-69259600D02*
X169560600Y-69259600D01*
X167360600Y-69259600D02*
X165160600Y-69259600D01*
X167360600Y-64039600D02*
X163760600Y-64039600D01*
D15*
%TO.C,D12*%
X117968000Y-141411800D02*
X117618000Y-141411800D01*
X119618000Y-141411800D02*
X119618000Y-142236800D01*
X117618000Y-141411800D02*
X117618000Y-142236800D01*
D16*
X117968000Y-143636800D02*
X117968000Y-143636800D01*
X117968000Y-143736800D02*
X117968000Y-143736800D01*
D15*
X119218000Y-141411800D02*
X119618000Y-141411800D01*
D16*
X117968000Y-143736800D02*
G75*
G03*
X117968000Y-143636800I0J50000D01*
G01*
X117968000Y-143636800D02*
G75*
G03*
X117968000Y-143736800I0J-50000D01*
G01*
D14*
%TO.C,R14*%
X173981342Y-69737500D02*
X174455858Y-69737500D01*
X173981342Y-68692500D02*
X174455858Y-68692500D01*
%TO.C,U11*%
X167360600Y-82022800D02*
X169560600Y-82022800D01*
X167360600Y-87242800D02*
X169560600Y-87242800D01*
X167360600Y-87242800D02*
X165160600Y-87242800D01*
X167360600Y-82022800D02*
X163760600Y-82022800D01*
D15*
%TO.C,D5*%
X180689400Y-77378000D02*
X180689400Y-77728000D01*
X180689400Y-75728000D02*
X181514400Y-75728000D01*
X180689400Y-77728000D02*
X181514400Y-77728000D01*
D16*
X182914400Y-77378000D02*
X182914400Y-77378000D01*
X183014400Y-77378000D02*
X183014400Y-77378000D01*
D15*
X180689400Y-76128000D02*
X180689400Y-75728000D01*
D16*
X183014400Y-77378000D02*
G75*
G03*
X182914400Y-77378000I-50000J0D01*
G01*
X182914400Y-77378000D02*
G75*
G03*
X183014400Y-77378000I50000J0D01*
G01*
D14*
%TO.C,D24*%
X191758200Y-83869200D02*
X194043200Y-83869200D01*
X191758200Y-82399200D02*
X191758200Y-83869200D01*
X194043200Y-82399200D02*
X191758200Y-82399200D01*
%TO.C,C1*%
X129535600Y-53300348D02*
X129535600Y-54722852D01*
X127715600Y-53300348D02*
X127715600Y-54722852D01*
D16*
%TO.C,J11*%
X143659000Y-42260000D02*
X134769000Y-42260000D01*
X143659000Y-54260000D02*
X143659000Y-42260000D01*
X134769000Y-54260000D02*
X143659000Y-54260000D01*
X134769000Y-42260000D02*
X134769000Y-54260000D01*
D15*
%TO.C,Q1*%
X105529000Y-114661600D02*
X105529000Y-113461600D01*
X105614000Y-112911600D02*
X108514000Y-112911600D01*
X105614000Y-113111600D02*
X105614000Y-112911600D01*
X108514000Y-112911600D02*
X108514000Y-113111600D01*
X108514000Y-113111600D02*
X105614000Y-113111600D01*
D14*
%TO.C,R13*%
X173981342Y-68111900D02*
X174455858Y-68111900D01*
X173981342Y-67066900D02*
X174455858Y-67066900D01*
%TO.C,C13*%
X170540000Y-148207852D02*
X170540000Y-146785348D01*
X172360000Y-148207852D02*
X172360000Y-146785348D01*
%TO.C,J7*%
X183592000Y-84498000D02*
X191592000Y-84498000D01*
X191592000Y-84498000D02*
X191592000Y-73998000D01*
X191592000Y-73998000D02*
X183592000Y-73998000D01*
X183592000Y-73998000D02*
X183592000Y-84498000D01*
D15*
%TO.C,U9*%
X171063400Y-92457400D02*
X170363400Y-92457400D01*
X170363400Y-89457400D02*
X171063400Y-89457400D01*
X172613400Y-92457400D02*
X171413400Y-92457400D01*
X170363400Y-92457400D02*
X170363400Y-89457400D01*
X171063400Y-89457400D02*
X171063400Y-92457400D01*
D14*
%TO.C,J8*%
X183592000Y-66952000D02*
X191592000Y-66952000D01*
X191592000Y-66952000D02*
X191592000Y-56452000D01*
X191592000Y-56452000D02*
X183592000Y-56452000D01*
X183592000Y-56452000D02*
X183592000Y-66952000D01*
%TO.C,X3*%
X145374000Y-148121600D02*
X144324000Y-148121600D01*
X140324000Y-145001600D02*
X144204000Y-145001600D01*
X145374000Y-146971600D02*
X145374000Y-148121600D01*
X139154000Y-146971600D02*
X139154000Y-148121600D01*
X140204000Y-148121600D02*
X140204000Y-149111600D01*
X139154000Y-148121600D02*
X140204000Y-148121600D01*
D15*
%TO.C,C2*%
X126764000Y-48586600D02*
X126764000Y-58061600D01*
X118464000Y-51836600D02*
X118464000Y-58061600D01*
D14*
%TO.C,C20*%
X168706852Y-81377200D02*
X167284348Y-81377200D01*
X168706852Y-79557200D02*
X167284348Y-79557200D01*
%TO.C,U4*%
X170457000Y-133571600D02*
X170457000Y-133846600D01*
X168147000Y-133571600D02*
X170457000Y-133571600D01*
X170457000Y-143491600D02*
X170457000Y-143216600D01*
X170457000Y-143216600D02*
X171747000Y-143216600D01*
X168147000Y-133571600D02*
X165837000Y-133571600D01*
X165837000Y-133571600D02*
X165837000Y-133846600D01*
X168147000Y-143491600D02*
X165837000Y-143491600D01*
X165837000Y-143491600D02*
X165837000Y-143216600D01*
X168147000Y-143491600D02*
X170457000Y-143491600D01*
D15*
%TO.C,D7*%
X180689400Y-59832000D02*
X180689400Y-60182000D01*
X180689400Y-58182000D02*
X181514400Y-58182000D01*
X180689400Y-60182000D02*
X181514400Y-60182000D01*
D16*
X182914400Y-59832000D02*
X182914400Y-59832000D01*
X183014400Y-59832000D02*
X183014400Y-59832000D01*
D15*
X180689400Y-58582000D02*
X180689400Y-58182000D01*
D16*
X183014400Y-59832000D02*
G75*
G03*
X182914400Y-59832000I-50000J0D01*
G01*
X182914400Y-59832000D02*
G75*
G03*
X183014400Y-59832000I50000J0D01*
G01*
D15*
%TO.C,D4*%
X180689400Y-82458000D02*
X180689400Y-82808000D01*
X180689400Y-80808000D02*
X181514400Y-80808000D01*
X180689400Y-82808000D02*
X181514400Y-82808000D01*
D16*
X182914400Y-82458000D02*
X182914400Y-82458000D01*
X183014400Y-82458000D02*
X183014400Y-82458000D01*
D15*
X180689400Y-81208000D02*
X180689400Y-80808000D01*
D16*
X183014400Y-82458000D02*
G75*
G03*
X182914400Y-82458000I-50000J0D01*
G01*
X182914400Y-82458000D02*
G75*
G03*
X183014400Y-82458000I50000J0D01*
G01*
D15*
%TO.C,D8*%
X180293400Y-101451800D02*
X180293400Y-101801800D01*
X180293400Y-99801800D02*
X181118400Y-99801800D01*
X180293400Y-101801800D02*
X181118400Y-101801800D01*
D16*
X182518400Y-101451800D02*
X182518400Y-101451800D01*
X182618400Y-101451800D02*
X182618400Y-101451800D01*
D15*
X180293400Y-100201800D02*
X180293400Y-99801800D01*
D16*
X182618400Y-101451800D02*
G75*
G03*
X182518400Y-101451800I-50000J0D01*
G01*
X182518400Y-101451800D02*
G75*
G03*
X182618400Y-101451800I50000J0D01*
G01*
%TO.C,J1*%
X104414000Y-48066600D02*
X104414000Y-56956600D01*
X116414000Y-48066600D02*
X104414000Y-48066600D01*
X116414000Y-56956600D02*
X116414000Y-48066600D01*
X104414000Y-56956600D02*
X116414000Y-56956600D01*
D14*
%TO.C,R10*%
X173955942Y-82804500D02*
X174430458Y-82804500D01*
X173955942Y-81759500D02*
X174430458Y-81759500D01*
D15*
%TO.C,D13*%
X130214000Y-141411800D02*
X129864000Y-141411800D01*
X131864000Y-141411800D02*
X131864000Y-142236800D01*
X129864000Y-141411800D02*
X129864000Y-142236800D01*
D16*
X130214000Y-143636800D02*
X130214000Y-143636800D01*
X130214000Y-143736800D02*
X130214000Y-143736800D01*
D15*
X131464000Y-141411800D02*
X131864000Y-141411800D01*
D16*
X130214000Y-143736800D02*
G75*
G03*
X130214000Y-143636800I0J50000D01*
G01*
X130214000Y-143636800D02*
G75*
G03*
X130214000Y-143736800I0J-50000D01*
G01*
D14*
%TO.C,C17*%
X170002148Y-100664600D02*
X171424652Y-100664600D01*
X170002148Y-102484600D02*
X171424652Y-102484600D01*
%TO.C,D20*%
X191732800Y-63828600D02*
X194017800Y-63828600D01*
X191732800Y-62358600D02*
X191732800Y-63828600D01*
X194017800Y-62358600D02*
X191732800Y-62358600D01*
%TO.C,R1*%
X126336936Y-45921600D02*
X127791064Y-45921600D01*
X126336936Y-44101600D02*
X127791064Y-44101600D01*
%TO.C,D21*%
X191732700Y-66267000D02*
X194017700Y-66267000D01*
X191732700Y-64797000D02*
X191732700Y-66267000D01*
X194017700Y-64797000D02*
X191732700Y-64797000D01*
%TO.C,J13*%
X174498000Y-148878600D02*
X173168000Y-148878600D01*
X175768000Y-148878600D02*
X185988000Y-148878600D01*
X173168000Y-146278600D02*
X173168000Y-143678600D01*
X175768000Y-148878600D02*
X175768000Y-146278600D01*
X173168000Y-148878600D02*
X173168000Y-147548600D01*
X175768000Y-146278600D02*
X173168000Y-146278600D01*
X185988000Y-148878600D02*
X185988000Y-143678600D01*
X173168000Y-143678600D02*
X185988000Y-143678600D01*
%TO.C,C15*%
X163677652Y-73198400D02*
X162255148Y-73198400D01*
X163677652Y-71378400D02*
X162255148Y-71378400D01*
%TO.C,R9*%
X173421664Y-61497800D02*
X171967536Y-61497800D01*
X173421664Y-63317800D02*
X171967536Y-63317800D01*
%TO.C,C6*%
X167407000Y-145592748D02*
X167407000Y-147015252D01*
X165587000Y-145592748D02*
X165587000Y-147015252D01*
%TO.C,G\u002A\u002A\u002A*%
G36*
X175331881Y-120194306D02*
G01*
X175343396Y-120276975D01*
X175346016Y-120347648D01*
X175352585Y-120479162D01*
X175371057Y-120658962D01*
X175399580Y-120873425D01*
X175436305Y-121108927D01*
X175479380Y-121351843D01*
X175489997Y-121407365D01*
X175515725Y-121541589D01*
X175528898Y-121629362D01*
X175528241Y-121686647D01*
X175512475Y-121729402D01*
X175480323Y-121773588D01*
X175458564Y-121800153D01*
X175383130Y-121892416D01*
X175366652Y-121752587D01*
X175344975Y-121547629D01*
X175326257Y-121329876D01*
X175310777Y-121107904D01*
X175298818Y-120890286D01*
X175290659Y-120685596D01*
X175286582Y-120502407D01*
X175286868Y-120349292D01*
X175291796Y-120234827D01*
X175301648Y-120167584D01*
X175314306Y-120154081D01*
X175331881Y-120194306D01*
G37*
G36*
X177817909Y-123768126D02*
G01*
X177836030Y-123810431D01*
X177845226Y-123897785D01*
X177844929Y-124012371D01*
X177834574Y-124136371D01*
X177830546Y-124165442D01*
X177791972Y-124341612D01*
X177733921Y-124509799D01*
X177664672Y-124648377D01*
X177623911Y-124705192D01*
X177529176Y-124815505D01*
X177552025Y-124720374D01*
X177563119Y-124649912D01*
X177575252Y-124533776D01*
X177586764Y-124389653D01*
X177594090Y-124272026D01*
X177603600Y-124115870D01*
X177614154Y-124009202D01*
X177629075Y-123938128D01*
X177651684Y-123888754D01*
X177685302Y-123847189D01*
X177698995Y-123833200D01*
X177761834Y-123783045D01*
X177810423Y-123765819D01*
X177817909Y-123768126D01*
G37*
G36*
X175721519Y-120724622D02*
G01*
X175726371Y-120805965D01*
X175726766Y-120853295D01*
X175730251Y-120993675D01*
X175738972Y-121153637D01*
X175746791Y-121251568D01*
X175754218Y-121382189D01*
X175745854Y-121458504D01*
X175728601Y-121484643D01*
X175681226Y-121493281D01*
X175668938Y-121486466D01*
X175656183Y-121442130D01*
X175648502Y-121350567D01*
X175645526Y-121227733D01*
X175646891Y-121089588D01*
X175652228Y-120952091D01*
X175661173Y-120831200D01*
X175673358Y-120742874D01*
X175686903Y-120704300D01*
X175709183Y-120693798D01*
X175721519Y-120724622D01*
G37*
G36*
X175905901Y-123782702D02*
G01*
X175690587Y-123596226D01*
X175516463Y-123367008D01*
X175448353Y-123240296D01*
X175406260Y-123119000D01*
X176344893Y-123119000D01*
X176366622Y-123194607D01*
X176419180Y-123234877D01*
X176483617Y-123227980D01*
X176500787Y-123216337D01*
X176542855Y-123156075D01*
X176551010Y-123119000D01*
X176528136Y-123053398D01*
X176500787Y-123021663D01*
X176436398Y-122999827D01*
X176378716Y-123028389D01*
X176346685Y-123095518D01*
X176344893Y-123119000D01*
X175406260Y-123119000D01*
X175359734Y-122984927D01*
X175322255Y-122713009D01*
X175334199Y-122437150D01*
X175393847Y-122169956D01*
X175499481Y-121924033D01*
X175649386Y-121711987D01*
X175657862Y-121702663D01*
X175890262Y-121492989D01*
X176146449Y-121341161D01*
X176422449Y-121248406D01*
X176714288Y-121215950D01*
X177017992Y-121245019D01*
X177090086Y-121260774D01*
X177346946Y-121353973D01*
X177576136Y-121497970D01*
X177772820Y-121684397D01*
X177932161Y-121904885D01*
X178049320Y-122151063D01*
X178119461Y-122414562D01*
X178137747Y-122687014D01*
X178099340Y-122960048D01*
X178090774Y-122992159D01*
X177979364Y-123287397D01*
X177825223Y-123536637D01*
X177630844Y-123737972D01*
X177398721Y-123889493D01*
X177131345Y-123989292D01*
X176831211Y-124035459D01*
X176723755Y-124038601D01*
X176430007Y-124008598D01*
X176419180Y-124005179D01*
X176154882Y-123921729D01*
X175905901Y-123782702D01*
G37*
G36*
X175006472Y-119701429D02*
G01*
X175006748Y-119772403D01*
X175002603Y-119877489D01*
X175001666Y-119894173D01*
X174998535Y-120136330D01*
X175012839Y-120422108D01*
X175042653Y-120734737D01*
X175086051Y-121057445D01*
X175141107Y-121373460D01*
X175204473Y-121660324D01*
X175232211Y-121774277D01*
X175255792Y-121875826D01*
X175265148Y-121918988D01*
X175283865Y-121998586D01*
X175297983Y-122045830D01*
X175295873Y-122107142D01*
X175282748Y-122135979D01*
X175258849Y-122203339D01*
X175251371Y-122268877D01*
X175243221Y-122347933D01*
X175221775Y-122371646D01*
X175189680Y-122346057D01*
X175149586Y-122277205D01*
X175104140Y-122171131D01*
X175055991Y-122033876D01*
X175007787Y-121871480D01*
X174962178Y-121689983D01*
X174929090Y-121533818D01*
X174891966Y-121266526D01*
X174873940Y-120959928D01*
X174874984Y-120635187D01*
X174895070Y-120313467D01*
X174931042Y-120034183D01*
X174955476Y-119894661D01*
X174977321Y-119780083D01*
X174993920Y-119703792D01*
X175001770Y-119679144D01*
X175006472Y-119701429D01*
G37*
G36*
X179133627Y-120358251D02*
G01*
X179142002Y-120439764D01*
X179147812Y-120561368D01*
X179150308Y-120711403D01*
X179150336Y-120748651D01*
X179149411Y-121168813D01*
X178954357Y-121311510D01*
X178856120Y-121382260D01*
X178775783Y-121438083D01*
X178728685Y-121468356D01*
X178725381Y-121470062D01*
X178680489Y-121495643D01*
X178604181Y-121543016D01*
X178557321Y-121573120D01*
X178477151Y-121623136D01*
X178420367Y-121654680D01*
X178405413Y-121660324D01*
X178371289Y-121676906D01*
X178308356Y-121716756D01*
X178238500Y-121765033D01*
X178183602Y-121806892D01*
X178168239Y-121821189D01*
X178127753Y-121846770D01*
X178098874Y-121859070D01*
X178054712Y-121854896D01*
X178005067Y-121804223D01*
X177964504Y-121740804D01*
X177889607Y-121636221D01*
X177792954Y-121530062D01*
X177748475Y-121489498D01*
X177682202Y-121428617D01*
X177649272Y-121387233D01*
X177652945Y-121375551D01*
X177704720Y-121354746D01*
X177750383Y-121319437D01*
X177844136Y-121233042D01*
X177944742Y-121148800D01*
X178063073Y-121058533D01*
X178209998Y-120954061D01*
X178396387Y-120827204D01*
X178469487Y-120778315D01*
X178617206Y-120678571D01*
X178745387Y-120589609D01*
X178845077Y-120517840D01*
X178907317Y-120469676D01*
X178924002Y-120452988D01*
X178960399Y-120425531D01*
X178975613Y-120423620D01*
X179028794Y-120401360D01*
X179056129Y-120376054D01*
X179101904Y-120336191D01*
X179123432Y-120328488D01*
X179133627Y-120358251D01*
G37*
G36*
X177497910Y-124271255D02*
G01*
X177490929Y-124439315D01*
X177476481Y-124619132D01*
X177457447Y-124776252D01*
X177453725Y-124799650D01*
X177418526Y-124992146D01*
X177383043Y-125153760D01*
X177349521Y-125276085D01*
X177320208Y-125350717D01*
X177301162Y-125370436D01*
X177286035Y-125347225D01*
X177291029Y-125324920D01*
X177300644Y-125242754D01*
X177287783Y-125122769D01*
X177257107Y-124979573D01*
X177213274Y-124827773D01*
X177160944Y-124681978D01*
X177104777Y-124556795D01*
X177049430Y-124466834D01*
X177005078Y-124428393D01*
X176966677Y-124391879D01*
X176963154Y-124376095D01*
X176938979Y-124335917D01*
X176879744Y-124284469D01*
X176868114Y-124276429D01*
X176805454Y-124229568D01*
X176773951Y-124196208D01*
X176773074Y-124192923D01*
X176801158Y-124168978D01*
X176871638Y-124148070D01*
X176963533Y-124135591D01*
X177001807Y-124134165D01*
X177092438Y-124121284D01*
X177190758Y-124090852D01*
X177192069Y-124090308D01*
X177299060Y-124048747D01*
X177399262Y-124013787D01*
X177502321Y-123980689D01*
X177497910Y-124271255D01*
G37*
G36*
X179147800Y-119054063D02*
G01*
X179151260Y-119075929D01*
X179144475Y-119118237D01*
X179138797Y-119123495D01*
X179118350Y-119098699D01*
X179108082Y-119075929D01*
X179107423Y-119035097D01*
X179120545Y-119028364D01*
X179147800Y-119054063D01*
G37*
%TD*%
M02*
