%TF.GenerationSoftware,KiCad,Pcbnew,(6.0.8-1)-1*%
%TF.CreationDate,2023-12-28T14:34:08-05:00*%
%TF.ProjectId,Pico Robotic Controller,5069636f-2052-46f6-926f-74696320436f,V2*%
%TF.SameCoordinates,Original*%
%TF.FileFunction,Legend,Bot*%
%TF.FilePolarity,Positive*%
%FSLAX46Y46*%
G04 Gerber Fmt 4.6, Leading zero omitted, Abs format (unit mm)*
G04 Created by KiCad (PCBNEW (6.0.8-1)-1) date 2023-12-28 14:34:08*
%MOMM*%
%LPD*%
G01*
G04 APERTURE LIST*
%ADD10C,0.150000*%
G04 APERTURE END LIST*
D10*
%TO.C,D22*%
X194178185Y-78455780D02*
X194178185Y-77455780D01*
X193940090Y-77455780D01*
X193797233Y-77503400D01*
X193701995Y-77598638D01*
X193654376Y-77693876D01*
X193606757Y-77884352D01*
X193606757Y-78027209D01*
X193654376Y-78217685D01*
X193701995Y-78312923D01*
X193797233Y-78408161D01*
X193940090Y-78455780D01*
X194178185Y-78455780D01*
X193225804Y-77551019D02*
X193178185Y-77503400D01*
X193082947Y-77455780D01*
X192844852Y-77455780D01*
X192749614Y-77503400D01*
X192701995Y-77551019D01*
X192654376Y-77646257D01*
X192654376Y-77741495D01*
X192701995Y-77884352D01*
X193273423Y-78455780D01*
X192654376Y-78455780D01*
X192273423Y-77551019D02*
X192225804Y-77503400D01*
X192130566Y-77455780D01*
X191892471Y-77455780D01*
X191797233Y-77503400D01*
X191749614Y-77551019D01*
X191701995Y-77646257D01*
X191701995Y-77741495D01*
X191749614Y-77884352D01*
X192321042Y-78455780D01*
X191701995Y-78455780D01*
%TO.C,D17*%
X194178085Y-75966580D02*
X194178085Y-74966580D01*
X193939990Y-74966580D01*
X193797133Y-75014200D01*
X193701895Y-75109438D01*
X193654276Y-75204676D01*
X193606657Y-75395152D01*
X193606657Y-75538009D01*
X193654276Y-75728485D01*
X193701895Y-75823723D01*
X193797133Y-75918961D01*
X193939990Y-75966580D01*
X194178085Y-75966580D01*
X192654276Y-75966580D02*
X193225704Y-75966580D01*
X192939990Y-75966580D02*
X192939990Y-74966580D01*
X193035228Y-75109438D01*
X193130466Y-75204676D01*
X193225704Y-75252295D01*
X192320942Y-74966580D02*
X191654276Y-74966580D01*
X192082847Y-75966580D01*
%TO.C,D19*%
X194152685Y-61005980D02*
X194152685Y-60005980D01*
X193914590Y-60005980D01*
X193771733Y-60053600D01*
X193676495Y-60148838D01*
X193628876Y-60244076D01*
X193581257Y-60434552D01*
X193581257Y-60577409D01*
X193628876Y-60767885D01*
X193676495Y-60863123D01*
X193771733Y-60958361D01*
X193914590Y-61005980D01*
X194152685Y-61005980D01*
X192628876Y-61005980D02*
X193200304Y-61005980D01*
X192914590Y-61005980D02*
X192914590Y-60005980D01*
X193009828Y-60148838D01*
X193105066Y-60244076D01*
X193200304Y-60291695D01*
X192152685Y-61005980D02*
X191962209Y-61005980D01*
X191866971Y-60958361D01*
X191819352Y-60910742D01*
X191724114Y-60767885D01*
X191676495Y-60577409D01*
X191676495Y-60196457D01*
X191724114Y-60101219D01*
X191771733Y-60053600D01*
X191866971Y-60005980D01*
X192057447Y-60005980D01*
X192152685Y-60053600D01*
X192200304Y-60101219D01*
X192247923Y-60196457D01*
X192247923Y-60434552D01*
X192200304Y-60529790D01*
X192152685Y-60577409D01*
X192057447Y-60625028D01*
X191866971Y-60625028D01*
X191771733Y-60577409D01*
X191724114Y-60529790D01*
X191676495Y-60434552D01*
%TO.C,D18*%
X194178085Y-58364380D02*
X194178085Y-57364380D01*
X193939990Y-57364380D01*
X193797133Y-57412000D01*
X193701895Y-57507238D01*
X193654276Y-57602476D01*
X193606657Y-57792952D01*
X193606657Y-57935809D01*
X193654276Y-58126285D01*
X193701895Y-58221523D01*
X193797133Y-58316761D01*
X193939990Y-58364380D01*
X194178085Y-58364380D01*
X192654276Y-58364380D02*
X193225704Y-58364380D01*
X192939990Y-58364380D02*
X192939990Y-57364380D01*
X193035228Y-57507238D01*
X193130466Y-57602476D01*
X193225704Y-57650095D01*
X192082847Y-57792952D02*
X192178085Y-57745333D01*
X192225704Y-57697714D01*
X192273323Y-57602476D01*
X192273323Y-57554857D01*
X192225704Y-57459619D01*
X192178085Y-57412000D01*
X192082847Y-57364380D01*
X191892371Y-57364380D01*
X191797133Y-57412000D01*
X191749514Y-57459619D01*
X191701895Y-57554857D01*
X191701895Y-57602476D01*
X191749514Y-57697714D01*
X191797133Y-57745333D01*
X191892371Y-57792952D01*
X192082847Y-57792952D01*
X192178085Y-57840571D01*
X192225704Y-57888190D01*
X192273323Y-57983428D01*
X192273323Y-58173904D01*
X192225704Y-58269142D01*
X192178085Y-58316761D01*
X192082847Y-58364380D01*
X191892371Y-58364380D01*
X191797133Y-58316761D01*
X191749514Y-58269142D01*
X191701895Y-58173904D01*
X191701895Y-57983428D01*
X191749514Y-57888190D01*
X191797133Y-57840571D01*
X191892371Y-57792952D01*
%TO.C,D23*%
X194279585Y-81071980D02*
X194279585Y-80071980D01*
X194041490Y-80071980D01*
X193898633Y-80119600D01*
X193803395Y-80214838D01*
X193755776Y-80310076D01*
X193708157Y-80500552D01*
X193708157Y-80643409D01*
X193755776Y-80833885D01*
X193803395Y-80929123D01*
X193898633Y-81024361D01*
X194041490Y-81071980D01*
X194279585Y-81071980D01*
X193327204Y-80167219D02*
X193279585Y-80119600D01*
X193184347Y-80071980D01*
X192946252Y-80071980D01*
X192851014Y-80119600D01*
X192803395Y-80167219D01*
X192755776Y-80262457D01*
X192755776Y-80357695D01*
X192803395Y-80500552D01*
X193374823Y-81071980D01*
X192755776Y-81071980D01*
X192422442Y-80071980D02*
X191803395Y-80071980D01*
X192136728Y-80452933D01*
X191993871Y-80452933D01*
X191898633Y-80500552D01*
X191851014Y-80548171D01*
X191803395Y-80643409D01*
X191803395Y-80881504D01*
X191851014Y-80976742D01*
X191898633Y-81024361D01*
X191993871Y-81071980D01*
X192279585Y-81071980D01*
X192374823Y-81024361D01*
X192422442Y-80976742D01*
%TO.C,D24*%
X194330485Y-83510380D02*
X194330485Y-82510380D01*
X194092390Y-82510380D01*
X193949533Y-82558000D01*
X193854295Y-82653238D01*
X193806676Y-82748476D01*
X193759057Y-82938952D01*
X193759057Y-83081809D01*
X193806676Y-83272285D01*
X193854295Y-83367523D01*
X193949533Y-83462761D01*
X194092390Y-83510380D01*
X194330485Y-83510380D01*
X193378104Y-82605619D02*
X193330485Y-82558000D01*
X193235247Y-82510380D01*
X192997152Y-82510380D01*
X192901914Y-82558000D01*
X192854295Y-82605619D01*
X192806676Y-82700857D01*
X192806676Y-82796095D01*
X192854295Y-82938952D01*
X193425723Y-83510380D01*
X192806676Y-83510380D01*
X191949533Y-82843714D02*
X191949533Y-83510380D01*
X192187628Y-82462761D02*
X192425723Y-83177047D01*
X191806676Y-83177047D01*
%TO.C,D20*%
X194178085Y-63622180D02*
X194178085Y-62622180D01*
X193939990Y-62622180D01*
X193797133Y-62669800D01*
X193701895Y-62765038D01*
X193654276Y-62860276D01*
X193606657Y-63050752D01*
X193606657Y-63193609D01*
X193654276Y-63384085D01*
X193701895Y-63479323D01*
X193797133Y-63574561D01*
X193939990Y-63622180D01*
X194178085Y-63622180D01*
X193225704Y-62717419D02*
X193178085Y-62669800D01*
X193082847Y-62622180D01*
X192844752Y-62622180D01*
X192749514Y-62669800D01*
X192701895Y-62717419D01*
X192654276Y-62812657D01*
X192654276Y-62907895D01*
X192701895Y-63050752D01*
X193273323Y-63622180D01*
X192654276Y-63622180D01*
X192035228Y-62622180D02*
X191939990Y-62622180D01*
X191844752Y-62669800D01*
X191797133Y-62717419D01*
X191749514Y-62812657D01*
X191701895Y-63003133D01*
X191701895Y-63241228D01*
X191749514Y-63431704D01*
X191797133Y-63526942D01*
X191844752Y-63574561D01*
X191939990Y-63622180D01*
X192035228Y-63622180D01*
X192130466Y-63574561D01*
X192178085Y-63526942D01*
X192225704Y-63431704D01*
X192273323Y-63241228D01*
X192273323Y-63003133D01*
X192225704Y-62812657D01*
X192178085Y-62717419D01*
X192130466Y-62669800D01*
X192035228Y-62622180D01*
%TO.C,D21*%
X194228885Y-66060580D02*
X194228885Y-65060580D01*
X193990790Y-65060580D01*
X193847933Y-65108200D01*
X193752695Y-65203438D01*
X193705076Y-65298676D01*
X193657457Y-65489152D01*
X193657457Y-65632009D01*
X193705076Y-65822485D01*
X193752695Y-65917723D01*
X193847933Y-66012961D01*
X193990790Y-66060580D01*
X194228885Y-66060580D01*
X193276504Y-65155819D02*
X193228885Y-65108200D01*
X193133647Y-65060580D01*
X192895552Y-65060580D01*
X192800314Y-65108200D01*
X192752695Y-65155819D01*
X192705076Y-65251057D01*
X192705076Y-65346295D01*
X192752695Y-65489152D01*
X193324123Y-66060580D01*
X192705076Y-66060580D01*
X191752695Y-66060580D02*
X192324123Y-66060580D01*
X192038409Y-66060580D02*
X192038409Y-65060580D01*
X192133647Y-65203438D01*
X192228885Y-65298676D01*
X192324123Y-65346295D01*
%TD*%
M02*
