M48
; DRILL file {KiCad (6.0.8-1)-1} date 
; FORMAT={-:-/ absolute / metric / decimal}
; #@! TF.CreationDate,2024-01-06T20:05:15-06:00
; #@! TF.GenerationSoftware,Kicad,Pcbnew,(6.0.8-1)-1
; #@! TF.FileFunction,Plated,1,4,PTH
FMAT,2
METRIC
; #@! TA.AperFunction,Plated,PTH,ViaDrill
T1C0.400
; #@! TA.AperFunction,Plated,PTH,ComponentDrill
T2C0.762
; #@! TA.AperFunction,Plated,PTH,ComponentDrill
T3C1.000
; #@! TA.AperFunction,Plated,PTH,ComponentDrill
T4C1.050
; #@! TA.AperFunction,Plated,PTH,ComponentDrill
T5C1.100
; #@! TA.AperFunction,Plated,PTH,ComponentDrill
T6C2.200
%
G90
G05
T1
X105.308Y-63.094
X105.664Y-49.162
X105.664Y-50.487
X105.664Y-51.812
X106.045Y-58.268
X106.426Y-63.094
X106.997Y-49.162
X106.997Y-50.487
X106.997Y-51.812
X108.331Y-49.162
X108.331Y-50.487
X108.331Y-51.812
X109.664Y-49.162
X109.664Y-50.487
X109.664Y-51.812
X112.878Y-118.821
X113.182Y-80.772
X114.351Y-143.866
X115.443Y-118.643
X115.951Y-60.427
X116.637Y-120.142
X117.246Y-80.944
X118.656Y-141.973
X119.126Y-129.896
X120.396Y-131.674
X120.814Y-60.812
X121.056Y-143.916
X122.123Y-120.98
X122.247Y-60.812
X123.681Y-60.812
X125.114Y-60.812
X125.222Y-132.944
X126.187Y-128.219
X126.594Y-143.916
X128.422Y-79.495
X129.743Y-96.418
X130.879Y-141.986
X130.988Y-79.045
X132.029Y-97.485
X133.35Y-143.916
X133.502Y-63.805
X134.149Y-124.301
X134.149Y-125.75
X136.093Y-63.144
X137.414Y-81.394
X138.227Y-60.096
X138.328Y-81.903
X138.786Y-143.916
X139.66Y-60.096
X139.903Y-74.162
X140.564Y-139.605
X141.093Y-60.096
X141.122Y-62.732
X142.527Y-60.096
X142.697Y-139.605
X143.002Y-89.459
X143.053Y-142.088
X143.51Y-62.267
X145.542Y-143.916
X151.079Y-143.916
X154.076Y-89.205
X154.483Y-81.394
X154.991Y-86.411
X155.397Y-142.088
X155.651Y-81.432
X156.312Y-55.169
X156.566Y-57.048
X157.683Y-44.653
X157.886Y-143.916
X157.917Y-48.687
X159.08Y-74.219
X159.677Y-79.896
X159.817Y-72.187
X159.881Y-75.032
X160.096Y-54.61
X160.223Y-81.712
X160.304Y-62.48
X160.468Y-75.841
X160.871Y-83.502
X161.163Y-76.784
X161.176Y-64.376
X161.315Y-125.908
X161.417Y-56.591
X161.519Y-57.683
X161.519Y-66.065
X161.607Y-85.407
X162.001Y-67.793
X162.077Y-77.572
X162.199Y-58.416
X162.306Y-141.326
X162.535Y-134.137
X162.865Y-59.461
X163.271Y-143.053
X163.957Y-140.462
X163.975Y-127.591
X164.033Y-126.594
X164.795Y-62.408
X165.381Y-125.062
X165.494Y-126.594
X165.506Y-45.796
X166.04Y-127.61
X166.294Y-65.354
X166.294Y-78.054
X166.421Y-68.453
X166.522Y-42.824
X166.548Y-86.657
X166.726Y-66.573
X166.802Y-84.633
X167.208Y-67.488
X167.437Y-85.877
X167.64Y-83.312
X167.996Y-132.69
X168.148Y-148.692
X168.402Y-118.618
X169.545Y-146.279
X169.85Y-128.041
X170.659Y-128.674
X170.993Y-43.637
X171.157Y-129.54
X171.45Y-143.739
X171.624Y-122.305
X171.671Y-123.377
X171.814Y-130.378
X171.907Y-83.845
X171.933Y-82.321
X171.933Y-124.358
X172.003Y-111.544
X172.003Y-112.556
X172.003Y-113.569
X172.003Y-115.611
X172.003Y-116.624
X172.003Y-117.636
X172.009Y-85.42
X172.11Y-64.516
X172.237Y-65.989
X172.237Y-67.589
X172.669Y-62.408
X172.759Y-122.264
X172.828Y-112.069
X172.828Y-113.081
X172.828Y-116.136
X172.828Y-117.149
X172.974Y-78.257
X173.355Y-47.473
X173.482Y-101.448
X173.507Y-90.754
X173.533Y-93.853
X173.653Y-111.544
X173.653Y-112.556
X173.653Y-113.569
X173.653Y-115.611
X173.653Y-116.624
X173.653Y-117.636
X173.685Y-98.095
X175.489Y-62.205
X176.225Y-82.271
X176.225Y-83.845
X176.251Y-85.42
X176.251Y-86.995
X176.378Y-64.44
X176.378Y-65.989
X176.403Y-67.589
X176.428Y-69.215
X177.038Y-131.42
X177.546Y-132.309
X177.8Y-133.452
X178.308Y-100.432
X178.345Y-134.341
X179.07Y-105.639
X179.197Y-101.702
X179.197Y-106.909
X180.848Y-91.669
X180.975Y-100.813
X180.975Y-105.893
X180.975Y-132.817
X180.975Y-137.262
X181.331Y-59.131
X181.331Y-64.287
X181.331Y-76.708
X181.356Y-81.813
X191.44Y-66.726
X191.465Y-64.186
X191.491Y-61.722
X191.497Y-59.087
X191.618Y-81.788
X191.618Y-84.303
X191.643Y-76.708
X191.643Y-79.248
T2
X109.474Y-91.542
X109.474Y-109.322
X109.474Y-116.942
X109.474Y-134.722
X112.014Y-91.542
X112.014Y-109.322
X112.014Y-116.942
X112.014Y-134.722
X114.554Y-91.542
X114.554Y-109.322
X114.554Y-116.942
X114.554Y-134.722
X117.094Y-91.542
X117.094Y-109.322
X117.094Y-116.942
X117.094Y-134.722
X119.634Y-91.542
X119.634Y-109.322
X119.634Y-116.942
X119.634Y-134.722
X122.174Y-91.542
X122.174Y-109.322
X122.174Y-116.942
X122.174Y-134.722
X124.714Y-91.542
X124.714Y-109.322
X124.714Y-116.942
X124.714Y-134.722
X127.254Y-91.542
X127.254Y-109.322
X127.254Y-116.942
X127.254Y-134.722
X129.794Y-91.542
X129.794Y-109.322
X129.794Y-116.942
X129.794Y-134.722
X132.334Y-91.542
X132.334Y-109.322
X132.334Y-116.942
X132.334Y-134.722
X134.874Y-91.542
X134.874Y-109.322
X134.874Y-116.942
X134.874Y-134.722
X137.414Y-91.542
X137.414Y-109.322
X137.414Y-116.942
X137.414Y-134.722
X139.954Y-91.542
X139.954Y-109.322
X139.954Y-116.942
X139.954Y-134.722
X142.494Y-91.542
X142.494Y-109.322
X142.494Y-116.942
X142.494Y-134.722
X145.034Y-91.542
X145.034Y-109.322
X145.034Y-116.942
X145.034Y-134.722
X147.574Y-91.542
X147.574Y-109.322
X147.574Y-116.942
X147.574Y-134.722
X150.114Y-91.542
X150.114Y-109.322
X150.114Y-116.942
X150.114Y-134.722
X152.654Y-91.542
X152.654Y-109.322
X152.654Y-116.942
X152.654Y-134.722
X155.194Y-91.542
X155.194Y-109.322
X155.194Y-116.942
X155.194Y-134.722
X157.734Y-91.542
X157.734Y-109.322
X157.734Y-116.942
X157.734Y-134.722
T3
X110.524Y-113.212
X113.064Y-113.212
X114.554Y-86.367
X117.064Y-86.367
X119.604Y-86.367
X122.144Y-86.367
X124.684Y-66.047
X124.684Y-86.367
X127.224Y-66.047
X127.224Y-86.367
X129.764Y-66.047
X129.764Y-86.367
X131.734Y-44.052
X131.734Y-46.592
X131.734Y-49.132
X131.734Y-51.672
X132.304Y-66.047
X132.304Y-86.367
X134.844Y-66.047
X134.844Y-86.367
X137.384Y-66.047
X137.384Y-86.367
X139.924Y-66.047
X139.924Y-86.367
X142.464Y-66.047
X142.464Y-86.367
X145.004Y-66.047
X145.004Y-86.367
X147.544Y-66.047
X147.544Y-86.367
X150.084Y-66.047
X150.084Y-86.367
X152.624Y-66.047
X152.624Y-86.367
X174.498Y-145.009
X174.498Y-147.549
X177.038Y-145.009
X177.038Y-147.549
X179.578Y-145.009
X179.578Y-147.549
X182.118Y-145.009
X182.118Y-147.549
X184.658Y-145.009
X184.658Y-147.549
X184.957Y-99.633
X184.957Y-102.173
X184.957Y-104.713
X184.957Y-107.253
X184.957Y-130.912
X184.957Y-133.452
X184.957Y-135.992
X184.957Y-138.532
X184.972Y-57.912
X184.972Y-60.452
X184.972Y-62.992
X184.972Y-65.532
X184.972Y-69.571
X184.972Y-75.458
X184.972Y-77.998
X184.972Y-80.538
X184.972Y-83.078
X184.972Y-86.888
X184.972Y-91.16
X184.972Y-93.7
X187.497Y-99.633
X187.497Y-102.173
X187.497Y-104.713
X187.497Y-107.253
X187.497Y-130.912
X187.497Y-133.452
X187.497Y-135.992
X187.497Y-138.532
X187.512Y-57.912
X187.512Y-60.452
X187.512Y-62.992
X187.512Y-65.532
X187.512Y-69.571
X187.512Y-75.458
X187.512Y-77.998
X187.512Y-80.538
X187.512Y-83.078
X187.512Y-86.888
X187.512Y-91.16
X187.512Y-93.7
X190.037Y-99.633
X190.037Y-102.173
X190.037Y-104.713
X190.037Y-107.253
X190.037Y-130.912
X190.037Y-133.452
X190.037Y-135.992
X190.037Y-138.532
X190.052Y-57.912
X190.052Y-60.452
X190.052Y-62.992
X190.052Y-65.532
X190.052Y-69.571
X190.052Y-75.458
X190.052Y-77.998
X190.052Y-80.538
X190.052Y-83.078
X190.052Y-86.888
X190.052Y-91.16
X190.052Y-93.7
T4
X176.535Y-46.462
X180.035Y-51.462
X183.535Y-46.462
T5
X109.114Y-54.925
X114.114Y-51.425
X136.801Y-46.96
X140.301Y-51.96
X182.497Y-125.547
X187.497Y-122.047
T6
X108.064Y-45.212
X108.064Y-147.212
X191.064Y-45.212
X191.064Y-147.212
T0
M30
