%TF.GenerationSoftware,KiCad,Pcbnew,(6.0.8-1)-1*%
%TF.CreationDate,2024-01-06T20:05:09-06:00*%
%TF.ProjectId,Pico Robotic Controller,5069636f-2052-46f6-926f-74696320436f,V2*%
%TF.SameCoordinates,Original*%
%TF.FileFunction,Soldermask,Bot*%
%TF.FilePolarity,Negative*%
%FSLAX46Y46*%
G04 Gerber Fmt 4.6, Leading zero omitted, Abs format (unit mm)*
G04 Created by KiCad (PCBNEW (6.0.8-1)-1) date 2024-01-06 20:05:09*
%MOMM*%
%LPD*%
G01*
G04 APERTURE LIST*
%ADD10R,1.700000X1.700000*%
%ADD11O,1.700000X1.700000*%
%ADD12C,1.700000*%
%ADD13C,1.524000*%
%ADD14C,1.650000*%
%ADD15C,4.400000*%
%ADD16C,1.600000*%
G04 APERTURE END LIST*
D10*
%TO.C,J6*%
X113064000Y-113211600D03*
D11*
X110524000Y-113211600D03*
%TD*%
D12*
%TO.C,J2*%
X184957000Y-138531600D03*
X187497000Y-138531600D03*
X190037000Y-138531600D03*
X184957000Y-135991600D03*
X187497000Y-135991600D03*
X190037000Y-135991600D03*
X184957000Y-133451600D03*
X187497000Y-133451600D03*
X190037000Y-133451600D03*
X184957000Y-130911600D03*
X187497000Y-130911600D03*
X190037000Y-130911600D03*
%TD*%
D10*
%TO.C,J10*%
X184972000Y-93700200D03*
D11*
X184972000Y-91160200D03*
X187512000Y-93700200D03*
X187512000Y-91160200D03*
X190052000Y-93700200D03*
X190052000Y-91160200D03*
%TD*%
D12*
%TO.C,J4*%
X184957000Y-107253400D03*
X187497000Y-107253400D03*
X190037000Y-107253400D03*
X184957000Y-104713400D03*
X187497000Y-104713400D03*
X190037000Y-104713400D03*
X184957000Y-102173400D03*
X187497000Y-102173400D03*
X190037000Y-102173400D03*
X184957000Y-99633400D03*
X187497000Y-99633400D03*
X190037000Y-99633400D03*
%TD*%
D10*
%TO.C,J9*%
X184972000Y-69570600D03*
D11*
X187512000Y-69570600D03*
X190052000Y-69570600D03*
%TD*%
D13*
%TO.C,U2*%
X109474000Y-134721600D03*
X112014000Y-134721600D03*
X114554000Y-134721600D03*
X117094000Y-134721600D03*
X119634000Y-134721600D03*
X122174000Y-134721600D03*
X124714000Y-134721600D03*
X127254000Y-134721600D03*
X129794000Y-134721600D03*
X132334000Y-134721600D03*
X134874000Y-134721600D03*
X137414000Y-134721600D03*
X139954000Y-134721600D03*
X142494000Y-134721600D03*
X145034000Y-134721600D03*
X147574000Y-134721600D03*
X150114000Y-134721600D03*
X152654000Y-134721600D03*
X155194000Y-134721600D03*
X157734000Y-134721600D03*
X157734000Y-116941600D03*
X155194000Y-116941600D03*
X152654000Y-116941600D03*
X150114000Y-116941600D03*
X147574000Y-116941600D03*
X145034000Y-116941600D03*
X142494000Y-116941600D03*
X139954000Y-116941600D03*
X137414000Y-116941600D03*
X134874000Y-116941600D03*
X132334000Y-116941600D03*
X129794000Y-116941600D03*
X127254000Y-116941600D03*
X124714000Y-116941600D03*
X122174000Y-116941600D03*
X119634000Y-116941600D03*
X117094000Y-116941600D03*
X114554000Y-116941600D03*
X112014000Y-116941600D03*
X109474000Y-116941600D03*
%TD*%
D12*
%TO.C,U1*%
X131734000Y-44051600D03*
X131734000Y-46591600D03*
X131734000Y-49131600D03*
X131734000Y-51671600D03*
%TD*%
D14*
%TO.C,J12*%
X182497000Y-125547000D03*
X187497000Y-122047000D03*
%TD*%
D15*
%TO.C,H4*%
X191064000Y-45211600D03*
%TD*%
D10*
%TO.C,J5*%
X184972000Y-86888000D03*
D11*
X187512000Y-86888000D03*
X190052000Y-86888000D03*
%TD*%
D16*
%TO.C,J3*%
X183535000Y-46461600D03*
X180035000Y-51461600D03*
X176535000Y-46461600D03*
%TD*%
D13*
%TO.C,U3*%
X109474000Y-109321600D03*
X112014000Y-109321600D03*
X114554000Y-109321600D03*
X117094000Y-109321600D03*
X119634000Y-109321600D03*
X122174000Y-109321600D03*
X124714000Y-109321600D03*
X127254000Y-109321600D03*
X129794000Y-109321600D03*
X132334000Y-109321600D03*
X134874000Y-109321600D03*
X137414000Y-109321600D03*
X139954000Y-109321600D03*
X142494000Y-109321600D03*
X145034000Y-109321600D03*
X147574000Y-109321600D03*
X150114000Y-109321600D03*
X152654000Y-109321600D03*
X155194000Y-109321600D03*
X157734000Y-109321600D03*
X157734000Y-91541600D03*
X155194000Y-91541600D03*
X152654000Y-91541600D03*
X150114000Y-91541600D03*
X147574000Y-91541600D03*
X145034000Y-91541600D03*
X142494000Y-91541600D03*
X139954000Y-91541600D03*
X137414000Y-91541600D03*
X134874000Y-91541600D03*
X132334000Y-91541600D03*
X129794000Y-91541600D03*
X127254000Y-91541600D03*
X124714000Y-91541600D03*
X122174000Y-91541600D03*
X119634000Y-91541600D03*
X117094000Y-91541600D03*
X114554000Y-91541600D03*
X112014000Y-91541600D03*
X109474000Y-91541600D03*
%TD*%
D15*
%TO.C,H3*%
X191064000Y-147211600D03*
%TD*%
D12*
%TO.C,U6*%
X114554000Y-86366600D03*
X117064000Y-86366600D03*
X119604000Y-86366600D03*
X122144000Y-86366600D03*
X124684000Y-86366600D03*
X127224000Y-86366600D03*
X129764000Y-86366600D03*
X132304000Y-86366600D03*
X134844000Y-86366600D03*
X137384000Y-86366600D03*
X139924000Y-86366600D03*
X142464000Y-86366600D03*
X145004000Y-86366600D03*
X147544000Y-86366600D03*
X150084000Y-86366600D03*
X152624000Y-86366600D03*
X152624000Y-66046600D03*
X150084000Y-66046600D03*
X147544000Y-66046600D03*
X145004000Y-66046600D03*
X142464000Y-66046600D03*
X139924000Y-66046600D03*
X137384000Y-66046600D03*
X134844000Y-66046600D03*
X132304000Y-66046600D03*
X129764000Y-66046600D03*
X127224000Y-66046600D03*
X124684000Y-66046600D03*
%TD*%
D14*
%TO.C,J11*%
X140301000Y-51960000D03*
X136801000Y-46960000D03*
%TD*%
D12*
%TO.C,J7*%
X184972000Y-83078000D03*
X187512000Y-83078000D03*
X190052000Y-83078000D03*
X184972000Y-80538000D03*
X187512000Y-80538000D03*
X190052000Y-80538000D03*
X184972000Y-77998000D03*
X187512000Y-77998000D03*
X190052000Y-77998000D03*
X184972000Y-75458000D03*
X187512000Y-75458000D03*
X190052000Y-75458000D03*
%TD*%
%TO.C,J8*%
X184972000Y-65532000D03*
X187512000Y-65532000D03*
X190052000Y-65532000D03*
X184972000Y-62992000D03*
X187512000Y-62992000D03*
X190052000Y-62992000D03*
X184972000Y-60452000D03*
X187512000Y-60452000D03*
X190052000Y-60452000D03*
X184972000Y-57912000D03*
X187512000Y-57912000D03*
X190052000Y-57912000D03*
%TD*%
D14*
%TO.C,J1*%
X114114000Y-51424600D03*
X109114000Y-54924600D03*
%TD*%
D15*
%TO.C,H2*%
X108064000Y-147211600D03*
%TD*%
%TO.C,H1*%
X108064000Y-45211600D03*
%TD*%
D10*
%TO.C,J13*%
X174498000Y-147548600D03*
D11*
X174498000Y-145008600D03*
X177038000Y-147548600D03*
X177038000Y-145008600D03*
X179578000Y-147548600D03*
X179578000Y-145008600D03*
X182118000Y-147548600D03*
X182118000Y-145008600D03*
X184658000Y-147548600D03*
X184658000Y-145008600D03*
%TD*%
M02*
