%TF.GenerationSoftware,KiCad,Pcbnew,(6.0.8-1)-1*%
%TF.CreationDate,2024-01-05T11:23:31-06:00*%
%TF.ProjectId,Pico Robotic Controller,5069636f-2052-46f6-926f-74696320436f,V2*%
%TF.SameCoordinates,Original*%
%TF.FileFunction,Legend,Bot*%
%TF.FilePolarity,Positive*%
%FSLAX46Y46*%
G04 Gerber Fmt 4.6, Leading zero omitted, Abs format (unit mm)*
G04 Created by KiCad (PCBNEW (6.0.8-1)-1) date 2024-01-05 11:23:31*
%MOMM*%
%LPD*%
G01*
G04 APERTURE LIST*
%ADD10C,0.150000*%
G04 APERTURE END LIST*
D10*
X163672204Y-72627380D02*
X163672204Y-71627380D01*
X163434109Y-71627380D01*
X163291252Y-71675000D01*
X163196014Y-71770238D01*
X163148395Y-71865476D01*
X163100776Y-72055952D01*
X163100776Y-72198809D01*
X163148395Y-72389285D01*
X163196014Y-72484523D01*
X163291252Y-72579761D01*
X163434109Y-72627380D01*
X163672204Y-72627380D01*
X162291252Y-72579761D02*
X162386490Y-72627380D01*
X162576966Y-72627380D01*
X162672204Y-72579761D01*
X162719823Y-72484523D01*
X162719823Y-72103571D01*
X162672204Y-72008333D01*
X162576966Y-71960714D01*
X162386490Y-71960714D01*
X162291252Y-72008333D01*
X162243633Y-72103571D01*
X162243633Y-72198809D01*
X162719823Y-72294047D01*
X161862680Y-72579761D02*
X161767442Y-72627380D01*
X161576966Y-72627380D01*
X161481728Y-72579761D01*
X161434109Y-72484523D01*
X161434109Y-72436904D01*
X161481728Y-72341666D01*
X161576966Y-72294047D01*
X161719823Y-72294047D01*
X161815061Y-72246428D01*
X161862680Y-72151190D01*
X161862680Y-72103571D01*
X161815061Y-72008333D01*
X161719823Y-71960714D01*
X161576966Y-71960714D01*
X161481728Y-72008333D01*
X161005538Y-72627380D02*
X161005538Y-71960714D01*
X161005538Y-71627380D02*
X161053157Y-71675000D01*
X161005538Y-71722619D01*
X160957919Y-71675000D01*
X161005538Y-71627380D01*
X161005538Y-71722619D01*
X160100776Y-71960714D02*
X160100776Y-72770238D01*
X160148395Y-72865476D01*
X160196014Y-72913095D01*
X160291252Y-72960714D01*
X160434109Y-72960714D01*
X160529347Y-72913095D01*
X160100776Y-72579761D02*
X160196014Y-72627380D01*
X160386490Y-72627380D01*
X160481728Y-72579761D01*
X160529347Y-72532142D01*
X160576966Y-72436904D01*
X160576966Y-72151190D01*
X160529347Y-72055952D01*
X160481728Y-72008333D01*
X160386490Y-71960714D01*
X160196014Y-71960714D01*
X160100776Y-72008333D01*
X159624585Y-71960714D02*
X159624585Y-72627380D01*
X159624585Y-72055952D02*
X159576966Y-72008333D01*
X159481728Y-71960714D01*
X159338871Y-71960714D01*
X159243633Y-72008333D01*
X159196014Y-72103571D01*
X159196014Y-72627380D01*
X158338871Y-72579761D02*
X158434109Y-72627380D01*
X158624585Y-72627380D01*
X158719823Y-72579761D01*
X158767442Y-72484523D01*
X158767442Y-72103571D01*
X158719823Y-72008333D01*
X158624585Y-71960714D01*
X158434109Y-71960714D01*
X158338871Y-72008333D01*
X158291252Y-72103571D01*
X158291252Y-72198809D01*
X158767442Y-72294047D01*
X157434109Y-72627380D02*
X157434109Y-71627380D01*
X157434109Y-72579761D02*
X157529347Y-72627380D01*
X157719823Y-72627380D01*
X157815061Y-72579761D01*
X157862680Y-72532142D01*
X157910300Y-72436904D01*
X157910300Y-72151190D01*
X157862680Y-72055952D01*
X157815061Y-72008333D01*
X157719823Y-71960714D01*
X157529347Y-71960714D01*
X157434109Y-72008333D01*
X156196014Y-72627380D02*
X156196014Y-71627380D01*
X156196014Y-72008333D02*
X156100776Y-71960714D01*
X155910300Y-71960714D01*
X155815061Y-72008333D01*
X155767442Y-72055952D01*
X155719823Y-72151190D01*
X155719823Y-72436904D01*
X155767442Y-72532142D01*
X155815061Y-72579761D01*
X155910300Y-72627380D01*
X156100776Y-72627380D01*
X156196014Y-72579761D01*
X155386490Y-71960714D02*
X155148395Y-72627380D01*
X154910300Y-71960714D02*
X155148395Y-72627380D01*
X155243633Y-72865476D01*
X155291252Y-72913095D01*
X155386490Y-72960714D01*
X153815061Y-72579761D02*
X153672204Y-72627380D01*
X153434109Y-72627380D01*
X153338871Y-72579761D01*
X153291252Y-72532142D01*
X153243633Y-72436904D01*
X153243633Y-72341666D01*
X153291252Y-72246428D01*
X153338871Y-72198809D01*
X153434109Y-72151190D01*
X153624585Y-72103571D01*
X153719823Y-72055952D01*
X153767442Y-72008333D01*
X153815061Y-71913095D01*
X153815061Y-71817857D01*
X153767442Y-71722619D01*
X153719823Y-71675000D01*
X153624585Y-71627380D01*
X153386490Y-71627380D01*
X153243633Y-71675000D01*
X152386490Y-72579761D02*
X152481728Y-72627380D01*
X152672204Y-72627380D01*
X152767442Y-72579761D01*
X152815061Y-72532142D01*
X152862680Y-72436904D01*
X152862680Y-72151190D01*
X152815061Y-72055952D01*
X152767442Y-72008333D01*
X152672204Y-71960714D01*
X152481728Y-71960714D01*
X152386490Y-72008333D01*
X151815061Y-72627380D02*
X151910300Y-72579761D01*
X151957919Y-72532142D01*
X152005538Y-72436904D01*
X152005538Y-72151190D01*
X151957919Y-72055952D01*
X151910300Y-72008333D01*
X151815061Y-71960714D01*
X151672204Y-71960714D01*
X151576966Y-72008333D01*
X151529347Y-72055952D01*
X151481728Y-72151190D01*
X151481728Y-72436904D01*
X151529347Y-72532142D01*
X151576966Y-72579761D01*
X151672204Y-72627380D01*
X151815061Y-72627380D01*
X151196014Y-71960714D02*
X150815061Y-71960714D01*
X151053157Y-71627380D02*
X151053157Y-72484523D01*
X151005538Y-72579761D01*
X150910300Y-72627380D01*
X150815061Y-72627380D01*
X150624585Y-71960714D02*
X150243633Y-71960714D01*
X150481728Y-71627380D02*
X150481728Y-72484523D01*
X150434109Y-72579761D01*
X150338871Y-72627380D01*
X150243633Y-72627380D01*
X149148395Y-72627380D02*
X149148395Y-71627380D01*
X148815061Y-72341666D01*
X148481728Y-71627380D01*
X148481728Y-72627380D01*
X147576966Y-72579761D02*
X147672204Y-72627380D01*
X147862680Y-72627380D01*
X147957919Y-72579761D01*
X148005538Y-72532142D01*
X148053157Y-72436904D01*
X148053157Y-72151190D01*
X148005538Y-72055952D01*
X147957919Y-72008333D01*
X147862680Y-71960714D01*
X147672204Y-71960714D01*
X147576966Y-72008333D01*
X147148395Y-72627380D02*
X147148395Y-71627380D01*
X146815061Y-72341666D01*
X146481728Y-71627380D01*
X146481728Y-72627380D01*
X145576966Y-72627380D02*
X145576966Y-72103571D01*
X145624585Y-72008333D01*
X145719823Y-71960714D01*
X145910300Y-71960714D01*
X146005538Y-72008333D01*
X145576966Y-72579761D02*
X145672204Y-72627380D01*
X145910300Y-72627380D01*
X146005538Y-72579761D01*
X146053157Y-72484523D01*
X146053157Y-72389285D01*
X146005538Y-72294047D01*
X145910300Y-72246428D01*
X145672204Y-72246428D01*
X145576966Y-72198809D01*
X145100776Y-72627380D02*
X145100776Y-71627380D01*
X144672204Y-72627380D02*
X144672204Y-72103571D01*
X144719823Y-72008333D01*
X144815061Y-71960714D01*
X144957919Y-71960714D01*
X145053157Y-72008333D01*
X145100776Y-72055952D01*
X144053157Y-72627380D02*
X144148395Y-72579761D01*
X144196014Y-72532142D01*
X144243633Y-72436904D01*
X144243633Y-72151190D01*
X144196014Y-72055952D01*
X144148395Y-72008333D01*
X144053157Y-71960714D01*
X143910300Y-71960714D01*
X143815061Y-72008333D01*
X143767442Y-72055952D01*
X143719823Y-72151190D01*
X143719823Y-72436904D01*
X143767442Y-72532142D01*
X143815061Y-72579761D01*
X143910300Y-72627380D01*
X144053157Y-72627380D01*
X143291252Y-71960714D02*
X143291252Y-72627380D01*
X143291252Y-72055952D02*
X143243633Y-72008333D01*
X143148395Y-71960714D01*
X143005538Y-71960714D01*
X142910300Y-72008333D01*
X142862680Y-72103571D01*
X142862680Y-72627380D01*
X163672204Y-74237380D02*
X163672204Y-73237380D01*
X163338871Y-73951666D01*
X163005538Y-73237380D01*
X163005538Y-74237380D01*
X162148395Y-74189761D02*
X162243633Y-74237380D01*
X162434109Y-74237380D01*
X162529347Y-74189761D01*
X162576966Y-74094523D01*
X162576966Y-73713571D01*
X162529347Y-73618333D01*
X162434109Y-73570714D01*
X162243633Y-73570714D01*
X162148395Y-73618333D01*
X162100776Y-73713571D01*
X162100776Y-73808809D01*
X162576966Y-73904047D01*
X161672204Y-73570714D02*
X161672204Y-74237380D01*
X161672204Y-73665952D02*
X161624585Y-73618333D01*
X161529347Y-73570714D01*
X161386490Y-73570714D01*
X161291252Y-73618333D01*
X161243633Y-73713571D01*
X161243633Y-74237380D01*
X160910300Y-73570714D02*
X160529347Y-73570714D01*
X160767442Y-73237380D02*
X160767442Y-74094523D01*
X160719823Y-74189761D01*
X160624585Y-74237380D01*
X160529347Y-74237380D01*
X160053157Y-74237380D02*
X160148395Y-74189761D01*
X160196014Y-74142142D01*
X160243633Y-74046904D01*
X160243633Y-73761190D01*
X160196014Y-73665952D01*
X160148395Y-73618333D01*
X160053157Y-73570714D01*
X159910300Y-73570714D01*
X159815061Y-73618333D01*
X159767442Y-73665952D01*
X159719823Y-73761190D01*
X159719823Y-74046904D01*
X159767442Y-74142142D01*
X159815061Y-74189761D01*
X159910300Y-74237380D01*
X160053157Y-74237380D01*
X159291252Y-74237380D02*
X159291252Y-73570714D01*
X159291252Y-73761190D02*
X159243633Y-73665952D01*
X159196014Y-73618333D01*
X159100776Y-73570714D01*
X159005538Y-73570714D01*
X157767442Y-74237380D02*
X157862680Y-74189761D01*
X157910300Y-74142142D01*
X157957919Y-74046904D01*
X157957919Y-73761190D01*
X157910300Y-73665952D01*
X157862680Y-73618333D01*
X157767442Y-73570714D01*
X157624585Y-73570714D01*
X157529347Y-73618333D01*
X157481728Y-73665952D01*
X157434109Y-73761190D01*
X157434109Y-74046904D01*
X157481728Y-74142142D01*
X157529347Y-74189761D01*
X157624585Y-74237380D01*
X157767442Y-74237380D01*
X157148395Y-73570714D02*
X156767442Y-73570714D01*
X157005538Y-74237380D02*
X157005538Y-73380238D01*
X156957919Y-73285000D01*
X156862680Y-73237380D01*
X156767442Y-73237380D01*
X155338871Y-73713571D02*
X155672204Y-73713571D01*
X155672204Y-74237380D02*
X155672204Y-73237380D01*
X155196014Y-73237380D01*
X154243633Y-74237380D02*
X154576966Y-73761190D01*
X154815061Y-74237380D02*
X154815061Y-73237380D01*
X154434109Y-73237380D01*
X154338871Y-73285000D01*
X154291252Y-73332619D01*
X154243633Y-73427857D01*
X154243633Y-73570714D01*
X154291252Y-73665952D01*
X154338871Y-73713571D01*
X154434109Y-73761190D01*
X154815061Y-73761190D01*
X153243633Y-74142142D02*
X153291252Y-74189761D01*
X153434109Y-74237380D01*
X153529347Y-74237380D01*
X153672204Y-74189761D01*
X153767442Y-74094523D01*
X153815061Y-73999285D01*
X153862680Y-73808809D01*
X153862680Y-73665952D01*
X153815061Y-73475476D01*
X153767442Y-73380238D01*
X153672204Y-73285000D01*
X153529347Y-73237380D01*
X153434109Y-73237380D01*
X153291252Y-73285000D01*
X153243633Y-73332619D01*
X152862680Y-73332619D02*
X152815061Y-73285000D01*
X152719823Y-73237380D01*
X152481728Y-73237380D01*
X152386490Y-73285000D01*
X152338871Y-73332619D01*
X152291252Y-73427857D01*
X152291252Y-73523095D01*
X152338871Y-73665952D01*
X152910300Y-74237380D01*
X152291252Y-74237380D01*
X151434109Y-73570714D02*
X151434109Y-74237380D01*
X151672204Y-73189761D02*
X151910300Y-73904047D01*
X151291252Y-73904047D01*
X150481728Y-73237380D02*
X150672204Y-73237380D01*
X150767442Y-73285000D01*
X150815061Y-73332619D01*
X150910300Y-73475476D01*
X150957919Y-73665952D01*
X150957919Y-74046904D01*
X150910300Y-74142142D01*
X150862680Y-74189761D01*
X150767442Y-74237380D01*
X150576966Y-74237380D01*
X150481728Y-74189761D01*
X150434109Y-74142142D01*
X150386490Y-74046904D01*
X150386490Y-73808809D01*
X150434109Y-73713571D01*
X150481728Y-73665952D01*
X150576966Y-73618333D01*
X150767442Y-73618333D01*
X150862680Y-73665952D01*
X150910300Y-73713571D01*
X150957919Y-73808809D01*
X149815061Y-73665952D02*
X149910300Y-73618333D01*
X149957919Y-73570714D01*
X150005538Y-73475476D01*
X150005538Y-73427857D01*
X149957919Y-73332619D01*
X149910300Y-73285000D01*
X149815061Y-73237380D01*
X149624585Y-73237380D01*
X149529347Y-73285000D01*
X149481728Y-73332619D01*
X149434109Y-73427857D01*
X149434109Y-73475476D01*
X149481728Y-73570714D01*
X149529347Y-73618333D01*
X149624585Y-73665952D01*
X149815061Y-73665952D01*
X149910300Y-73713571D01*
X149957919Y-73761190D01*
X150005538Y-73856428D01*
X150005538Y-74046904D01*
X149957919Y-74142142D01*
X149910300Y-74189761D01*
X149815061Y-74237380D01*
X149624585Y-74237380D01*
X149529347Y-74189761D01*
X149481728Y-74142142D01*
X149434109Y-74046904D01*
X149434109Y-73856428D01*
X149481728Y-73761190D01*
X149529347Y-73713571D01*
X149624585Y-73665952D01*
X148957919Y-74189761D02*
X148957919Y-74237380D01*
X149005538Y-74332619D01*
X149053157Y-74380238D01*
X147815061Y-73332619D02*
X147767442Y-73285000D01*
X147672204Y-73237380D01*
X147434109Y-73237380D01*
X147338871Y-73285000D01*
X147291252Y-73332619D01*
X147243633Y-73427857D01*
X147243633Y-73523095D01*
X147291252Y-73665952D01*
X147862680Y-74237380D01*
X147243633Y-74237380D01*
X146386490Y-73237380D02*
X146576966Y-73237380D01*
X146672204Y-73285000D01*
X146719823Y-73332619D01*
X146815061Y-73475476D01*
X146862680Y-73665952D01*
X146862680Y-74046904D01*
X146815061Y-74142142D01*
X146767442Y-74189761D01*
X146672204Y-74237380D01*
X146481728Y-74237380D01*
X146386490Y-74189761D01*
X146338871Y-74142142D01*
X146291252Y-74046904D01*
X146291252Y-73808809D01*
X146338871Y-73713571D01*
X146386490Y-73665952D01*
X146481728Y-73618333D01*
X146672204Y-73618333D01*
X146767442Y-73665952D01*
X146815061Y-73713571D01*
X146862680Y-73808809D01*
X145719823Y-73665952D02*
X145815061Y-73618333D01*
X145862680Y-73570714D01*
X145910300Y-73475476D01*
X145910300Y-73427857D01*
X145862680Y-73332619D01*
X145815061Y-73285000D01*
X145719823Y-73237380D01*
X145529347Y-73237380D01*
X145434109Y-73285000D01*
X145386490Y-73332619D01*
X145338871Y-73427857D01*
X145338871Y-73475476D01*
X145386490Y-73570714D01*
X145434109Y-73618333D01*
X145529347Y-73665952D01*
X145719823Y-73665952D01*
X145815061Y-73713571D01*
X145862680Y-73761190D01*
X145910300Y-73856428D01*
X145910300Y-74046904D01*
X145862680Y-74142142D01*
X145815061Y-74189761D01*
X145719823Y-74237380D01*
X145529347Y-74237380D01*
X145434109Y-74189761D01*
X145386490Y-74142142D01*
X145338871Y-74046904D01*
X145338871Y-73856428D01*
X145386490Y-73761190D01*
X145434109Y-73713571D01*
X145529347Y-73665952D01*
X145005538Y-73237380D02*
X144338871Y-73237380D01*
X144767442Y-74237380D01*
X143910300Y-74189761D02*
X143910300Y-74237380D01*
X143957919Y-74332619D01*
X144005538Y-74380238D01*
X142291252Y-74237380D02*
X142291252Y-73713571D01*
X142338871Y-73618333D01*
X142434109Y-73570714D01*
X142624585Y-73570714D01*
X142719823Y-73618333D01*
X142291252Y-74189761D02*
X142386490Y-74237380D01*
X142624585Y-74237380D01*
X142719823Y-74189761D01*
X142767442Y-74094523D01*
X142767442Y-73999285D01*
X142719823Y-73904047D01*
X142624585Y-73856428D01*
X142386490Y-73856428D01*
X142291252Y-73808809D01*
X141815061Y-73570714D02*
X141815061Y-74237380D01*
X141815061Y-73665952D02*
X141767442Y-73618333D01*
X141672204Y-73570714D01*
X141529347Y-73570714D01*
X141434109Y-73618333D01*
X141386490Y-73713571D01*
X141386490Y-74237380D01*
X140481728Y-74237380D02*
X140481728Y-73237380D01*
X140481728Y-74189761D02*
X140576966Y-74237380D01*
X140767442Y-74237380D01*
X140862680Y-74189761D01*
X140910300Y-74142142D01*
X140957919Y-74046904D01*
X140957919Y-73761190D01*
X140910300Y-73665952D01*
X140862680Y-73618333D01*
X140767442Y-73570714D01*
X140576966Y-73570714D01*
X140481728Y-73618333D01*
X139291252Y-73332619D02*
X139243633Y-73285000D01*
X139148395Y-73237380D01*
X138910300Y-73237380D01*
X138815061Y-73285000D01*
X138767442Y-73332619D01*
X138719823Y-73427857D01*
X138719823Y-73523095D01*
X138767442Y-73665952D01*
X139338871Y-74237380D01*
X138719823Y-74237380D01*
X137862680Y-73237380D02*
X138053157Y-73237380D01*
X138148395Y-73285000D01*
X138196014Y-73332619D01*
X138291252Y-73475476D01*
X138338871Y-73665952D01*
X138338871Y-74046904D01*
X138291252Y-74142142D01*
X138243633Y-74189761D01*
X138148395Y-74237380D01*
X137957919Y-74237380D01*
X137862680Y-74189761D01*
X137815061Y-74142142D01*
X137767442Y-74046904D01*
X137767442Y-73808809D01*
X137815061Y-73713571D01*
X137862680Y-73665952D01*
X137957919Y-73618333D01*
X138148395Y-73618333D01*
X138243633Y-73665952D01*
X138291252Y-73713571D01*
X138338871Y-73808809D01*
X137196014Y-73665952D02*
X137291252Y-73618333D01*
X137338871Y-73570714D01*
X137386490Y-73475476D01*
X137386490Y-73427857D01*
X137338871Y-73332619D01*
X137291252Y-73285000D01*
X137196014Y-73237380D01*
X137005538Y-73237380D01*
X136910300Y-73285000D01*
X136862680Y-73332619D01*
X136815061Y-73427857D01*
X136815061Y-73475476D01*
X136862680Y-73570714D01*
X136910300Y-73618333D01*
X137005538Y-73665952D01*
X137196014Y-73665952D01*
X137291252Y-73713571D01*
X137338871Y-73761190D01*
X137386490Y-73856428D01*
X137386490Y-74046904D01*
X137338871Y-74142142D01*
X137291252Y-74189761D01*
X137196014Y-74237380D01*
X137005538Y-74237380D01*
X136910300Y-74189761D01*
X136862680Y-74142142D01*
X136815061Y-74046904D01*
X136815061Y-73856428D01*
X136862680Y-73761190D01*
X136910300Y-73713571D01*
X137005538Y-73665952D01*
X136338871Y-74237380D02*
X136148395Y-74237380D01*
X136053157Y-74189761D01*
X136005538Y-74142142D01*
X135910300Y-73999285D01*
X135862680Y-73808809D01*
X135862680Y-73427857D01*
X135910300Y-73332619D01*
X135957919Y-73285000D01*
X136053157Y-73237380D01*
X136243633Y-73237380D01*
X136338871Y-73285000D01*
X136386490Y-73332619D01*
X136434109Y-73427857D01*
X136434109Y-73665952D01*
X136386490Y-73761190D01*
X136338871Y-73808809D01*
X136243633Y-73856428D01*
X136053157Y-73856428D01*
X135957919Y-73808809D01*
X135910300Y-73761190D01*
X135862680Y-73665952D01*
X163719823Y-75561666D02*
X163243633Y-75561666D01*
X163815061Y-75847380D02*
X163481728Y-74847380D01*
X163148395Y-75847380D01*
X161910300Y-75847380D02*
X162005538Y-75799761D01*
X162053157Y-75704523D01*
X162053157Y-74847380D01*
X161386490Y-75847380D02*
X161481728Y-75799761D01*
X161529347Y-75752142D01*
X161576966Y-75656904D01*
X161576966Y-75371190D01*
X161529347Y-75275952D01*
X161481728Y-75228333D01*
X161386490Y-75180714D01*
X161243633Y-75180714D01*
X161148395Y-75228333D01*
X161100776Y-75275952D01*
X161053157Y-75371190D01*
X161053157Y-75656904D01*
X161100776Y-75752142D01*
X161148395Y-75799761D01*
X161243633Y-75847380D01*
X161386490Y-75847380D01*
X160719823Y-75180714D02*
X160529347Y-75847380D01*
X160338871Y-75371190D01*
X160148395Y-75847380D01*
X159957919Y-75180714D01*
X159576966Y-75466428D02*
X158815061Y-75466428D01*
X157910300Y-75799761D02*
X158005538Y-75847380D01*
X158196014Y-75847380D01*
X158291252Y-75799761D01*
X158338871Y-75752142D01*
X158386490Y-75656904D01*
X158386490Y-75371190D01*
X158338871Y-75275952D01*
X158291252Y-75228333D01*
X158196014Y-75180714D01*
X158005538Y-75180714D01*
X157910300Y-75228333D01*
X157338871Y-75847380D02*
X157434109Y-75799761D01*
X157481728Y-75752142D01*
X157529347Y-75656904D01*
X157529347Y-75371190D01*
X157481728Y-75275952D01*
X157434109Y-75228333D01*
X157338871Y-75180714D01*
X157196014Y-75180714D01*
X157100776Y-75228333D01*
X157053157Y-75275952D01*
X157005538Y-75371190D01*
X157005538Y-75656904D01*
X157053157Y-75752142D01*
X157100776Y-75799761D01*
X157196014Y-75847380D01*
X157338871Y-75847380D01*
X156624585Y-75799761D02*
X156529347Y-75847380D01*
X156338871Y-75847380D01*
X156243633Y-75799761D01*
X156196014Y-75704523D01*
X156196014Y-75656904D01*
X156243633Y-75561666D01*
X156338871Y-75514047D01*
X156481728Y-75514047D01*
X156576966Y-75466428D01*
X156624585Y-75371190D01*
X156624585Y-75323571D01*
X156576966Y-75228333D01*
X156481728Y-75180714D01*
X156338871Y-75180714D01*
X156243633Y-75228333D01*
X155910300Y-75180714D02*
X155529347Y-75180714D01*
X155767442Y-74847380D02*
X155767442Y-75704523D01*
X155719823Y-75799761D01*
X155624585Y-75847380D01*
X155529347Y-75847380D01*
X154434109Y-75180714D02*
X154434109Y-76180714D01*
X154434109Y-75228333D02*
X154338871Y-75180714D01*
X154148395Y-75180714D01*
X154053157Y-75228333D01*
X154005538Y-75275952D01*
X153957919Y-75371190D01*
X153957919Y-75656904D01*
X154005538Y-75752142D01*
X154053157Y-75799761D01*
X154148395Y-75847380D01*
X154338871Y-75847380D01*
X154434109Y-75799761D01*
X153529347Y-75847380D02*
X153529347Y-75180714D01*
X153529347Y-75371190D02*
X153481728Y-75275952D01*
X153434109Y-75228333D01*
X153338871Y-75180714D01*
X153243633Y-75180714D01*
X152767442Y-75847380D02*
X152862680Y-75799761D01*
X152910300Y-75752142D01*
X152957919Y-75656904D01*
X152957919Y-75371190D01*
X152910300Y-75275952D01*
X152862680Y-75228333D01*
X152767442Y-75180714D01*
X152624585Y-75180714D01*
X152529347Y-75228333D01*
X152481728Y-75275952D01*
X152434109Y-75371190D01*
X152434109Y-75656904D01*
X152481728Y-75752142D01*
X152529347Y-75799761D01*
X152624585Y-75847380D01*
X152767442Y-75847380D01*
X152148395Y-75180714D02*
X151767442Y-75180714D01*
X152005538Y-74847380D02*
X152005538Y-75704523D01*
X151957919Y-75799761D01*
X151862680Y-75847380D01*
X151767442Y-75847380D01*
X151291252Y-75847380D02*
X151386490Y-75799761D01*
X151434109Y-75752142D01*
X151481728Y-75656904D01*
X151481728Y-75371190D01*
X151434109Y-75275952D01*
X151386490Y-75228333D01*
X151291252Y-75180714D01*
X151148395Y-75180714D01*
X151053157Y-75228333D01*
X151005538Y-75275952D01*
X150957919Y-75371190D01*
X150957919Y-75656904D01*
X151005538Y-75752142D01*
X151053157Y-75799761D01*
X151148395Y-75847380D01*
X151291252Y-75847380D01*
X150672204Y-75180714D02*
X150291252Y-75180714D01*
X150529347Y-74847380D02*
X150529347Y-75704523D01*
X150481728Y-75799761D01*
X150386490Y-75847380D01*
X150291252Y-75847380D01*
X150053157Y-75180714D02*
X149815061Y-75847380D01*
X149576966Y-75180714D02*
X149815061Y-75847380D01*
X149910300Y-76085476D01*
X149957919Y-76133095D01*
X150053157Y-76180714D01*
X149196014Y-75180714D02*
X149196014Y-76180714D01*
X149196014Y-75228333D02*
X149100776Y-75180714D01*
X148910300Y-75180714D01*
X148815061Y-75228333D01*
X148767442Y-75275952D01*
X148719823Y-75371190D01*
X148719823Y-75656904D01*
X148767442Y-75752142D01*
X148815061Y-75799761D01*
X148910300Y-75847380D01*
X149100776Y-75847380D01*
X149196014Y-75799761D01*
X148291252Y-75847380D02*
X148291252Y-75180714D01*
X148291252Y-74847380D02*
X148338871Y-74895000D01*
X148291252Y-74942619D01*
X148243633Y-74895000D01*
X148291252Y-74847380D01*
X148291252Y-74942619D01*
X147815061Y-75180714D02*
X147815061Y-75847380D01*
X147815061Y-75275952D02*
X147767442Y-75228333D01*
X147672204Y-75180714D01*
X147529347Y-75180714D01*
X147434109Y-75228333D01*
X147386490Y-75323571D01*
X147386490Y-75847380D01*
X146481728Y-75180714D02*
X146481728Y-75990238D01*
X146529347Y-76085476D01*
X146576966Y-76133095D01*
X146672204Y-76180714D01*
X146815061Y-76180714D01*
X146910300Y-76133095D01*
X146481728Y-75799761D02*
X146576966Y-75847380D01*
X146767442Y-75847380D01*
X146862680Y-75799761D01*
X146910300Y-75752142D01*
X146957919Y-75656904D01*
X146957919Y-75371190D01*
X146910300Y-75275952D01*
X146862680Y-75228333D01*
X146767442Y-75180714D01*
X146576966Y-75180714D01*
X146481728Y-75228333D01*
X145243633Y-75180714D02*
X145243633Y-76180714D01*
X145243633Y-75228333D02*
X145148395Y-75180714D01*
X144957919Y-75180714D01*
X144862680Y-75228333D01*
X144815061Y-75275952D01*
X144767442Y-75371190D01*
X144767442Y-75656904D01*
X144815061Y-75752142D01*
X144862680Y-75799761D01*
X144957919Y-75847380D01*
X145148395Y-75847380D01*
X145243633Y-75799761D01*
X144196014Y-75847380D02*
X144291252Y-75799761D01*
X144338871Y-75704523D01*
X144338871Y-74847380D01*
X143386490Y-75847380D02*
X143386490Y-75323571D01*
X143434109Y-75228333D01*
X143529347Y-75180714D01*
X143719823Y-75180714D01*
X143815061Y-75228333D01*
X143386490Y-75799761D02*
X143481728Y-75847380D01*
X143719823Y-75847380D01*
X143815061Y-75799761D01*
X143862680Y-75704523D01*
X143862680Y-75609285D01*
X143815061Y-75514047D01*
X143719823Y-75466428D01*
X143481728Y-75466428D01*
X143386490Y-75418809D01*
X143053157Y-75180714D02*
X142672204Y-75180714D01*
X142910300Y-74847380D02*
X142910300Y-75704523D01*
X142862680Y-75799761D01*
X142767442Y-75847380D01*
X142672204Y-75847380D01*
X142481728Y-75180714D02*
X142100776Y-75180714D01*
X142338871Y-75847380D02*
X142338871Y-74990238D01*
X142291252Y-74895000D01*
X142196014Y-74847380D01*
X142100776Y-74847380D01*
X141624585Y-75847380D02*
X141719823Y-75799761D01*
X141767442Y-75752142D01*
X141815061Y-75656904D01*
X141815061Y-75371190D01*
X141767442Y-75275952D01*
X141719823Y-75228333D01*
X141624585Y-75180714D01*
X141481728Y-75180714D01*
X141386490Y-75228333D01*
X141338871Y-75275952D01*
X141291252Y-75371190D01*
X141291252Y-75656904D01*
X141338871Y-75752142D01*
X141386490Y-75799761D01*
X141481728Y-75847380D01*
X141624585Y-75847380D01*
X140862680Y-75847380D02*
X140862680Y-75180714D01*
X140862680Y-75371190D02*
X140815061Y-75275952D01*
X140767442Y-75228333D01*
X140672204Y-75180714D01*
X140576966Y-75180714D01*
X140243633Y-75847380D02*
X140243633Y-75180714D01*
X140243633Y-75275952D02*
X140196014Y-75228333D01*
X140100776Y-75180714D01*
X139957919Y-75180714D01*
X139862680Y-75228333D01*
X139815061Y-75323571D01*
X139815061Y-75847380D01*
X139815061Y-75323571D02*
X139767442Y-75228333D01*
X139672204Y-75180714D01*
X139529347Y-75180714D01*
X139434109Y-75228333D01*
X139386490Y-75323571D01*
X139386490Y-75847380D01*
X138291252Y-75180714D02*
X137910300Y-75180714D01*
X138148395Y-74847380D02*
X138148395Y-75704523D01*
X138100776Y-75799761D01*
X138005538Y-75847380D01*
X137910300Y-75847380D01*
X137576966Y-75847380D02*
X137576966Y-74847380D01*
X137148395Y-75847380D02*
X137148395Y-75323571D01*
X137196014Y-75228333D01*
X137291252Y-75180714D01*
X137434109Y-75180714D01*
X137529347Y-75228333D01*
X137576966Y-75275952D01*
X136243633Y-75847380D02*
X136243633Y-75323571D01*
X136291252Y-75228333D01*
X136386490Y-75180714D01*
X136576966Y-75180714D01*
X136672204Y-75228333D01*
X136243633Y-75799761D02*
X136338871Y-75847380D01*
X136576966Y-75847380D01*
X136672204Y-75799761D01*
X136719823Y-75704523D01*
X136719823Y-75609285D01*
X136672204Y-75514047D01*
X136576966Y-75466428D01*
X136338871Y-75466428D01*
X136243633Y-75418809D01*
X135910300Y-75180714D02*
X135529347Y-75180714D01*
X135767442Y-74847380D02*
X135767442Y-75704523D01*
X135719823Y-75799761D01*
X135624585Y-75847380D01*
X135529347Y-75847380D01*
X134434109Y-75847380D02*
X134434109Y-74847380D01*
X134005538Y-75847380D02*
X134005538Y-75323571D01*
X134053157Y-75228333D01*
X134148395Y-75180714D01*
X134291252Y-75180714D01*
X134386490Y-75228333D01*
X134434109Y-75275952D01*
X133100776Y-75847380D02*
X133100776Y-75323571D01*
X133148395Y-75228333D01*
X133243633Y-75180714D01*
X133434109Y-75180714D01*
X133529347Y-75228333D01*
X133100776Y-75799761D02*
X133196014Y-75847380D01*
X133434109Y-75847380D01*
X133529347Y-75799761D01*
X133576966Y-75704523D01*
X133576966Y-75609285D01*
X133529347Y-75514047D01*
X133434109Y-75466428D01*
X133196014Y-75466428D01*
X133100776Y-75418809D01*
X132672204Y-75799761D02*
X132576966Y-75847380D01*
X132386490Y-75847380D01*
X132291252Y-75799761D01*
X132243633Y-75704523D01*
X132243633Y-75656904D01*
X132291252Y-75561666D01*
X132386490Y-75514047D01*
X132529347Y-75514047D01*
X132624585Y-75466428D01*
X132672204Y-75371190D01*
X132672204Y-75323571D01*
X132624585Y-75228333D01*
X132529347Y-75180714D01*
X132386490Y-75180714D01*
X132291252Y-75228333D01*
X131100776Y-75799761D02*
X131005538Y-75847380D01*
X130815061Y-75847380D01*
X130719823Y-75799761D01*
X130672204Y-75704523D01*
X130672204Y-75656904D01*
X130719823Y-75561666D01*
X130815061Y-75514047D01*
X130957919Y-75514047D01*
X131053157Y-75466428D01*
X131100776Y-75371190D01*
X131100776Y-75323571D01*
X131053157Y-75228333D01*
X130957919Y-75180714D01*
X130815061Y-75180714D01*
X130719823Y-75228333D01*
X130243633Y-75847380D02*
X130243633Y-75180714D01*
X130243633Y-74847380D02*
X130291252Y-74895000D01*
X130243633Y-74942619D01*
X130196014Y-74895000D01*
X130243633Y-74847380D01*
X130243633Y-74942619D01*
X129767442Y-75847380D02*
X129767442Y-75180714D01*
X129767442Y-75275952D02*
X129719823Y-75228333D01*
X129624585Y-75180714D01*
X129481728Y-75180714D01*
X129386490Y-75228333D01*
X129338871Y-75323571D01*
X129338871Y-75847380D01*
X129338871Y-75323571D02*
X129291252Y-75228333D01*
X129196014Y-75180714D01*
X129053157Y-75180714D01*
X128957919Y-75228333D01*
X128910300Y-75323571D01*
X128910300Y-75847380D01*
X128434109Y-75847380D02*
X128434109Y-75180714D01*
X128434109Y-74847380D02*
X128481728Y-74895000D01*
X128434109Y-74942619D01*
X128386490Y-74895000D01*
X128434109Y-74847380D01*
X128434109Y-74942619D01*
X127815061Y-75847380D02*
X127910300Y-75799761D01*
X127957919Y-75704523D01*
X127957919Y-74847380D01*
X127005538Y-75847380D02*
X127005538Y-75323571D01*
X127053157Y-75228333D01*
X127148395Y-75180714D01*
X127338871Y-75180714D01*
X127434109Y-75228333D01*
X127005538Y-75799761D02*
X127100776Y-75847380D01*
X127338871Y-75847380D01*
X127434109Y-75799761D01*
X127481728Y-75704523D01*
X127481728Y-75609285D01*
X127434109Y-75514047D01*
X127338871Y-75466428D01*
X127100776Y-75466428D01*
X127005538Y-75418809D01*
X126529347Y-75847380D02*
X126529347Y-75180714D01*
X126529347Y-75371190D02*
X126481728Y-75275952D01*
X126434109Y-75228333D01*
X126338871Y-75180714D01*
X126243633Y-75180714D01*
X125910300Y-75847380D02*
X125910300Y-75180714D01*
X125910300Y-74847380D02*
X125957919Y-74895000D01*
X125910300Y-74942619D01*
X125862680Y-74895000D01*
X125910300Y-74847380D01*
X125910300Y-74942619D01*
X125576966Y-75180714D02*
X125196014Y-75180714D01*
X125434109Y-74847380D02*
X125434109Y-75704523D01*
X125386490Y-75799761D01*
X125291252Y-75847380D01*
X125196014Y-75847380D01*
X124862680Y-75847380D02*
X124862680Y-75180714D01*
X124862680Y-74847380D02*
X124910300Y-74895000D01*
X124862680Y-74942619D01*
X124815061Y-74895000D01*
X124862680Y-74847380D01*
X124862680Y-74942619D01*
X124005538Y-75799761D02*
X124100776Y-75847380D01*
X124291252Y-75847380D01*
X124386490Y-75799761D01*
X124434109Y-75704523D01*
X124434109Y-75323571D01*
X124386490Y-75228333D01*
X124291252Y-75180714D01*
X124100776Y-75180714D01*
X124005538Y-75228333D01*
X123957919Y-75323571D01*
X123957919Y-75418809D01*
X124434109Y-75514047D01*
X123576966Y-75799761D02*
X123481728Y-75847380D01*
X123291252Y-75847380D01*
X123196014Y-75799761D01*
X123148395Y-75704523D01*
X123148395Y-75656904D01*
X123196014Y-75561666D01*
X123291252Y-75514047D01*
X123434109Y-75514047D01*
X123529347Y-75466428D01*
X123576966Y-75371190D01*
X123576966Y-75323571D01*
X123529347Y-75228333D01*
X123434109Y-75180714D01*
X123291252Y-75180714D01*
X123196014Y-75228333D01*
X122100776Y-75180714D02*
X121719823Y-75180714D01*
X121957919Y-74847380D02*
X121957919Y-75704523D01*
X121910300Y-75799761D01*
X121815061Y-75847380D01*
X121719823Y-75847380D01*
X121243633Y-75847380D02*
X121338871Y-75799761D01*
X121386490Y-75752142D01*
X121434109Y-75656904D01*
X121434109Y-75371190D01*
X121386490Y-75275952D01*
X121338871Y-75228333D01*
X121243633Y-75180714D01*
X121100776Y-75180714D01*
X121005538Y-75228333D01*
X120957919Y-75275952D01*
X120910300Y-75371190D01*
X120910300Y-75656904D01*
X120957919Y-75752142D01*
X121005538Y-75799761D01*
X121100776Y-75847380D01*
X121243633Y-75847380D01*
X119862680Y-75180714D02*
X119481728Y-75180714D01*
X119719823Y-74847380D02*
X119719823Y-75704523D01*
X119672204Y-75799761D01*
X119576966Y-75847380D01*
X119481728Y-75847380D01*
X119148395Y-75847380D02*
X119148395Y-74847380D01*
X118719823Y-75847380D02*
X118719823Y-75323571D01*
X118767442Y-75228333D01*
X118862680Y-75180714D01*
X119005538Y-75180714D01*
X119100776Y-75228333D01*
X119148395Y-75275952D01*
X117862680Y-75799761D02*
X117957919Y-75847380D01*
X118148395Y-75847380D01*
X118243633Y-75799761D01*
X118291252Y-75704523D01*
X118291252Y-75323571D01*
X118243633Y-75228333D01*
X118148395Y-75180714D01*
X117957919Y-75180714D01*
X117862680Y-75228333D01*
X117815061Y-75323571D01*
X117815061Y-75418809D01*
X118291252Y-75514047D01*
X116719823Y-74847380D02*
X116053157Y-75847380D01*
X116053157Y-74847380D02*
X116719823Y-75847380D01*
X115100776Y-75847380D02*
X115434109Y-75371190D01*
X115672204Y-75847380D02*
X115672204Y-74847380D01*
X115291252Y-74847380D01*
X115196014Y-74895000D01*
X115148395Y-74942619D01*
X115100776Y-75037857D01*
X115100776Y-75180714D01*
X115148395Y-75275952D01*
X115196014Y-75323571D01*
X115291252Y-75371190D01*
X115672204Y-75371190D01*
X114672204Y-75847380D02*
X114672204Y-74847380D01*
X114291252Y-74847380D01*
X114196014Y-74895000D01*
X114148395Y-74942619D01*
X114100776Y-75037857D01*
X114100776Y-75180714D01*
X114148395Y-75275952D01*
X114196014Y-75323571D01*
X114291252Y-75371190D01*
X114672204Y-75371190D01*
X112910300Y-75180714D02*
X112910300Y-76180714D01*
X112910300Y-75228333D02*
X112815061Y-75180714D01*
X112624585Y-75180714D01*
X112529347Y-75228333D01*
X112481728Y-75275952D01*
X112434109Y-75371190D01*
X112434109Y-75656904D01*
X112481728Y-75752142D01*
X112529347Y-75799761D01*
X112624585Y-75847380D01*
X112815061Y-75847380D01*
X112910300Y-75799761D01*
X111862680Y-75847380D02*
X111957919Y-75799761D01*
X112005538Y-75704523D01*
X112005538Y-74847380D01*
X111053157Y-75847380D02*
X111053157Y-75323571D01*
X111100776Y-75228333D01*
X111196014Y-75180714D01*
X111386490Y-75180714D01*
X111481728Y-75228333D01*
X111053157Y-75799761D02*
X111148395Y-75847380D01*
X111386490Y-75847380D01*
X111481728Y-75799761D01*
X111529347Y-75704523D01*
X111529347Y-75609285D01*
X111481728Y-75514047D01*
X111386490Y-75466428D01*
X111148395Y-75466428D01*
X111053157Y-75418809D01*
X110719823Y-75180714D02*
X110338871Y-75180714D01*
X110576966Y-74847380D02*
X110576966Y-75704523D01*
X110529347Y-75799761D01*
X110434109Y-75847380D01*
X110338871Y-75847380D01*
X110148395Y-75180714D02*
X109767442Y-75180714D01*
X110005538Y-75847380D02*
X110005538Y-74990238D01*
X109957919Y-74895000D01*
X109862680Y-74847380D01*
X109767442Y-74847380D01*
X109291252Y-75847380D02*
X109386490Y-75799761D01*
X109434109Y-75752142D01*
X109481728Y-75656904D01*
X109481728Y-75371190D01*
X109434109Y-75275952D01*
X109386490Y-75228333D01*
X109291252Y-75180714D01*
X109148395Y-75180714D01*
X109053157Y-75228333D01*
X109005538Y-75275952D01*
X108957919Y-75371190D01*
X108957919Y-75656904D01*
X109005538Y-75752142D01*
X109053157Y-75799761D01*
X109148395Y-75847380D01*
X109291252Y-75847380D01*
X108529347Y-75847380D02*
X108529347Y-75180714D01*
X108529347Y-75371190D02*
X108481728Y-75275952D01*
X108434109Y-75228333D01*
X108338871Y-75180714D01*
X108243633Y-75180714D01*
X107910300Y-75847380D02*
X107910300Y-75180714D01*
X107910300Y-75275952D02*
X107862680Y-75228333D01*
X107767442Y-75180714D01*
X107624585Y-75180714D01*
X107529347Y-75228333D01*
X107481728Y-75323571D01*
X107481728Y-75847380D01*
X107481728Y-75323571D02*
X107434109Y-75228333D01*
X107338871Y-75180714D01*
X107196014Y-75180714D01*
X107100776Y-75228333D01*
X107053157Y-75323571D01*
X107053157Y-75847380D01*
X163386490Y-77838333D02*
X163434109Y-77790714D01*
X163529347Y-77647857D01*
X163576966Y-77552619D01*
X163624585Y-77409761D01*
X163672204Y-77171666D01*
X163672204Y-76981190D01*
X163624585Y-76743095D01*
X163576966Y-76600238D01*
X163529347Y-76505000D01*
X163434109Y-76362142D01*
X163386490Y-76314523D01*
X163005538Y-77457380D02*
X163005538Y-76457380D01*
X162624585Y-76457380D01*
X162529347Y-76505000D01*
X162481728Y-76552619D01*
X162434109Y-76647857D01*
X162434109Y-76790714D01*
X162481728Y-76885952D01*
X162529347Y-76933571D01*
X162624585Y-76981190D01*
X163005538Y-76981190D01*
X162005538Y-77457380D02*
X162005538Y-76790714D01*
X162005538Y-76457380D02*
X162053157Y-76505000D01*
X162005538Y-76552619D01*
X161957919Y-76505000D01*
X162005538Y-76457380D01*
X162005538Y-76552619D01*
X161100776Y-77409761D02*
X161196014Y-77457380D01*
X161386490Y-77457380D01*
X161481728Y-77409761D01*
X161529347Y-77362142D01*
X161576966Y-77266904D01*
X161576966Y-76981190D01*
X161529347Y-76885952D01*
X161481728Y-76838333D01*
X161386490Y-76790714D01*
X161196014Y-76790714D01*
X161100776Y-76838333D01*
X160529347Y-77457380D02*
X160624585Y-77409761D01*
X160672204Y-77362142D01*
X160719823Y-77266904D01*
X160719823Y-76981190D01*
X160672204Y-76885952D01*
X160624585Y-76838333D01*
X160529347Y-76790714D01*
X160386490Y-76790714D01*
X160291252Y-76838333D01*
X160243633Y-76885952D01*
X160196014Y-76981190D01*
X160196014Y-77266904D01*
X160243633Y-77362142D01*
X160291252Y-77409761D01*
X160386490Y-77457380D01*
X160529347Y-77457380D01*
X159100776Y-76457380D02*
X158862680Y-77457380D01*
X158672204Y-76743095D01*
X158481728Y-77457380D01*
X158243633Y-76457380D01*
X157100776Y-77457380D02*
X157100776Y-76457380D01*
X157100776Y-76838333D02*
X157005538Y-76790714D01*
X156815061Y-76790714D01*
X156719823Y-76838333D01*
X156672204Y-76885952D01*
X156624585Y-76981190D01*
X156624585Y-77266904D01*
X156672204Y-77362142D01*
X156719823Y-77409761D01*
X156815061Y-77457380D01*
X157005538Y-77457380D01*
X157100776Y-77409761D01*
X155767442Y-77457380D02*
X155767442Y-76933571D01*
X155815061Y-76838333D01*
X155910300Y-76790714D01*
X156100776Y-76790714D01*
X156196014Y-76838333D01*
X155767442Y-77409761D02*
X155862680Y-77457380D01*
X156100776Y-77457380D01*
X156196014Y-77409761D01*
X156243633Y-77314523D01*
X156243633Y-77219285D01*
X156196014Y-77124047D01*
X156100776Y-77076428D01*
X155862680Y-77076428D01*
X155767442Y-77028809D01*
X155338871Y-77409761D02*
X155243633Y-77457380D01*
X155053157Y-77457380D01*
X154957919Y-77409761D01*
X154910300Y-77314523D01*
X154910300Y-77266904D01*
X154957919Y-77171666D01*
X155053157Y-77124047D01*
X155196014Y-77124047D01*
X155291252Y-77076428D01*
X155338871Y-76981190D01*
X155338871Y-76933571D01*
X155291252Y-76838333D01*
X155196014Y-76790714D01*
X155053157Y-76790714D01*
X154957919Y-76838333D01*
X154100776Y-77409761D02*
X154196014Y-77457380D01*
X154386490Y-77457380D01*
X154481728Y-77409761D01*
X154529347Y-77314523D01*
X154529347Y-76933571D01*
X154481728Y-76838333D01*
X154386490Y-76790714D01*
X154196014Y-76790714D01*
X154100776Y-76838333D01*
X154053157Y-76933571D01*
X154053157Y-77028809D01*
X154529347Y-77124047D01*
X153196014Y-77457380D02*
X153196014Y-76457380D01*
X153196014Y-77409761D02*
X153291252Y-77457380D01*
X153481728Y-77457380D01*
X153576966Y-77409761D01*
X153624585Y-77362142D01*
X153672204Y-77266904D01*
X153672204Y-76981190D01*
X153624585Y-76885952D01*
X153576966Y-76838333D01*
X153481728Y-76790714D01*
X153291252Y-76790714D01*
X153196014Y-76838333D01*
X152815061Y-77838333D02*
X152767442Y-77790714D01*
X152672204Y-77647857D01*
X152624585Y-77552619D01*
X152576966Y-77409761D01*
X152529347Y-77171666D01*
X152529347Y-76981190D01*
X152576966Y-76743095D01*
X152624585Y-76600238D01*
X152672204Y-76505000D01*
X152767442Y-76362142D01*
X152815061Y-76314523D01*
X151291252Y-76790714D02*
X151291252Y-77790714D01*
X151291252Y-76838333D02*
X151196014Y-76790714D01*
X151005538Y-76790714D01*
X150910300Y-76838333D01*
X150862680Y-76885952D01*
X150815061Y-76981190D01*
X150815061Y-77266904D01*
X150862680Y-77362142D01*
X150910300Y-77409761D01*
X151005538Y-77457380D01*
X151196014Y-77457380D01*
X151291252Y-77409761D01*
X150243633Y-77457380D02*
X150338871Y-77409761D01*
X150386490Y-77314523D01*
X150386490Y-76457380D01*
X149434109Y-76790714D02*
X149434109Y-77457380D01*
X149862680Y-76790714D02*
X149862680Y-77314523D01*
X149815061Y-77409761D01*
X149719823Y-77457380D01*
X149576966Y-77457380D01*
X149481728Y-77409761D01*
X149434109Y-77362142D01*
X149005538Y-77409761D02*
X148910300Y-77457380D01*
X148719823Y-77457380D01*
X148624585Y-77409761D01*
X148576966Y-77314523D01*
X148576966Y-77266904D01*
X148624585Y-77171666D01*
X148719823Y-77124047D01*
X148862680Y-77124047D01*
X148957919Y-77076428D01*
X149005538Y-76981190D01*
X149005538Y-76933571D01*
X148957919Y-76838333D01*
X148862680Y-76790714D01*
X148719823Y-76790714D01*
X148624585Y-76838333D01*
X147529347Y-76790714D02*
X147148395Y-76790714D01*
X147386490Y-76457380D02*
X147386490Y-77314523D01*
X147338871Y-77409761D01*
X147243633Y-77457380D01*
X147148395Y-77457380D01*
X146815061Y-77457380D02*
X146815061Y-76457380D01*
X146386490Y-77457380D02*
X146386490Y-76933571D01*
X146434109Y-76838333D01*
X146529347Y-76790714D01*
X146672204Y-76790714D01*
X146767442Y-76838333D01*
X146815061Y-76885952D01*
X145529347Y-77409761D02*
X145624585Y-77457380D01*
X145815061Y-77457380D01*
X145910300Y-77409761D01*
X145957919Y-77314523D01*
X145957919Y-76933571D01*
X145910300Y-76838333D01*
X145815061Y-76790714D01*
X145624585Y-76790714D01*
X145529347Y-76838333D01*
X145481728Y-76933571D01*
X145481728Y-77028809D01*
X145957919Y-77124047D01*
X144291252Y-77457380D02*
X144291252Y-76790714D01*
X144291252Y-76457380D02*
X144338871Y-76505000D01*
X144291252Y-76552619D01*
X144243633Y-76505000D01*
X144291252Y-76457380D01*
X144291252Y-76552619D01*
X143815061Y-76790714D02*
X143815061Y-77457380D01*
X143815061Y-76885952D02*
X143767442Y-76838333D01*
X143672204Y-76790714D01*
X143529347Y-76790714D01*
X143434109Y-76838333D01*
X143386490Y-76933571D01*
X143386490Y-77457380D01*
X143053157Y-76790714D02*
X142672204Y-76790714D01*
X142910300Y-76457380D02*
X142910300Y-77314523D01*
X142862680Y-77409761D01*
X142767442Y-77457380D01*
X142672204Y-77457380D01*
X141957919Y-77409761D02*
X142053157Y-77457380D01*
X142243633Y-77457380D01*
X142338871Y-77409761D01*
X142386490Y-77314523D01*
X142386490Y-76933571D01*
X142338871Y-76838333D01*
X142243633Y-76790714D01*
X142053157Y-76790714D01*
X141957919Y-76838333D01*
X141910300Y-76933571D01*
X141910300Y-77028809D01*
X142386490Y-77124047D01*
X141481728Y-77457380D02*
X141481728Y-76790714D01*
X141481728Y-76981190D02*
X141434109Y-76885952D01*
X141386490Y-76838333D01*
X141291252Y-76790714D01*
X141196014Y-76790714D01*
X141005538Y-76790714D02*
X140624585Y-76790714D01*
X140862680Y-77457380D02*
X140862680Y-76600238D01*
X140815061Y-76505000D01*
X140719823Y-76457380D01*
X140624585Y-76457380D01*
X139862680Y-77457380D02*
X139862680Y-76933571D01*
X139910300Y-76838333D01*
X140005538Y-76790714D01*
X140196014Y-76790714D01*
X140291252Y-76838333D01*
X139862680Y-77409761D02*
X139957919Y-77457380D01*
X140196014Y-77457380D01*
X140291252Y-77409761D01*
X140338871Y-77314523D01*
X140338871Y-77219285D01*
X140291252Y-77124047D01*
X140196014Y-77076428D01*
X139957919Y-77076428D01*
X139862680Y-77028809D01*
X138957919Y-77409761D02*
X139053157Y-77457380D01*
X139243633Y-77457380D01*
X139338871Y-77409761D01*
X139386490Y-77362142D01*
X139434109Y-77266904D01*
X139434109Y-76981190D01*
X139386490Y-76885952D01*
X139338871Y-76838333D01*
X139243633Y-76790714D01*
X139053157Y-76790714D01*
X138957919Y-76838333D01*
X138529347Y-77457380D02*
X138529347Y-76790714D01*
X138529347Y-76457380D02*
X138576966Y-76505000D01*
X138529347Y-76552619D01*
X138481728Y-76505000D01*
X138529347Y-76457380D01*
X138529347Y-76552619D01*
X138053157Y-76790714D02*
X138053157Y-77457380D01*
X138053157Y-76885952D02*
X138005538Y-76838333D01*
X137910300Y-76790714D01*
X137767442Y-76790714D01*
X137672204Y-76838333D01*
X137624585Y-76933571D01*
X137624585Y-77457380D01*
X136719823Y-76790714D02*
X136719823Y-77600238D01*
X136767442Y-77695476D01*
X136815061Y-77743095D01*
X136910300Y-77790714D01*
X137053157Y-77790714D01*
X137148395Y-77743095D01*
X136719823Y-77409761D02*
X136815061Y-77457380D01*
X137005538Y-77457380D01*
X137100776Y-77409761D01*
X137148395Y-77362142D01*
X137196014Y-77266904D01*
X137196014Y-76981190D01*
X137148395Y-76885952D01*
X137100776Y-76838333D01*
X137005538Y-76790714D01*
X136815061Y-76790714D01*
X136719823Y-76838333D01*
X135338871Y-77457380D02*
X135434109Y-77409761D01*
X135481728Y-77362142D01*
X135529347Y-77266904D01*
X135529347Y-76981190D01*
X135481728Y-76885952D01*
X135434109Y-76838333D01*
X135338871Y-76790714D01*
X135196014Y-76790714D01*
X135100776Y-76838333D01*
X135053157Y-76885952D01*
X135005538Y-76981190D01*
X135005538Y-77266904D01*
X135053157Y-77362142D01*
X135100776Y-77409761D01*
X135196014Y-77457380D01*
X135338871Y-77457380D01*
X134719823Y-76790714D02*
X134338871Y-76790714D01*
X134576966Y-77457380D02*
X134576966Y-76600238D01*
X134529347Y-76505000D01*
X134434109Y-76457380D01*
X134338871Y-76457380D01*
X133386490Y-76790714D02*
X133005538Y-76790714D01*
X133243633Y-76457380D02*
X133243633Y-77314523D01*
X133196014Y-77409761D01*
X133100776Y-77457380D01*
X133005538Y-77457380D01*
X132672204Y-77457380D02*
X132672204Y-76457380D01*
X132243633Y-77457380D02*
X132243633Y-76933571D01*
X132291252Y-76838333D01*
X132386490Y-76790714D01*
X132529347Y-76790714D01*
X132624585Y-76838333D01*
X132672204Y-76885952D01*
X131386490Y-77409761D02*
X131481728Y-77457380D01*
X131672204Y-77457380D01*
X131767442Y-77409761D01*
X131815061Y-77314523D01*
X131815061Y-76933571D01*
X131767442Y-76838333D01*
X131672204Y-76790714D01*
X131481728Y-76790714D01*
X131386490Y-76838333D01*
X131338871Y-76933571D01*
X131338871Y-77028809D01*
X131815061Y-77124047D01*
X130148395Y-77457380D02*
X130148395Y-76790714D01*
X130148395Y-76981190D02*
X130100776Y-76885952D01*
X130053157Y-76838333D01*
X129957919Y-76790714D01*
X129862680Y-76790714D01*
X129386490Y-77457380D02*
X129481728Y-77409761D01*
X129529347Y-77362142D01*
X129576966Y-77266904D01*
X129576966Y-76981190D01*
X129529347Y-76885952D01*
X129481728Y-76838333D01*
X129386490Y-76790714D01*
X129243633Y-76790714D01*
X129148395Y-76838333D01*
X129100776Y-76885952D01*
X129053157Y-76981190D01*
X129053157Y-77266904D01*
X129100776Y-77362142D01*
X129148395Y-77409761D01*
X129243633Y-77457380D01*
X129386490Y-77457380D01*
X128624585Y-77457380D02*
X128624585Y-76457380D01*
X128624585Y-76838333D02*
X128529347Y-76790714D01*
X128338871Y-76790714D01*
X128243633Y-76838333D01*
X128196014Y-76885952D01*
X128148395Y-76981190D01*
X128148395Y-77266904D01*
X128196014Y-77362142D01*
X128243633Y-77409761D01*
X128338871Y-77457380D01*
X128529347Y-77457380D01*
X128624585Y-77409761D01*
X127576966Y-77457380D02*
X127672204Y-77409761D01*
X127719823Y-77362142D01*
X127767442Y-77266904D01*
X127767442Y-76981190D01*
X127719823Y-76885952D01*
X127672204Y-76838333D01*
X127576966Y-76790714D01*
X127434109Y-76790714D01*
X127338871Y-76838333D01*
X127291252Y-76885952D01*
X127243633Y-76981190D01*
X127243633Y-77266904D01*
X127291252Y-77362142D01*
X127338871Y-77409761D01*
X127434109Y-77457380D01*
X127576966Y-77457380D01*
X126243633Y-77457380D02*
X126576966Y-76981190D01*
X126815061Y-77457380D02*
X126815061Y-76457380D01*
X126434109Y-76457380D01*
X126338871Y-76505000D01*
X126291252Y-76552619D01*
X126243633Y-76647857D01*
X126243633Y-76790714D01*
X126291252Y-76885952D01*
X126338871Y-76933571D01*
X126434109Y-76981190D01*
X126815061Y-76981190D01*
X125815061Y-77457380D02*
X125815061Y-76457380D01*
X125148395Y-76457380D02*
X124957919Y-76457380D01*
X124862680Y-76505000D01*
X124767442Y-76600238D01*
X124719823Y-76790714D01*
X124719823Y-77124047D01*
X124767442Y-77314523D01*
X124862680Y-77409761D01*
X124957919Y-77457380D01*
X125148395Y-77457380D01*
X125243633Y-77409761D01*
X125338871Y-77314523D01*
X125386490Y-77124047D01*
X125386490Y-76790714D01*
X125338871Y-76600238D01*
X125243633Y-76505000D01*
X125148395Y-76457380D01*
X124291252Y-77362142D02*
X124243633Y-77409761D01*
X124291252Y-77457380D01*
X124338871Y-77409761D01*
X124291252Y-77362142D01*
X124291252Y-77457380D01*
X123053157Y-77457380D02*
X123053157Y-76457380D01*
X122576966Y-76790714D02*
X122576966Y-77457380D01*
X122576966Y-76885952D02*
X122529347Y-76838333D01*
X122434109Y-76790714D01*
X122291252Y-76790714D01*
X122196014Y-76838333D01*
X122148395Y-76933571D01*
X122148395Y-77457380D01*
X121815061Y-76790714D02*
X121434109Y-76790714D01*
X121672204Y-76457380D02*
X121672204Y-77314523D01*
X121624585Y-77409761D01*
X121529347Y-77457380D01*
X121434109Y-77457380D01*
X120719823Y-77409761D02*
X120815061Y-77457380D01*
X121005538Y-77457380D01*
X121100776Y-77409761D01*
X121148395Y-77314523D01*
X121148395Y-76933571D01*
X121100776Y-76838333D01*
X121005538Y-76790714D01*
X120815061Y-76790714D01*
X120719823Y-76838333D01*
X120672204Y-76933571D01*
X120672204Y-77028809D01*
X121148395Y-77124047D01*
X120243633Y-76790714D02*
X120243633Y-77457380D01*
X120243633Y-76885952D02*
X120196014Y-76838333D01*
X120100776Y-76790714D01*
X119957919Y-76790714D01*
X119862680Y-76838333D01*
X119815061Y-76933571D01*
X119815061Y-77457380D01*
X118910300Y-77457380D02*
X118910300Y-76457380D01*
X118910300Y-77409761D02*
X119005538Y-77457380D01*
X119196014Y-77457380D01*
X119291252Y-77409761D01*
X119338871Y-77362142D01*
X119386490Y-77266904D01*
X119386490Y-76981190D01*
X119338871Y-76885952D01*
X119291252Y-76838333D01*
X119196014Y-76790714D01*
X119005538Y-76790714D01*
X118910300Y-76838333D01*
X118053157Y-77409761D02*
X118148395Y-77457380D01*
X118338871Y-77457380D01*
X118434109Y-77409761D01*
X118481728Y-77314523D01*
X118481728Y-76933571D01*
X118434109Y-76838333D01*
X118338871Y-76790714D01*
X118148395Y-76790714D01*
X118053157Y-76838333D01*
X118005538Y-76933571D01*
X118005538Y-77028809D01*
X118481728Y-77124047D01*
X117148395Y-77457380D02*
X117148395Y-76457380D01*
X117148395Y-77409761D02*
X117243633Y-77457380D01*
X117434109Y-77457380D01*
X117529347Y-77409761D01*
X117576966Y-77362142D01*
X117624585Y-77266904D01*
X117624585Y-76981190D01*
X117576966Y-76885952D01*
X117529347Y-76838333D01*
X117434109Y-76790714D01*
X117243633Y-76790714D01*
X117148395Y-76838333D01*
X116053157Y-76790714D02*
X115672204Y-76790714D01*
X115910300Y-76457380D02*
X115910300Y-77314523D01*
X115862680Y-77409761D01*
X115767442Y-77457380D01*
X115672204Y-77457380D01*
X115196014Y-77457380D02*
X115291252Y-77409761D01*
X115338871Y-77362142D01*
X115386490Y-77266904D01*
X115386490Y-76981190D01*
X115338871Y-76885952D01*
X115291252Y-76838333D01*
X115196014Y-76790714D01*
X115053157Y-76790714D01*
X114957919Y-76838333D01*
X114910300Y-76885952D01*
X114862680Y-76981190D01*
X114862680Y-77266904D01*
X114910300Y-77362142D01*
X114957919Y-77409761D01*
X115053157Y-77457380D01*
X115196014Y-77457380D01*
X113672204Y-77457380D02*
X113672204Y-76790714D01*
X113672204Y-76981190D02*
X113624585Y-76885952D01*
X113576966Y-76838333D01*
X113481728Y-76790714D01*
X113386490Y-76790714D01*
X112672204Y-77409761D02*
X112767442Y-77457380D01*
X112957919Y-77457380D01*
X113053157Y-77409761D01*
X113100776Y-77314523D01*
X113100776Y-76933571D01*
X113053157Y-76838333D01*
X112957919Y-76790714D01*
X112767442Y-76790714D01*
X112672204Y-76838333D01*
X112624585Y-76933571D01*
X112624585Y-77028809D01*
X113100776Y-77124047D01*
X111767442Y-77457380D02*
X111767442Y-76457380D01*
X111767442Y-77409761D02*
X111862680Y-77457380D01*
X112053157Y-77457380D01*
X112148395Y-77409761D01*
X112196014Y-77362142D01*
X112243633Y-77266904D01*
X112243633Y-76981190D01*
X112196014Y-76885952D01*
X112148395Y-76838333D01*
X112053157Y-76790714D01*
X111862680Y-76790714D01*
X111767442Y-76838333D01*
X110862680Y-76790714D02*
X110862680Y-77457380D01*
X111291252Y-76790714D02*
X111291252Y-77314523D01*
X111243633Y-77409761D01*
X111148395Y-77457380D01*
X111005538Y-77457380D01*
X110910300Y-77409761D01*
X110862680Y-77362142D01*
X109957919Y-77409761D02*
X110053157Y-77457380D01*
X110243633Y-77457380D01*
X110338871Y-77409761D01*
X110386490Y-77362142D01*
X110434109Y-77266904D01*
X110434109Y-76981190D01*
X110386490Y-76885952D01*
X110338871Y-76838333D01*
X110243633Y-76790714D01*
X110053157Y-76790714D01*
X109957919Y-76838333D01*
X109148395Y-77409761D02*
X109243633Y-77457380D01*
X109434109Y-77457380D01*
X109529347Y-77409761D01*
X109576966Y-77314523D01*
X109576966Y-76933571D01*
X109529347Y-76838333D01*
X109434109Y-76790714D01*
X109243633Y-76790714D01*
X109148395Y-76838333D01*
X109100776Y-76933571D01*
X109100776Y-77028809D01*
X109576966Y-77124047D01*
X163672204Y-78400714D02*
X163672204Y-79400714D01*
X163672204Y-78448333D02*
X163576966Y-78400714D01*
X163386490Y-78400714D01*
X163291252Y-78448333D01*
X163243633Y-78495952D01*
X163196014Y-78591190D01*
X163196014Y-78876904D01*
X163243633Y-78972142D01*
X163291252Y-79019761D01*
X163386490Y-79067380D01*
X163576966Y-79067380D01*
X163672204Y-79019761D01*
X162767442Y-79067380D02*
X162767442Y-78400714D01*
X162767442Y-78591190D02*
X162719823Y-78495952D01*
X162672204Y-78448333D01*
X162576966Y-78400714D01*
X162481728Y-78400714D01*
X162005538Y-79067380D02*
X162100776Y-79019761D01*
X162148395Y-78972142D01*
X162196014Y-78876904D01*
X162196014Y-78591190D01*
X162148395Y-78495952D01*
X162100776Y-78448333D01*
X162005538Y-78400714D01*
X161862680Y-78400714D01*
X161767442Y-78448333D01*
X161719823Y-78495952D01*
X161672204Y-78591190D01*
X161672204Y-78876904D01*
X161719823Y-78972142D01*
X161767442Y-79019761D01*
X161862680Y-79067380D01*
X162005538Y-79067380D01*
X161386490Y-78400714D02*
X161005538Y-78400714D01*
X161243633Y-78067380D02*
X161243633Y-78924523D01*
X161196014Y-79019761D01*
X161100776Y-79067380D01*
X161005538Y-79067380D01*
X160529347Y-79067380D02*
X160624585Y-79019761D01*
X160672204Y-78972142D01*
X160719823Y-78876904D01*
X160719823Y-78591190D01*
X160672204Y-78495952D01*
X160624585Y-78448333D01*
X160529347Y-78400714D01*
X160386490Y-78400714D01*
X160291252Y-78448333D01*
X160243633Y-78495952D01*
X160196014Y-78591190D01*
X160196014Y-78876904D01*
X160243633Y-78972142D01*
X160291252Y-79019761D01*
X160386490Y-79067380D01*
X160529347Y-79067380D01*
X159910300Y-78400714D02*
X159529347Y-78400714D01*
X159767442Y-78067380D02*
X159767442Y-78924523D01*
X159719823Y-79019761D01*
X159624585Y-79067380D01*
X159529347Y-79067380D01*
X159291252Y-78400714D02*
X159053157Y-79067380D01*
X158815061Y-78400714D02*
X159053157Y-79067380D01*
X159148395Y-79305476D01*
X159196014Y-79353095D01*
X159291252Y-79400714D01*
X158434109Y-78400714D02*
X158434109Y-79400714D01*
X158434109Y-78448333D02*
X158338871Y-78400714D01*
X158148395Y-78400714D01*
X158053157Y-78448333D01*
X158005538Y-78495952D01*
X157957919Y-78591190D01*
X157957919Y-78876904D01*
X158005538Y-78972142D01*
X158053157Y-79019761D01*
X158148395Y-79067380D01*
X158338871Y-79067380D01*
X158434109Y-79019761D01*
X157529347Y-79067380D02*
X157529347Y-78400714D01*
X157529347Y-78067380D02*
X157576966Y-78115000D01*
X157529347Y-78162619D01*
X157481728Y-78115000D01*
X157529347Y-78067380D01*
X157529347Y-78162619D01*
X157053157Y-78400714D02*
X157053157Y-79067380D01*
X157053157Y-78495952D02*
X157005538Y-78448333D01*
X156910300Y-78400714D01*
X156767442Y-78400714D01*
X156672204Y-78448333D01*
X156624585Y-78543571D01*
X156624585Y-79067380D01*
X155719823Y-78400714D02*
X155719823Y-79210238D01*
X155767442Y-79305476D01*
X155815061Y-79353095D01*
X155910300Y-79400714D01*
X156053157Y-79400714D01*
X156148395Y-79353095D01*
X155719823Y-79019761D02*
X155815061Y-79067380D01*
X156005538Y-79067380D01*
X156100776Y-79019761D01*
X156148395Y-78972142D01*
X156196014Y-78876904D01*
X156196014Y-78591190D01*
X156148395Y-78495952D01*
X156100776Y-78448333D01*
X156005538Y-78400714D01*
X155815061Y-78400714D01*
X155719823Y-78448333D01*
X154053157Y-79019761D02*
X154148395Y-79067380D01*
X154338871Y-79067380D01*
X154434109Y-79019761D01*
X154481728Y-78972142D01*
X154529347Y-78876904D01*
X154529347Y-78591190D01*
X154481728Y-78495952D01*
X154434109Y-78448333D01*
X154338871Y-78400714D01*
X154148395Y-78400714D01*
X154053157Y-78448333D01*
X153481728Y-79067380D02*
X153576966Y-79019761D01*
X153624585Y-78972142D01*
X153672204Y-78876904D01*
X153672204Y-78591190D01*
X153624585Y-78495952D01*
X153576966Y-78448333D01*
X153481728Y-78400714D01*
X153338871Y-78400714D01*
X153243633Y-78448333D01*
X153196014Y-78495952D01*
X153148395Y-78591190D01*
X153148395Y-78876904D01*
X153196014Y-78972142D01*
X153243633Y-79019761D01*
X153338871Y-79067380D01*
X153481728Y-79067380D01*
X152767442Y-79019761D02*
X152672204Y-79067380D01*
X152481728Y-79067380D01*
X152386490Y-79019761D01*
X152338871Y-78924523D01*
X152338871Y-78876904D01*
X152386490Y-78781666D01*
X152481728Y-78734047D01*
X152624585Y-78734047D01*
X152719823Y-78686428D01*
X152767442Y-78591190D01*
X152767442Y-78543571D01*
X152719823Y-78448333D01*
X152624585Y-78400714D01*
X152481728Y-78400714D01*
X152386490Y-78448333D01*
X152053157Y-78400714D02*
X151672204Y-78400714D01*
X151910300Y-78067380D02*
X151910300Y-78924523D01*
X151862680Y-79019761D01*
X151767442Y-79067380D01*
X151672204Y-79067380D01*
X150576966Y-79067380D02*
X150576966Y-78067380D01*
X150576966Y-78448333D02*
X150481728Y-78400714D01*
X150291252Y-78400714D01*
X150196014Y-78448333D01*
X150148395Y-78495952D01*
X150100776Y-78591190D01*
X150100776Y-78876904D01*
X150148395Y-78972142D01*
X150196014Y-79019761D01*
X150291252Y-79067380D01*
X150481728Y-79067380D01*
X150576966Y-79019761D01*
X149767442Y-78400714D02*
X149529347Y-79067380D01*
X149291252Y-78400714D02*
X149529347Y-79067380D01*
X149624585Y-79305476D01*
X149672204Y-79353095D01*
X149767442Y-79400714D01*
X148148395Y-78400714D02*
X148148395Y-79400714D01*
X148148395Y-78448333D02*
X148053157Y-78400714D01*
X147862680Y-78400714D01*
X147767442Y-78448333D01*
X147719823Y-78495952D01*
X147672204Y-78591190D01*
X147672204Y-78876904D01*
X147719823Y-78972142D01*
X147767442Y-79019761D01*
X147862680Y-79067380D01*
X148053157Y-79067380D01*
X148148395Y-79019761D01*
X147243633Y-79067380D02*
X147243633Y-78400714D01*
X147243633Y-78591190D02*
X147196014Y-78495952D01*
X147148395Y-78448333D01*
X147053157Y-78400714D01*
X146957919Y-78400714D01*
X146481728Y-79067380D02*
X146576966Y-79019761D01*
X146624585Y-78972142D01*
X146672204Y-78876904D01*
X146672204Y-78591190D01*
X146624585Y-78495952D01*
X146576966Y-78448333D01*
X146481728Y-78400714D01*
X146338871Y-78400714D01*
X146243633Y-78448333D01*
X146196014Y-78495952D01*
X146148395Y-78591190D01*
X146148395Y-78876904D01*
X146196014Y-78972142D01*
X146243633Y-79019761D01*
X146338871Y-79067380D01*
X146481728Y-79067380D01*
X145815061Y-78400714D02*
X145576966Y-79067380D01*
X145338871Y-78400714D01*
X144957919Y-79067380D02*
X144957919Y-78400714D01*
X144957919Y-78067380D02*
X145005538Y-78115000D01*
X144957919Y-78162619D01*
X144910300Y-78115000D01*
X144957919Y-78067380D01*
X144957919Y-78162619D01*
X144053157Y-79067380D02*
X144053157Y-78067380D01*
X144053157Y-79019761D02*
X144148395Y-79067380D01*
X144338871Y-79067380D01*
X144434109Y-79019761D01*
X144481728Y-78972142D01*
X144529347Y-78876904D01*
X144529347Y-78591190D01*
X144481728Y-78495952D01*
X144434109Y-78448333D01*
X144338871Y-78400714D01*
X144148395Y-78400714D01*
X144053157Y-78448333D01*
X143576966Y-79067380D02*
X143576966Y-78400714D01*
X143576966Y-78067380D02*
X143624585Y-78115000D01*
X143576966Y-78162619D01*
X143529347Y-78115000D01*
X143576966Y-78067380D01*
X143576966Y-78162619D01*
X143100776Y-78400714D02*
X143100776Y-79067380D01*
X143100776Y-78495952D02*
X143053157Y-78448333D01*
X142957919Y-78400714D01*
X142815061Y-78400714D01*
X142719823Y-78448333D01*
X142672204Y-78543571D01*
X142672204Y-79067380D01*
X141767442Y-78400714D02*
X141767442Y-79210238D01*
X141815061Y-79305476D01*
X141862680Y-79353095D01*
X141957919Y-79400714D01*
X142100776Y-79400714D01*
X142196014Y-79353095D01*
X141767442Y-79019761D02*
X141862680Y-79067380D01*
X142053157Y-79067380D01*
X142148395Y-79019761D01*
X142196014Y-78972142D01*
X142243633Y-78876904D01*
X142243633Y-78591190D01*
X142196014Y-78495952D01*
X142148395Y-78448333D01*
X142053157Y-78400714D01*
X141862680Y-78400714D01*
X141767442Y-78448333D01*
X140100776Y-79067380D02*
X140100776Y-78543571D01*
X140148395Y-78448333D01*
X140243633Y-78400714D01*
X140434109Y-78400714D01*
X140529347Y-78448333D01*
X140100776Y-79019761D02*
X140196014Y-79067380D01*
X140434109Y-79067380D01*
X140529347Y-79019761D01*
X140576966Y-78924523D01*
X140576966Y-78829285D01*
X140529347Y-78734047D01*
X140434109Y-78686428D01*
X140196014Y-78686428D01*
X140100776Y-78638809D01*
X138434109Y-79019761D02*
X138529347Y-79067380D01*
X138719823Y-79067380D01*
X138815061Y-79019761D01*
X138862680Y-78972142D01*
X138910300Y-78876904D01*
X138910300Y-78591190D01*
X138862680Y-78495952D01*
X138815061Y-78448333D01*
X138719823Y-78400714D01*
X138529347Y-78400714D01*
X138434109Y-78448333D01*
X138005538Y-79067380D02*
X138005538Y-78067380D01*
X137576966Y-79067380D02*
X137576966Y-78543571D01*
X137624585Y-78448333D01*
X137719823Y-78400714D01*
X137862680Y-78400714D01*
X137957919Y-78448333D01*
X138005538Y-78495952D01*
X136719823Y-79019761D02*
X136815061Y-79067380D01*
X137005538Y-79067380D01*
X137100776Y-79019761D01*
X137148395Y-78924523D01*
X137148395Y-78543571D01*
X137100776Y-78448333D01*
X137005538Y-78400714D01*
X136815061Y-78400714D01*
X136719823Y-78448333D01*
X136672204Y-78543571D01*
X136672204Y-78638809D01*
X137148395Y-78734047D01*
X135815061Y-79067380D02*
X135815061Y-78543571D01*
X135862680Y-78448333D01*
X135957919Y-78400714D01*
X136148395Y-78400714D01*
X136243633Y-78448333D01*
X135815061Y-79019761D02*
X135910300Y-79067380D01*
X136148395Y-79067380D01*
X136243633Y-79019761D01*
X136291252Y-78924523D01*
X136291252Y-78829285D01*
X136243633Y-78734047D01*
X136148395Y-78686428D01*
X135910300Y-78686428D01*
X135815061Y-78638809D01*
X135338871Y-78400714D02*
X135338871Y-79400714D01*
X135338871Y-78448333D02*
X135243633Y-78400714D01*
X135053157Y-78400714D01*
X134957919Y-78448333D01*
X134910300Y-78495952D01*
X134862680Y-78591190D01*
X134862680Y-78876904D01*
X134910300Y-78972142D01*
X134957919Y-79019761D01*
X135053157Y-79067380D01*
X135243633Y-79067380D01*
X135338871Y-79019761D01*
X134053157Y-79019761D02*
X134148395Y-79067380D01*
X134338871Y-79067380D01*
X134434109Y-79019761D01*
X134481728Y-78924523D01*
X134481728Y-78543571D01*
X134434109Y-78448333D01*
X134338871Y-78400714D01*
X134148395Y-78400714D01*
X134053157Y-78448333D01*
X134005538Y-78543571D01*
X134005538Y-78638809D01*
X134481728Y-78734047D01*
X133576966Y-79067380D02*
X133576966Y-78400714D01*
X133576966Y-78591190D02*
X133529347Y-78495952D01*
X133481728Y-78448333D01*
X133386490Y-78400714D01*
X133291252Y-78400714D01*
X132196014Y-78400714D02*
X132196014Y-79400714D01*
X132196014Y-78448333D02*
X132100776Y-78400714D01*
X131910300Y-78400714D01*
X131815061Y-78448333D01*
X131767442Y-78495952D01*
X131719823Y-78591190D01*
X131719823Y-78876904D01*
X131767442Y-78972142D01*
X131815061Y-79019761D01*
X131910300Y-79067380D01*
X132100776Y-79067380D01*
X132196014Y-79019761D01*
X131148395Y-79067380D02*
X131243633Y-79019761D01*
X131291252Y-78924523D01*
X131291252Y-78067380D01*
X130338871Y-79067380D02*
X130338871Y-78543571D01*
X130386490Y-78448333D01*
X130481728Y-78400714D01*
X130672204Y-78400714D01*
X130767442Y-78448333D01*
X130338871Y-79019761D02*
X130434109Y-79067380D01*
X130672204Y-79067380D01*
X130767442Y-79019761D01*
X130815061Y-78924523D01*
X130815061Y-78829285D01*
X130767442Y-78734047D01*
X130672204Y-78686428D01*
X130434109Y-78686428D01*
X130338871Y-78638809D01*
X130005538Y-78400714D02*
X129624585Y-78400714D01*
X129862680Y-78067380D02*
X129862680Y-78924523D01*
X129815061Y-79019761D01*
X129719823Y-79067380D01*
X129624585Y-79067380D01*
X129434109Y-78400714D02*
X129053157Y-78400714D01*
X129291252Y-79067380D02*
X129291252Y-78210238D01*
X129243633Y-78115000D01*
X129148395Y-78067380D01*
X129053157Y-78067380D01*
X128576966Y-79067380D02*
X128672204Y-79019761D01*
X128719823Y-78972142D01*
X128767442Y-78876904D01*
X128767442Y-78591190D01*
X128719823Y-78495952D01*
X128672204Y-78448333D01*
X128576966Y-78400714D01*
X128434109Y-78400714D01*
X128338871Y-78448333D01*
X128291252Y-78495952D01*
X128243633Y-78591190D01*
X128243633Y-78876904D01*
X128291252Y-78972142D01*
X128338871Y-79019761D01*
X128434109Y-79067380D01*
X128576966Y-79067380D01*
X127815061Y-79067380D02*
X127815061Y-78400714D01*
X127815061Y-78591190D02*
X127767442Y-78495952D01*
X127719823Y-78448333D01*
X127624585Y-78400714D01*
X127529347Y-78400714D01*
X127196014Y-79067380D02*
X127196014Y-78400714D01*
X127196014Y-78495952D02*
X127148395Y-78448333D01*
X127053157Y-78400714D01*
X126910300Y-78400714D01*
X126815061Y-78448333D01*
X126767442Y-78543571D01*
X126767442Y-79067380D01*
X126767442Y-78543571D02*
X126719823Y-78448333D01*
X126624585Y-78400714D01*
X126481728Y-78400714D01*
X126386490Y-78448333D01*
X126338871Y-78543571D01*
X126338871Y-79067380D01*
X125100776Y-78400714D02*
X125100776Y-79400714D01*
X125100776Y-78448333D02*
X125005538Y-78400714D01*
X124815061Y-78400714D01*
X124719823Y-78448333D01*
X124672204Y-78495952D01*
X124624585Y-78591190D01*
X124624585Y-78876904D01*
X124672204Y-78972142D01*
X124719823Y-79019761D01*
X124815061Y-79067380D01*
X125005538Y-79067380D01*
X125100776Y-79019761D01*
X124053157Y-79067380D02*
X124148395Y-79019761D01*
X124196014Y-78924523D01*
X124196014Y-78067380D01*
X123243633Y-78400714D02*
X123243633Y-79067380D01*
X123672204Y-78400714D02*
X123672204Y-78924523D01*
X123624585Y-79019761D01*
X123529347Y-79067380D01*
X123386490Y-79067380D01*
X123291252Y-79019761D01*
X123243633Y-78972142D01*
X122815061Y-79019761D02*
X122719823Y-79067380D01*
X122529347Y-79067380D01*
X122434109Y-79019761D01*
X122386490Y-78924523D01*
X122386490Y-78876904D01*
X122434109Y-78781666D01*
X122529347Y-78734047D01*
X122672204Y-78734047D01*
X122767442Y-78686428D01*
X122815061Y-78591190D01*
X122815061Y-78543571D01*
X122767442Y-78448333D01*
X122672204Y-78400714D01*
X122529347Y-78400714D01*
X122434109Y-78448333D01*
X120767442Y-79067380D02*
X120767442Y-78067380D01*
X120767442Y-79019761D02*
X120862680Y-79067380D01*
X121053157Y-79067380D01*
X121148395Y-79019761D01*
X121196014Y-78972142D01*
X121243633Y-78876904D01*
X121243633Y-78591190D01*
X121196014Y-78495952D01*
X121148395Y-78448333D01*
X121053157Y-78400714D01*
X120862680Y-78400714D01*
X120767442Y-78448333D01*
X119910300Y-79019761D02*
X120005538Y-79067380D01*
X120196014Y-79067380D01*
X120291252Y-79019761D01*
X120338871Y-78924523D01*
X120338871Y-78543571D01*
X120291252Y-78448333D01*
X120196014Y-78400714D01*
X120005538Y-78400714D01*
X119910300Y-78448333D01*
X119862680Y-78543571D01*
X119862680Y-78638809D01*
X120338871Y-78734047D01*
X119434109Y-78686428D02*
X118672204Y-78686428D01*
X118196014Y-79067380D02*
X118196014Y-78400714D01*
X118196014Y-78591190D02*
X118148395Y-78495952D01*
X118100776Y-78448333D01*
X118005538Y-78400714D01*
X117910300Y-78400714D01*
X117576966Y-79067380D02*
X117576966Y-78400714D01*
X117576966Y-78067380D02*
X117624585Y-78115000D01*
X117576966Y-78162619D01*
X117529347Y-78115000D01*
X117576966Y-78067380D01*
X117576966Y-78162619D01*
X117148395Y-79019761D02*
X117053157Y-79067380D01*
X116862680Y-79067380D01*
X116767442Y-79019761D01*
X116719823Y-78924523D01*
X116719823Y-78876904D01*
X116767442Y-78781666D01*
X116862680Y-78734047D01*
X117005538Y-78734047D01*
X117100776Y-78686428D01*
X117148395Y-78591190D01*
X117148395Y-78543571D01*
X117100776Y-78448333D01*
X117005538Y-78400714D01*
X116862680Y-78400714D01*
X116767442Y-78448333D01*
X116291252Y-79067380D02*
X116291252Y-78067380D01*
X116196014Y-78686428D02*
X115910300Y-79067380D01*
X115910300Y-78400714D02*
X116291252Y-78781666D01*
X114291252Y-78400714D02*
X114291252Y-79067380D01*
X114719823Y-78400714D02*
X114719823Y-78924523D01*
X114672204Y-79019761D01*
X114576966Y-79067380D01*
X114434109Y-79067380D01*
X114338871Y-79019761D01*
X114291252Y-78972142D01*
X113862680Y-79019761D02*
X113767442Y-79067380D01*
X113576966Y-79067380D01*
X113481728Y-79019761D01*
X113434109Y-78924523D01*
X113434109Y-78876904D01*
X113481728Y-78781666D01*
X113576966Y-78734047D01*
X113719823Y-78734047D01*
X113815061Y-78686428D01*
X113862680Y-78591190D01*
X113862680Y-78543571D01*
X113815061Y-78448333D01*
X113719823Y-78400714D01*
X113576966Y-78400714D01*
X113481728Y-78448333D01*
X113005538Y-79067380D02*
X113005538Y-78400714D01*
X113005538Y-78067380D02*
X113053157Y-78115000D01*
X113005538Y-78162619D01*
X112957919Y-78115000D01*
X113005538Y-78067380D01*
X113005538Y-78162619D01*
X112529347Y-78400714D02*
X112529347Y-79067380D01*
X112529347Y-78495952D02*
X112481728Y-78448333D01*
X112386490Y-78400714D01*
X112243633Y-78400714D01*
X112148395Y-78448333D01*
X112100776Y-78543571D01*
X112100776Y-79067380D01*
X111196014Y-78400714D02*
X111196014Y-79210238D01*
X111243633Y-79305476D01*
X111291252Y-79353095D01*
X111386490Y-79400714D01*
X111529347Y-79400714D01*
X111624585Y-79353095D01*
X111196014Y-79019761D02*
X111291252Y-79067380D01*
X111481728Y-79067380D01*
X111576966Y-79019761D01*
X111624585Y-78972142D01*
X111672204Y-78876904D01*
X111672204Y-78591190D01*
X111624585Y-78495952D01*
X111576966Y-78448333D01*
X111481728Y-78400714D01*
X111291252Y-78400714D01*
X111196014Y-78448333D01*
X163243633Y-80677380D02*
X163243633Y-80153571D01*
X163291252Y-80058333D01*
X163386490Y-80010714D01*
X163576966Y-80010714D01*
X163672204Y-80058333D01*
X163243633Y-80629761D02*
X163338871Y-80677380D01*
X163576966Y-80677380D01*
X163672204Y-80629761D01*
X163719823Y-80534523D01*
X163719823Y-80439285D01*
X163672204Y-80344047D01*
X163576966Y-80296428D01*
X163338871Y-80296428D01*
X163243633Y-80248809D01*
X162005538Y-80677380D02*
X162005538Y-80010714D01*
X162005538Y-80201190D02*
X161957919Y-80105952D01*
X161910300Y-80058333D01*
X161815061Y-80010714D01*
X161719823Y-80010714D01*
X161243633Y-80677380D02*
X161338871Y-80629761D01*
X161386490Y-80582142D01*
X161434109Y-80486904D01*
X161434109Y-80201190D01*
X161386490Y-80105952D01*
X161338871Y-80058333D01*
X161243633Y-80010714D01*
X161100776Y-80010714D01*
X161005538Y-80058333D01*
X160957919Y-80105952D01*
X160910300Y-80201190D01*
X160910300Y-80486904D01*
X160957919Y-80582142D01*
X161005538Y-80629761D01*
X161100776Y-80677380D01*
X161243633Y-80677380D01*
X160481728Y-80677380D02*
X160481728Y-79677380D01*
X160481728Y-80058333D02*
X160386490Y-80010714D01*
X160196014Y-80010714D01*
X160100776Y-80058333D01*
X160053157Y-80105952D01*
X160005538Y-80201190D01*
X160005538Y-80486904D01*
X160053157Y-80582142D01*
X160100776Y-80629761D01*
X160196014Y-80677380D01*
X160386490Y-80677380D01*
X160481728Y-80629761D01*
X159434109Y-80677380D02*
X159529347Y-80629761D01*
X159576966Y-80582142D01*
X159624585Y-80486904D01*
X159624585Y-80201190D01*
X159576966Y-80105952D01*
X159529347Y-80058333D01*
X159434109Y-80010714D01*
X159291252Y-80010714D01*
X159196014Y-80058333D01*
X159148395Y-80105952D01*
X159100776Y-80201190D01*
X159100776Y-80486904D01*
X159148395Y-80582142D01*
X159196014Y-80629761D01*
X159291252Y-80677380D01*
X159434109Y-80677380D01*
X158100776Y-80677380D02*
X158434109Y-80201190D01*
X158672204Y-80677380D02*
X158672204Y-79677380D01*
X158291252Y-79677380D01*
X158196014Y-79725000D01*
X158148395Y-79772619D01*
X158100776Y-79867857D01*
X158100776Y-80010714D01*
X158148395Y-80105952D01*
X158196014Y-80153571D01*
X158291252Y-80201190D01*
X158672204Y-80201190D01*
X157672204Y-80677380D02*
X157672204Y-79677380D01*
X157005538Y-79677380D02*
X156815061Y-79677380D01*
X156719823Y-79725000D01*
X156624585Y-79820238D01*
X156576966Y-80010714D01*
X156576966Y-80344047D01*
X156624585Y-80534523D01*
X156719823Y-80629761D01*
X156815061Y-80677380D01*
X157005538Y-80677380D01*
X157100776Y-80629761D01*
X157196014Y-80534523D01*
X157243633Y-80344047D01*
X157243633Y-80010714D01*
X157196014Y-79820238D01*
X157100776Y-79725000D01*
X157005538Y-79677380D01*
X156148395Y-80582142D02*
X156100776Y-80629761D01*
X156148395Y-80677380D01*
X156196014Y-80629761D01*
X156148395Y-80582142D01*
X156148395Y-80677380D01*
%TO.C,D22*%
X194178185Y-78455780D02*
X194178185Y-77455780D01*
X193940090Y-77455780D01*
X193797233Y-77503400D01*
X193701995Y-77598638D01*
X193654376Y-77693876D01*
X193606757Y-77884352D01*
X193606757Y-78027209D01*
X193654376Y-78217685D01*
X193701995Y-78312923D01*
X193797233Y-78408161D01*
X193940090Y-78455780D01*
X194178185Y-78455780D01*
X193225804Y-77551019D02*
X193178185Y-77503400D01*
X193082947Y-77455780D01*
X192844852Y-77455780D01*
X192749614Y-77503400D01*
X192701995Y-77551019D01*
X192654376Y-77646257D01*
X192654376Y-77741495D01*
X192701995Y-77884352D01*
X193273423Y-78455780D01*
X192654376Y-78455780D01*
X192273423Y-77551019D02*
X192225804Y-77503400D01*
X192130566Y-77455780D01*
X191892471Y-77455780D01*
X191797233Y-77503400D01*
X191749614Y-77551019D01*
X191701995Y-77646257D01*
X191701995Y-77741495D01*
X191749614Y-77884352D01*
X192321042Y-78455780D01*
X191701995Y-78455780D01*
%TO.C,D17*%
X194178085Y-75966580D02*
X194178085Y-74966580D01*
X193939990Y-74966580D01*
X193797133Y-75014200D01*
X193701895Y-75109438D01*
X193654276Y-75204676D01*
X193606657Y-75395152D01*
X193606657Y-75538009D01*
X193654276Y-75728485D01*
X193701895Y-75823723D01*
X193797133Y-75918961D01*
X193939990Y-75966580D01*
X194178085Y-75966580D01*
X192654276Y-75966580D02*
X193225704Y-75966580D01*
X192939990Y-75966580D02*
X192939990Y-74966580D01*
X193035228Y-75109438D01*
X193130466Y-75204676D01*
X193225704Y-75252295D01*
X192320942Y-74966580D02*
X191654276Y-74966580D01*
X192082847Y-75966580D01*
%TO.C,D19*%
X194152685Y-61005980D02*
X194152685Y-60005980D01*
X193914590Y-60005980D01*
X193771733Y-60053600D01*
X193676495Y-60148838D01*
X193628876Y-60244076D01*
X193581257Y-60434552D01*
X193581257Y-60577409D01*
X193628876Y-60767885D01*
X193676495Y-60863123D01*
X193771733Y-60958361D01*
X193914590Y-61005980D01*
X194152685Y-61005980D01*
X192628876Y-61005980D02*
X193200304Y-61005980D01*
X192914590Y-61005980D02*
X192914590Y-60005980D01*
X193009828Y-60148838D01*
X193105066Y-60244076D01*
X193200304Y-60291695D01*
X192152685Y-61005980D02*
X191962209Y-61005980D01*
X191866971Y-60958361D01*
X191819352Y-60910742D01*
X191724114Y-60767885D01*
X191676495Y-60577409D01*
X191676495Y-60196457D01*
X191724114Y-60101219D01*
X191771733Y-60053600D01*
X191866971Y-60005980D01*
X192057447Y-60005980D01*
X192152685Y-60053600D01*
X192200304Y-60101219D01*
X192247923Y-60196457D01*
X192247923Y-60434552D01*
X192200304Y-60529790D01*
X192152685Y-60577409D01*
X192057447Y-60625028D01*
X191866971Y-60625028D01*
X191771733Y-60577409D01*
X191724114Y-60529790D01*
X191676495Y-60434552D01*
%TO.C,D18*%
X194178085Y-58364380D02*
X194178085Y-57364380D01*
X193939990Y-57364380D01*
X193797133Y-57412000D01*
X193701895Y-57507238D01*
X193654276Y-57602476D01*
X193606657Y-57792952D01*
X193606657Y-57935809D01*
X193654276Y-58126285D01*
X193701895Y-58221523D01*
X193797133Y-58316761D01*
X193939990Y-58364380D01*
X194178085Y-58364380D01*
X192654276Y-58364380D02*
X193225704Y-58364380D01*
X192939990Y-58364380D02*
X192939990Y-57364380D01*
X193035228Y-57507238D01*
X193130466Y-57602476D01*
X193225704Y-57650095D01*
X192082847Y-57792952D02*
X192178085Y-57745333D01*
X192225704Y-57697714D01*
X192273323Y-57602476D01*
X192273323Y-57554857D01*
X192225704Y-57459619D01*
X192178085Y-57412000D01*
X192082847Y-57364380D01*
X191892371Y-57364380D01*
X191797133Y-57412000D01*
X191749514Y-57459619D01*
X191701895Y-57554857D01*
X191701895Y-57602476D01*
X191749514Y-57697714D01*
X191797133Y-57745333D01*
X191892371Y-57792952D01*
X192082847Y-57792952D01*
X192178085Y-57840571D01*
X192225704Y-57888190D01*
X192273323Y-57983428D01*
X192273323Y-58173904D01*
X192225704Y-58269142D01*
X192178085Y-58316761D01*
X192082847Y-58364380D01*
X191892371Y-58364380D01*
X191797133Y-58316761D01*
X191749514Y-58269142D01*
X191701895Y-58173904D01*
X191701895Y-57983428D01*
X191749514Y-57888190D01*
X191797133Y-57840571D01*
X191892371Y-57792952D01*
%TO.C,D23*%
X194279585Y-81071980D02*
X194279585Y-80071980D01*
X194041490Y-80071980D01*
X193898633Y-80119600D01*
X193803395Y-80214838D01*
X193755776Y-80310076D01*
X193708157Y-80500552D01*
X193708157Y-80643409D01*
X193755776Y-80833885D01*
X193803395Y-80929123D01*
X193898633Y-81024361D01*
X194041490Y-81071980D01*
X194279585Y-81071980D01*
X193327204Y-80167219D02*
X193279585Y-80119600D01*
X193184347Y-80071980D01*
X192946252Y-80071980D01*
X192851014Y-80119600D01*
X192803395Y-80167219D01*
X192755776Y-80262457D01*
X192755776Y-80357695D01*
X192803395Y-80500552D01*
X193374823Y-81071980D01*
X192755776Y-81071980D01*
X192422442Y-80071980D02*
X191803395Y-80071980D01*
X192136728Y-80452933D01*
X191993871Y-80452933D01*
X191898633Y-80500552D01*
X191851014Y-80548171D01*
X191803395Y-80643409D01*
X191803395Y-80881504D01*
X191851014Y-80976742D01*
X191898633Y-81024361D01*
X191993871Y-81071980D01*
X192279585Y-81071980D01*
X192374823Y-81024361D01*
X192422442Y-80976742D01*
%TO.C,D24*%
X194330485Y-83510380D02*
X194330485Y-82510380D01*
X194092390Y-82510380D01*
X193949533Y-82558000D01*
X193854295Y-82653238D01*
X193806676Y-82748476D01*
X193759057Y-82938952D01*
X193759057Y-83081809D01*
X193806676Y-83272285D01*
X193854295Y-83367523D01*
X193949533Y-83462761D01*
X194092390Y-83510380D01*
X194330485Y-83510380D01*
X193378104Y-82605619D02*
X193330485Y-82558000D01*
X193235247Y-82510380D01*
X192997152Y-82510380D01*
X192901914Y-82558000D01*
X192854295Y-82605619D01*
X192806676Y-82700857D01*
X192806676Y-82796095D01*
X192854295Y-82938952D01*
X193425723Y-83510380D01*
X192806676Y-83510380D01*
X191949533Y-82843714D02*
X191949533Y-83510380D01*
X192187628Y-82462761D02*
X192425723Y-83177047D01*
X191806676Y-83177047D01*
%TO.C,D20*%
X194178085Y-63622180D02*
X194178085Y-62622180D01*
X193939990Y-62622180D01*
X193797133Y-62669800D01*
X193701895Y-62765038D01*
X193654276Y-62860276D01*
X193606657Y-63050752D01*
X193606657Y-63193609D01*
X193654276Y-63384085D01*
X193701895Y-63479323D01*
X193797133Y-63574561D01*
X193939990Y-63622180D01*
X194178085Y-63622180D01*
X193225704Y-62717419D02*
X193178085Y-62669800D01*
X193082847Y-62622180D01*
X192844752Y-62622180D01*
X192749514Y-62669800D01*
X192701895Y-62717419D01*
X192654276Y-62812657D01*
X192654276Y-62907895D01*
X192701895Y-63050752D01*
X193273323Y-63622180D01*
X192654276Y-63622180D01*
X192035228Y-62622180D02*
X191939990Y-62622180D01*
X191844752Y-62669800D01*
X191797133Y-62717419D01*
X191749514Y-62812657D01*
X191701895Y-63003133D01*
X191701895Y-63241228D01*
X191749514Y-63431704D01*
X191797133Y-63526942D01*
X191844752Y-63574561D01*
X191939990Y-63622180D01*
X192035228Y-63622180D01*
X192130466Y-63574561D01*
X192178085Y-63526942D01*
X192225704Y-63431704D01*
X192273323Y-63241228D01*
X192273323Y-63003133D01*
X192225704Y-62812657D01*
X192178085Y-62717419D01*
X192130466Y-62669800D01*
X192035228Y-62622180D01*
%TO.C,D21*%
X194228885Y-66060580D02*
X194228885Y-65060580D01*
X193990790Y-65060580D01*
X193847933Y-65108200D01*
X193752695Y-65203438D01*
X193705076Y-65298676D01*
X193657457Y-65489152D01*
X193657457Y-65632009D01*
X193705076Y-65822485D01*
X193752695Y-65917723D01*
X193847933Y-66012961D01*
X193990790Y-66060580D01*
X194228885Y-66060580D01*
X193276504Y-65155819D02*
X193228885Y-65108200D01*
X193133647Y-65060580D01*
X192895552Y-65060580D01*
X192800314Y-65108200D01*
X192752695Y-65155819D01*
X192705076Y-65251057D01*
X192705076Y-65346295D01*
X192752695Y-65489152D01*
X193324123Y-66060580D01*
X192705076Y-66060580D01*
X191752695Y-66060580D02*
X192324123Y-66060580D01*
X192038409Y-66060580D02*
X192038409Y-65060580D01*
X192133647Y-65203438D01*
X192228885Y-65298676D01*
X192324123Y-65346295D01*
%TO.C,G\u002A\u002A\u002A*%
G36*
X125174137Y-126871937D02*
G01*
X125045596Y-127628932D01*
X124745019Y-128187469D01*
X124738413Y-128193962D01*
X124018406Y-128569464D01*
X123233287Y-128502874D01*
X122595068Y-128011540D01*
X122357995Y-127593578D01*
X122174147Y-126705839D01*
X122246624Y-126401767D01*
X122756110Y-126401767D01*
X122833716Y-127417504D01*
X123065474Y-127874606D01*
X123631738Y-128071664D01*
X123692286Y-128071301D01*
X124283752Y-127972567D01*
X124559825Y-127607537D01*
X124627968Y-126843757D01*
X124598557Y-126467607D01*
X124332755Y-125780636D01*
X123869943Y-125442613D01*
X123307763Y-125549274D01*
X123112318Y-125699280D01*
X122756110Y-126401767D01*
X122246624Y-126401767D01*
X122365322Y-125903773D01*
X122881348Y-125323047D01*
X123672054Y-125099323D01*
X124421503Y-125292296D01*
X124974565Y-125903848D01*
X125171698Y-126843757D01*
X125174204Y-126855706D01*
X125174137Y-126871937D01*
G37*
G36*
X158080702Y-125309506D02*
G01*
X158182927Y-125937890D01*
X158221516Y-126855706D01*
X158188833Y-127706536D01*
X158091119Y-128363927D01*
X157948398Y-128612089D01*
X157847205Y-128513599D01*
X157723555Y-128014686D01*
X157675280Y-127235728D01*
X157674494Y-127062085D01*
X157624798Y-126293402D01*
X157460351Y-125893650D01*
X157129043Y-125718043D01*
X156810102Y-125590307D01*
X156582807Y-125338021D01*
X156617130Y-125192752D01*
X156901802Y-125128189D01*
X157347538Y-125423579D01*
X157594665Y-125611571D01*
X157675280Y-125423579D01*
X157692244Y-125311353D01*
X157948398Y-125099323D01*
X158080702Y-125309506D01*
G37*
G36*
X159677166Y-124052052D02*
G01*
X159860226Y-124527899D01*
X159915941Y-124840934D01*
X160201624Y-125211912D01*
X160402476Y-125349704D01*
X160201624Y-125527160D01*
X160098571Y-125624643D01*
X159923074Y-126194298D01*
X159860226Y-127164384D01*
X159844402Y-127726028D01*
X159751596Y-128338652D01*
X159587108Y-128476983D01*
X159501748Y-128360334D01*
X159367088Y-127818119D01*
X159313989Y-127028908D01*
X159299274Y-126635533D01*
X159182129Y-125873064D01*
X158986247Y-125423579D01*
X158796233Y-125179080D01*
X158986247Y-125099323D01*
X159019121Y-125097869D01*
X159279420Y-124885801D01*
X159262529Y-124501203D01*
X158972592Y-124213090D01*
X158844008Y-124140545D01*
X158824253Y-123886978D01*
X158860874Y-123852457D01*
X159272028Y-123782348D01*
X159677166Y-124052052D01*
G37*
G36*
X149960324Y-124032765D02*
G01*
X150537480Y-124097165D01*
X150779964Y-124240446D01*
X150796326Y-124491345D01*
X150763630Y-124601027D01*
X150522753Y-124833034D01*
X149971856Y-124968923D01*
X148993095Y-125044868D01*
X148145588Y-125122806D01*
X147563861Y-125275696D01*
X147500625Y-125445382D01*
X147959803Y-125583016D01*
X148945317Y-125639749D01*
X149814109Y-125687157D01*
X150343476Y-125877135D01*
X150711724Y-126278808D01*
X150886628Y-126638057D01*
X150933788Y-127408602D01*
X150608645Y-128063578D01*
X149974403Y-128419483D01*
X149687333Y-128460679D01*
X148867669Y-128531264D01*
X147911301Y-128575291D01*
X147482952Y-128582366D01*
X146836642Y-128543940D01*
X146545311Y-128393010D01*
X146477430Y-128084558D01*
X146510048Y-127858383D01*
X146723223Y-127655181D01*
X147241093Y-127542251D01*
X148184419Y-127476579D01*
X149133481Y-127386777D01*
X149724324Y-127230124D01*
X149833813Y-127049600D01*
X149442954Y-126883688D01*
X148532752Y-126770869D01*
X147828945Y-126702646D01*
X147016996Y-126477361D01*
X146597045Y-126060497D01*
X146477430Y-125390493D01*
X146480957Y-125232494D01*
X146620096Y-124628087D01*
X147027892Y-124256847D01*
X147794517Y-124069925D01*
X149010145Y-124018472D01*
X149960324Y-124032765D01*
G37*
G36*
X121350549Y-125181565D02*
G01*
X121350549Y-126912774D01*
X121327579Y-127698260D01*
X121234180Y-128330209D01*
X121077430Y-128476983D01*
X120999667Y-128378529D01*
X120859747Y-127856399D01*
X120804312Y-127084675D01*
X120768526Y-126357536D01*
X120606711Y-125912537D01*
X120258075Y-125718043D01*
X120027603Y-125645135D01*
X119727829Y-125417676D01*
X119909942Y-125226277D01*
X120531194Y-125158517D01*
X121350549Y-125181565D01*
G37*
G36*
X141926352Y-124094070D02*
G01*
X142592979Y-124241780D01*
X143655438Y-124618867D01*
X144605251Y-125104879D01*
X145302420Y-125623567D01*
X145606945Y-126098682D01*
X145628866Y-126302742D01*
X145483010Y-127135779D01*
X144907738Y-127635138D01*
X143902418Y-127801451D01*
X143810902Y-127802034D01*
X142941019Y-127909079D01*
X142555008Y-128206770D01*
X142435266Y-128393481D01*
X141979550Y-128612089D01*
X141780604Y-128562979D01*
X141561301Y-128206770D01*
X141530488Y-128020312D01*
X141288183Y-127801451D01*
X141129440Y-127700112D01*
X141015065Y-127261025D01*
X141066279Y-126946916D01*
X141288183Y-126720600D01*
X141413825Y-126674872D01*
X141561301Y-126315281D01*
X141662685Y-126078918D01*
X142107538Y-125909962D01*
X142426077Y-125985191D01*
X142653774Y-126315281D01*
X142655502Y-126352196D01*
X142902678Y-126632707D01*
X143609688Y-126720600D01*
X143945616Y-126709289D01*
X144456471Y-126579366D01*
X144454279Y-126315846D01*
X143946688Y-125933312D01*
X142941347Y-125446346D01*
X142919253Y-125436890D01*
X141951270Y-124963993D01*
X141333252Y-124546982D01*
X141099935Y-124232139D01*
X141286056Y-124065741D01*
X141926352Y-124094070D01*
G37*
G36*
X155292377Y-125228947D02*
G01*
X155884524Y-125699873D01*
X156208781Y-126345530D01*
X156239992Y-127262205D01*
X155763452Y-128071664D01*
X155685835Y-128144406D01*
X154984747Y-128526200D01*
X154299377Y-128528850D01*
X153782575Y-128189363D01*
X153587192Y-127544749D01*
X153592360Y-127441505D01*
X153688805Y-127310261D01*
X153976246Y-127622534D01*
X154332299Y-127935864D01*
X154889979Y-128014608D01*
X155380945Y-127722703D01*
X155681881Y-127150140D01*
X155669468Y-126386908D01*
X155659869Y-126350582D01*
X155292677Y-125709658D01*
X154739561Y-125497942D01*
X154132018Y-125768340D01*
X154102468Y-125794588D01*
X153615302Y-126137512D01*
X153424676Y-126082188D01*
X153578506Y-125639749D01*
X153888337Y-125302575D01*
X154557493Y-125094703D01*
X155292377Y-125228947D01*
G37*
G36*
X137760087Y-124020569D02*
G01*
X138909396Y-124076229D01*
X139632110Y-124263445D01*
X140018334Y-124656109D01*
X140158178Y-125328114D01*
X140141747Y-126353353D01*
X140107103Y-126881903D01*
X139995964Y-127587803D01*
X139773729Y-127995108D01*
X139376355Y-128263658D01*
X138738842Y-128471048D01*
X137622008Y-128590345D01*
X136468571Y-128521365D01*
X135552699Y-128264079D01*
X135337561Y-128130460D01*
X134875952Y-127507984D01*
X134799755Y-126754521D01*
X135147702Y-126079039D01*
X135202234Y-126029697D01*
X135902363Y-125735719D01*
X137074358Y-125639749D01*
X137572026Y-125644965D01*
X138205981Y-125703670D01*
X138490932Y-125866263D01*
X138557000Y-126180174D01*
X138549764Y-126317216D01*
X138411939Y-126575940D01*
X137996039Y-126693090D01*
X137168649Y-126720600D01*
X136463853Y-126762125D01*
X135938378Y-126920842D01*
X135910698Y-127137261D01*
X136369196Y-127345417D01*
X137302257Y-127479348D01*
X137954440Y-127490896D01*
X138810178Y-127314514D01*
X139249479Y-126851813D01*
X139322022Y-126068083D01*
X139239796Y-125234430D01*
X137123129Y-125155510D01*
X136772497Y-125141614D01*
X135834185Y-125082744D01*
X135300708Y-124985257D01*
X135061616Y-124817427D01*
X135006463Y-124547531D01*
X135018508Y-124388936D01*
X135143685Y-124189669D01*
X135493265Y-124078031D01*
X136174471Y-124029230D01*
X137294526Y-124018472D01*
X137760087Y-124020569D01*
G37*
G36*
X119242191Y-127617800D02*
G01*
X118826528Y-128197041D01*
X118220734Y-128474137D01*
X117505110Y-128330343D01*
X117268418Y-128213998D01*
X117016598Y-128219724D01*
X117027153Y-128658602D01*
X117083512Y-128860270D01*
X117502865Y-129288919D01*
X118134736Y-129401382D01*
X118770958Y-129140171D01*
X118773299Y-129138250D01*
X119086861Y-128964694D01*
X119165602Y-129232017D01*
X119130653Y-129428730D01*
X118824204Y-129784196D01*
X118388881Y-129923112D01*
X117534971Y-129906064D01*
X116924072Y-129405784D01*
X116556962Y-128423191D01*
X116450314Y-127149096D01*
X117013790Y-127149096D01*
X117308398Y-127747408D01*
X117766437Y-128018230D01*
X118344006Y-128009451D01*
X118726704Y-127644245D01*
X118830458Y-127296497D01*
X118843400Y-126504658D01*
X118577672Y-125885060D01*
X118107704Y-125559505D01*
X117507926Y-125649792D01*
X117304572Y-125811829D01*
X117020530Y-126419637D01*
X117013790Y-127149096D01*
X116450314Y-127149096D01*
X116434419Y-126959206D01*
X116434419Y-125156358D01*
X117585057Y-125195394D01*
X118168168Y-125243501D01*
X118744332Y-125457266D01*
X119129202Y-125928686D01*
X119181923Y-126027865D01*
X119300358Y-126504658D01*
X119387422Y-126855159D01*
X119242191Y-127617800D01*
G37*
G36*
X126748532Y-127944696D02*
G01*
X126684832Y-128328307D01*
X126593956Y-128427001D01*
X126224008Y-128450892D01*
X126103887Y-128330238D01*
X126238328Y-127991626D01*
X126484332Y-127841379D01*
X126748532Y-127944696D01*
G37*
G36*
X133483564Y-128005738D02*
G01*
X133094635Y-128262748D01*
X133004489Y-128303852D01*
X132219578Y-128517198D01*
X131319366Y-128604122D01*
X131182868Y-128601643D01*
X130276244Y-128489717D01*
X129544097Y-128262748D01*
X129267303Y-128100841D01*
X128999380Y-127781426D01*
X128868298Y-127236464D01*
X128858145Y-127058366D01*
X129884084Y-127058366D01*
X130144574Y-127245213D01*
X130764643Y-127406797D01*
X131526846Y-127496160D01*
X132218481Y-127489634D01*
X132626846Y-127363554D01*
X132761237Y-127204817D01*
X132758815Y-126925676D01*
X132281085Y-126769336D01*
X131296606Y-126720600D01*
X130527872Y-126744578D01*
X129991142Y-126851669D01*
X129884084Y-127058366D01*
X128858145Y-127058366D01*
X128815409Y-126308688D01*
X128823436Y-125582577D01*
X128846276Y-125369536D01*
X129817215Y-125369536D01*
X129951119Y-125480740D01*
X130496737Y-125595328D01*
X131319366Y-125639749D01*
X131937566Y-125615662D01*
X132574575Y-125517514D01*
X132821516Y-125369536D01*
X132687612Y-125258332D01*
X132141995Y-125143744D01*
X131319366Y-125099323D01*
X130701165Y-125123411D01*
X130064157Y-125221558D01*
X129817215Y-125369536D01*
X128846276Y-125369536D01*
X128907735Y-124796258D01*
X129053689Y-124357237D01*
X129079380Y-124331441D01*
X129561218Y-124151382D01*
X130386614Y-124045067D01*
X131378631Y-124012494D01*
X132360333Y-124053665D01*
X133154783Y-124168580D01*
X133585042Y-124357237D01*
X133702681Y-124660292D01*
X133800744Y-125369536D01*
X133802903Y-125385151D01*
X133823323Y-126308688D01*
X133794662Y-126965890D01*
X133759436Y-127204817D01*
X133697358Y-127625874D01*
X133483564Y-128005738D01*
G37*
G36*
X142446187Y-99569127D02*
G01*
X142479547Y-99600630D01*
X142526408Y-99663290D01*
X142534448Y-99674920D01*
X142585896Y-99734155D01*
X142626074Y-99758330D01*
X142641858Y-99761853D01*
X142678372Y-99800254D01*
X142716813Y-99844606D01*
X142806774Y-99899953D01*
X142931957Y-99956120D01*
X143077752Y-100008450D01*
X143229552Y-100052283D01*
X143372748Y-100082959D01*
X143492733Y-100095820D01*
X143574899Y-100086205D01*
X143597204Y-100081211D01*
X143620415Y-100096338D01*
X143600696Y-100115384D01*
X143526064Y-100144697D01*
X143403739Y-100178219D01*
X143242125Y-100213702D01*
X143049629Y-100248901D01*
X143026231Y-100252623D01*
X142869111Y-100271657D01*
X142689294Y-100286105D01*
X142521234Y-100293086D01*
X142230668Y-100297497D01*
X142263766Y-100194438D01*
X142298726Y-100094236D01*
X142340287Y-99987245D01*
X142340831Y-99985934D01*
X142371263Y-99887614D01*
X142384144Y-99796983D01*
X142385570Y-99758709D01*
X142398049Y-99666814D01*
X142418957Y-99596334D01*
X142442902Y-99568250D01*
X142446187Y-99569127D01*
G37*
G36*
X138935575Y-98085835D02*
G01*
X139140265Y-98093994D01*
X139357883Y-98105953D01*
X139579855Y-98121433D01*
X139797608Y-98140151D01*
X140002566Y-98161828D01*
X140142395Y-98178306D01*
X140050132Y-98253740D01*
X140023567Y-98275499D01*
X139979381Y-98307651D01*
X139936626Y-98323417D01*
X139879341Y-98324074D01*
X139791568Y-98310901D01*
X139657344Y-98285173D01*
X139601822Y-98274556D01*
X139358906Y-98231481D01*
X139123404Y-98194756D01*
X138908941Y-98166233D01*
X138729141Y-98147761D01*
X138597627Y-98141192D01*
X138526954Y-98138572D01*
X138444285Y-98127057D01*
X138404060Y-98109482D01*
X138417563Y-98096824D01*
X138484806Y-98086972D01*
X138599271Y-98082044D01*
X138752386Y-98081758D01*
X138935575Y-98085835D01*
G37*
G36*
X137325908Y-101903258D02*
G01*
X137348678Y-101913526D01*
X137373474Y-101933973D01*
X137368216Y-101939651D01*
X137325908Y-101946436D01*
X137304042Y-101942976D01*
X137278343Y-101915721D01*
X137285076Y-101902599D01*
X137325908Y-101903258D01*
G37*
G36*
X142955171Y-100419087D02*
G01*
X142898356Y-100459848D01*
X142759778Y-100529097D01*
X142591591Y-100587148D01*
X142415421Y-100625722D01*
X142386350Y-100629750D01*
X142262350Y-100640105D01*
X142147764Y-100640402D01*
X142060410Y-100631206D01*
X142018105Y-100613085D01*
X142015798Y-100605599D01*
X142033024Y-100557010D01*
X142083179Y-100494171D01*
X142097168Y-100480478D01*
X142138733Y-100446860D01*
X142188107Y-100424251D01*
X142259181Y-100409330D01*
X142365849Y-100398776D01*
X142522005Y-100389266D01*
X142639632Y-100381940D01*
X142783755Y-100370428D01*
X142899891Y-100358295D01*
X142970353Y-100347201D01*
X143065484Y-100324352D01*
X142955171Y-100419087D01*
G37*
G36*
X139516505Y-97687142D02*
G01*
X139783797Y-97724266D01*
X139939962Y-97757354D01*
X140121459Y-97802963D01*
X140283855Y-97851167D01*
X140421110Y-97899316D01*
X140527184Y-97944762D01*
X140596036Y-97984856D01*
X140621625Y-98016951D01*
X140597912Y-98038397D01*
X140518856Y-98046547D01*
X140453318Y-98054025D01*
X140385958Y-98077924D01*
X140357121Y-98091049D01*
X140295809Y-98093159D01*
X140248565Y-98079041D01*
X140168967Y-98060324D01*
X140125805Y-98050968D01*
X140024256Y-98027387D01*
X139910303Y-97999649D01*
X139623439Y-97936283D01*
X139307424Y-97881227D01*
X138984716Y-97837829D01*
X138672087Y-97808015D01*
X138386309Y-97793711D01*
X138144152Y-97796842D01*
X138127468Y-97797779D01*
X138022382Y-97801924D01*
X137951408Y-97801648D01*
X137929123Y-97796946D01*
X137953771Y-97789096D01*
X138030062Y-97772497D01*
X138144640Y-97750652D01*
X138284162Y-97726218D01*
X138563446Y-97690246D01*
X138885166Y-97670160D01*
X139209907Y-97669116D01*
X139516505Y-97687142D01*
G37*
G36*
X139678596Y-100477378D02*
G01*
X139739477Y-100543651D01*
X139780041Y-100588130D01*
X139886200Y-100684783D01*
X139990783Y-100759680D01*
X140054202Y-100800243D01*
X140104875Y-100849888D01*
X140109049Y-100894050D01*
X140096749Y-100922929D01*
X140071168Y-100963415D01*
X140056871Y-100978778D01*
X140015012Y-101033676D01*
X139966735Y-101103532D01*
X139926885Y-101166465D01*
X139910303Y-101200589D01*
X139904659Y-101215543D01*
X139873115Y-101272327D01*
X139823099Y-101352497D01*
X139792995Y-101399357D01*
X139745622Y-101475665D01*
X139720041Y-101520557D01*
X139718335Y-101523861D01*
X139688062Y-101570959D01*
X139632239Y-101651296D01*
X139561489Y-101749533D01*
X139418792Y-101944587D01*
X138998630Y-101945512D01*
X138961382Y-101945484D01*
X138811347Y-101942988D01*
X138689743Y-101937178D01*
X138608230Y-101928803D01*
X138578467Y-101918608D01*
X138586170Y-101897080D01*
X138626033Y-101851305D01*
X138651339Y-101823970D01*
X138673599Y-101770789D01*
X138675510Y-101755575D01*
X138702967Y-101719178D01*
X138719655Y-101702493D01*
X138767819Y-101640253D01*
X138839588Y-101540563D01*
X138928550Y-101412382D01*
X139028294Y-101264663D01*
X139077183Y-101191563D01*
X139204040Y-101005174D01*
X139308512Y-100858249D01*
X139398779Y-100739918D01*
X139483021Y-100639312D01*
X139569416Y-100545559D01*
X139604725Y-100499896D01*
X139625530Y-100448121D01*
X139637212Y-100444448D01*
X139678596Y-100477378D01*
G37*
G36*
X139600546Y-98443678D02*
G01*
X139692109Y-98451359D01*
X139736445Y-98464114D01*
X139743260Y-98476402D01*
X139734622Y-98523777D01*
X139708483Y-98541030D01*
X139632168Y-98549394D01*
X139501547Y-98541967D01*
X139403616Y-98534148D01*
X139243654Y-98525427D01*
X139103274Y-98521942D01*
X139055944Y-98521547D01*
X138974601Y-98516695D01*
X138943777Y-98504359D01*
X138954279Y-98482079D01*
X138992853Y-98468534D01*
X139081179Y-98456349D01*
X139202070Y-98447404D01*
X139339567Y-98442067D01*
X139477712Y-98440702D01*
X139600546Y-98443678D01*
G37*
G36*
X142288580Y-99518931D02*
G01*
X142285438Y-99626387D01*
X142239271Y-99926521D01*
X142139472Y-100193897D01*
X141987951Y-100426020D01*
X141786616Y-100620399D01*
X141537376Y-100774540D01*
X141242138Y-100885950D01*
X141210027Y-100894516D01*
X140936993Y-100932923D01*
X140664541Y-100914637D01*
X140401042Y-100844496D01*
X140154864Y-100727337D01*
X139934376Y-100567996D01*
X139747949Y-100371312D01*
X139603952Y-100142122D01*
X139510753Y-99885262D01*
X139494998Y-99813168D01*
X139465929Y-99509464D01*
X139496834Y-99231574D01*
X141249806Y-99231574D01*
X141271642Y-99295963D01*
X141303377Y-99323312D01*
X141368979Y-99346186D01*
X141406054Y-99338031D01*
X141466316Y-99295963D01*
X141477959Y-99278793D01*
X141484856Y-99214356D01*
X141444586Y-99161798D01*
X141368979Y-99140069D01*
X141345497Y-99141861D01*
X141278368Y-99173892D01*
X141249806Y-99231574D01*
X139496834Y-99231574D01*
X139498385Y-99217625D01*
X139591140Y-98941625D01*
X139742968Y-98685438D01*
X139952642Y-98453038D01*
X139961966Y-98444562D01*
X140174012Y-98294657D01*
X140419935Y-98189023D01*
X140687129Y-98129375D01*
X140962988Y-98117431D01*
X141234906Y-98154910D01*
X141490275Y-98243529D01*
X141616987Y-98311639D01*
X141846205Y-98485763D01*
X142032681Y-98701077D01*
X142171708Y-98950058D01*
X142255158Y-99214356D01*
X142258577Y-99225183D01*
X142288580Y-99518931D01*
G37*
%TD*%
M02*
