%TF.GenerationSoftware,KiCad,Pcbnew,(6.0.8-1)-1*%
%TF.CreationDate,2024-01-05T11:23:36-06:00*%
%TF.ProjectId,Pico Robotic Controller,5069636f-2052-46f6-926f-74696320436f,V2*%
%TF.SameCoordinates,Original*%
%TF.FileFunction,Drillmap*%
%TF.FilePolarity,Positive*%
%FSLAX45Y45*%
G04 Gerber Fmt 4.5, Leading zero omitted, Abs format (unit mm)*
G04 Created by KiCad (PCBNEW (6.0.8-1)-1) date 2024-01-05 11:23:36*
%MOMM*%
%LPD*%
G01*
G04 APERTURE LIST*
%ADD10C,0.100000*%
%ADD11C,0.200000*%
%ADD12C,0.040000*%
%ADD13C,0.076200*%
%ADD14C,0.105000*%
%ADD15C,0.110000*%
%ADD16C,0.220000*%
G04 APERTURE END LIST*
D10*
X10406400Y-4121160D02*
X19506400Y-4121160D01*
X19506400Y-4121160D02*
X19506400Y-15121160D01*
X19506400Y-15121160D02*
X10406400Y-15121160D01*
X10406400Y-15121160D02*
X10406400Y-4121160D01*
D11*
D12*
X10510840Y-6289360D02*
X10550840Y-6329360D01*
X10550840Y-6289360D02*
X10510840Y-6329360D01*
X10546400Y-4896160D02*
X10586400Y-4936160D01*
X10586400Y-4896160D02*
X10546400Y-4936160D01*
X10546400Y-5028660D02*
X10586400Y-5068660D01*
X10586400Y-5028660D02*
X10546400Y-5068660D01*
X10546400Y-5161160D02*
X10586400Y-5201160D01*
X10586400Y-5161160D02*
X10546400Y-5201160D01*
X10584500Y-5806760D02*
X10624500Y-5846760D01*
X10624500Y-5806760D02*
X10584500Y-5846760D01*
X10622600Y-6289360D02*
X10662600Y-6329360D01*
X10662600Y-6289360D02*
X10622600Y-6329360D01*
X10679733Y-4896160D02*
X10719733Y-4936160D01*
X10719733Y-4896160D02*
X10679733Y-4936160D01*
X10679733Y-5028660D02*
X10719733Y-5068660D01*
X10719733Y-5028660D02*
X10679733Y-5068660D01*
X10679733Y-5161160D02*
X10719733Y-5201160D01*
X10719733Y-5161160D02*
X10679733Y-5201160D01*
X10813067Y-4896160D02*
X10853067Y-4936160D01*
X10853067Y-4896160D02*
X10813067Y-4936160D01*
X10813067Y-5028660D02*
X10853067Y-5068660D01*
X10853067Y-5028660D02*
X10813067Y-5068660D01*
X10813067Y-5161160D02*
X10853067Y-5201160D01*
X10853067Y-5161160D02*
X10813067Y-5201160D01*
X10946400Y-4896160D02*
X10986400Y-4936160D01*
X10986400Y-4896160D02*
X10946400Y-4936160D01*
X10946400Y-5028660D02*
X10986400Y-5068660D01*
X10986400Y-5028660D02*
X10946400Y-5068660D01*
X10946400Y-5161160D02*
X10986400Y-5201160D01*
X10986400Y-5161160D02*
X10946400Y-5201160D01*
X11267760Y-11862120D02*
X11307760Y-11902120D01*
X11307760Y-11862120D02*
X11267760Y-11902120D01*
X11298240Y-8057200D02*
X11338240Y-8097200D01*
X11338240Y-8057200D02*
X11298240Y-8097200D01*
X11415080Y-14366560D02*
X11455080Y-14406560D01*
X11455080Y-14366560D02*
X11415080Y-14406560D01*
X11524300Y-11844340D02*
X11564300Y-11884340D01*
X11564300Y-11844340D02*
X11524300Y-11884340D01*
X11575100Y-6022660D02*
X11615100Y-6062660D01*
X11615100Y-6022660D02*
X11575100Y-6062660D01*
X11643680Y-11994200D02*
X11683680Y-12034200D01*
X11683680Y-11994200D02*
X11643680Y-12034200D01*
X11704640Y-8074440D02*
X11744640Y-8114440D01*
X11744640Y-8074440D02*
X11704640Y-8114440D01*
X11845629Y-14177342D02*
X11885629Y-14217342D01*
X11885629Y-14177342D02*
X11845629Y-14217342D01*
X11892600Y-12969560D02*
X11932600Y-13009560D01*
X11932600Y-12969560D02*
X11892600Y-13009560D01*
X12019600Y-13147360D02*
X12059600Y-13187360D01*
X12059600Y-13147360D02*
X12019600Y-13187360D01*
X12061400Y-6061160D02*
X12101400Y-6101160D01*
X12101400Y-6061160D02*
X12061400Y-6101160D01*
X12085640Y-14371640D02*
X12125640Y-14411640D01*
X12125640Y-14371640D02*
X12085640Y-14411640D01*
X12192320Y-12078020D02*
X12232320Y-12118020D01*
X12232320Y-12078020D02*
X12192320Y-12118020D01*
X12204733Y-6061160D02*
X12244733Y-6101160D01*
X12244733Y-6061160D02*
X12204733Y-6101160D01*
X12348067Y-6061160D02*
X12388067Y-6101160D01*
X12388067Y-6061160D02*
X12348067Y-6101160D01*
X12491400Y-6061160D02*
X12531400Y-6101160D01*
X12531400Y-6061160D02*
X12491400Y-6101160D01*
X12502200Y-13274360D02*
X12542200Y-13314360D01*
X12542200Y-13274360D02*
X12502200Y-13314360D01*
X12598720Y-12801920D02*
X12638720Y-12841920D01*
X12638720Y-12801920D02*
X12598720Y-12841920D01*
X12639360Y-14371640D02*
X12679360Y-14411640D01*
X12679360Y-14371640D02*
X12639360Y-14411640D01*
X12822240Y-7929540D02*
X12862240Y-7969540D01*
X12862240Y-7929540D02*
X12822240Y-7969540D01*
X12954320Y-9621840D02*
X12994320Y-9661840D01*
X12994320Y-9621840D02*
X12954320Y-9661840D01*
X13067850Y-14178600D02*
X13107850Y-14218600D01*
X13107850Y-14178600D02*
X13067850Y-14218600D01*
X13078780Y-7884540D02*
X13118780Y-7924540D01*
X13118780Y-7884540D02*
X13078780Y-7924540D01*
X13182920Y-9728520D02*
X13222920Y-9768520D01*
X13222920Y-9728520D02*
X13182920Y-9768520D01*
X13315000Y-14371640D02*
X13355000Y-14411640D01*
X13355000Y-14371640D02*
X13315000Y-14411640D01*
X13330240Y-6360480D02*
X13370240Y-6400480D01*
X13370240Y-6360480D02*
X13330240Y-6400480D01*
X13394950Y-12410150D02*
X13434950Y-12450150D01*
X13434950Y-12410150D02*
X13394950Y-12450150D01*
X13394950Y-12555050D02*
X13434950Y-12595050D01*
X13434950Y-12555050D02*
X13394950Y-12595050D01*
X13589320Y-6294440D02*
X13629320Y-6334440D01*
X13629320Y-6294440D02*
X13589320Y-6334440D01*
X13721400Y-8119440D02*
X13761400Y-8159440D01*
X13761400Y-8119440D02*
X13721400Y-8159440D01*
X13802680Y-5989640D02*
X13842680Y-6029640D01*
X13842680Y-5989640D02*
X13802680Y-6029640D01*
X13812840Y-8170290D02*
X13852840Y-8210290D01*
X13852840Y-8170290D02*
X13812840Y-8210290D01*
X13858560Y-14371640D02*
X13898560Y-14411640D01*
X13898560Y-14371640D02*
X13858560Y-14411640D01*
X13946013Y-5989640D02*
X13986013Y-6029640D01*
X13986013Y-5989640D02*
X13946013Y-6029640D01*
X13970320Y-7396190D02*
X14010320Y-7436190D01*
X14010320Y-7396190D02*
X13970320Y-7436190D01*
X14036360Y-13940450D02*
X14076360Y-13980450D01*
X14076360Y-13940450D02*
X14036360Y-13980450D01*
X14089347Y-5989640D02*
X14129347Y-6029640D01*
X14129347Y-5989640D02*
X14089347Y-6029640D01*
X14092240Y-6253190D02*
X14132240Y-6293190D01*
X14132240Y-6253190D02*
X14092240Y-6293190D01*
X14232680Y-5989640D02*
X14272680Y-6029640D01*
X14272680Y-5989640D02*
X14232680Y-6029640D01*
X14249720Y-13940450D02*
X14289720Y-13980450D01*
X14289720Y-13940450D02*
X14249720Y-13980450D01*
X14280200Y-8925880D02*
X14320200Y-8965880D01*
X14320200Y-8925880D02*
X14280200Y-8965880D01*
X14285280Y-14188760D02*
X14325280Y-14228760D01*
X14325280Y-14188760D02*
X14285280Y-14228760D01*
X14331000Y-6206750D02*
X14371000Y-6246750D01*
X14371000Y-6206750D02*
X14331000Y-6246750D01*
X14534200Y-14371640D02*
X14574200Y-14411640D01*
X14574200Y-14371640D02*
X14534200Y-14411640D01*
X15087920Y-14371640D02*
X15127920Y-14411640D01*
X15127920Y-14371640D02*
X15087920Y-14411640D01*
X15387640Y-8900480D02*
X15427640Y-8940480D01*
X15427640Y-8900480D02*
X15387640Y-8940480D01*
X15428280Y-8119440D02*
X15468280Y-8159440D01*
X15468280Y-8119440D02*
X15428280Y-8159440D01*
X15479080Y-8621080D02*
X15519080Y-8661080D01*
X15519080Y-8621080D02*
X15479080Y-8661080D01*
X15519720Y-14188760D02*
X15559720Y-14228760D01*
X15559720Y-14188760D02*
X15519720Y-14228760D01*
X15545120Y-8123240D02*
X15585120Y-8163240D01*
X15585120Y-8123240D02*
X15545120Y-8163240D01*
X15611160Y-5496880D02*
X15651160Y-5536880D01*
X15651160Y-5496880D02*
X15611160Y-5536880D01*
X15636560Y-5684840D02*
X15676560Y-5724840D01*
X15676560Y-5684840D02*
X15636560Y-5724840D01*
X15748320Y-4445320D02*
X15788320Y-4485320D01*
X15788320Y-4445320D02*
X15748320Y-4485320D01*
X15768640Y-14371640D02*
X15808640Y-14411640D01*
X15808640Y-14371640D02*
X15768640Y-14411640D01*
X15771700Y-4848660D02*
X15811700Y-4888660D01*
X15811700Y-4848660D02*
X15771700Y-4888660D01*
X15888020Y-7401880D02*
X15928020Y-7441880D01*
X15928020Y-7401880D02*
X15888020Y-7441880D01*
X15947710Y-7969570D02*
X15987710Y-8009570D01*
X15987710Y-7969570D02*
X15947710Y-8009570D01*
X15961680Y-7198680D02*
X16001680Y-7238680D01*
X16001680Y-7198680D02*
X15961680Y-7238680D01*
X15968090Y-7483160D02*
X16008090Y-7523160D01*
X16008090Y-7483160D02*
X15968090Y-7523160D01*
X15989620Y-5441000D02*
X16029620Y-5481000D01*
X16029620Y-5441000D02*
X15989620Y-5481000D01*
X16002320Y-8151180D02*
X16042320Y-8191180D01*
X16042320Y-8151180D02*
X16002320Y-8191180D01*
X16010370Y-6227970D02*
X16050370Y-6267970D01*
X16050370Y-6227970D02*
X16010370Y-6267970D01*
X16022640Y-11958640D02*
X16062640Y-11998640D01*
X16062640Y-11958640D02*
X16022640Y-11998640D01*
X16026760Y-7564079D02*
X16066760Y-7604079D01*
X16066760Y-7564079D02*
X16026760Y-7604079D01*
X16067090Y-8330250D02*
X16107090Y-8370250D01*
X16107090Y-8330250D02*
X16067090Y-8370250D01*
X16096300Y-7658420D02*
X16136300Y-7698420D01*
X16136300Y-7658420D02*
X16096300Y-7698420D01*
X16097570Y-6417630D02*
X16137570Y-6457630D01*
X16137570Y-6417630D02*
X16097570Y-6457630D01*
X16111540Y-12570780D02*
X16151540Y-12610780D01*
X16151540Y-12570780D02*
X16111540Y-12610780D01*
X16121700Y-5639120D02*
X16161700Y-5679120D01*
X16161700Y-5639120D02*
X16121700Y-5679120D01*
X16131860Y-5748340D02*
X16171860Y-5788340D01*
X16171860Y-5748340D02*
X16131860Y-5788340D01*
X16131860Y-6586540D02*
X16171860Y-6626540D01*
X16171860Y-6586540D02*
X16131860Y-6626540D01*
X16140750Y-8520750D02*
X16180750Y-8560750D01*
X16180750Y-8520750D02*
X16140750Y-8560750D01*
X16180120Y-6759260D02*
X16220120Y-6799260D01*
X16220120Y-6759260D02*
X16180120Y-6799260D01*
X16187740Y-7737160D02*
X16227740Y-7777160D01*
X16227740Y-7737160D02*
X16187740Y-7777160D01*
X16199871Y-5821583D02*
X16239871Y-5861583D01*
X16239871Y-5821583D02*
X16199871Y-5861583D01*
X16210600Y-14112560D02*
X16250600Y-14152560D01*
X16250600Y-14112560D02*
X16210600Y-14152560D01*
X16233460Y-13393740D02*
X16273460Y-13433740D01*
X16273460Y-13393740D02*
X16233460Y-13433740D01*
X16266480Y-5926140D02*
X16306480Y-5966140D01*
X16306480Y-5926140D02*
X16266480Y-5966140D01*
X16307120Y-14285280D02*
X16347120Y-14325280D01*
X16347120Y-14285280D02*
X16307120Y-14325280D01*
X16375700Y-14026200D02*
X16415700Y-14066200D01*
X16415700Y-14026200D02*
X16375700Y-14066200D01*
X16377522Y-12739142D02*
X16417522Y-12779142D01*
X16417522Y-12739142D02*
X16377522Y-12779142D01*
X16383320Y-12639360D02*
X16423320Y-12679360D01*
X16423320Y-12639360D02*
X16383320Y-12679360D01*
X16459520Y-6220780D02*
X16499520Y-6260780D01*
X16499520Y-6220780D02*
X16459520Y-6260780D01*
X16518103Y-12486163D02*
X16558103Y-12526163D01*
X16558103Y-12486163D02*
X16518103Y-12526163D01*
X16529430Y-12639360D02*
X16569430Y-12679360D01*
X16569430Y-12639360D02*
X16529430Y-12679360D01*
X16530640Y-4559620D02*
X16570640Y-4599620D01*
X16570640Y-4559620D02*
X16530640Y-4599620D01*
X16583980Y-12740960D02*
X16623980Y-12780960D01*
X16623980Y-12740960D02*
X16583980Y-12780960D01*
X16609380Y-6515420D02*
X16649380Y-6555420D01*
X16649380Y-6515420D02*
X16609380Y-6555420D01*
X16609380Y-7785420D02*
X16649380Y-7825420D01*
X16649380Y-7785420D02*
X16609380Y-7825420D01*
X16622080Y-6825300D02*
X16662080Y-6865300D01*
X16662080Y-6825300D02*
X16622080Y-6865300D01*
X16632240Y-4262440D02*
X16672240Y-4302440D01*
X16672240Y-4262440D02*
X16632240Y-4302440D01*
X16634780Y-8645730D02*
X16674780Y-8685730D01*
X16674780Y-8645730D02*
X16634780Y-8685730D01*
X16652560Y-6637340D02*
X16692560Y-6677340D01*
X16692560Y-6637340D02*
X16652560Y-6677340D01*
X16660180Y-8443280D02*
X16700180Y-8483280D01*
X16700180Y-8443280D02*
X16660180Y-8483280D01*
X16700820Y-6728780D02*
X16740820Y-6768780D01*
X16740820Y-6728780D02*
X16700820Y-6768780D01*
X16723680Y-8567740D02*
X16763680Y-8607740D01*
X16763680Y-8567740D02*
X16723680Y-8607740D01*
X16744000Y-8311200D02*
X16784000Y-8351200D01*
X16784000Y-8311200D02*
X16744000Y-8351200D01*
X16779560Y-13248960D02*
X16819560Y-13288960D01*
X16819560Y-13248960D02*
X16779560Y-13288960D01*
X16794800Y-14849160D02*
X16834800Y-14889160D01*
X16834800Y-14849160D02*
X16794800Y-14889160D01*
X16820200Y-11841800D02*
X16860200Y-11881800D01*
X16860200Y-11841800D02*
X16820200Y-11881800D01*
X16934500Y-14607860D02*
X16974500Y-14647860D01*
X16974500Y-14607860D02*
X16934500Y-14647860D01*
X16965030Y-12784140D02*
X17005030Y-12824140D01*
X17005030Y-12784140D02*
X16965030Y-12824140D01*
X17045858Y-12847381D02*
X17085858Y-12887381D01*
X17085858Y-12847381D02*
X17045858Y-12887381D01*
X17079280Y-4343720D02*
X17119280Y-4383720D01*
X17119280Y-4343720D02*
X17079280Y-4383720D01*
X17095730Y-12934000D02*
X17135730Y-12974000D01*
X17135730Y-12934000D02*
X17095730Y-12974000D01*
X17125000Y-14353860D02*
X17165000Y-14393860D01*
X17165000Y-14353860D02*
X17125000Y-14393860D01*
X17142370Y-12210510D02*
X17182370Y-12250510D01*
X17182370Y-12210510D02*
X17142370Y-12250510D01*
X17147118Y-12317719D02*
X17187118Y-12357719D01*
X17187118Y-12317719D02*
X17147118Y-12357719D01*
X17161390Y-13017820D02*
X17201390Y-13057820D01*
X17201390Y-13017820D02*
X17161390Y-13057820D01*
X17170720Y-8364540D02*
X17210720Y-8404540D01*
X17210720Y-8364540D02*
X17170720Y-8404540D01*
X17173260Y-8212140D02*
X17213260Y-8252140D01*
X17213260Y-8212140D02*
X17173260Y-8252140D01*
X17173260Y-12415840D02*
X17213260Y-12455840D01*
X17213260Y-12415840D02*
X17173260Y-12455840D01*
X17180300Y-11134380D02*
X17220300Y-11174380D01*
X17220300Y-11134380D02*
X17180300Y-11174380D01*
X17180300Y-11235630D02*
X17220300Y-11275630D01*
X17220300Y-11235630D02*
X17180300Y-11275630D01*
X17180300Y-11336880D02*
X17220300Y-11376880D01*
X17220300Y-11336880D02*
X17180300Y-11376880D01*
X17180300Y-11541130D02*
X17220300Y-11581130D01*
X17220300Y-11541130D02*
X17180300Y-11581130D01*
X17180300Y-11642380D02*
X17220300Y-11682380D01*
X17220300Y-11642380D02*
X17180300Y-11682380D01*
X17180300Y-11743630D02*
X17220300Y-11783630D01*
X17220300Y-11743630D02*
X17180300Y-11783630D01*
X17180880Y-8522020D02*
X17220880Y-8562020D01*
X17220880Y-8522020D02*
X17180880Y-8562020D01*
X17191040Y-6431600D02*
X17231040Y-6471600D01*
X17231040Y-6431600D02*
X17191040Y-6471600D01*
X17203740Y-6578920D02*
X17243740Y-6618920D01*
X17243740Y-6578920D02*
X17203740Y-6618920D01*
X17203740Y-6738940D02*
X17243740Y-6778940D01*
X17243740Y-6738940D02*
X17203740Y-6778940D01*
X17246920Y-6220780D02*
X17286920Y-6260780D01*
X17286920Y-6220780D02*
X17246920Y-6260780D01*
X17255890Y-12206441D02*
X17295890Y-12246441D01*
X17295890Y-12206441D02*
X17255890Y-12246441D01*
X17262800Y-11186880D02*
X17302800Y-11226880D01*
X17302800Y-11186880D02*
X17262800Y-11226880D01*
X17262800Y-11288130D02*
X17302800Y-11328130D01*
X17302800Y-11288130D02*
X17262800Y-11328130D01*
X17262800Y-11593630D02*
X17302800Y-11633630D01*
X17302800Y-11593630D02*
X17262800Y-11633630D01*
X17262800Y-11694880D02*
X17302800Y-11734880D01*
X17302800Y-11694880D02*
X17262800Y-11734880D01*
X17277400Y-7805740D02*
X17317400Y-7845740D01*
X17317400Y-7805740D02*
X17277400Y-7845740D01*
X17315500Y-4727260D02*
X17355500Y-4767260D01*
X17355500Y-4727260D02*
X17315500Y-4767260D01*
X17328200Y-10124760D02*
X17368200Y-10164760D01*
X17368200Y-10124760D02*
X17328200Y-10164760D01*
X17330740Y-9055420D02*
X17370740Y-9095420D01*
X17370740Y-9055420D02*
X17330740Y-9095420D01*
X17333280Y-9365300D02*
X17373280Y-9405300D01*
X17373280Y-9365300D02*
X17333280Y-9405300D01*
X17345300Y-11134380D02*
X17385300Y-11174380D01*
X17385300Y-11134380D02*
X17345300Y-11174380D01*
X17345300Y-11235630D02*
X17385300Y-11275630D01*
X17385300Y-11235630D02*
X17345300Y-11275630D01*
X17345300Y-11336880D02*
X17385300Y-11376880D01*
X17385300Y-11336880D02*
X17345300Y-11376880D01*
X17345300Y-11541130D02*
X17385300Y-11581130D01*
X17385300Y-11541130D02*
X17345300Y-11581130D01*
X17345300Y-11642380D02*
X17385300Y-11682380D01*
X17385300Y-11642380D02*
X17345300Y-11682380D01*
X17345300Y-11743630D02*
X17385300Y-11783630D01*
X17385300Y-11743630D02*
X17345300Y-11783630D01*
X17348520Y-9789480D02*
X17388520Y-9829480D01*
X17388520Y-9789480D02*
X17348520Y-9829480D01*
X17528860Y-6200460D02*
X17568860Y-6240460D01*
X17568860Y-6200460D02*
X17528860Y-6240460D01*
X17602520Y-8207060D02*
X17642520Y-8247060D01*
X17642520Y-8207060D02*
X17602520Y-8247060D01*
X17602520Y-8364540D02*
X17642520Y-8404540D01*
X17642520Y-8364540D02*
X17602520Y-8404540D01*
X17605060Y-8522020D02*
X17645060Y-8562020D01*
X17645060Y-8522020D02*
X17605060Y-8562020D01*
X17605060Y-8679500D02*
X17645060Y-8719500D01*
X17645060Y-8679500D02*
X17605060Y-8719500D01*
X17617760Y-6423980D02*
X17657760Y-6463980D01*
X17657760Y-6423980D02*
X17617760Y-6463980D01*
X17617760Y-6578920D02*
X17657760Y-6618920D01*
X17657760Y-6578920D02*
X17617760Y-6618920D01*
X17620300Y-6738940D02*
X17660300Y-6778940D01*
X17660300Y-6738940D02*
X17620300Y-6778940D01*
X17622840Y-6901500D02*
X17662840Y-6941500D01*
X17662840Y-6901500D02*
X17622840Y-6941500D01*
X17683800Y-13121960D02*
X17723800Y-13161960D01*
X17723800Y-13121960D02*
X17683800Y-13161960D01*
X17734600Y-13210860D02*
X17774600Y-13250860D01*
X17774600Y-13210860D02*
X17734600Y-13250860D01*
X17760000Y-13325160D02*
X17800000Y-13365160D01*
X17800000Y-13325160D02*
X17760000Y-13365160D01*
X17810800Y-10023160D02*
X17850800Y-10063160D01*
X17850800Y-10023160D02*
X17810800Y-10063160D01*
X17814550Y-13414060D02*
X17854550Y-13454060D01*
X17854550Y-13414060D02*
X17814550Y-13454060D01*
X17887000Y-10543860D02*
X17927000Y-10583860D01*
X17927000Y-10543860D02*
X17887000Y-10583860D01*
X17899700Y-10150160D02*
X17939700Y-10190160D01*
X17939700Y-10150160D02*
X17899700Y-10190160D01*
X17899700Y-10670860D02*
X17939700Y-10710860D01*
X17939700Y-10670860D02*
X17899700Y-10710860D01*
X18064800Y-9146860D02*
X18104800Y-9186860D01*
X18104800Y-9146860D02*
X18064800Y-9186860D01*
X18077500Y-10061260D02*
X18117500Y-10101260D01*
X18117500Y-10061260D02*
X18077500Y-10101260D01*
X18077500Y-10569260D02*
X18117500Y-10609260D01*
X18117500Y-10569260D02*
X18077500Y-10609260D01*
X18077500Y-13261660D02*
X18117500Y-13301660D01*
X18117500Y-13261660D02*
X18077500Y-13301660D01*
X18077500Y-13706160D02*
X18117500Y-13746160D01*
X18117500Y-13706160D02*
X18077500Y-13746160D01*
X18113060Y-5893120D02*
X18153060Y-5933120D01*
X18153060Y-5893120D02*
X18113060Y-5933120D01*
X18113060Y-6408740D02*
X18153060Y-6448740D01*
X18153060Y-6408740D02*
X18113060Y-6448740D01*
X18113060Y-7650800D02*
X18153060Y-7690800D01*
X18153060Y-7650800D02*
X18113060Y-7690800D01*
X18115600Y-8161340D02*
X18155600Y-8201340D01*
X18155600Y-8161340D02*
X18115600Y-8201340D01*
X19123980Y-6652580D02*
X19163980Y-6692580D01*
X19163980Y-6652580D02*
X19123980Y-6692580D01*
X19126520Y-6398580D02*
X19166520Y-6438580D01*
X19166520Y-6398580D02*
X19126520Y-6438580D01*
X19129060Y-6152200D02*
X19169060Y-6192200D01*
X19169060Y-6152200D02*
X19129060Y-6192200D01*
X19129720Y-5888700D02*
X19169720Y-5928700D01*
X19169720Y-5888700D02*
X19129720Y-5928700D01*
X19141760Y-8158800D02*
X19181760Y-8198800D01*
X19181760Y-8158800D02*
X19141760Y-8198800D01*
X19141760Y-8410260D02*
X19181760Y-8450260D01*
X19181760Y-8410260D02*
X19141760Y-8450260D01*
X19144300Y-7650800D02*
X19184300Y-7690800D01*
X19184300Y-7650800D02*
X19144300Y-7690800D01*
X19144300Y-7904800D02*
X19184300Y-7944800D01*
X19184300Y-7904800D02*
X19144300Y-7944800D01*
D13*
X10985500Y-9154160D02*
G75*
G03*
X10985500Y-9154160I-38100J0D01*
G01*
X10985500Y-10932160D02*
G75*
G03*
X10985500Y-10932160I-38100J0D01*
G01*
X10985500Y-11694160D02*
G75*
G03*
X10985500Y-11694160I-38100J0D01*
G01*
X10985500Y-13472160D02*
G75*
G03*
X10985500Y-13472160I-38100J0D01*
G01*
X11239500Y-9154160D02*
G75*
G03*
X11239500Y-9154160I-38100J0D01*
G01*
X11239500Y-10932160D02*
G75*
G03*
X11239500Y-10932160I-38100J0D01*
G01*
X11239500Y-11694160D02*
G75*
G03*
X11239500Y-11694160I-38100J0D01*
G01*
X11239500Y-13472160D02*
G75*
G03*
X11239500Y-13472160I-38100J0D01*
G01*
X11493500Y-9154160D02*
G75*
G03*
X11493500Y-9154160I-38100J0D01*
G01*
X11493500Y-10932160D02*
G75*
G03*
X11493500Y-10932160I-38100J0D01*
G01*
X11493500Y-11694160D02*
G75*
G03*
X11493500Y-11694160I-38100J0D01*
G01*
X11493500Y-13472160D02*
G75*
G03*
X11493500Y-13472160I-38100J0D01*
G01*
X11747500Y-9154160D02*
G75*
G03*
X11747500Y-9154160I-38100J0D01*
G01*
X11747500Y-10932160D02*
G75*
G03*
X11747500Y-10932160I-38100J0D01*
G01*
X11747500Y-11694160D02*
G75*
G03*
X11747500Y-11694160I-38100J0D01*
G01*
X11747500Y-13472160D02*
G75*
G03*
X11747500Y-13472160I-38100J0D01*
G01*
X12001500Y-9154160D02*
G75*
G03*
X12001500Y-9154160I-38100J0D01*
G01*
X12001500Y-10932160D02*
G75*
G03*
X12001500Y-10932160I-38100J0D01*
G01*
X12001500Y-11694160D02*
G75*
G03*
X12001500Y-11694160I-38100J0D01*
G01*
X12001500Y-13472160D02*
G75*
G03*
X12001500Y-13472160I-38100J0D01*
G01*
X12255500Y-9154160D02*
G75*
G03*
X12255500Y-9154160I-38100J0D01*
G01*
X12255500Y-10932160D02*
G75*
G03*
X12255500Y-10932160I-38100J0D01*
G01*
X12255500Y-11694160D02*
G75*
G03*
X12255500Y-11694160I-38100J0D01*
G01*
X12255500Y-13472160D02*
G75*
G03*
X12255500Y-13472160I-38100J0D01*
G01*
X12509500Y-9154160D02*
G75*
G03*
X12509500Y-9154160I-38100J0D01*
G01*
X12509500Y-10932160D02*
G75*
G03*
X12509500Y-10932160I-38100J0D01*
G01*
X12509500Y-11694160D02*
G75*
G03*
X12509500Y-11694160I-38100J0D01*
G01*
X12509500Y-13472160D02*
G75*
G03*
X12509500Y-13472160I-38100J0D01*
G01*
X12763500Y-9154160D02*
G75*
G03*
X12763500Y-9154160I-38100J0D01*
G01*
X12763500Y-10932160D02*
G75*
G03*
X12763500Y-10932160I-38100J0D01*
G01*
X12763500Y-11694160D02*
G75*
G03*
X12763500Y-11694160I-38100J0D01*
G01*
X12763500Y-13472160D02*
G75*
G03*
X12763500Y-13472160I-38100J0D01*
G01*
X13017500Y-9154160D02*
G75*
G03*
X13017500Y-9154160I-38100J0D01*
G01*
X13017500Y-10932160D02*
G75*
G03*
X13017500Y-10932160I-38100J0D01*
G01*
X13017500Y-11694160D02*
G75*
G03*
X13017500Y-11694160I-38100J0D01*
G01*
X13017500Y-13472160D02*
G75*
G03*
X13017500Y-13472160I-38100J0D01*
G01*
X13271500Y-9154160D02*
G75*
G03*
X13271500Y-9154160I-38100J0D01*
G01*
X13271500Y-10932160D02*
G75*
G03*
X13271500Y-10932160I-38100J0D01*
G01*
X13271500Y-11694160D02*
G75*
G03*
X13271500Y-11694160I-38100J0D01*
G01*
X13271500Y-13472160D02*
G75*
G03*
X13271500Y-13472160I-38100J0D01*
G01*
X13525500Y-9154160D02*
G75*
G03*
X13525500Y-9154160I-38100J0D01*
G01*
X13525500Y-10932160D02*
G75*
G03*
X13525500Y-10932160I-38100J0D01*
G01*
X13525500Y-11694160D02*
G75*
G03*
X13525500Y-11694160I-38100J0D01*
G01*
X13525500Y-13472160D02*
G75*
G03*
X13525500Y-13472160I-38100J0D01*
G01*
X13779500Y-9154160D02*
G75*
G03*
X13779500Y-9154160I-38100J0D01*
G01*
X13779500Y-10932160D02*
G75*
G03*
X13779500Y-10932160I-38100J0D01*
G01*
X13779500Y-11694160D02*
G75*
G03*
X13779500Y-11694160I-38100J0D01*
G01*
X13779500Y-13472160D02*
G75*
G03*
X13779500Y-13472160I-38100J0D01*
G01*
X14033500Y-9154160D02*
G75*
G03*
X14033500Y-9154160I-38100J0D01*
G01*
X14033500Y-10932160D02*
G75*
G03*
X14033500Y-10932160I-38100J0D01*
G01*
X14033500Y-11694160D02*
G75*
G03*
X14033500Y-11694160I-38100J0D01*
G01*
X14033500Y-13472160D02*
G75*
G03*
X14033500Y-13472160I-38100J0D01*
G01*
X14287500Y-9154160D02*
G75*
G03*
X14287500Y-9154160I-38100J0D01*
G01*
X14287500Y-10932160D02*
G75*
G03*
X14287500Y-10932160I-38100J0D01*
G01*
X14287500Y-11694160D02*
G75*
G03*
X14287500Y-11694160I-38100J0D01*
G01*
X14287500Y-13472160D02*
G75*
G03*
X14287500Y-13472160I-38100J0D01*
G01*
X14541500Y-9154160D02*
G75*
G03*
X14541500Y-9154160I-38100J0D01*
G01*
X14541500Y-10932160D02*
G75*
G03*
X14541500Y-10932160I-38100J0D01*
G01*
X14541500Y-11694160D02*
G75*
G03*
X14541500Y-11694160I-38100J0D01*
G01*
X14541500Y-13472160D02*
G75*
G03*
X14541500Y-13472160I-38100J0D01*
G01*
X14795500Y-9154160D02*
G75*
G03*
X14795500Y-9154160I-38100J0D01*
G01*
X14795500Y-10932160D02*
G75*
G03*
X14795500Y-10932160I-38100J0D01*
G01*
X14795500Y-11694160D02*
G75*
G03*
X14795500Y-11694160I-38100J0D01*
G01*
X14795500Y-13472160D02*
G75*
G03*
X14795500Y-13472160I-38100J0D01*
G01*
X15049500Y-9154160D02*
G75*
G03*
X15049500Y-9154160I-38100J0D01*
G01*
X15049500Y-10932160D02*
G75*
G03*
X15049500Y-10932160I-38100J0D01*
G01*
X15049500Y-11694160D02*
G75*
G03*
X15049500Y-11694160I-38100J0D01*
G01*
X15049500Y-13472160D02*
G75*
G03*
X15049500Y-13472160I-38100J0D01*
G01*
X15303500Y-9154160D02*
G75*
G03*
X15303500Y-9154160I-38100J0D01*
G01*
X15303500Y-10932160D02*
G75*
G03*
X15303500Y-10932160I-38100J0D01*
G01*
X15303500Y-11694160D02*
G75*
G03*
X15303500Y-11694160I-38100J0D01*
G01*
X15303500Y-13472160D02*
G75*
G03*
X15303500Y-13472160I-38100J0D01*
G01*
X15557500Y-9154160D02*
G75*
G03*
X15557500Y-9154160I-38100J0D01*
G01*
X15557500Y-10932160D02*
G75*
G03*
X15557500Y-10932160I-38100J0D01*
G01*
X15557500Y-11694160D02*
G75*
G03*
X15557500Y-11694160I-38100J0D01*
G01*
X15557500Y-13472160D02*
G75*
G03*
X15557500Y-13472160I-38100J0D01*
G01*
X15811500Y-9154160D02*
G75*
G03*
X15811500Y-9154160I-38100J0D01*
G01*
X15811500Y-10932160D02*
G75*
G03*
X15811500Y-10932160I-38100J0D01*
G01*
X15811500Y-11694160D02*
G75*
G03*
X15811500Y-11694160I-38100J0D01*
G01*
X15811500Y-13472160D02*
G75*
G03*
X15811500Y-13472160I-38100J0D01*
G01*
D10*
X11052400Y-11271160D02*
X11052400Y-11371160D01*
X11002400Y-11321160D02*
X11102400Y-11321160D01*
X11306400Y-11271160D02*
X11306400Y-11371160D01*
X11256400Y-11321160D02*
X11356400Y-11321160D01*
X11455400Y-8586660D02*
X11455400Y-8686660D01*
X11405400Y-8636660D02*
X11505400Y-8636660D01*
X11706400Y-8586660D02*
X11706400Y-8686660D01*
X11656400Y-8636660D02*
X11756400Y-8636660D01*
X11960400Y-8586660D02*
X11960400Y-8686660D01*
X11910400Y-8636660D02*
X12010400Y-8636660D01*
X12214400Y-8586660D02*
X12214400Y-8686660D01*
X12164400Y-8636660D02*
X12264400Y-8636660D01*
X12468400Y-6554660D02*
X12468400Y-6654660D01*
X12418400Y-6604660D02*
X12518400Y-6604660D01*
X12468400Y-8586660D02*
X12468400Y-8686660D01*
X12418400Y-8636660D02*
X12518400Y-8636660D01*
X12722400Y-6554660D02*
X12722400Y-6654660D01*
X12672400Y-6604660D02*
X12772400Y-6604660D01*
X12722400Y-8586660D02*
X12722400Y-8686660D01*
X12672400Y-8636660D02*
X12772400Y-8636660D01*
X12976400Y-6554660D02*
X12976400Y-6654660D01*
X12926400Y-6604660D02*
X13026400Y-6604660D01*
X12976400Y-8586660D02*
X12976400Y-8686660D01*
X12926400Y-8636660D02*
X13026400Y-8636660D01*
X13173400Y-4355160D02*
X13173400Y-4455160D01*
X13123400Y-4405160D02*
X13223400Y-4405160D01*
X13173400Y-4609160D02*
X13173400Y-4709160D01*
X13123400Y-4659160D02*
X13223400Y-4659160D01*
X13173400Y-4863160D02*
X13173400Y-4963160D01*
X13123400Y-4913160D02*
X13223400Y-4913160D01*
X13173400Y-5117160D02*
X13173400Y-5217160D01*
X13123400Y-5167160D02*
X13223400Y-5167160D01*
X13230400Y-6554660D02*
X13230400Y-6654660D01*
X13180400Y-6604660D02*
X13280400Y-6604660D01*
X13230400Y-8586660D02*
X13230400Y-8686660D01*
X13180400Y-8636660D02*
X13280400Y-8636660D01*
X13484400Y-6554660D02*
X13484400Y-6654660D01*
X13434400Y-6604660D02*
X13534400Y-6604660D01*
X13484400Y-8586660D02*
X13484400Y-8686660D01*
X13434400Y-8636660D02*
X13534400Y-8636660D01*
X13738400Y-6554660D02*
X13738400Y-6654660D01*
X13688400Y-6604660D02*
X13788400Y-6604660D01*
X13738400Y-8586660D02*
X13738400Y-8686660D01*
X13688400Y-8636660D02*
X13788400Y-8636660D01*
X13992400Y-6554660D02*
X13992400Y-6654660D01*
X13942400Y-6604660D02*
X14042400Y-6604660D01*
X13992400Y-8586660D02*
X13992400Y-8686660D01*
X13942400Y-8636660D02*
X14042400Y-8636660D01*
X14246400Y-6554660D02*
X14246400Y-6654660D01*
X14196400Y-6604660D02*
X14296400Y-6604660D01*
X14246400Y-8586660D02*
X14246400Y-8686660D01*
X14196400Y-8636660D02*
X14296400Y-8636660D01*
X14500400Y-6554660D02*
X14500400Y-6654660D01*
X14450400Y-6604660D02*
X14550400Y-6604660D01*
X14500400Y-8586660D02*
X14500400Y-8686660D01*
X14450400Y-8636660D02*
X14550400Y-8636660D01*
X14754400Y-6554660D02*
X14754400Y-6654660D01*
X14704400Y-6604660D02*
X14804400Y-6604660D01*
X14754400Y-8586660D02*
X14754400Y-8686660D01*
X14704400Y-8636660D02*
X14804400Y-8636660D01*
X15008400Y-6554660D02*
X15008400Y-6654660D01*
X14958400Y-6604660D02*
X15058400Y-6604660D01*
X15008400Y-8586660D02*
X15008400Y-8686660D01*
X14958400Y-8636660D02*
X15058400Y-8636660D01*
X15262400Y-6554660D02*
X15262400Y-6654660D01*
X15212400Y-6604660D02*
X15312400Y-6604660D01*
X15262400Y-8586660D02*
X15262400Y-8686660D01*
X15212400Y-8636660D02*
X15312400Y-8636660D01*
X17449800Y-14450860D02*
X17449800Y-14550860D01*
X17399800Y-14500860D02*
X17499800Y-14500860D01*
X17449800Y-14704860D02*
X17449800Y-14804860D01*
X17399800Y-14754860D02*
X17499800Y-14754860D01*
X17703800Y-14450860D02*
X17703800Y-14550860D01*
X17653800Y-14500860D02*
X17753800Y-14500860D01*
X17703800Y-14704860D02*
X17703800Y-14804860D01*
X17653800Y-14754860D02*
X17753800Y-14754860D01*
X17957800Y-14450860D02*
X17957800Y-14550860D01*
X17907800Y-14500860D02*
X18007800Y-14500860D01*
X17957800Y-14704860D02*
X17957800Y-14804860D01*
X17907800Y-14754860D02*
X18007800Y-14754860D01*
X18211800Y-14450860D02*
X18211800Y-14550860D01*
X18161800Y-14500860D02*
X18261800Y-14500860D01*
X18211800Y-14704860D02*
X18211800Y-14804860D01*
X18161800Y-14754860D02*
X18261800Y-14754860D01*
X18465800Y-14450860D02*
X18465800Y-14550860D01*
X18415800Y-14500860D02*
X18515800Y-14500860D01*
X18465800Y-14704860D02*
X18465800Y-14804860D01*
X18415800Y-14754860D02*
X18515800Y-14754860D01*
X18495700Y-9913340D02*
X18495700Y-10013340D01*
X18445700Y-9963340D02*
X18545700Y-9963340D01*
X18495700Y-10167340D02*
X18495700Y-10267340D01*
X18445700Y-10217340D02*
X18545700Y-10217340D01*
X18495700Y-10421340D02*
X18495700Y-10521340D01*
X18445700Y-10471340D02*
X18545700Y-10471340D01*
X18495700Y-10675340D02*
X18495700Y-10775340D01*
X18445700Y-10725340D02*
X18545700Y-10725340D01*
X18495700Y-13041160D02*
X18495700Y-13141160D01*
X18445700Y-13091160D02*
X18545700Y-13091160D01*
X18495700Y-13295160D02*
X18495700Y-13395160D01*
X18445700Y-13345160D02*
X18545700Y-13345160D01*
X18495700Y-13549160D02*
X18495700Y-13649160D01*
X18445700Y-13599160D02*
X18545700Y-13599160D01*
X18495700Y-13803160D02*
X18495700Y-13903160D01*
X18445700Y-13853160D02*
X18545700Y-13853160D01*
X18497200Y-5741200D02*
X18497200Y-5841200D01*
X18447200Y-5791200D02*
X18547200Y-5791200D01*
X18497200Y-5995200D02*
X18497200Y-6095200D01*
X18447200Y-6045200D02*
X18547200Y-6045200D01*
X18497200Y-6249200D02*
X18497200Y-6349200D01*
X18447200Y-6299200D02*
X18547200Y-6299200D01*
X18497200Y-6503200D02*
X18497200Y-6603200D01*
X18447200Y-6553200D02*
X18547200Y-6553200D01*
X18497200Y-6907060D02*
X18497200Y-7007060D01*
X18447200Y-6957060D02*
X18547200Y-6957060D01*
X18497200Y-7495800D02*
X18497200Y-7595800D01*
X18447200Y-7545800D02*
X18547200Y-7545800D01*
X18497200Y-7749800D02*
X18497200Y-7849800D01*
X18447200Y-7799800D02*
X18547200Y-7799800D01*
X18497200Y-8003800D02*
X18497200Y-8103800D01*
X18447200Y-8053800D02*
X18547200Y-8053800D01*
X18497200Y-8257800D02*
X18497200Y-8357800D01*
X18447200Y-8307800D02*
X18547200Y-8307800D01*
X18497200Y-8638800D02*
X18497200Y-8738800D01*
X18447200Y-8688800D02*
X18547200Y-8688800D01*
X18497200Y-9066020D02*
X18497200Y-9166020D01*
X18447200Y-9116020D02*
X18547200Y-9116020D01*
X18497200Y-9320020D02*
X18497200Y-9420020D01*
X18447200Y-9370020D02*
X18547200Y-9370020D01*
X18749700Y-9913340D02*
X18749700Y-10013340D01*
X18699700Y-9963340D02*
X18799700Y-9963340D01*
X18749700Y-10167340D02*
X18749700Y-10267340D01*
X18699700Y-10217340D02*
X18799700Y-10217340D01*
X18749700Y-10421340D02*
X18749700Y-10521340D01*
X18699700Y-10471340D02*
X18799700Y-10471340D01*
X18749700Y-10675340D02*
X18749700Y-10775340D01*
X18699700Y-10725340D02*
X18799700Y-10725340D01*
X18749700Y-13041160D02*
X18749700Y-13141160D01*
X18699700Y-13091160D02*
X18799700Y-13091160D01*
X18749700Y-13295160D02*
X18749700Y-13395160D01*
X18699700Y-13345160D02*
X18799700Y-13345160D01*
X18749700Y-13549160D02*
X18749700Y-13649160D01*
X18699700Y-13599160D02*
X18799700Y-13599160D01*
X18749700Y-13803160D02*
X18749700Y-13903160D01*
X18699700Y-13853160D02*
X18799700Y-13853160D01*
X18751200Y-5741200D02*
X18751200Y-5841200D01*
X18701200Y-5791200D02*
X18801200Y-5791200D01*
X18751200Y-5995200D02*
X18751200Y-6095200D01*
X18701200Y-6045200D02*
X18801200Y-6045200D01*
X18751200Y-6249200D02*
X18751200Y-6349200D01*
X18701200Y-6299200D02*
X18801200Y-6299200D01*
X18751200Y-6503200D02*
X18751200Y-6603200D01*
X18701200Y-6553200D02*
X18801200Y-6553200D01*
X18751200Y-6907060D02*
X18751200Y-7007060D01*
X18701200Y-6957060D02*
X18801200Y-6957060D01*
X18751200Y-7495800D02*
X18751200Y-7595800D01*
X18701200Y-7545800D02*
X18801200Y-7545800D01*
X18751200Y-7749800D02*
X18751200Y-7849800D01*
X18701200Y-7799800D02*
X18801200Y-7799800D01*
X18751200Y-8003800D02*
X18751200Y-8103800D01*
X18701200Y-8053800D02*
X18801200Y-8053800D01*
X18751200Y-8257800D02*
X18751200Y-8357800D01*
X18701200Y-8307800D02*
X18801200Y-8307800D01*
X18751200Y-8638800D02*
X18751200Y-8738800D01*
X18701200Y-8688800D02*
X18801200Y-8688800D01*
X18751200Y-9066020D02*
X18751200Y-9166020D01*
X18701200Y-9116020D02*
X18801200Y-9116020D01*
X18751200Y-9320020D02*
X18751200Y-9420020D01*
X18701200Y-9370020D02*
X18801200Y-9370020D01*
X19003700Y-9913340D02*
X19003700Y-10013340D01*
X18953700Y-9963340D02*
X19053700Y-9963340D01*
X19003700Y-10167340D02*
X19003700Y-10267340D01*
X18953700Y-10217340D02*
X19053700Y-10217340D01*
X19003700Y-10421340D02*
X19003700Y-10521340D01*
X18953700Y-10471340D02*
X19053700Y-10471340D01*
X19003700Y-10675340D02*
X19003700Y-10775340D01*
X18953700Y-10725340D02*
X19053700Y-10725340D01*
X19003700Y-13041160D02*
X19003700Y-13141160D01*
X18953700Y-13091160D02*
X19053700Y-13091160D01*
X19003700Y-13295160D02*
X19003700Y-13395160D01*
X18953700Y-13345160D02*
X19053700Y-13345160D01*
X19003700Y-13549160D02*
X19003700Y-13649160D01*
X18953700Y-13599160D02*
X19053700Y-13599160D01*
X19003700Y-13803160D02*
X19003700Y-13903160D01*
X18953700Y-13853160D02*
X19053700Y-13853160D01*
X19005200Y-5741200D02*
X19005200Y-5841200D01*
X18955200Y-5791200D02*
X19055200Y-5791200D01*
X19005200Y-5995200D02*
X19005200Y-6095200D01*
X18955200Y-6045200D02*
X19055200Y-6045200D01*
X19005200Y-6249200D02*
X19005200Y-6349200D01*
X18955200Y-6299200D02*
X19055200Y-6299200D01*
X19005200Y-6503200D02*
X19005200Y-6603200D01*
X18955200Y-6553200D02*
X19055200Y-6553200D01*
X19005200Y-6907060D02*
X19005200Y-7007060D01*
X18955200Y-6957060D02*
X19055200Y-6957060D01*
X19005200Y-7495800D02*
X19005200Y-7595800D01*
X18955200Y-7545800D02*
X19055200Y-7545800D01*
X19005200Y-7749800D02*
X19005200Y-7849800D01*
X18955200Y-7799800D02*
X19055200Y-7799800D01*
X19005200Y-8003800D02*
X19005200Y-8103800D01*
X18955200Y-8053800D02*
X19055200Y-8053800D01*
X19005200Y-8257800D02*
X19005200Y-8357800D01*
X18955200Y-8307800D02*
X19055200Y-8307800D01*
X19005200Y-8638800D02*
X19005200Y-8738800D01*
X18955200Y-8688800D02*
X19055200Y-8688800D01*
X19005200Y-9066020D02*
X19005200Y-9166020D01*
X18955200Y-9116020D02*
X19055200Y-9116020D01*
X19005200Y-9320020D02*
X19005200Y-9420020D01*
X18955200Y-9370020D02*
X19055200Y-9370020D01*
D14*
X17690624Y-4683284D02*
X17690624Y-4609037D01*
X17616377Y-4609037D01*
X17616377Y-4683284D01*
X17690624Y-4683284D01*
X18040624Y-5183284D02*
X18040624Y-5109037D01*
X17966377Y-5109037D01*
X17966377Y-5183284D01*
X18040624Y-5183284D01*
X18390624Y-4683284D02*
X18390624Y-4609037D01*
X18316377Y-4609037D01*
X18316377Y-4683284D01*
X18390624Y-4683284D01*
D15*
X10911400Y-5547460D02*
X10966400Y-5492460D01*
X10911400Y-5437460D01*
X10856400Y-5492460D01*
X10911400Y-5547460D01*
X11411400Y-5197460D02*
X11466400Y-5142460D01*
X11411400Y-5087460D01*
X11356400Y-5142460D01*
X11411400Y-5197460D01*
X13680100Y-4751000D02*
X13735100Y-4696000D01*
X13680100Y-4641000D01*
X13625100Y-4696000D01*
X13680100Y-4751000D01*
X14030100Y-5251000D02*
X14085100Y-5196000D01*
X14030100Y-5141000D01*
X13975100Y-5196000D01*
X14030100Y-5251000D01*
X18249700Y-12609700D02*
X18304700Y-12554700D01*
X18249700Y-12499700D01*
X18194700Y-12554700D01*
X18249700Y-12609700D01*
X18749700Y-12259700D02*
X18804700Y-12204700D01*
X18749700Y-12149700D01*
X18694700Y-12204700D01*
X18749700Y-12259700D01*
D16*
X10696400Y-4411160D02*
X10916400Y-4631160D01*
X10916400Y-4411160D02*
X10696400Y-4631160D01*
X10916400Y-4521160D02*
G75*
G03*
X10916400Y-4521160I-110000J0D01*
G01*
X10696400Y-14611160D02*
X10916400Y-14831160D01*
X10916400Y-14611160D02*
X10696400Y-14831160D01*
X10916400Y-14721160D02*
G75*
G03*
X10916400Y-14721160I-110000J0D01*
G01*
X18996400Y-4411160D02*
X19216400Y-4631160D01*
X19216400Y-4411160D02*
X18996400Y-4631160D01*
X19216400Y-4521160D02*
G75*
G03*
X19216400Y-4521160I-110000J0D01*
G01*
X18996400Y-14611160D02*
X19216400Y-14831160D01*
X19216400Y-14611160D02*
X18996400Y-14831160D01*
X19216400Y-14721160D02*
G75*
G03*
X19216400Y-14721160I-110000J0D01*
G01*
D11*
X10659019Y-15436636D02*
X10659019Y-15236636D01*
X10706638Y-15236636D01*
X10735210Y-15246160D01*
X10754257Y-15265208D01*
X10763781Y-15284255D01*
X10773305Y-15322350D01*
X10773305Y-15350922D01*
X10763781Y-15389017D01*
X10754257Y-15408065D01*
X10735210Y-15427112D01*
X10706638Y-15436636D01*
X10659019Y-15436636D01*
X10859019Y-15436636D02*
X10859019Y-15303303D01*
X10859019Y-15341398D02*
X10868543Y-15322350D01*
X10878067Y-15312827D01*
X10897114Y-15303303D01*
X10916162Y-15303303D01*
X10982829Y-15436636D02*
X10982829Y-15303303D01*
X10982829Y-15236636D02*
X10973305Y-15246160D01*
X10982829Y-15255684D01*
X10992352Y-15246160D01*
X10982829Y-15236636D01*
X10982829Y-15255684D01*
X11106638Y-15436636D02*
X11087590Y-15427112D01*
X11078067Y-15408065D01*
X11078067Y-15236636D01*
X11211400Y-15436636D02*
X11192352Y-15427112D01*
X11182829Y-15408065D01*
X11182829Y-15236636D01*
X11439971Y-15436636D02*
X11439971Y-15236636D01*
X11506638Y-15379493D01*
X11573305Y-15236636D01*
X11573305Y-15436636D01*
X11754257Y-15436636D02*
X11754257Y-15331874D01*
X11744733Y-15312827D01*
X11725686Y-15303303D01*
X11687590Y-15303303D01*
X11668543Y-15312827D01*
X11754257Y-15427112D02*
X11735209Y-15436636D01*
X11687590Y-15436636D01*
X11668543Y-15427112D01*
X11659019Y-15408065D01*
X11659019Y-15389017D01*
X11668543Y-15369969D01*
X11687590Y-15360446D01*
X11735209Y-15360446D01*
X11754257Y-15350922D01*
X11849495Y-15303303D02*
X11849495Y-15503303D01*
X11849495Y-15312827D02*
X11868543Y-15303303D01*
X11906638Y-15303303D01*
X11925686Y-15312827D01*
X11935209Y-15322350D01*
X11944733Y-15341398D01*
X11944733Y-15398541D01*
X11935209Y-15417588D01*
X11925686Y-15427112D01*
X11906638Y-15436636D01*
X11868543Y-15436636D01*
X11849495Y-15427112D01*
X12030448Y-15417588D02*
X12039971Y-15427112D01*
X12030448Y-15436636D01*
X12020924Y-15427112D01*
X12030448Y-15417588D01*
X12030448Y-15436636D01*
X12030448Y-15312827D02*
X12039971Y-15322350D01*
X12030448Y-15331874D01*
X12020924Y-15322350D01*
X12030448Y-15312827D01*
X12030448Y-15331874D01*
D12*
X10361400Y-15746160D02*
X10401400Y-15786160D01*
X10401400Y-15746160D02*
X10361400Y-15786160D01*
D11*
X10697114Y-15656636D02*
X10716162Y-15656636D01*
X10735210Y-15666160D01*
X10744733Y-15675684D01*
X10754257Y-15694731D01*
X10763781Y-15732827D01*
X10763781Y-15780446D01*
X10754257Y-15818541D01*
X10744733Y-15837588D01*
X10735210Y-15847112D01*
X10716162Y-15856636D01*
X10697114Y-15856636D01*
X10678067Y-15847112D01*
X10668543Y-15837588D01*
X10659019Y-15818541D01*
X10649495Y-15780446D01*
X10649495Y-15732827D01*
X10659019Y-15694731D01*
X10668543Y-15675684D01*
X10678067Y-15666160D01*
X10697114Y-15656636D01*
X10849495Y-15837588D02*
X10859019Y-15847112D01*
X10849495Y-15856636D01*
X10839971Y-15847112D01*
X10849495Y-15837588D01*
X10849495Y-15856636D01*
X11030448Y-15723303D02*
X11030448Y-15856636D01*
X10982829Y-15647112D02*
X10935210Y-15789969D01*
X11059019Y-15789969D01*
X11173305Y-15656636D02*
X11192352Y-15656636D01*
X11211400Y-15666160D01*
X11220924Y-15675684D01*
X11230448Y-15694731D01*
X11239971Y-15732827D01*
X11239971Y-15780446D01*
X11230448Y-15818541D01*
X11220924Y-15837588D01*
X11211400Y-15847112D01*
X11192352Y-15856636D01*
X11173305Y-15856636D01*
X11154257Y-15847112D01*
X11144733Y-15837588D01*
X11135210Y-15818541D01*
X11125686Y-15780446D01*
X11125686Y-15732827D01*
X11135210Y-15694731D01*
X11144733Y-15675684D01*
X11154257Y-15666160D01*
X11173305Y-15656636D01*
X11363781Y-15656636D02*
X11382828Y-15656636D01*
X11401876Y-15666160D01*
X11411400Y-15675684D01*
X11420924Y-15694731D01*
X11430448Y-15732827D01*
X11430448Y-15780446D01*
X11420924Y-15818541D01*
X11411400Y-15837588D01*
X11401876Y-15847112D01*
X11382828Y-15856636D01*
X11363781Y-15856636D01*
X11344733Y-15847112D01*
X11335209Y-15837588D01*
X11325686Y-15818541D01*
X11316162Y-15780446D01*
X11316162Y-15732827D01*
X11325686Y-15694731D01*
X11335209Y-15675684D01*
X11344733Y-15666160D01*
X11363781Y-15656636D01*
X11516162Y-15856636D02*
X11516162Y-15723303D01*
X11516162Y-15742350D02*
X11525686Y-15732827D01*
X11544733Y-15723303D01*
X11573305Y-15723303D01*
X11592352Y-15732827D01*
X11601876Y-15751874D01*
X11601876Y-15856636D01*
X11601876Y-15751874D02*
X11611400Y-15732827D01*
X11630448Y-15723303D01*
X11659019Y-15723303D01*
X11678067Y-15732827D01*
X11687590Y-15751874D01*
X11687590Y-15856636D01*
X11782828Y-15856636D02*
X11782828Y-15723303D01*
X11782828Y-15742350D02*
X11792352Y-15732827D01*
X11811400Y-15723303D01*
X11839971Y-15723303D01*
X11859019Y-15732827D01*
X11868543Y-15751874D01*
X11868543Y-15856636D01*
X11868543Y-15751874D02*
X11878067Y-15732827D01*
X11897114Y-15723303D01*
X11925686Y-15723303D01*
X11944733Y-15732827D01*
X11954257Y-15751874D01*
X11954257Y-15856636D01*
X12344733Y-15647112D02*
X12173305Y-15904255D01*
X12601876Y-15656636D02*
X12620924Y-15656636D01*
X12639971Y-15666160D01*
X12649495Y-15675684D01*
X12659019Y-15694731D01*
X12668543Y-15732827D01*
X12668543Y-15780446D01*
X12659019Y-15818541D01*
X12649495Y-15837588D01*
X12639971Y-15847112D01*
X12620924Y-15856636D01*
X12601876Y-15856636D01*
X12582828Y-15847112D01*
X12573305Y-15837588D01*
X12563781Y-15818541D01*
X12554257Y-15780446D01*
X12554257Y-15732827D01*
X12563781Y-15694731D01*
X12573305Y-15675684D01*
X12582828Y-15666160D01*
X12601876Y-15656636D01*
X12754257Y-15837588D02*
X12763781Y-15847112D01*
X12754257Y-15856636D01*
X12744733Y-15847112D01*
X12754257Y-15837588D01*
X12754257Y-15856636D01*
X12887590Y-15656636D02*
X12906638Y-15656636D01*
X12925686Y-15666160D01*
X12935209Y-15675684D01*
X12944733Y-15694731D01*
X12954257Y-15732827D01*
X12954257Y-15780446D01*
X12944733Y-15818541D01*
X12935209Y-15837588D01*
X12925686Y-15847112D01*
X12906638Y-15856636D01*
X12887590Y-15856636D01*
X12868543Y-15847112D01*
X12859019Y-15837588D01*
X12849495Y-15818541D01*
X12839971Y-15780446D01*
X12839971Y-15732827D01*
X12849495Y-15694731D01*
X12859019Y-15675684D01*
X12868543Y-15666160D01*
X12887590Y-15656636D01*
X13144733Y-15856636D02*
X13030448Y-15856636D01*
X13087590Y-15856636D02*
X13087590Y-15656636D01*
X13068543Y-15685208D01*
X13049495Y-15704255D01*
X13030448Y-15713779D01*
X13325686Y-15656636D02*
X13230448Y-15656636D01*
X13220924Y-15751874D01*
X13230448Y-15742350D01*
X13249495Y-15732827D01*
X13297114Y-15732827D01*
X13316162Y-15742350D01*
X13325686Y-15751874D01*
X13335209Y-15770922D01*
X13335209Y-15818541D01*
X13325686Y-15837588D01*
X13316162Y-15847112D01*
X13297114Y-15856636D01*
X13249495Y-15856636D01*
X13230448Y-15847112D01*
X13220924Y-15837588D01*
X13401876Y-15656636D02*
X13535209Y-15656636D01*
X13449495Y-15856636D01*
X13601876Y-15656636D02*
X13601876Y-15694731D01*
X13678067Y-15656636D02*
X13678067Y-15694731D01*
X13973305Y-15932827D02*
X13963781Y-15923303D01*
X13944733Y-15894731D01*
X13935209Y-15875684D01*
X13925686Y-15847112D01*
X13916162Y-15799493D01*
X13916162Y-15761398D01*
X13925686Y-15713779D01*
X13935209Y-15685208D01*
X13944733Y-15666160D01*
X13963781Y-15637588D01*
X13973305Y-15628065D01*
X14154257Y-15856636D02*
X14039971Y-15856636D01*
X14097114Y-15856636D02*
X14097114Y-15656636D01*
X14078067Y-15685208D01*
X14059019Y-15704255D01*
X14039971Y-15713779D01*
X14268543Y-15742350D02*
X14249495Y-15732827D01*
X14239971Y-15723303D01*
X14230448Y-15704255D01*
X14230448Y-15694731D01*
X14239971Y-15675684D01*
X14249495Y-15666160D01*
X14268543Y-15656636D01*
X14306638Y-15656636D01*
X14325686Y-15666160D01*
X14335209Y-15675684D01*
X14344733Y-15694731D01*
X14344733Y-15704255D01*
X14335209Y-15723303D01*
X14325686Y-15732827D01*
X14306638Y-15742350D01*
X14268543Y-15742350D01*
X14249495Y-15751874D01*
X14239971Y-15761398D01*
X14230448Y-15780446D01*
X14230448Y-15818541D01*
X14239971Y-15837588D01*
X14249495Y-15847112D01*
X14268543Y-15856636D01*
X14306638Y-15856636D01*
X14325686Y-15847112D01*
X14335209Y-15837588D01*
X14344733Y-15818541D01*
X14344733Y-15780446D01*
X14335209Y-15761398D01*
X14325686Y-15751874D01*
X14306638Y-15742350D01*
X14439971Y-15856636D02*
X14478067Y-15856636D01*
X14497114Y-15847112D01*
X14506638Y-15837588D01*
X14525686Y-15809017D01*
X14535209Y-15770922D01*
X14535209Y-15694731D01*
X14525686Y-15675684D01*
X14516162Y-15666160D01*
X14497114Y-15656636D01*
X14459019Y-15656636D01*
X14439971Y-15666160D01*
X14430448Y-15675684D01*
X14420924Y-15694731D01*
X14420924Y-15742350D01*
X14430448Y-15761398D01*
X14439971Y-15770922D01*
X14459019Y-15780446D01*
X14497114Y-15780446D01*
X14516162Y-15770922D01*
X14525686Y-15761398D01*
X14535209Y-15742350D01*
X14773305Y-15856636D02*
X14773305Y-15656636D01*
X14859019Y-15856636D02*
X14859019Y-15751874D01*
X14849495Y-15732827D01*
X14830448Y-15723303D01*
X14801876Y-15723303D01*
X14782828Y-15732827D01*
X14773305Y-15742350D01*
X14982828Y-15856636D02*
X14963781Y-15847112D01*
X14954257Y-15837588D01*
X14944733Y-15818541D01*
X14944733Y-15761398D01*
X14954257Y-15742350D01*
X14963781Y-15732827D01*
X14982828Y-15723303D01*
X15011400Y-15723303D01*
X15030448Y-15732827D01*
X15039971Y-15742350D01*
X15049495Y-15761398D01*
X15049495Y-15818541D01*
X15039971Y-15837588D01*
X15030448Y-15847112D01*
X15011400Y-15856636D01*
X14982828Y-15856636D01*
X15163781Y-15856636D02*
X15144733Y-15847112D01*
X15135209Y-15828065D01*
X15135209Y-15656636D01*
X15316162Y-15847112D02*
X15297114Y-15856636D01*
X15259019Y-15856636D01*
X15239971Y-15847112D01*
X15230448Y-15828065D01*
X15230448Y-15751874D01*
X15239971Y-15732827D01*
X15259019Y-15723303D01*
X15297114Y-15723303D01*
X15316162Y-15732827D01*
X15325686Y-15751874D01*
X15325686Y-15770922D01*
X15230448Y-15789969D01*
X15401876Y-15847112D02*
X15420924Y-15856636D01*
X15459019Y-15856636D01*
X15478067Y-15847112D01*
X15487590Y-15828065D01*
X15487590Y-15818541D01*
X15478067Y-15799493D01*
X15459019Y-15789969D01*
X15430448Y-15789969D01*
X15411400Y-15780446D01*
X15401876Y-15761398D01*
X15401876Y-15751874D01*
X15411400Y-15732827D01*
X15430448Y-15723303D01*
X15459019Y-15723303D01*
X15478067Y-15732827D01*
X15554257Y-15932827D02*
X15563781Y-15923303D01*
X15582828Y-15894731D01*
X15592352Y-15875684D01*
X15601876Y-15847112D01*
X15611400Y-15799493D01*
X15611400Y-15761398D01*
X15601876Y-15713779D01*
X15592352Y-15685208D01*
X15582828Y-15666160D01*
X15563781Y-15637588D01*
X15554257Y-15628065D01*
D13*
X10401400Y-16030160D02*
G75*
G03*
X10401400Y-16030160I-38100J0D01*
G01*
D11*
X10697114Y-15920636D02*
X10716162Y-15920636D01*
X10735210Y-15930160D01*
X10744733Y-15939684D01*
X10754257Y-15958731D01*
X10763781Y-15996827D01*
X10763781Y-16044446D01*
X10754257Y-16082541D01*
X10744733Y-16101588D01*
X10735210Y-16111112D01*
X10716162Y-16120636D01*
X10697114Y-16120636D01*
X10678067Y-16111112D01*
X10668543Y-16101588D01*
X10659019Y-16082541D01*
X10649495Y-16044446D01*
X10649495Y-15996827D01*
X10659019Y-15958731D01*
X10668543Y-15939684D01*
X10678067Y-15930160D01*
X10697114Y-15920636D01*
X10849495Y-16101588D02*
X10859019Y-16111112D01*
X10849495Y-16120636D01*
X10839971Y-16111112D01*
X10849495Y-16101588D01*
X10849495Y-16120636D01*
X10925686Y-15920636D02*
X11059019Y-15920636D01*
X10973305Y-16120636D01*
X11220924Y-15920636D02*
X11182829Y-15920636D01*
X11163781Y-15930160D01*
X11154257Y-15939684D01*
X11135210Y-15968255D01*
X11125686Y-16006350D01*
X11125686Y-16082541D01*
X11135210Y-16101588D01*
X11144733Y-16111112D01*
X11163781Y-16120636D01*
X11201876Y-16120636D01*
X11220924Y-16111112D01*
X11230448Y-16101588D01*
X11239971Y-16082541D01*
X11239971Y-16034922D01*
X11230448Y-16015874D01*
X11220924Y-16006350D01*
X11201876Y-15996827D01*
X11163781Y-15996827D01*
X11144733Y-16006350D01*
X11135210Y-16015874D01*
X11125686Y-16034922D01*
X11316162Y-15939684D02*
X11325686Y-15930160D01*
X11344733Y-15920636D01*
X11392352Y-15920636D01*
X11411400Y-15930160D01*
X11420924Y-15939684D01*
X11430448Y-15958731D01*
X11430448Y-15977779D01*
X11420924Y-16006350D01*
X11306638Y-16120636D01*
X11430448Y-16120636D01*
X11516162Y-16120636D02*
X11516162Y-15987303D01*
X11516162Y-16006350D02*
X11525686Y-15996827D01*
X11544733Y-15987303D01*
X11573305Y-15987303D01*
X11592352Y-15996827D01*
X11601876Y-16015874D01*
X11601876Y-16120636D01*
X11601876Y-16015874D02*
X11611400Y-15996827D01*
X11630448Y-15987303D01*
X11659019Y-15987303D01*
X11678067Y-15996827D01*
X11687590Y-16015874D01*
X11687590Y-16120636D01*
X11782828Y-16120636D02*
X11782828Y-15987303D01*
X11782828Y-16006350D02*
X11792352Y-15996827D01*
X11811400Y-15987303D01*
X11839971Y-15987303D01*
X11859019Y-15996827D01*
X11868543Y-16015874D01*
X11868543Y-16120636D01*
X11868543Y-16015874D02*
X11878067Y-15996827D01*
X11897114Y-15987303D01*
X11925686Y-15987303D01*
X11944733Y-15996827D01*
X11954257Y-16015874D01*
X11954257Y-16120636D01*
X12344733Y-15911112D02*
X12173305Y-16168255D01*
X12601876Y-15920636D02*
X12620924Y-15920636D01*
X12639971Y-15930160D01*
X12649495Y-15939684D01*
X12659019Y-15958731D01*
X12668543Y-15996827D01*
X12668543Y-16044446D01*
X12659019Y-16082541D01*
X12649495Y-16101588D01*
X12639971Y-16111112D01*
X12620924Y-16120636D01*
X12601876Y-16120636D01*
X12582828Y-16111112D01*
X12573305Y-16101588D01*
X12563781Y-16082541D01*
X12554257Y-16044446D01*
X12554257Y-15996827D01*
X12563781Y-15958731D01*
X12573305Y-15939684D01*
X12582828Y-15930160D01*
X12601876Y-15920636D01*
X12754257Y-16101588D02*
X12763781Y-16111112D01*
X12754257Y-16120636D01*
X12744733Y-16111112D01*
X12754257Y-16101588D01*
X12754257Y-16120636D01*
X12887590Y-15920636D02*
X12906638Y-15920636D01*
X12925686Y-15930160D01*
X12935209Y-15939684D01*
X12944733Y-15958731D01*
X12954257Y-15996827D01*
X12954257Y-16044446D01*
X12944733Y-16082541D01*
X12935209Y-16101588D01*
X12925686Y-16111112D01*
X12906638Y-16120636D01*
X12887590Y-16120636D01*
X12868543Y-16111112D01*
X12859019Y-16101588D01*
X12849495Y-16082541D01*
X12839971Y-16044446D01*
X12839971Y-15996827D01*
X12849495Y-15958731D01*
X12859019Y-15939684D01*
X12868543Y-15930160D01*
X12887590Y-15920636D01*
X13020924Y-15920636D02*
X13144733Y-15920636D01*
X13078067Y-15996827D01*
X13106638Y-15996827D01*
X13125686Y-16006350D01*
X13135209Y-16015874D01*
X13144733Y-16034922D01*
X13144733Y-16082541D01*
X13135209Y-16101588D01*
X13125686Y-16111112D01*
X13106638Y-16120636D01*
X13049495Y-16120636D01*
X13030448Y-16111112D01*
X13020924Y-16101588D01*
X13268543Y-15920636D02*
X13287590Y-15920636D01*
X13306638Y-15930160D01*
X13316162Y-15939684D01*
X13325686Y-15958731D01*
X13335209Y-15996827D01*
X13335209Y-16044446D01*
X13325686Y-16082541D01*
X13316162Y-16101588D01*
X13306638Y-16111112D01*
X13287590Y-16120636D01*
X13268543Y-16120636D01*
X13249495Y-16111112D01*
X13239971Y-16101588D01*
X13230448Y-16082541D01*
X13220924Y-16044446D01*
X13220924Y-15996827D01*
X13230448Y-15958731D01*
X13239971Y-15939684D01*
X13249495Y-15930160D01*
X13268543Y-15920636D01*
X13459019Y-15920636D02*
X13478067Y-15920636D01*
X13497114Y-15930160D01*
X13506638Y-15939684D01*
X13516162Y-15958731D01*
X13525686Y-15996827D01*
X13525686Y-16044446D01*
X13516162Y-16082541D01*
X13506638Y-16101588D01*
X13497114Y-16111112D01*
X13478067Y-16120636D01*
X13459019Y-16120636D01*
X13439971Y-16111112D01*
X13430448Y-16101588D01*
X13420924Y-16082541D01*
X13411400Y-16044446D01*
X13411400Y-15996827D01*
X13420924Y-15958731D01*
X13430448Y-15939684D01*
X13439971Y-15930160D01*
X13459019Y-15920636D01*
X13601876Y-15920636D02*
X13601876Y-15958731D01*
X13678067Y-15920636D02*
X13678067Y-15958731D01*
X13973305Y-16196827D02*
X13963781Y-16187303D01*
X13944733Y-16158731D01*
X13935209Y-16139684D01*
X13925686Y-16111112D01*
X13916162Y-16063493D01*
X13916162Y-16025398D01*
X13925686Y-15977779D01*
X13935209Y-15949208D01*
X13944733Y-15930160D01*
X13963781Y-15901588D01*
X13973305Y-15892065D01*
X14078067Y-16006350D02*
X14059019Y-15996827D01*
X14049495Y-15987303D01*
X14039971Y-15968255D01*
X14039971Y-15958731D01*
X14049495Y-15939684D01*
X14059019Y-15930160D01*
X14078067Y-15920636D01*
X14116162Y-15920636D01*
X14135209Y-15930160D01*
X14144733Y-15939684D01*
X14154257Y-15958731D01*
X14154257Y-15968255D01*
X14144733Y-15987303D01*
X14135209Y-15996827D01*
X14116162Y-16006350D01*
X14078067Y-16006350D01*
X14059019Y-16015874D01*
X14049495Y-16025398D01*
X14039971Y-16044446D01*
X14039971Y-16082541D01*
X14049495Y-16101588D01*
X14059019Y-16111112D01*
X14078067Y-16120636D01*
X14116162Y-16120636D01*
X14135209Y-16111112D01*
X14144733Y-16101588D01*
X14154257Y-16082541D01*
X14154257Y-16044446D01*
X14144733Y-16025398D01*
X14135209Y-16015874D01*
X14116162Y-16006350D01*
X14278067Y-15920636D02*
X14297114Y-15920636D01*
X14316162Y-15930160D01*
X14325686Y-15939684D01*
X14335209Y-15958731D01*
X14344733Y-15996827D01*
X14344733Y-16044446D01*
X14335209Y-16082541D01*
X14325686Y-16101588D01*
X14316162Y-16111112D01*
X14297114Y-16120636D01*
X14278067Y-16120636D01*
X14259019Y-16111112D01*
X14249495Y-16101588D01*
X14239971Y-16082541D01*
X14230448Y-16044446D01*
X14230448Y-15996827D01*
X14239971Y-15958731D01*
X14249495Y-15939684D01*
X14259019Y-15930160D01*
X14278067Y-15920636D01*
X14582828Y-16120636D02*
X14582828Y-15920636D01*
X14668543Y-16120636D02*
X14668543Y-16015874D01*
X14659019Y-15996827D01*
X14639971Y-15987303D01*
X14611400Y-15987303D01*
X14592352Y-15996827D01*
X14582828Y-16006350D01*
X14792352Y-16120636D02*
X14773305Y-16111112D01*
X14763781Y-16101588D01*
X14754257Y-16082541D01*
X14754257Y-16025398D01*
X14763781Y-16006350D01*
X14773305Y-15996827D01*
X14792352Y-15987303D01*
X14820924Y-15987303D01*
X14839971Y-15996827D01*
X14849495Y-16006350D01*
X14859019Y-16025398D01*
X14859019Y-16082541D01*
X14849495Y-16101588D01*
X14839971Y-16111112D01*
X14820924Y-16120636D01*
X14792352Y-16120636D01*
X14973305Y-16120636D02*
X14954257Y-16111112D01*
X14944733Y-16092065D01*
X14944733Y-15920636D01*
X15125686Y-16111112D02*
X15106638Y-16120636D01*
X15068543Y-16120636D01*
X15049495Y-16111112D01*
X15039971Y-16092065D01*
X15039971Y-16015874D01*
X15049495Y-15996827D01*
X15068543Y-15987303D01*
X15106638Y-15987303D01*
X15125686Y-15996827D01*
X15135209Y-16015874D01*
X15135209Y-16034922D01*
X15039971Y-16053969D01*
X15211400Y-16111112D02*
X15230448Y-16120636D01*
X15268543Y-16120636D01*
X15287590Y-16111112D01*
X15297114Y-16092065D01*
X15297114Y-16082541D01*
X15287590Y-16063493D01*
X15268543Y-16053969D01*
X15239971Y-16053969D01*
X15220924Y-16044446D01*
X15211400Y-16025398D01*
X15211400Y-16015874D01*
X15220924Y-15996827D01*
X15239971Y-15987303D01*
X15268543Y-15987303D01*
X15287590Y-15996827D01*
X15363781Y-16196827D02*
X15373305Y-16187303D01*
X15392352Y-16158731D01*
X15401876Y-16139684D01*
X15411400Y-16111112D01*
X15420924Y-16063493D01*
X15420924Y-16025398D01*
X15411400Y-15977779D01*
X15401876Y-15949208D01*
X15392352Y-15930160D01*
X15373305Y-15901588D01*
X15363781Y-15892065D01*
D10*
X10351400Y-16244160D02*
X10351400Y-16344160D01*
X10301400Y-16294160D02*
X10401400Y-16294160D01*
D11*
X10763781Y-16384636D02*
X10649495Y-16384636D01*
X10706638Y-16384636D02*
X10706638Y-16184636D01*
X10687590Y-16213208D01*
X10668543Y-16232255D01*
X10649495Y-16241779D01*
X10849495Y-16365588D02*
X10859019Y-16375112D01*
X10849495Y-16384636D01*
X10839971Y-16375112D01*
X10849495Y-16365588D01*
X10849495Y-16384636D01*
X10982829Y-16184636D02*
X11001876Y-16184636D01*
X11020924Y-16194160D01*
X11030448Y-16203684D01*
X11039971Y-16222731D01*
X11049495Y-16260827D01*
X11049495Y-16308446D01*
X11039971Y-16346541D01*
X11030448Y-16365588D01*
X11020924Y-16375112D01*
X11001876Y-16384636D01*
X10982829Y-16384636D01*
X10963781Y-16375112D01*
X10954257Y-16365588D01*
X10944733Y-16346541D01*
X10935210Y-16308446D01*
X10935210Y-16260827D01*
X10944733Y-16222731D01*
X10954257Y-16203684D01*
X10963781Y-16194160D01*
X10982829Y-16184636D01*
X11173305Y-16184636D02*
X11192352Y-16184636D01*
X11211400Y-16194160D01*
X11220924Y-16203684D01*
X11230448Y-16222731D01*
X11239971Y-16260827D01*
X11239971Y-16308446D01*
X11230448Y-16346541D01*
X11220924Y-16365588D01*
X11211400Y-16375112D01*
X11192352Y-16384636D01*
X11173305Y-16384636D01*
X11154257Y-16375112D01*
X11144733Y-16365588D01*
X11135210Y-16346541D01*
X11125686Y-16308446D01*
X11125686Y-16260827D01*
X11135210Y-16222731D01*
X11144733Y-16203684D01*
X11154257Y-16194160D01*
X11173305Y-16184636D01*
X11363781Y-16184636D02*
X11382828Y-16184636D01*
X11401876Y-16194160D01*
X11411400Y-16203684D01*
X11420924Y-16222731D01*
X11430448Y-16260827D01*
X11430448Y-16308446D01*
X11420924Y-16346541D01*
X11411400Y-16365588D01*
X11401876Y-16375112D01*
X11382828Y-16384636D01*
X11363781Y-16384636D01*
X11344733Y-16375112D01*
X11335209Y-16365588D01*
X11325686Y-16346541D01*
X11316162Y-16308446D01*
X11316162Y-16260827D01*
X11325686Y-16222731D01*
X11335209Y-16203684D01*
X11344733Y-16194160D01*
X11363781Y-16184636D01*
X11516162Y-16384636D02*
X11516162Y-16251303D01*
X11516162Y-16270350D02*
X11525686Y-16260827D01*
X11544733Y-16251303D01*
X11573305Y-16251303D01*
X11592352Y-16260827D01*
X11601876Y-16279874D01*
X11601876Y-16384636D01*
X11601876Y-16279874D02*
X11611400Y-16260827D01*
X11630448Y-16251303D01*
X11659019Y-16251303D01*
X11678067Y-16260827D01*
X11687590Y-16279874D01*
X11687590Y-16384636D01*
X11782828Y-16384636D02*
X11782828Y-16251303D01*
X11782828Y-16270350D02*
X11792352Y-16260827D01*
X11811400Y-16251303D01*
X11839971Y-16251303D01*
X11859019Y-16260827D01*
X11868543Y-16279874D01*
X11868543Y-16384636D01*
X11868543Y-16279874D02*
X11878067Y-16260827D01*
X11897114Y-16251303D01*
X11925686Y-16251303D01*
X11944733Y-16260827D01*
X11954257Y-16279874D01*
X11954257Y-16384636D01*
X12344733Y-16175112D02*
X12173305Y-16432255D01*
X12601876Y-16184636D02*
X12620924Y-16184636D01*
X12639971Y-16194160D01*
X12649495Y-16203684D01*
X12659019Y-16222731D01*
X12668543Y-16260827D01*
X12668543Y-16308446D01*
X12659019Y-16346541D01*
X12649495Y-16365588D01*
X12639971Y-16375112D01*
X12620924Y-16384636D01*
X12601876Y-16384636D01*
X12582828Y-16375112D01*
X12573305Y-16365588D01*
X12563781Y-16346541D01*
X12554257Y-16308446D01*
X12554257Y-16260827D01*
X12563781Y-16222731D01*
X12573305Y-16203684D01*
X12582828Y-16194160D01*
X12601876Y-16184636D01*
X12754257Y-16365588D02*
X12763781Y-16375112D01*
X12754257Y-16384636D01*
X12744733Y-16375112D01*
X12754257Y-16365588D01*
X12754257Y-16384636D01*
X12887590Y-16184636D02*
X12906638Y-16184636D01*
X12925686Y-16194160D01*
X12935209Y-16203684D01*
X12944733Y-16222731D01*
X12954257Y-16260827D01*
X12954257Y-16308446D01*
X12944733Y-16346541D01*
X12935209Y-16365588D01*
X12925686Y-16375112D01*
X12906638Y-16384636D01*
X12887590Y-16384636D01*
X12868543Y-16375112D01*
X12859019Y-16365588D01*
X12849495Y-16346541D01*
X12839971Y-16308446D01*
X12839971Y-16260827D01*
X12849495Y-16222731D01*
X12859019Y-16203684D01*
X12868543Y-16194160D01*
X12887590Y-16184636D01*
X13020924Y-16184636D02*
X13144733Y-16184636D01*
X13078067Y-16260827D01*
X13106638Y-16260827D01*
X13125686Y-16270350D01*
X13135209Y-16279874D01*
X13144733Y-16298922D01*
X13144733Y-16346541D01*
X13135209Y-16365588D01*
X13125686Y-16375112D01*
X13106638Y-16384636D01*
X13049495Y-16384636D01*
X13030448Y-16375112D01*
X13020924Y-16365588D01*
X13239971Y-16384636D02*
X13278067Y-16384636D01*
X13297114Y-16375112D01*
X13306638Y-16365588D01*
X13325686Y-16337017D01*
X13335209Y-16298922D01*
X13335209Y-16222731D01*
X13325686Y-16203684D01*
X13316162Y-16194160D01*
X13297114Y-16184636D01*
X13259019Y-16184636D01*
X13239971Y-16194160D01*
X13230448Y-16203684D01*
X13220924Y-16222731D01*
X13220924Y-16270350D01*
X13230448Y-16289398D01*
X13239971Y-16298922D01*
X13259019Y-16308446D01*
X13297114Y-16308446D01*
X13316162Y-16298922D01*
X13325686Y-16289398D01*
X13335209Y-16270350D01*
X13506638Y-16251303D02*
X13506638Y-16384636D01*
X13459019Y-16175112D02*
X13411400Y-16317969D01*
X13535209Y-16317969D01*
X13601876Y-16184636D02*
X13601876Y-16222731D01*
X13678067Y-16184636D02*
X13678067Y-16222731D01*
X13973305Y-16460827D02*
X13963781Y-16451303D01*
X13944733Y-16422731D01*
X13935209Y-16403684D01*
X13925686Y-16375112D01*
X13916162Y-16327493D01*
X13916162Y-16289398D01*
X13925686Y-16241779D01*
X13935209Y-16213208D01*
X13944733Y-16194160D01*
X13963781Y-16165588D01*
X13973305Y-16156065D01*
X14154257Y-16384636D02*
X14039971Y-16384636D01*
X14097114Y-16384636D02*
X14097114Y-16184636D01*
X14078067Y-16213208D01*
X14059019Y-16232255D01*
X14039971Y-16241779D01*
X14278067Y-16184636D02*
X14297114Y-16184636D01*
X14316162Y-16194160D01*
X14325686Y-16203684D01*
X14335209Y-16222731D01*
X14344733Y-16260827D01*
X14344733Y-16308446D01*
X14335209Y-16346541D01*
X14325686Y-16365588D01*
X14316162Y-16375112D01*
X14297114Y-16384636D01*
X14278067Y-16384636D01*
X14259019Y-16375112D01*
X14249495Y-16365588D01*
X14239971Y-16346541D01*
X14230448Y-16308446D01*
X14230448Y-16260827D01*
X14239971Y-16222731D01*
X14249495Y-16203684D01*
X14259019Y-16194160D01*
X14278067Y-16184636D01*
X14516162Y-16251303D02*
X14516162Y-16384636D01*
X14468543Y-16175112D02*
X14420924Y-16317969D01*
X14544733Y-16317969D01*
X14773305Y-16384636D02*
X14773305Y-16184636D01*
X14859019Y-16384636D02*
X14859019Y-16279874D01*
X14849495Y-16260827D01*
X14830448Y-16251303D01*
X14801876Y-16251303D01*
X14782828Y-16260827D01*
X14773305Y-16270350D01*
X14982828Y-16384636D02*
X14963781Y-16375112D01*
X14954257Y-16365588D01*
X14944733Y-16346541D01*
X14944733Y-16289398D01*
X14954257Y-16270350D01*
X14963781Y-16260827D01*
X14982828Y-16251303D01*
X15011400Y-16251303D01*
X15030448Y-16260827D01*
X15039971Y-16270350D01*
X15049495Y-16289398D01*
X15049495Y-16346541D01*
X15039971Y-16365588D01*
X15030448Y-16375112D01*
X15011400Y-16384636D01*
X14982828Y-16384636D01*
X15163781Y-16384636D02*
X15144733Y-16375112D01*
X15135209Y-16356065D01*
X15135209Y-16184636D01*
X15316162Y-16375112D02*
X15297114Y-16384636D01*
X15259019Y-16384636D01*
X15239971Y-16375112D01*
X15230448Y-16356065D01*
X15230448Y-16279874D01*
X15239971Y-16260827D01*
X15259019Y-16251303D01*
X15297114Y-16251303D01*
X15316162Y-16260827D01*
X15325686Y-16279874D01*
X15325686Y-16298922D01*
X15230448Y-16317969D01*
X15401876Y-16375112D02*
X15420924Y-16384636D01*
X15459019Y-16384636D01*
X15478067Y-16375112D01*
X15487590Y-16356065D01*
X15487590Y-16346541D01*
X15478067Y-16327493D01*
X15459019Y-16317969D01*
X15430448Y-16317969D01*
X15411400Y-16308446D01*
X15401876Y-16289398D01*
X15401876Y-16279874D01*
X15411400Y-16260827D01*
X15430448Y-16251303D01*
X15459019Y-16251303D01*
X15478067Y-16260827D01*
X15554257Y-16460827D02*
X15563781Y-16451303D01*
X15582828Y-16422731D01*
X15592352Y-16403684D01*
X15601876Y-16375112D01*
X15611400Y-16327493D01*
X15611400Y-16289398D01*
X15601876Y-16241779D01*
X15592352Y-16213208D01*
X15582828Y-16194160D01*
X15563781Y-16165588D01*
X15554257Y-16156065D01*
D14*
X10386024Y-16595283D02*
X10386024Y-16521036D01*
X10311777Y-16521036D01*
X10311777Y-16595283D01*
X10386024Y-16595283D01*
D11*
X10763781Y-16648636D02*
X10649495Y-16648636D01*
X10706638Y-16648636D02*
X10706638Y-16448636D01*
X10687590Y-16477208D01*
X10668543Y-16496255D01*
X10649495Y-16505779D01*
X10849495Y-16629588D02*
X10859019Y-16639112D01*
X10849495Y-16648636D01*
X10839971Y-16639112D01*
X10849495Y-16629588D01*
X10849495Y-16648636D01*
X10982829Y-16448636D02*
X11001876Y-16448636D01*
X11020924Y-16458160D01*
X11030448Y-16467684D01*
X11039971Y-16486731D01*
X11049495Y-16524827D01*
X11049495Y-16572446D01*
X11039971Y-16610541D01*
X11030448Y-16629588D01*
X11020924Y-16639112D01*
X11001876Y-16648636D01*
X10982829Y-16648636D01*
X10963781Y-16639112D01*
X10954257Y-16629588D01*
X10944733Y-16610541D01*
X10935210Y-16572446D01*
X10935210Y-16524827D01*
X10944733Y-16486731D01*
X10954257Y-16467684D01*
X10963781Y-16458160D01*
X10982829Y-16448636D01*
X11230448Y-16448636D02*
X11135210Y-16448636D01*
X11125686Y-16543874D01*
X11135210Y-16534350D01*
X11154257Y-16524827D01*
X11201876Y-16524827D01*
X11220924Y-16534350D01*
X11230448Y-16543874D01*
X11239971Y-16562922D01*
X11239971Y-16610541D01*
X11230448Y-16629588D01*
X11220924Y-16639112D01*
X11201876Y-16648636D01*
X11154257Y-16648636D01*
X11135210Y-16639112D01*
X11125686Y-16629588D01*
X11363781Y-16448636D02*
X11382828Y-16448636D01*
X11401876Y-16458160D01*
X11411400Y-16467684D01*
X11420924Y-16486731D01*
X11430448Y-16524827D01*
X11430448Y-16572446D01*
X11420924Y-16610541D01*
X11411400Y-16629588D01*
X11401876Y-16639112D01*
X11382828Y-16648636D01*
X11363781Y-16648636D01*
X11344733Y-16639112D01*
X11335209Y-16629588D01*
X11325686Y-16610541D01*
X11316162Y-16572446D01*
X11316162Y-16524827D01*
X11325686Y-16486731D01*
X11335209Y-16467684D01*
X11344733Y-16458160D01*
X11363781Y-16448636D01*
X11516162Y-16648636D02*
X11516162Y-16515303D01*
X11516162Y-16534350D02*
X11525686Y-16524827D01*
X11544733Y-16515303D01*
X11573305Y-16515303D01*
X11592352Y-16524827D01*
X11601876Y-16543874D01*
X11601876Y-16648636D01*
X11601876Y-16543874D02*
X11611400Y-16524827D01*
X11630448Y-16515303D01*
X11659019Y-16515303D01*
X11678067Y-16524827D01*
X11687590Y-16543874D01*
X11687590Y-16648636D01*
X11782828Y-16648636D02*
X11782828Y-16515303D01*
X11782828Y-16534350D02*
X11792352Y-16524827D01*
X11811400Y-16515303D01*
X11839971Y-16515303D01*
X11859019Y-16524827D01*
X11868543Y-16543874D01*
X11868543Y-16648636D01*
X11868543Y-16543874D02*
X11878067Y-16524827D01*
X11897114Y-16515303D01*
X11925686Y-16515303D01*
X11944733Y-16524827D01*
X11954257Y-16543874D01*
X11954257Y-16648636D01*
X12344733Y-16439112D02*
X12173305Y-16696255D01*
X12601876Y-16448636D02*
X12620924Y-16448636D01*
X12639971Y-16458160D01*
X12649495Y-16467684D01*
X12659019Y-16486731D01*
X12668543Y-16524827D01*
X12668543Y-16572446D01*
X12659019Y-16610541D01*
X12649495Y-16629588D01*
X12639971Y-16639112D01*
X12620924Y-16648636D01*
X12601876Y-16648636D01*
X12582828Y-16639112D01*
X12573305Y-16629588D01*
X12563781Y-16610541D01*
X12554257Y-16572446D01*
X12554257Y-16524827D01*
X12563781Y-16486731D01*
X12573305Y-16467684D01*
X12582828Y-16458160D01*
X12601876Y-16448636D01*
X12754257Y-16629588D02*
X12763781Y-16639112D01*
X12754257Y-16648636D01*
X12744733Y-16639112D01*
X12754257Y-16629588D01*
X12754257Y-16648636D01*
X12887590Y-16448636D02*
X12906638Y-16448636D01*
X12925686Y-16458160D01*
X12935209Y-16467684D01*
X12944733Y-16486731D01*
X12954257Y-16524827D01*
X12954257Y-16572446D01*
X12944733Y-16610541D01*
X12935209Y-16629588D01*
X12925686Y-16639112D01*
X12906638Y-16648636D01*
X12887590Y-16648636D01*
X12868543Y-16639112D01*
X12859019Y-16629588D01*
X12849495Y-16610541D01*
X12839971Y-16572446D01*
X12839971Y-16524827D01*
X12849495Y-16486731D01*
X12859019Y-16467684D01*
X12868543Y-16458160D01*
X12887590Y-16448636D01*
X13125686Y-16515303D02*
X13125686Y-16648636D01*
X13078067Y-16439112D02*
X13030448Y-16581969D01*
X13154257Y-16581969D01*
X13335209Y-16648636D02*
X13220924Y-16648636D01*
X13278067Y-16648636D02*
X13278067Y-16448636D01*
X13259019Y-16477208D01*
X13239971Y-16496255D01*
X13220924Y-16505779D01*
X13401876Y-16448636D02*
X13525686Y-16448636D01*
X13459019Y-16524827D01*
X13487590Y-16524827D01*
X13506638Y-16534350D01*
X13516162Y-16543874D01*
X13525686Y-16562922D01*
X13525686Y-16610541D01*
X13516162Y-16629588D01*
X13506638Y-16639112D01*
X13487590Y-16648636D01*
X13430448Y-16648636D01*
X13411400Y-16639112D01*
X13401876Y-16629588D01*
X13601876Y-16448636D02*
X13601876Y-16486731D01*
X13678067Y-16448636D02*
X13678067Y-16486731D01*
X13973305Y-16724827D02*
X13963781Y-16715303D01*
X13944733Y-16686731D01*
X13935209Y-16667684D01*
X13925686Y-16639112D01*
X13916162Y-16591493D01*
X13916162Y-16553398D01*
X13925686Y-16505779D01*
X13935209Y-16477208D01*
X13944733Y-16458160D01*
X13963781Y-16429588D01*
X13973305Y-16420065D01*
X14030448Y-16448636D02*
X14154257Y-16448636D01*
X14087590Y-16524827D01*
X14116162Y-16524827D01*
X14135209Y-16534350D01*
X14144733Y-16543874D01*
X14154257Y-16562922D01*
X14154257Y-16610541D01*
X14144733Y-16629588D01*
X14135209Y-16639112D01*
X14116162Y-16648636D01*
X14059019Y-16648636D01*
X14039971Y-16639112D01*
X14030448Y-16629588D01*
X14392352Y-16648636D02*
X14392352Y-16448636D01*
X14478067Y-16648636D02*
X14478067Y-16543874D01*
X14468543Y-16524827D01*
X14449495Y-16515303D01*
X14420924Y-16515303D01*
X14401876Y-16524827D01*
X14392352Y-16534350D01*
X14601876Y-16648636D02*
X14582828Y-16639112D01*
X14573305Y-16629588D01*
X14563781Y-16610541D01*
X14563781Y-16553398D01*
X14573305Y-16534350D01*
X14582828Y-16524827D01*
X14601876Y-16515303D01*
X14630448Y-16515303D01*
X14649495Y-16524827D01*
X14659019Y-16534350D01*
X14668543Y-16553398D01*
X14668543Y-16610541D01*
X14659019Y-16629588D01*
X14649495Y-16639112D01*
X14630448Y-16648636D01*
X14601876Y-16648636D01*
X14782828Y-16648636D02*
X14763781Y-16639112D01*
X14754257Y-16620065D01*
X14754257Y-16448636D01*
X14935209Y-16639112D02*
X14916162Y-16648636D01*
X14878067Y-16648636D01*
X14859019Y-16639112D01*
X14849495Y-16620065D01*
X14849495Y-16543874D01*
X14859019Y-16524827D01*
X14878067Y-16515303D01*
X14916162Y-16515303D01*
X14935209Y-16524827D01*
X14944733Y-16543874D01*
X14944733Y-16562922D01*
X14849495Y-16581969D01*
X15020924Y-16639112D02*
X15039971Y-16648636D01*
X15078067Y-16648636D01*
X15097114Y-16639112D01*
X15106638Y-16620065D01*
X15106638Y-16610541D01*
X15097114Y-16591493D01*
X15078067Y-16581969D01*
X15049495Y-16581969D01*
X15030448Y-16572446D01*
X15020924Y-16553398D01*
X15020924Y-16543874D01*
X15030448Y-16524827D01*
X15049495Y-16515303D01*
X15078067Y-16515303D01*
X15097114Y-16524827D01*
X15173305Y-16724827D02*
X15182828Y-16715303D01*
X15201876Y-16686731D01*
X15211400Y-16667684D01*
X15220924Y-16639112D01*
X15230448Y-16591493D01*
X15230448Y-16553398D01*
X15220924Y-16505779D01*
X15211400Y-16477208D01*
X15201876Y-16458160D01*
X15182828Y-16429588D01*
X15173305Y-16420065D01*
D15*
X10346400Y-16877160D02*
X10401400Y-16822160D01*
X10346400Y-16767160D01*
X10291400Y-16822160D01*
X10346400Y-16877160D01*
D11*
X10763781Y-16912636D02*
X10649495Y-16912636D01*
X10706638Y-16912636D02*
X10706638Y-16712636D01*
X10687590Y-16741208D01*
X10668543Y-16760255D01*
X10649495Y-16769779D01*
X10849495Y-16893589D02*
X10859019Y-16903112D01*
X10849495Y-16912636D01*
X10839971Y-16903112D01*
X10849495Y-16893589D01*
X10849495Y-16912636D01*
X11049495Y-16912636D02*
X10935210Y-16912636D01*
X10992352Y-16912636D02*
X10992352Y-16712636D01*
X10973305Y-16741208D01*
X10954257Y-16760255D01*
X10935210Y-16769779D01*
X11173305Y-16712636D02*
X11192352Y-16712636D01*
X11211400Y-16722160D01*
X11220924Y-16731684D01*
X11230448Y-16750731D01*
X11239971Y-16788827D01*
X11239971Y-16836446D01*
X11230448Y-16874541D01*
X11220924Y-16893589D01*
X11211400Y-16903112D01*
X11192352Y-16912636D01*
X11173305Y-16912636D01*
X11154257Y-16903112D01*
X11144733Y-16893589D01*
X11135210Y-16874541D01*
X11125686Y-16836446D01*
X11125686Y-16788827D01*
X11135210Y-16750731D01*
X11144733Y-16731684D01*
X11154257Y-16722160D01*
X11173305Y-16712636D01*
X11363781Y-16712636D02*
X11382828Y-16712636D01*
X11401876Y-16722160D01*
X11411400Y-16731684D01*
X11420924Y-16750731D01*
X11430448Y-16788827D01*
X11430448Y-16836446D01*
X11420924Y-16874541D01*
X11411400Y-16893589D01*
X11401876Y-16903112D01*
X11382828Y-16912636D01*
X11363781Y-16912636D01*
X11344733Y-16903112D01*
X11335209Y-16893589D01*
X11325686Y-16874541D01*
X11316162Y-16836446D01*
X11316162Y-16788827D01*
X11325686Y-16750731D01*
X11335209Y-16731684D01*
X11344733Y-16722160D01*
X11363781Y-16712636D01*
X11516162Y-16912636D02*
X11516162Y-16779303D01*
X11516162Y-16798350D02*
X11525686Y-16788827D01*
X11544733Y-16779303D01*
X11573305Y-16779303D01*
X11592352Y-16788827D01*
X11601876Y-16807874D01*
X11601876Y-16912636D01*
X11601876Y-16807874D02*
X11611400Y-16788827D01*
X11630448Y-16779303D01*
X11659019Y-16779303D01*
X11678067Y-16788827D01*
X11687590Y-16807874D01*
X11687590Y-16912636D01*
X11782828Y-16912636D02*
X11782828Y-16779303D01*
X11782828Y-16798350D02*
X11792352Y-16788827D01*
X11811400Y-16779303D01*
X11839971Y-16779303D01*
X11859019Y-16788827D01*
X11868543Y-16807874D01*
X11868543Y-16912636D01*
X11868543Y-16807874D02*
X11878067Y-16788827D01*
X11897114Y-16779303D01*
X11925686Y-16779303D01*
X11944733Y-16788827D01*
X11954257Y-16807874D01*
X11954257Y-16912636D01*
X12344733Y-16703112D02*
X12173305Y-16960255D01*
X12601876Y-16712636D02*
X12620924Y-16712636D01*
X12639971Y-16722160D01*
X12649495Y-16731684D01*
X12659019Y-16750731D01*
X12668543Y-16788827D01*
X12668543Y-16836446D01*
X12659019Y-16874541D01*
X12649495Y-16893589D01*
X12639971Y-16903112D01*
X12620924Y-16912636D01*
X12601876Y-16912636D01*
X12582828Y-16903112D01*
X12573305Y-16893589D01*
X12563781Y-16874541D01*
X12554257Y-16836446D01*
X12554257Y-16788827D01*
X12563781Y-16750731D01*
X12573305Y-16731684D01*
X12582828Y-16722160D01*
X12601876Y-16712636D01*
X12754257Y-16893589D02*
X12763781Y-16903112D01*
X12754257Y-16912636D01*
X12744733Y-16903112D01*
X12754257Y-16893589D01*
X12754257Y-16912636D01*
X12887590Y-16712636D02*
X12906638Y-16712636D01*
X12925686Y-16722160D01*
X12935209Y-16731684D01*
X12944733Y-16750731D01*
X12954257Y-16788827D01*
X12954257Y-16836446D01*
X12944733Y-16874541D01*
X12935209Y-16893589D01*
X12925686Y-16903112D01*
X12906638Y-16912636D01*
X12887590Y-16912636D01*
X12868543Y-16903112D01*
X12859019Y-16893589D01*
X12849495Y-16874541D01*
X12839971Y-16836446D01*
X12839971Y-16788827D01*
X12849495Y-16750731D01*
X12859019Y-16731684D01*
X12868543Y-16722160D01*
X12887590Y-16712636D01*
X13125686Y-16779303D02*
X13125686Y-16912636D01*
X13078067Y-16703112D02*
X13030448Y-16845970D01*
X13154257Y-16845970D01*
X13211400Y-16712636D02*
X13335209Y-16712636D01*
X13268543Y-16788827D01*
X13297114Y-16788827D01*
X13316162Y-16798350D01*
X13325686Y-16807874D01*
X13335209Y-16826922D01*
X13335209Y-16874541D01*
X13325686Y-16893589D01*
X13316162Y-16903112D01*
X13297114Y-16912636D01*
X13239971Y-16912636D01*
X13220924Y-16903112D01*
X13211400Y-16893589D01*
X13401876Y-16712636D02*
X13525686Y-16712636D01*
X13459019Y-16788827D01*
X13487590Y-16788827D01*
X13506638Y-16798350D01*
X13516162Y-16807874D01*
X13525686Y-16826922D01*
X13525686Y-16874541D01*
X13516162Y-16893589D01*
X13506638Y-16903112D01*
X13487590Y-16912636D01*
X13430448Y-16912636D01*
X13411400Y-16903112D01*
X13401876Y-16893589D01*
X13601876Y-16712636D02*
X13601876Y-16750731D01*
X13678067Y-16712636D02*
X13678067Y-16750731D01*
X13973305Y-16988827D02*
X13963781Y-16979303D01*
X13944733Y-16950731D01*
X13935209Y-16931684D01*
X13925686Y-16903112D01*
X13916162Y-16855493D01*
X13916162Y-16817398D01*
X13925686Y-16769779D01*
X13935209Y-16741208D01*
X13944733Y-16722160D01*
X13963781Y-16693588D01*
X13973305Y-16684065D01*
X14135209Y-16712636D02*
X14097114Y-16712636D01*
X14078067Y-16722160D01*
X14068543Y-16731684D01*
X14049495Y-16760255D01*
X14039971Y-16798350D01*
X14039971Y-16874541D01*
X14049495Y-16893589D01*
X14059019Y-16903112D01*
X14078067Y-16912636D01*
X14116162Y-16912636D01*
X14135209Y-16903112D01*
X14144733Y-16893589D01*
X14154257Y-16874541D01*
X14154257Y-16826922D01*
X14144733Y-16807874D01*
X14135209Y-16798350D01*
X14116162Y-16788827D01*
X14078067Y-16788827D01*
X14059019Y-16798350D01*
X14049495Y-16807874D01*
X14039971Y-16826922D01*
X14392352Y-16912636D02*
X14392352Y-16712636D01*
X14478067Y-16912636D02*
X14478067Y-16807874D01*
X14468543Y-16788827D01*
X14449495Y-16779303D01*
X14420924Y-16779303D01*
X14401876Y-16788827D01*
X14392352Y-16798350D01*
X14601876Y-16912636D02*
X14582828Y-16903112D01*
X14573305Y-16893589D01*
X14563781Y-16874541D01*
X14563781Y-16817398D01*
X14573305Y-16798350D01*
X14582828Y-16788827D01*
X14601876Y-16779303D01*
X14630448Y-16779303D01*
X14649495Y-16788827D01*
X14659019Y-16798350D01*
X14668543Y-16817398D01*
X14668543Y-16874541D01*
X14659019Y-16893589D01*
X14649495Y-16903112D01*
X14630448Y-16912636D01*
X14601876Y-16912636D01*
X14782828Y-16912636D02*
X14763781Y-16903112D01*
X14754257Y-16884065D01*
X14754257Y-16712636D01*
X14935209Y-16903112D02*
X14916162Y-16912636D01*
X14878067Y-16912636D01*
X14859019Y-16903112D01*
X14849495Y-16884065D01*
X14849495Y-16807874D01*
X14859019Y-16788827D01*
X14878067Y-16779303D01*
X14916162Y-16779303D01*
X14935209Y-16788827D01*
X14944733Y-16807874D01*
X14944733Y-16826922D01*
X14849495Y-16845970D01*
X15020924Y-16903112D02*
X15039971Y-16912636D01*
X15078067Y-16912636D01*
X15097114Y-16903112D01*
X15106638Y-16884065D01*
X15106638Y-16874541D01*
X15097114Y-16855493D01*
X15078067Y-16845970D01*
X15049495Y-16845970D01*
X15030448Y-16836446D01*
X15020924Y-16817398D01*
X15020924Y-16807874D01*
X15030448Y-16788827D01*
X15049495Y-16779303D01*
X15078067Y-16779303D01*
X15097114Y-16788827D01*
X15173305Y-16988827D02*
X15182828Y-16979303D01*
X15201876Y-16950731D01*
X15211400Y-16931684D01*
X15220924Y-16903112D01*
X15230448Y-16855493D01*
X15230448Y-16817398D01*
X15220924Y-16769779D01*
X15211400Y-16741208D01*
X15201876Y-16722160D01*
X15182828Y-16693588D01*
X15173305Y-16684065D01*
X10201400Y-16986160D02*
X10401400Y-17186160D01*
X10401400Y-16986160D02*
X10201400Y-17186160D01*
X10401400Y-17086160D02*
G75*
G03*
X10401400Y-17086160I-100000J0D01*
G01*
X10649495Y-16995684D02*
X10659019Y-16986160D01*
X10678067Y-16976636D01*
X10725686Y-16976636D01*
X10744733Y-16986160D01*
X10754257Y-16995684D01*
X10763781Y-17014731D01*
X10763781Y-17033779D01*
X10754257Y-17062350D01*
X10639971Y-17176636D01*
X10763781Y-17176636D01*
X10849495Y-17157589D02*
X10859019Y-17167112D01*
X10849495Y-17176636D01*
X10839971Y-17167112D01*
X10849495Y-17157589D01*
X10849495Y-17176636D01*
X10935210Y-16995684D02*
X10944733Y-16986160D01*
X10963781Y-16976636D01*
X11011400Y-16976636D01*
X11030448Y-16986160D01*
X11039971Y-16995684D01*
X11049495Y-17014731D01*
X11049495Y-17033779D01*
X11039971Y-17062350D01*
X10925686Y-17176636D01*
X11049495Y-17176636D01*
X11173305Y-16976636D02*
X11192352Y-16976636D01*
X11211400Y-16986160D01*
X11220924Y-16995684D01*
X11230448Y-17014731D01*
X11239971Y-17052827D01*
X11239971Y-17100446D01*
X11230448Y-17138541D01*
X11220924Y-17157589D01*
X11211400Y-17167112D01*
X11192352Y-17176636D01*
X11173305Y-17176636D01*
X11154257Y-17167112D01*
X11144733Y-17157589D01*
X11135210Y-17138541D01*
X11125686Y-17100446D01*
X11125686Y-17052827D01*
X11135210Y-17014731D01*
X11144733Y-16995684D01*
X11154257Y-16986160D01*
X11173305Y-16976636D01*
X11363781Y-16976636D02*
X11382828Y-16976636D01*
X11401876Y-16986160D01*
X11411400Y-16995684D01*
X11420924Y-17014731D01*
X11430448Y-17052827D01*
X11430448Y-17100446D01*
X11420924Y-17138541D01*
X11411400Y-17157589D01*
X11401876Y-17167112D01*
X11382828Y-17176636D01*
X11363781Y-17176636D01*
X11344733Y-17167112D01*
X11335209Y-17157589D01*
X11325686Y-17138541D01*
X11316162Y-17100446D01*
X11316162Y-17052827D01*
X11325686Y-17014731D01*
X11335209Y-16995684D01*
X11344733Y-16986160D01*
X11363781Y-16976636D01*
X11516162Y-17176636D02*
X11516162Y-17043303D01*
X11516162Y-17062350D02*
X11525686Y-17052827D01*
X11544733Y-17043303D01*
X11573305Y-17043303D01*
X11592352Y-17052827D01*
X11601876Y-17071874D01*
X11601876Y-17176636D01*
X11601876Y-17071874D02*
X11611400Y-17052827D01*
X11630448Y-17043303D01*
X11659019Y-17043303D01*
X11678067Y-17052827D01*
X11687590Y-17071874D01*
X11687590Y-17176636D01*
X11782828Y-17176636D02*
X11782828Y-17043303D01*
X11782828Y-17062350D02*
X11792352Y-17052827D01*
X11811400Y-17043303D01*
X11839971Y-17043303D01*
X11859019Y-17052827D01*
X11868543Y-17071874D01*
X11868543Y-17176636D01*
X11868543Y-17071874D02*
X11878067Y-17052827D01*
X11897114Y-17043303D01*
X11925686Y-17043303D01*
X11944733Y-17052827D01*
X11954257Y-17071874D01*
X11954257Y-17176636D01*
X12344733Y-16967112D02*
X12173305Y-17224255D01*
X12601876Y-16976636D02*
X12620924Y-16976636D01*
X12639971Y-16986160D01*
X12649495Y-16995684D01*
X12659019Y-17014731D01*
X12668543Y-17052827D01*
X12668543Y-17100446D01*
X12659019Y-17138541D01*
X12649495Y-17157589D01*
X12639971Y-17167112D01*
X12620924Y-17176636D01*
X12601876Y-17176636D01*
X12582828Y-17167112D01*
X12573305Y-17157589D01*
X12563781Y-17138541D01*
X12554257Y-17100446D01*
X12554257Y-17052827D01*
X12563781Y-17014731D01*
X12573305Y-16995684D01*
X12582828Y-16986160D01*
X12601876Y-16976636D01*
X12754257Y-17157589D02*
X12763781Y-17167112D01*
X12754257Y-17176636D01*
X12744733Y-17167112D01*
X12754257Y-17157589D01*
X12754257Y-17176636D01*
X12887590Y-16976636D02*
X12906638Y-16976636D01*
X12925686Y-16986160D01*
X12935209Y-16995684D01*
X12944733Y-17014731D01*
X12954257Y-17052827D01*
X12954257Y-17100446D01*
X12944733Y-17138541D01*
X12935209Y-17157589D01*
X12925686Y-17167112D01*
X12906638Y-17176636D01*
X12887590Y-17176636D01*
X12868543Y-17167112D01*
X12859019Y-17157589D01*
X12849495Y-17138541D01*
X12839971Y-17100446D01*
X12839971Y-17052827D01*
X12849495Y-17014731D01*
X12859019Y-16995684D01*
X12868543Y-16986160D01*
X12887590Y-16976636D01*
X13068543Y-17062350D02*
X13049495Y-17052827D01*
X13039971Y-17043303D01*
X13030448Y-17024255D01*
X13030448Y-17014731D01*
X13039971Y-16995684D01*
X13049495Y-16986160D01*
X13068543Y-16976636D01*
X13106638Y-16976636D01*
X13125686Y-16986160D01*
X13135209Y-16995684D01*
X13144733Y-17014731D01*
X13144733Y-17024255D01*
X13135209Y-17043303D01*
X13125686Y-17052827D01*
X13106638Y-17062350D01*
X13068543Y-17062350D01*
X13049495Y-17071874D01*
X13039971Y-17081398D01*
X13030448Y-17100446D01*
X13030448Y-17138541D01*
X13039971Y-17157589D01*
X13049495Y-17167112D01*
X13068543Y-17176636D01*
X13106638Y-17176636D01*
X13125686Y-17167112D01*
X13135209Y-17157589D01*
X13144733Y-17138541D01*
X13144733Y-17100446D01*
X13135209Y-17081398D01*
X13125686Y-17071874D01*
X13106638Y-17062350D01*
X13316162Y-16976636D02*
X13278067Y-16976636D01*
X13259019Y-16986160D01*
X13249495Y-16995684D01*
X13230448Y-17024255D01*
X13220924Y-17062350D01*
X13220924Y-17138541D01*
X13230448Y-17157589D01*
X13239971Y-17167112D01*
X13259019Y-17176636D01*
X13297114Y-17176636D01*
X13316162Y-17167112D01*
X13325686Y-17157589D01*
X13335209Y-17138541D01*
X13335209Y-17090922D01*
X13325686Y-17071874D01*
X13316162Y-17062350D01*
X13297114Y-17052827D01*
X13259019Y-17052827D01*
X13239971Y-17062350D01*
X13230448Y-17071874D01*
X13220924Y-17090922D01*
X13506638Y-16976636D02*
X13468543Y-16976636D01*
X13449495Y-16986160D01*
X13439971Y-16995684D01*
X13420924Y-17024255D01*
X13411400Y-17062350D01*
X13411400Y-17138541D01*
X13420924Y-17157589D01*
X13430448Y-17167112D01*
X13449495Y-17176636D01*
X13487590Y-17176636D01*
X13506638Y-17167112D01*
X13516162Y-17157589D01*
X13525686Y-17138541D01*
X13525686Y-17090922D01*
X13516162Y-17071874D01*
X13506638Y-17062350D01*
X13487590Y-17052827D01*
X13449495Y-17052827D01*
X13430448Y-17062350D01*
X13420924Y-17071874D01*
X13411400Y-17090922D01*
X13601876Y-16976636D02*
X13601876Y-17014731D01*
X13678067Y-16976636D02*
X13678067Y-17014731D01*
X13973305Y-17252827D02*
X13963781Y-17243303D01*
X13944733Y-17214731D01*
X13935209Y-17195684D01*
X13925686Y-17167112D01*
X13916162Y-17119493D01*
X13916162Y-17081398D01*
X13925686Y-17033779D01*
X13935209Y-17005208D01*
X13944733Y-16986160D01*
X13963781Y-16957589D01*
X13973305Y-16948065D01*
X14135209Y-17043303D02*
X14135209Y-17176636D01*
X14087590Y-16967112D02*
X14039971Y-17109970D01*
X14163781Y-17109970D01*
X14392352Y-17176636D02*
X14392352Y-16976636D01*
X14478067Y-17176636D02*
X14478067Y-17071874D01*
X14468543Y-17052827D01*
X14449495Y-17043303D01*
X14420924Y-17043303D01*
X14401876Y-17052827D01*
X14392352Y-17062350D01*
X14601876Y-17176636D02*
X14582828Y-17167112D01*
X14573305Y-17157589D01*
X14563781Y-17138541D01*
X14563781Y-17081398D01*
X14573305Y-17062350D01*
X14582828Y-17052827D01*
X14601876Y-17043303D01*
X14630448Y-17043303D01*
X14649495Y-17052827D01*
X14659019Y-17062350D01*
X14668543Y-17081398D01*
X14668543Y-17138541D01*
X14659019Y-17157589D01*
X14649495Y-17167112D01*
X14630448Y-17176636D01*
X14601876Y-17176636D01*
X14782828Y-17176636D02*
X14763781Y-17167112D01*
X14754257Y-17148065D01*
X14754257Y-16976636D01*
X14935209Y-17167112D02*
X14916162Y-17176636D01*
X14878067Y-17176636D01*
X14859019Y-17167112D01*
X14849495Y-17148065D01*
X14849495Y-17071874D01*
X14859019Y-17052827D01*
X14878067Y-17043303D01*
X14916162Y-17043303D01*
X14935209Y-17052827D01*
X14944733Y-17071874D01*
X14944733Y-17090922D01*
X14849495Y-17109970D01*
X15020924Y-17167112D02*
X15039971Y-17176636D01*
X15078067Y-17176636D01*
X15097114Y-17167112D01*
X15106638Y-17148065D01*
X15106638Y-17138541D01*
X15097114Y-17119493D01*
X15078067Y-17109970D01*
X15049495Y-17109970D01*
X15030448Y-17100446D01*
X15020924Y-17081398D01*
X15020924Y-17071874D01*
X15030448Y-17052827D01*
X15049495Y-17043303D01*
X15078067Y-17043303D01*
X15097114Y-17052827D01*
X15173305Y-17252827D02*
X15182828Y-17243303D01*
X15201876Y-17214731D01*
X15211400Y-17195684D01*
X15220924Y-17167112D01*
X15230448Y-17119493D01*
X15230448Y-17081398D01*
X15220924Y-17033779D01*
X15211400Y-17005208D01*
X15201876Y-16986160D01*
X15182828Y-16957589D01*
X15173305Y-16948065D01*
M02*
